<svg width="13" height="11" viewBox="0 0 13 11" fill="none" xmlns="http://www.w3.org/2000/svg">
<path d="M0.730748 6.53854L0.710455 6.53402L9.40946 6.53402L6.67481 9.32604C6.5409 9.46235 6.46745 9.64701 6.46745 9.84081C6.46745 10.0346 6.5409 10.218 6.67481 10.3546L7.10032 10.7883C7.23413 10.9246 7.41243 11 7.60257 11C7.79281 11 7.97122 10.9252 8.10502 10.7889L12.7927 6.01375C12.9271 5.8769 13.0005 5.69462 13 5.5007C13.0005 5.30571 12.9271 5.12331 12.7927 4.98668L8.10502 0.211143C7.97122 0.0749389 7.79292 1.69526e-08 7.60257 0C7.41243 -1.69338e-08 7.23413 0.0750465 7.10032 0.211143L6.67481 0.644842C6.5409 0.780938 6.46745 0.962687 6.46745 1.15649C6.46745 1.35019 6.5409 1.52236 6.67481 1.65857L9.44032 4.4662L0.721024 4.4662C0.329228 4.4662 8.68728e-08 4.8102 5.26394e-08 5.20913L0 5.82253C-3.42331e-08 6.22145 0.338951 6.53854 0.730748 6.53854Z" fill="white"/>
</svg>
