<svg width="10" height="17" viewBox="0 0 10 17" fill="none" xmlns="http://www.w3.org/2000/svg">
<path fill-rule="evenodd" clip-rule="evenodd" d="M7.68135 0.000244141H1.32841C0.977511 0.000652365 0.641095 0.145224 0.392971 0.402242C0.144846 0.65926 0.00527691 1.00773 0.00488281 1.37121V15.6293C0.00527691 15.9928 0.144846 16.3412 0.392971 16.5982C0.641095 16.8553 0.977511 16.9998 1.32841 17.0002H7.68135C8.03225 16.9998 8.36867 16.8553 8.61679 16.5982C8.86492 16.3412 9.00449 15.9928 9.00488 15.6293V1.37121C9.00449 1.00773 8.86492 0.65926 8.61679 0.402242C8.36867 0.145224 8.03225 0.000652365 7.68135 0.000244141ZM6.29965 0.548631L6.14083 1.37121H2.86897L2.71014 0.548631H6.29965ZM8.47547 15.6293C8.47523 15.8474 8.39149 16.0564 8.24262 16.2107C8.09374 16.3649 7.89189 16.4516 7.68135 16.4519H1.32841C1.11787 16.4516 0.916022 16.3649 0.767147 16.2107C0.618272 16.0564 0.534531 15.8474 0.534295 15.6293V1.37121C0.534531 1.15313 0.618272 0.944041 0.767147 0.78983C0.916022 0.635619 1.11787 0.548876 1.32841 0.548631H2.17021L2.39236 1.69918C2.40437 1.76134 2.43679 1.81727 2.48411 1.85746C2.53144 1.89764 2.59075 1.9196 2.65194 1.9196H6.35782C6.41902 1.9196 6.47832 1.89764 6.52565 1.85746C6.57298 1.81727 6.6054 1.76134 6.6174 1.69918L6.83956 0.548631H7.68135C7.89189 0.548876 8.09374 0.635619 8.24262 0.78983C8.39149 0.944041 8.47523 1.15313 8.47547 1.37121V15.6293Z" fill="#5653E5"/>
</svg>
