<svg width="16" height="15" viewBox="0 0 16 15" fill="none" xmlns="http://www.w3.org/2000/svg">
<path d="M15.0836 8.7445V14.2603H11.8465V9.08082C11.8465 7.80278 11.3744 6.92833 10.2279 6.92833C9.35118 6.92833 8.81166 7.53372 8.60934 8.07184C8.5419 8.27364 8.47446 8.5427 8.47446 8.87902V14.2603H5.23733C5.23733 14.2603 5.30477 5.51576 5.23733 4.64131H8.47446V5.98662C8.8791 5.31396 9.68838 4.37225 11.3744 4.37225C13.465 4.37225 15.0836 5.78482 15.0836 8.7445ZM1.86532 0C0.786274 0 0.0444336 0.739919 0.0444336 1.68163C0.0444336 2.62335 0.718835 3.36327 1.79788 3.36327C2.94436 3.36327 3.61876 2.62335 3.61876 1.68163C3.6862 0.672654 3.0118 0 1.86532 0ZM0.246754 14.2603H3.48388V4.64131H0.246754V14.2603Z" fill="white"/>
</svg>
