<svg width="14" height="23" viewBox="0 0 14 23" fill="none" xmlns="http://www.w3.org/2000/svg">
<path d="M11.3508 0H1.67319C0.747673 0 0 0.750576 0 1.67609V21.3261C0 22.2487 0.747673 23 1.67319 23H11.3508C12.2749 23 13.0255 22.2494 13.0255 21.3261V1.67609C13.0247 0.750576 12.2749 0 11.3508 0ZM11.7704 18.6352H1.25507V2.82736H11.7704V18.6352ZM8.75575 1.70077H4.26899V1.21152H8.75648L8.75575 1.70077ZM10.6757 1.4772C10.6757 1.71384 10.4827 1.90548 10.2467 1.90548C10.0101 1.90548 9.81774 1.71311 9.81774 1.4772C9.81774 1.24128 10.0101 1.04892 10.2467 1.04892C10.4834 1.04819 10.6757 1.24056 10.6757 1.4772ZM8.55468 21.2143H4.46861V19.957H8.55468V21.2143Z" fill="white"/>
</svg>
