<svg width="22" height="22" viewBox="0 0 19 19" fill="none" xmlns="http://www.w3.org/2000/svg">
<path d="M0.400879 18.8478C0.656934 18.0796 0.898145 17.3597 1.13936 16.6398C1.38057 15.9273 1.5958 15.2036 1.87041 14.5023C2.01143 14.146 1.96689 13.8788 1.78877 13.5448C0.816504 11.7413 0.527051 9.80792 0.864746 7.79659C1.15049 6.09327 1.87412 4.58663 3.04307 3.30635C4.96904 1.20225 7.37373 0.192876 10.2163 0.311626C12.2981 0.396978 14.1388 1.15772 15.7085 2.53448C17.1706 3.81475 18.1243 5.40674 18.5659 7.29932C18.9222 8.82452 18.8813 10.3423 18.4435 11.8452C17.8868 13.7489 16.8218 15.3187 15.2372 16.5136C13.0366 18.1761 10.5688 18.6919 7.87842 18.1687C7.06943 18.0128 6.29756 17.7233 5.57021 17.33C5.45146 17.2669 5.35127 17.2521 5.22139 17.2966C3.84092 17.7419 2.45674 18.1835 1.07627 18.6251C0.868457 18.6919 0.656934 18.7624 0.400879 18.8478ZM2.7499 16.521C2.82412 16.5024 2.85752 16.495 2.89092 16.4839C3.75557 16.2093 4.62021 15.931 5.48857 15.6638C5.57021 15.6378 5.68154 15.6601 5.75947 15.6972C6.13428 15.8827 6.49424 16.1054 6.88018 16.2687C8.46846 16.9403 10.105 17.048 11.7601 16.5878C13.7343 16.0349 15.2483 14.8585 16.2837 13.081C17.1706 11.5595 17.4749 9.91553 17.2003 8.18624C16.8515 5.98565 15.7233 4.25635 13.8567 3.02803C12.2388 1.9667 10.4575 1.60674 8.55752 1.90733C6.921 2.16709 5.52197 2.91299 4.36787 4.10791C3.37705 5.13213 2.71279 6.3419 2.42334 7.7335C2.01143 9.72627 2.31572 11.6114 3.42158 13.3296C3.64424 13.6747 3.63682 13.9382 3.50322 14.2907C3.23232 15.0144 3.00596 15.7528 2.7499 16.521Z" fill="white"/>
<path d="M14.4469 11.9417C14.4357 12.658 14.098 13.2035 13.4152 13.5449C12.7435 13.8789 12.0607 13.9642 11.3594 13.6896C10.7285 13.441 10.0902 13.1997 9.48162 12.8992C8.68006 12.5021 8.02322 11.9083 7.42205 11.2515C6.75779 10.5242 6.19373 9.71518 5.72986 8.85053C5.39959 8.23823 5.1992 7.58881 5.26971 6.87631C5.34393 6.11928 5.69646 5.5144 6.29021 5.05795C6.40896 4.96889 6.58709 4.92807 6.73924 4.91323C6.93592 4.89838 7.1326 4.92807 7.32928 4.94291C7.49256 4.95776 7.58162 5.0728 7.63728 5.20639C7.78201 5.56264 7.91189 5.91889 8.0492 6.27885C8.14197 6.52006 8.21248 6.77241 8.32381 7.00619C8.46111 7.29565 8.37576 7.53686 8.19764 7.75951C8.04549 7.94877 7.88592 8.13061 7.7115 8.29389C7.56678 8.43119 7.5408 8.57221 7.63728 8.7392C8.06404 9.49994 8.58357 10.1828 9.2701 10.7357C9.72283 11.0994 10.2238 11.3703 10.7433 11.6226C10.8955 11.6968 11.0439 11.6857 11.1627 11.5484C11.4187 11.2552 11.6785 10.9658 11.9308 10.6689C12.0941 10.4796 12.1758 10.4425 12.3947 10.5539C13.0293 10.873 13.6564 11.2033 14.2873 11.5335C14.4357 11.6152 14.4728 11.7488 14.4469 11.9417Z" fill="white"/>
</svg>
