<svg width="19" height="13" viewBox="0 0 19 13" fill="none" xmlns="http://www.w3.org/2000/svg">
<path d="M18.1456 4.91305C18.1456 4.52518 18.0808 4.07266 18.0808 3.5555C18.016 3.03834 17.9512 2.52117 17.8864 2.06865C17.7567 1.55149 17.5623 1.16362 17.1734 0.840393C16.8493 0.517166 16.3956 0.323223 15.9419 0.258578C14.4511 0.0646415 12.2474 0 9.26593 0C6.28443 0 4.01588 0.0646415 2.58995 0.258578C2.13624 0.323223 1.68254 0.517166 1.35846 0.840393C1.03438 1.16362 0.775118 1.55149 0.645488 2.06865C0.515857 2.52117 0.45105 2.97369 0.45105 3.5555C0.386234 4.07266 0.38623 4.52518 0.38623 4.91305C0.38623 5.30092 0.38623 5.75344 0.38623 6.3999C0.38623 7.04635 0.38623 7.56352 0.38623 7.88675C0.38623 8.27462 0.45105 8.72714 0.45105 9.2443C0.515865 9.76147 0.580672 10.2786 0.645488 10.7311C0.775118 11.2483 0.969568 11.6362 1.35846 11.9594C1.68254 12.2826 2.13624 12.4766 2.58995 12.5412C4.0807 12.7352 6.28443 12.7998 9.26593 12.7998C12.2474 12.7998 14.516 12.7352 15.9419 12.5412C16.3956 12.4766 16.8493 12.2826 17.1734 11.9594C17.4975 11.6362 17.7567 11.2483 17.8864 10.7311C18.016 10.2786 18.0808 9.82611 18.0808 9.2443C18.1456 8.72714 18.1456 8.27462 18.1456 7.88675C18.1456 7.49887 18.1456 7.04635 18.1456 6.3999C18.1456 5.75344 18.1456 5.23628 18.1456 4.91305ZM12.7011 6.91706L7.58073 10.0847C7.51592 10.1493 7.38628 10.214 7.25665 10.214C7.12702 10.214 7.06221 10.214 6.93258 10.1493C6.73813 10.02 6.6085 9.82611 6.6085 9.56753V3.16762C6.6085 2.90904 6.73813 2.71511 6.93258 2.58582C7.12702 2.45653 7.38628 2.45653 7.58073 2.58582L12.7011 5.75344C12.8956 5.88273 13.0252 6.07667 13.0252 6.27061C13.0252 6.46454 12.8956 6.78777 12.7011 6.91706Z" fill="white"/>
</svg>
