<svg width="66" height="41" viewBox="0 0 66 41" fill="none" xmlns="http://www.w3.org/2000/svg">
<rect width="66" height="41" fill="#E8973B"/>
<path fill-rule="evenodd" clip-rule="evenodd" d="M15.1692 12.8277C10.5328 13.3806 8.67828 18.9373 12.0956 22.0369C15.511 25.135 21.015 22.7131 21.015 18.112C21.015 15.478 19.1943 13.3356 16.564 12.8745C16.3379 12.8348 15.3791 12.8027 15.1692 12.8277ZM15.7229 14.718C15.8224 14.7425 15.9383 14.7715 15.9805 14.7824L16.057 14.8024L15.9445 15.2623C15.8825 15.5153 15.8384 15.7277 15.8466 15.7343C15.8664 15.7503 16.2774 15.8452 16.2854 15.8357C16.2888 15.8315 16.3421 15.6258 16.4038 15.3787C16.4834 15.0594 16.5246 14.9294 16.5459 14.9294C16.6223 14.9294 17.1071 15.0641 17.1066 15.0853C17.1063 15.0984 17.0542 15.3135 16.9907 15.5633C16.9273 15.813 16.8772 16.018 16.8795 16.0188C17.7526 16.3096 18.146 16.7741 18.0381 17.3867C17.9674 17.7876 17.7727 18.0411 17.4378 18.1683L17.3193 18.2134L17.4435 18.294C17.9521 18.6239 18.0651 19.1388 17.77 19.779C17.4849 20.3969 16.7344 20.6435 15.8268 20.4172L15.7711 20.4033L15.6565 20.8616C15.5935 21.1136 15.5352 21.3307 15.527 21.3438C15.5016 21.3846 14.9307 21.236 14.944 21.1919C15.0103 20.9719 15.1672 20.2909 15.1543 20.2797C15.1261 20.2555 14.7229 20.1552 14.7146 20.1703C14.7103 20.1781 14.6561 20.3891 14.5941 20.6392C14.5322 20.8891 14.4786 21.0972 14.475 21.1015C14.461 21.1184 13.8915 20.967 13.8923 20.9466C13.8926 20.9344 13.9441 20.7168 14.0066 20.4629C14.0828 20.1531 14.1123 19.9984 14.0963 19.9926C14.0832 19.9877 13.8242 19.922 13.5207 19.8464C13.2172 19.7708 12.965 19.705 12.9601 19.7002C12.9527 19.6929 13.2291 19.0319 13.2396 19.0319C13.2414 19.0319 13.3373 19.0558 13.4528 19.0848C13.919 19.2022 13.851 19.3201 14.2637 17.6802L14.5996 16.3454L14.5636 16.2515C14.5158 16.1272 14.4393 16.0829 14.1423 16.008C13.9547 15.9607 13.9027 15.9399 13.9053 15.9129C13.9173 15.7814 14.0493 15.3311 14.0757 15.3311C14.0925 15.3311 14.356 15.3935 14.6613 15.4698C14.9666 15.546 15.2196 15.6054 15.2233 15.6016C15.227 15.5979 15.2744 15.419 15.3286 15.204C15.4772 14.6136 15.4649 14.6509 15.5057 14.6629C15.5256 14.6688 15.6234 14.6935 15.7229 14.718ZM15.5222 16.9999C15.4452 17.3119 15.3821 17.5724 15.3821 17.5787C15.3821 17.596 15.8151 17.6938 16.0183 17.7225C16.5554 17.7981 16.8943 17.6008 16.8934 17.2133C16.8927 16.8545 16.4911 16.5895 15.7298 16.4453L15.6623 16.4324L15.5222 16.9999ZM15.2224 18.2125C15.1994 18.2776 14.9127 19.4399 14.9182 19.4453C14.9216 19.4487 15.0203 19.4754 15.1373 19.5047C16.0813 19.7408 16.5699 19.6559 16.6925 19.2349C16.8204 18.7948 16.4862 18.4975 15.607 18.2695C15.251 18.1771 15.2357 18.1748 15.2224 18.2125Z" fill="white"/>
<path fill-rule="evenodd" clip-rule="evenodd" d="M15.3579 15.1331C15.2938 15.3904 15.2319 15.5949 15.2167 15.6008C15.2019 15.6065 14.9513 15.552 14.6601 15.4798C14.3689 15.4076 14.1136 15.347 14.0928 15.3452C14.0593 15.3423 13.9162 15.7976 13.9134 15.9157C13.913 15.9289 14.017 15.9654 14.1443 15.9968C14.4792 16.0792 14.5948 16.1693 14.5936 16.3463C14.5927 16.4679 13.9431 19.0101 13.8973 19.0709C13.8272 19.1643 13.7657 19.1695 13.4957 19.1051C13.3616 19.0732 13.248 19.0508 13.2434 19.0554C13.2389 19.06 13.1726 19.2065 13.096 19.381L12.957 19.6982L13.5348 19.8415C13.8527 19.9204 14.1167 19.9888 14.1214 19.9935C14.1263 19.9983 14.0777 20.2145 14.0135 20.4741C13.9492 20.7336 13.8995 20.9491 13.9031 20.9531C13.9067 20.9571 14.0348 20.9916 14.1879 21.0301L14.4662 21.0998L14.4865 21.0229C14.4977 20.9805 14.5513 20.77 14.6053 20.5549C14.6595 20.34 14.7075 20.1602 14.7123 20.1555C14.7296 20.1382 15.1693 20.2659 15.1694 20.2883C15.1696 20.301 15.1206 20.5142 15.0606 20.7619C15.0005 21.0097 14.9549 21.2152 14.9591 21.2186C14.9725 21.2296 15.5152 21.3602 15.5202 21.3538C15.5229 21.3505 15.5756 21.143 15.6375 20.8931C15.7724 20.3478 15.7333 20.3961 16.0085 20.4367C16.9556 20.5764 17.5141 20.3542 17.778 19.7331C18.0428 19.1093 17.9346 18.6319 17.4561 18.3142L17.2956 18.2076L17.3558 18.1854C17.3889 18.1732 17.4581 18.1476 17.5098 18.1283C17.9475 17.9651 18.1839 17.2488 17.9529 16.7848C17.8153 16.5082 17.5362 16.2904 17.0902 16.1113C16.9707 16.0634 16.8732 16.0134 16.8734 16.0002C16.8738 15.9871 16.9256 15.7734 16.9886 15.5254C17.0669 15.2167 17.0953 15.0719 17.0785 15.0662C16.9644 15.0274 16.5402 14.9346 16.5299 14.9464C16.5226 14.9545 16.4662 15.164 16.4045 15.4118C16.3335 15.6971 16.2835 15.8591 16.2684 15.8535C16.2554 15.8487 16.1513 15.8226 16.037 15.7954C15.9179 15.767 15.8294 15.7351 15.8294 15.7207C15.8294 15.7067 15.8781 15.4984 15.9374 15.2575C15.9968 15.0167 16.0423 14.8165 16.0384 14.8127C16.0294 14.8038 15.5189 14.6758 15.4923 14.6758C15.4812 14.6758 15.4208 14.8816 15.3579 15.1331ZM15.9252 16.4823C16.6098 16.6473 16.9042 16.8673 16.9031 17.2134C16.9014 17.7164 16.4117 17.8663 15.5296 17.6339L15.3683 17.5914L15.5037 17.0376C15.5782 16.7331 15.6434 16.4719 15.6485 16.4573C15.661 16.4216 15.6802 16.4232 15.9252 16.4823ZM15.5419 18.2422C16.3876 18.4465 16.7478 18.7146 16.7188 19.1177C16.6788 19.6727 16.1524 19.7805 14.9751 19.4749L14.8979 19.4548L15.0597 18.8108L15.2216 18.1666L15.2752 18.1786C15.3048 18.1854 15.4249 18.2139 15.5419 18.2422Z" fill="#E8973B"/>
<path fill-rule="evenodd" clip-rule="evenodd" d="M24.5982 12.972C24.0625 13.0558 23.6188 13.1297 23.612 13.1365C23.6052 13.1432 23.0776 15.3264 22.4397 17.9882C21.8016 20.65 21.2749 22.8431 21.2691 22.8619C21.2451 22.9399 21.9887 23.1823 22.5906 23.2925C24.5164 23.6454 26.0544 23.2597 27.1806 22.1413C28.973 20.3615 28.9668 17.1669 27.1691 16.2653C26.5968 15.9782 25.8515 15.9302 25.1993 16.1386C25.088 16.1742 24.9709 16.2166 24.9389 16.2328C24.8948 16.2553 24.8832 16.2559 24.8905 16.2356C24.9063 16.1911 25.7104 12.8559 25.7104 12.8347C25.7104 12.8015 25.6059 12.8143 24.5982 12.972ZM31.6306 12.9746C30.5265 13.2087 30.1374 14.7278 31.0653 15.1814C32.0185 15.6473 33.1527 14.8507 33.0343 13.7983C32.9655 13.1861 32.3464 12.8228 31.6306 12.9746ZM53.8669 12.9729C52.7724 13.22 52.3805 14.6986 53.2848 15.1693C54.2506 15.672 55.4713 14.793 55.2717 13.7384C55.1637 13.1678 54.5308 12.8229 53.8669 12.9729ZM35.1361 14.243C34.5868 14.3285 34.1309 14.4061 34.1227 14.4155C34.1064 14.4344 32.8027 19.8961 32.7382 20.2162C32.3559 22.1109 32.8236 23.0834 34.2394 23.3374C34.5432 23.3919 35.4344 23.3929 35.7833 23.3391C36.3382 23.2534 37.0034 23.0547 36.9872 22.9794C36.9817 22.9543 36.9469 22.61 36.9097 22.2145C36.8725 21.8192 36.8387 21.4917 36.8346 21.4869C36.8304 21.4822 36.7431 21.5036 36.6405 21.5347C35.6975 21.8198 34.935 21.7404 34.7282 21.3353C34.5722 21.0295 34.5934 20.8597 34.9998 19.1645L35.3255 17.8063L36.4427 17.8005L37.56 17.795L37.7567 17.002C37.865 16.5659 37.9539 16.1972 37.9544 16.1827C37.9552 16.1623 37.7116 16.1553 36.84 16.151L35.7245 16.1455L35.9767 15.1305C36.1155 14.5722 36.2293 14.1084 36.2297 14.0996C36.2309 14.0738 36.1803 14.0804 35.1361 14.243ZM41.6609 15.9887C39.1251 16.2297 37.4114 18.6369 37.9363 21.2207C38.3187 23.1028 40.2597 23.9022 42.6032 23.1424C42.7642 23.0903 42.896 23.0362 42.8958 23.0223C42.8954 22.9517 42.7472 21.4359 42.7401 21.4288C42.7355 21.4242 42.6849 21.4405 42.6275 21.4649C41.9681 21.7457 40.959 21.7759 40.5226 21.5279C39.8364 21.138 39.7531 19.5365 40.3697 18.59C40.9181 17.7481 41.9469 17.4638 43.0558 17.8475C43.1964 17.8961 43.3306 17.9405 43.3543 17.9462C43.3925 17.9555 44.0417 16.5661 44.0719 16.4105C44.0844 16.3461 43.3944 16.1096 42.9927 16.0403C42.5825 15.9697 42.0703 15.9499 41.6609 15.9887ZM47.5179 15.9872C45.4748 16.2002 43.9297 18.1462 43.9332 20.5017C43.9357 22.0844 44.6753 23.0893 46.0372 23.3601C46.3137 23.4152 47.1602 23.4146 47.4631 23.3591C49.1499 23.0502 50.4281 21.5621 50.6984 19.5925C51.0234 17.2239 49.7292 15.7568 47.5179 15.9872ZM58.4075 16.0095C57.692 16.0433 56.1854 16.3499 56.0558 16.4881C56.0402 16.5047 54.417 23.1691 54.417 23.2161C54.417 23.2619 56.4344 23.2491 56.449 23.2032C56.4554 23.1829 56.7514 21.9553 57.1069 20.4754C57.4624 18.9955 57.7574 17.7804 57.7625 17.7753C57.7676 17.7702 57.8867 17.7502 58.027 17.7309C59.0045 17.596 59.4065 17.8342 59.4025 18.5457C59.4007 18.8578 59.3297 19.199 58.8363 21.2623C58.5842 22.3167 58.378 23.193 58.378 23.2098C58.378 23.2613 60.394 23.2547 60.409 23.2032C60.4325 23.1224 61.3389 19.3494 61.3703 19.2012C61.7804 17.2741 61.0093 16.1294 59.2193 16.0079C58.8961 15.9859 58.9104 15.9858 58.4075 16.0095ZM30.3451 16.1931C30.3158 16.2944 28.6705 23.1939 28.6705 23.2154C28.6705 23.2438 30.6621 23.2525 30.6797 23.2243C30.6945 23.2004 32.3759 16.226 32.3759 16.1884C32.3759 16.1353 30.3604 16.1398 30.3451 16.1931ZM51.7558 19.6611C51.2946 21.5889 50.9129 23.1829 50.9077 23.2032C50.8989 23.2381 50.957 23.2402 51.9098 23.2402H52.9213L52.9458 23.1436C52.9592 23.0905 53.3381 21.5227 53.7877 19.6597C54.2372 17.7967 54.6117 16.2463 54.6198 16.2143L54.6346 16.1561H53.6146H52.5945L51.7558 19.6611ZM47.9765 17.7018C48.5274 17.8027 48.8019 18.4138 48.7143 19.3442C48.5685 20.8918 47.6099 21.9489 46.6091 21.6655C46.0377 21.5038 45.8012 20.6787 46.0179 19.603C46.2735 18.3338 47.0917 17.5397 47.9765 17.7018ZM25.7785 17.7233C26.2645 17.8243 26.4839 18.2345 26.4841 19.0426C26.4845 20.2423 25.7885 21.319 24.7943 21.6569C24.4391 21.7777 23.5583 21.7705 23.5882 21.647C23.5944 21.6219 23.7925 20.802 24.0287 19.825C24.4512 18.0765 24.459 18.0478 24.5252 17.9911C24.7781 17.7745 25.3929 17.6431 25.7785 17.7233ZM35.3704 25.3167C34.5511 25.392 33.9497 26.1436 33.9437 27.0994C33.9401 27.6888 34.1695 28.0331 34.6481 28.1569C34.954 28.2361 35.5887 28.1629 35.7963 28.0245C35.8196 28.009 35.7876 27.6838 35.7619 27.6763C35.7561 27.6745 35.6662 27.7037 35.5623 27.741C34.6833 28.0568 34.1683 27.5721 34.4162 26.6622C34.6539 25.7892 35.329 25.4563 36.1387 25.8125C36.1749 25.8283 36.3266 25.5247 36.3019 25.4859C36.2281 25.3698 35.7463 25.2822 35.3704 25.3167ZM37.636 25.3151C36.811 25.3832 36.1879 26.1561 36.1879 27.1113C36.1879 27.9341 36.7614 28.344 37.6522 28.1578C38.035 28.0779 38.0736 28.0454 38.0435 27.8291C38.0174 27.6427 38.0219 27.6469 37.9131 27.7019C37.7083 27.8057 37.2699 27.8659 37.0716 27.8174C36.7476 27.7382 36.5982 27.4704 36.6194 27.0072C36.6657 26.0018 37.4874 25.3948 38.2922 25.7715C38.3545 25.8005 38.4084 25.8211 38.4121 25.8169C38.483 25.7391 38.573 25.4917 38.5392 25.4672C38.377 25.3494 37.9968 25.2854 37.636 25.3151ZM41.3512 25.3552C41.0264 25.3865 41.1012 25.217 40.7288 26.7638C40.55 27.5067 40.4038 28.1217 40.4041 28.1303C40.4042 28.139 40.4955 28.1462 40.6068 28.1462C40.718 28.1462 40.8097 28.139 40.8106 28.1303C40.8113 28.1217 40.8666 27.8909 40.9335 27.6176L41.055 27.1206L41.3952 27.1076C42.3346 27.0719 42.8116 26.6892 42.7629 26.0104C42.7253 25.4845 42.2581 25.2676 41.3512 25.3552ZM47.8793 25.3467C47.6418 25.3681 47.4976 25.4009 47.4873 25.4359C47.4585 25.5343 46.8571 28.0511 46.8571 28.0735C46.8571 28.1385 47.5576 28.1899 47.89 28.1491C48.7585 28.0422 49.3203 27.5151 49.4324 26.7014C49.5659 25.7316 49.008 25.2451 47.8793 25.3467ZM56.1633 25.3482C56.1105 25.3521 56.0037 25.3655 55.9259 25.3778L55.7843 25.4002L55.7516 25.5308C55.7336 25.6027 55.5883 26.2039 55.4287 26.8668C55.2692 27.5298 55.1337 28.0892 55.1275 28.11C55.1173 28.1448 55.1333 28.1473 55.3255 28.1417L55.5345 28.1356L55.6637 27.5964L55.7927 27.0571L56.043 27.0512L56.2932 27.0452L56.4283 27.3261C56.5025 27.4805 56.6097 27.7282 56.6667 27.8764L56.7702 28.1459L56.9778 28.146C57.0921 28.1462 57.1855 28.143 57.1855 28.1392C57.1855 28.079 56.9629 27.5157 56.8216 27.2183C56.7637 27.0964 56.7236 26.9903 56.7326 26.9828C56.7416 26.9752 56.7946 26.9522 56.8506 26.9318C57.2633 26.7809 57.5165 26.3942 57.4748 25.9787C57.4262 25.4958 56.9913 25.2867 56.1633 25.3482ZM38.9692 25.3919C38.9403 25.4868 38.3174 28.0911 38.3174 28.1168C38.3174 28.1415 38.4599 28.1462 39.1879 28.1462H40.0585L40.101 27.9779C40.1244 27.8853 40.1383 27.8045 40.1321 27.7981C40.1257 27.7919 39.824 27.7867 39.4615 27.7867H38.8027L38.8142 27.7391C38.8206 27.713 38.8713 27.5036 38.927 27.2739L39.0284 26.8563H39.5852H40.1422L40.1686 26.7346C40.1832 26.6678 40.2002 26.5916 40.2063 26.5655L40.2174 26.5179H39.6599C39.139 26.5179 39.1032 26.5155 39.1138 26.4809C39.1201 26.4606 39.1647 26.2798 39.2129 26.0792L39.3006 25.7144H39.9262H40.5518L40.5717 25.6351C40.6227 25.4311 40.6328 25.3771 40.622 25.3665C40.5861 25.3307 38.9803 25.3554 38.9692 25.3919ZM43.0573 25.3733C43.0435 25.3957 42.982 25.6506 42.9816 25.6875C42.9813 25.7069 43.0844 25.7149 43.3926 25.7192L43.8041 25.7249L43.5247 26.8774C43.3712 27.5112 43.2385 28.0561 43.2301 28.088L43.2146 28.1462H43.4232H43.6318L43.7987 27.4536C43.8904 27.0728 44.0229 26.5255 44.0932 26.2378L44.2209 25.7144H44.6394H45.0579L45.0951 25.5505C45.1154 25.4604 45.1321 25.3794 45.1321 25.3707C45.1321 25.3482 43.0714 25.3509 43.0573 25.3733ZM45.423 25.3707C45.4176 25.3794 45.2678 25.9909 45.0901 26.7294C44.9125 27.4679 44.7624 28.0888 44.7565 28.1092C44.7465 28.144 44.798 28.1462 45.6275 28.1462H46.509L46.5447 27.9818C46.5642 27.8914 46.5802 27.8106 46.5802 27.8021C46.5802 27.7937 46.2798 27.7867 45.9127 27.7867H45.2452L45.3474 27.369C45.4037 27.1394 45.455 26.93 45.4617 26.9039L45.4737 26.8563H46.026H46.5785L46.6019 26.7663C46.6408 26.6171 46.647 26.5934 46.6579 26.555C46.6676 26.5203 46.6316 26.5179 46.1132 26.5179C45.6827 26.5179 45.5583 26.5119 45.559 26.4915C45.5595 26.4769 45.6009 26.2985 45.6509 26.095L45.7419 25.7249L46.3701 25.7193L46.9985 25.7137L47.0346 25.5607C47.0544 25.4766 47.0705 25.3958 47.0702 25.3813C47.07 25.3515 45.4412 25.3411 45.423 25.3707ZM51.021 25.3813C50.9951 25.4606 50.3709 28.0814 50.3709 28.111C50.3709 28.1413 50.3984 28.1462 50.5692 28.1462H50.7675L50.8373 27.8555C50.8757 27.6955 50.9455 27.4053 50.9924 27.2104L51.0775 26.8563H51.7038C52.0482 26.8563 52.3301 26.8644 52.3301 26.8744C52.3301 26.8843 52.263 27.1698 52.1809 27.5088C52.099 27.8477 52.032 28.1302 52.032 28.1364C52.032 28.1426 52.1243 28.145 52.2373 28.1417L52.4427 28.1356L52.7695 26.7822C52.9492 26.0379 53.0963 25.4119 53.0964 25.3911C53.0967 25.3571 53.077 25.3539 52.8997 25.3594L52.7028 25.3655L52.568 25.9152C52.494 26.2176 52.4296 26.4769 52.425 26.4915C52.4098 26.5394 51.1527 26.5288 51.1667 26.4809C51.1824 26.4271 51.4356 25.3757 51.4356 25.3645C51.4356 25.3397 51.0292 25.3562 51.021 25.3813ZM53.3738 26.7136C53.1938 27.4607 53.0424 28.0889 53.0372 28.1095C53.0282 28.1446 53.0765 28.1464 53.9079 28.1412L54.7882 28.1356L54.8254 27.977C54.8458 27.8899 54.8629 27.8113 54.8634 27.8026C54.8638 27.7938 54.5624 27.7867 54.1934 27.7867C53.8245 27.7867 53.5231 27.7843 53.5236 27.7814C53.5242 27.7785 53.5753 27.5715 53.6372 27.3214L53.7498 26.8668L54.3046 26.8612L54.8592 26.8555L54.8937 26.7194C54.9498 26.4974 55.0016 26.5179 54.385 26.5179C54.0864 26.5179 53.8419 26.5108 53.8416 26.5021C53.8414 26.4933 53.882 26.3125 53.9317 26.1002L54.0223 25.7144H54.6511H55.2799L55.317 25.5505C55.3374 25.4604 55.3541 25.3794 55.3541 25.3707C55.3541 25.362 54.9821 25.3548 54.5275 25.3548H53.7009L53.3738 26.7136ZM58.1572 25.3716C58.1515 25.3808 58.0032 25.9827 57.8278 26.7091C57.6524 27.4355 57.5021 28.0561 57.4939 28.088L57.479 28.1462H58.36H59.2409L59.278 27.9824C59.2984 27.8921 59.3151 27.8113 59.3151 27.8026C59.3151 27.7938 59.0146 27.7867 58.6473 27.7867H57.9797L58.0733 27.4007C58.1246 27.1885 58.1762 26.9791 58.188 26.9356L58.2093 26.8563H58.7613H59.3134L59.3345 26.777C59.3461 26.7334 59.3647 26.6572 59.3757 26.6077L59.3957 26.5179H58.8442C58.4168 26.5179 58.293 26.5119 58.2938 26.4915C58.2944 26.4769 58.3354 26.2985 58.3853 26.095L58.4756 25.7249L59.1052 25.7193L59.7346 25.7137L59.7697 25.5548C59.789 25.4675 59.8049 25.3867 59.8049 25.3754C59.8049 25.3504 58.1727 25.3467 58.1572 25.3716ZM32.4668 25.8571C31.9042 26.7065 31.077 28.0611 31.077 28.1328C31.077 28.1402 31.1766 28.1462 31.2984 28.1462H31.52L31.7183 27.7867L31.9166 27.4273H32.5083C32.8337 27.4273 33.1006 27.4295 33.1014 27.4325C33.1022 27.4354 33.1189 27.5947 33.1387 27.7867L33.1745 28.1356L33.3843 28.1417L33.594 28.1478L33.5812 28.0466C33.5742 27.9909 33.544 27.736 33.5143 27.48C33.4463 26.8979 33.3276 26.0708 33.2588 25.7012C33.2301 25.5463 33.2064 25.4097 33.2064 25.3978C33.2064 25.3842 33.1262 25.376 32.9959 25.376H32.7853L32.4668 25.8571ZM42.0394 25.7254C42.5611 25.8793 42.3976 26.5585 41.7993 26.7227C41.6373 26.7671 41.1498 26.7865 41.1499 26.7484C41.1501 26.7196 41.3751 25.7727 41.3944 25.7196C41.4089 25.6796 41.8989 25.6841 42.0394 25.7254ZM48.6418 25.766C49.2867 26.0586 49.0796 27.3011 48.3248 27.6671C48.079 27.7863 47.4115 27.8791 47.3364 27.8045C47.3305 27.7986 47.7062 26.2143 47.826 25.7386L47.8385 25.6888L48.173 25.697C48.4874 25.7046 48.5156 25.7088 48.6418 25.766ZM56.7548 25.7254C57.0159 25.8024 57.1105 25.9955 57.0256 26.279C56.9421 26.5585 56.6769 26.6888 56.1283 26.7199L55.8698 26.7345L55.9844 26.2615C56.0475 26.0013 56.1041 25.7669 56.1104 25.7408C56.1246 25.68 56.565 25.6695 56.7548 25.7254ZM32.9377 26.095C32.9799 26.3691 33.0575 26.9951 33.0575 27.0612V27.1101H32.5789H32.1004L32.2829 26.8087C32.4763 26.4891 32.8893 25.8573 32.8984 25.867C32.9012 25.8703 32.919 25.9728 32.9377 26.095Z" fill="white"/>
<path fill-rule="evenodd" clip-rule="evenodd" d="M17.7571 16.5153C17.8029 16.5617 17.845 16.5998 17.8509 16.5998C17.8568 16.5998 17.8241 16.5617 17.7783 16.5153C17.7326 16.4687 17.6904 16.4307 17.6845 16.4307C17.6787 16.4307 17.7114 16.4687 17.7571 16.5153ZM18.0506 17.1815C18.0509 17.2396 18.055 17.2609 18.0598 17.2287C18.0648 17.1966 18.0647 17.149 18.0596 17.123C18.0545 17.097 18.0505 17.1232 18.0506 17.1815ZM16.9 17.2025C16.9003 17.2491 16.9046 17.2656 16.9097 17.2393C16.9147 17.2131 16.9146 17.175 16.9092 17.1547C16.9039 17.1345 16.8998 17.1561 16.9 17.2025ZM17.7452 17.9692L17.6719 18.0485L17.7518 17.9757C17.7957 17.9356 17.8316 17.8998 17.8316 17.8964C17.8316 17.8801 17.8136 17.8953 17.7452 17.9692ZM16.5325 18.6829C16.5723 18.7237 16.6096 18.7569 16.6155 18.7569C16.6213 18.7569 16.5936 18.7237 16.5539 18.6829C16.5141 18.6422 16.4768 18.609 16.471 18.609C16.4651 18.609 16.4928 18.6422 16.5325 18.6829ZM17.9236 19.1165C17.9236 19.192 17.9274 19.223 17.9322 19.1852C17.9369 19.1474 17.9369 19.0856 17.9322 19.0478C17.9274 19.0099 17.9236 19.0409 17.9236 19.1165ZM15.7499 19.6387C15.7705 19.6439 15.804 19.6439 15.8246 19.6387C15.845 19.6333 15.8283 19.6289 15.7872 19.6289C15.7462 19.6289 15.7295 19.6333 15.7499 19.6387ZM16.3888 20.4855C16.4561 20.4898 16.5664 20.4898 16.6337 20.4855C16.7011 20.4813 16.646 20.4779 16.5113 20.4779C16.3765 20.4779 16.3215 20.4813 16.3888 20.4855Z" fill="#FCD098"/>
</svg>
