<svg width="66" height="41" viewBox="0 0 66 41" fill="none" xmlns="http://www.w3.org/2000/svg">
<rect width="66" height="41" fill="#000762"/>
<path d="M55.2243 20.5C55.2243 26.8103 49.9906 32 43.4937 32C37.057 32 31.7632 26.8103 31.7632 20.5C31.7632 14.1897 36.9968 9 43.4336 9C49.9906 9 55.2243 14.1897 55.2243 20.5Z" fill="#F9B50B"/>
<path d="M39.5235 20.559C39.5235 19.7333 39.4032 18.9077 39.2829 18.141H32.0641C32.1242 17.7282 32.2445 17.3744 32.3648 16.9026H38.8016C38.6813 16.4897 38.5008 16.0769 38.3204 15.6641H32.8461C33.0266 15.2513 33.2672 14.8974 33.5078 14.4256H37.6586C37.418 14.0128 37.1172 13.6 36.7563 13.1872H34.4703C34.8313 12.7744 35.1922 12.4205 35.6735 12.0077C33.6281 10.1205 30.8609 9 27.7929 9C21.4163 9.17692 16.1226 14.1897 16.1226 20.5C16.1226 26.8103 21.3562 32 27.8531 32C30.9211 32 33.6281 30.8205 35.7336 28.9923C36.1547 28.6385 36.5157 28.2256 36.9368 27.7538H34.5305C34.2297 27.4 33.9289 26.9872 33.6883 26.5744H37.7789C38.0196 26.2205 38.2602 25.8077 38.4407 25.3359H32.9664C32.7859 24.9821 32.6055 24.5692 32.4852 24.0974H38.9219C39.2829 23.0359 39.5235 21.8564 39.5235 20.559Z" fill="#C8191C"/>
<path d="M32.0039 23.4487L32.1844 22.3872C32.1242 22.3872 32.0039 22.4461 31.8836 22.4461C31.4625 22.4461 31.4024 22.2102 31.4625 22.0923L31.8234 19.9692H32.4852L32.6656 18.7897H32.0641L32.1844 18.082H30.9211C30.9211 18.082 30.1992 22.0923 30.1992 22.5641C30.1992 23.2718 30.6203 23.6256 31.2219 23.6256C31.5828 23.6256 31.8836 23.5077 32.0039 23.4487Z" fill="white"/>
<path d="M32.4248 21.5025C32.4248 23.2128 33.6279 23.6256 34.5904 23.6256C35.4928 23.6256 35.9139 23.4487 35.9139 23.4487L36.1545 22.2692C36.1545 22.2692 35.4928 22.5641 34.8311 22.5641C33.4475 22.5641 33.6881 21.5615 33.6881 21.5615H36.2147C36.2147 21.5615 36.3951 20.7949 36.3951 20.441C36.3951 19.6743 35.974 18.6718 34.5904 18.6718C33.3873 18.6128 32.4248 19.9692 32.4248 21.5025ZM34.5904 19.7333C35.2522 19.7333 35.1319 20.5 35.1319 20.559H33.7482C33.8084 20.5 33.9287 19.7333 34.5904 19.7333Z" fill="white"/>
<path d="M42.4714 23.4487L42.712 22.0923C42.712 22.0923 42.1105 22.3872 41.6292 22.3872C40.787 22.3872 40.3659 21.7385 40.3659 20.9718C40.3659 19.4974 41.0878 18.7308 41.9902 18.7308C42.5917 18.7308 43.1331 19.0846 43.1331 19.0846L43.3136 17.7872C43.3136 17.7872 42.5917 17.4923 41.8698 17.4923C40.4261 17.4923 39.0425 18.7308 39.0425 21.0308C39.0425 22.5641 39.7644 23.5667 41.2683 23.5667C41.8097 23.6256 42.4714 23.4487 42.4714 23.4487Z" fill="white"/>
<path d="M25.2065 18.6129C24.3643 18.6129 23.7025 18.8488 23.7025 18.8488L23.5221 19.9104C23.5221 19.9104 24.0635 19.6745 24.9057 19.6745C25.3268 19.6745 25.6877 19.7334 25.6877 20.0873C25.6877 20.3232 25.6276 20.3821 25.6276 20.3821H25.0861C24.0033 20.3821 22.8604 20.795 22.8604 22.2104C22.8604 23.3309 23.5822 23.5668 24.0635 23.5668C24.9057 23.5668 25.3268 23.036 25.3869 23.036L25.3268 23.5078H26.3494L26.8307 20.1462C26.8307 18.6719 25.6276 18.6129 25.2065 18.6129ZM25.4471 21.3257C25.4471 21.5027 25.3268 22.5052 24.6049 22.5052C24.244 22.5052 24.1236 22.2104 24.1236 22.0334C24.1236 21.7386 24.3041 21.3257 25.2666 21.3257C25.3869 21.3257 25.4471 21.3257 25.4471 21.3257Z" fill="white"/>
<path d="M28.0337 23.5665C28.3345 23.5665 29.8986 23.6255 29.8986 21.9742C29.8986 20.4409 28.3946 20.7358 28.3946 20.146C28.3946 19.8511 28.6353 19.7332 29.0564 19.7332C29.2368 19.7332 29.8986 19.7922 29.8986 19.7922L30.079 18.6717C30.079 18.6717 29.6579 18.5537 28.8759 18.5537C27.9735 18.5537 27.011 18.9076 27.011 20.146C27.011 21.5614 28.5751 21.4435 28.5751 21.9742C28.5751 22.3281 28.154 22.387 27.8532 22.387C27.3118 22.387 26.7103 22.2101 26.7103 22.2101L26.5298 23.3306C26.6501 23.4486 27.011 23.5665 28.0337 23.5665Z" fill="white"/>
<path d="M52.8183 17.6692L52.5777 19.3205C52.5777 19.3205 52.0964 18.7307 51.3745 18.7307C50.2315 18.7307 49.269 20.0871 49.269 21.6794C49.269 22.682 49.7503 23.6846 50.8331 23.6846C51.555 23.6846 52.0362 23.2128 52.0362 23.2128L51.9761 23.6256H53.2394L54.1417 17.7871L52.8183 17.6692ZM52.2167 20.8538C52.2167 21.5025 51.9159 22.3871 51.1941 22.3871C50.773 22.3871 50.5323 22.0333 50.5323 21.3846C50.5323 20.382 50.9534 19.7923 51.555 19.7923C51.9761 19.8512 52.2167 20.1461 52.2167 20.8538Z" fill="white"/>
<path d="M18.4087 23.5077L19.1306 19.1435L19.2509 23.5077H20.0931L21.7173 19.1435L21.0556 23.5077H22.379L23.4017 17.6692H21.3564L20.0931 21.2666L20.0329 17.6692H18.2282L17.2056 23.5077H18.4087Z" fill="white"/>
<path d="M37.659 23.5076C38.0199 21.5025 38.0801 19.8512 38.9824 20.1461C39.1028 19.3794 39.2832 19.0256 39.4035 18.7307H39.1629C38.6215 18.7307 38.1402 19.4384 38.1402 19.4384L38.2606 18.7897H37.0574L36.2754 23.5076H37.659Z" fill="white"/>
<path d="M45.3588 18.6129C44.5166 18.6129 43.8549 18.8488 43.8549 18.8488L43.6744 19.9104C43.6744 19.9104 44.2158 19.6745 45.058 19.6745C45.4791 19.6745 45.8401 19.7334 45.8401 20.0873C45.8401 20.3232 45.7799 20.3821 45.7799 20.3821H45.2385C44.1557 20.3821 43.0127 20.795 43.0127 22.2104C43.0127 23.3309 43.7346 23.5668 44.2158 23.5668C45.058 23.5668 45.4791 23.036 45.5393 23.036L45.4791 23.5078H46.6221L47.1033 20.1462C47.1033 18.6719 45.7799 18.6129 45.3588 18.6129ZM45.6596 21.3257C45.6596 21.5027 45.5393 22.5052 44.8174 22.5052C44.4565 22.5052 44.3361 22.2104 44.3361 22.0334C44.3361 21.7386 44.5166 21.3257 45.4791 21.3257C45.5994 21.3257 45.5994 21.3257 45.6596 21.3257Z" fill="white"/>
<path d="M48.0657 23.5076C48.4267 21.5025 48.4868 19.8512 49.3892 20.1461C49.5095 19.3794 49.69 19.0256 49.8103 18.7307H49.5696C49.0282 18.7307 48.547 19.4384 48.547 19.4384L48.6673 18.7897H47.4642L46.6821 23.5076H48.0657Z" fill="white"/>
</svg>
