<svg width="66" height="41" viewBox="0 0 66 41" fill="none" xmlns="http://www.w3.org/2000/svg">
<rect width="66" height="41" fill="#283576"/>
<path d="M53.1576 14.1858H50.5103C49.71 14.1858 49.0944 14.4334 48.725 15.2382L43.6768 26.8144H47.2475C47.2475 26.8144 47.8631 25.2667 47.9862 24.8953C48.3556 24.8953 51.8647 24.8953 52.3572 24.8953C52.4804 25.3286 52.7882 26.7525 52.7882 26.7525H55.9895L53.1576 14.1858ZM48.9712 22.2953C49.2791 21.5525 50.3256 18.7667 50.3256 18.7667C50.3256 18.8286 50.6335 18.0239 50.7566 17.5906L51.0028 18.7048C51.0028 18.7048 51.68 21.7382 51.8032 22.3572H48.9712V22.2953Z" fill="white"/>
<path d="M43.9229 22.6667C43.9229 25.2667 41.5835 27 37.9512 27C36.4121 27 34.9346 26.6905 34.1343 26.319L34.6268 23.4714L35.0577 23.6571C36.1659 24.1524 36.9046 24.3381 38.259 24.3381C39.2441 24.3381 40.2907 23.9667 40.2907 23.1C40.2907 22.5429 39.8597 22.1714 38.5053 21.5524C37.2125 20.9333 35.4887 19.9429 35.4887 18.1476C35.4887 15.6714 37.8897 14 41.2757 14C42.5685 14 43.6767 14.2476 44.3539 14.5571L43.8614 17.281L43.6151 17.0333C42.9995 16.7857 42.1991 16.5381 41.0294 16.5381C39.7366 16.6 39.1209 17.1571 39.1209 17.6524C39.1209 18.2095 39.8597 18.6429 41.0294 19.2C42.9995 20.1286 43.9229 21.181 43.9229 22.6667Z" fill="white"/>
<path d="M13.8799 14.3095L13.9414 14.0619H19.2359C19.9747 14.0619 20.5288 14.3095 20.7135 15.1143L21.8832 20.6857C20.7135 17.7143 18.0047 15.3 13.8799 14.3095Z" fill="#F9B50B"/>
<path d="M29.3321 14.1857L23.9761 26.7524H20.3438L17.2656 16.2285C19.4819 17.6524 21.3288 19.8809 22.006 21.4285L22.3754 22.7285L25.6999 14.1238H29.3321V14.1857Z" fill="white"/>
<path d="M30.7485 14.1238H34.1345L31.9798 26.7524H28.5938L30.7485 14.1238Z" fill="white"/>
</svg>
