<svg width="157" height="158" viewBox="0 0 157 158" fill="none" xmlns="http://www.w3.org/2000/svg">
<path d="M137.978 132.691C134.815 136.015 131.823 138.156 129.458 139.85C101.656 159.747 68.7634 153.933 61.7691 152.531C51.4462 150.441 31.4911 146.398 17.0646 129.472C-4.76045 103.854 -1.34755 63.5223 15.5687 36.8898C18.6649 32.0197 35.0387 4.98387 68.2715 0.648196C88.3918 -1.97674 111.854 3.31682 128.834 17.5137C164.49 47.3122 161.953 107.514 137.978 132.691Z" fill="white"/>
<path d="M141.283 18.2664C141.256 18.2895 141.224 18.3055 141.189 18.3132C141.155 18.3208 141.119 18.3197 141.084 18.3101C140.805 18.2362 140.525 18.1656 140.249 18.1017C140.221 18.0956 140.195 18.084 140.171 18.0676C140.148 18.0513 140.128 18.0305 140.113 18.0065C140.082 17.9579 140.071 17.8991 140.084 17.843C140.096 17.7868 140.131 17.7379 140.179 17.707C140.228 17.6761 140.287 17.6658 140.343 17.6783C140.626 17.7421 140.913 17.8127 141.196 17.89C141.233 17.9009 141.267 17.9217 141.294 17.9501C141.321 17.9786 141.339 18.0137 141.348 18.0518C141.357 18.0898 141.355 18.1295 141.343 18.1667C141.331 18.2039 141.309 18.2371 141.28 18.2631L141.283 18.2664Z" fill="#91B3FA"/>
<path d="M149.406 54.0269C149.022 54.363 148.621 54.6755 148.213 54.9747C148.168 54.9985 148.116 55.0057 148.067 54.995C148.017 54.9843 147.972 54.9563 147.941 54.916C147.91 54.8757 147.894 54.8257 147.897 54.775C147.899 54.7242 147.919 54.6759 147.954 54.6386C148.422 54.3025 148.88 53.9227 149.318 53.5362C149.363 53.4983 149.421 53.4797 149.479 53.4844C149.538 53.4891 149.592 53.5168 149.63 53.5614C149.668 53.6059 149.687 53.6637 149.682 53.722C149.677 53.7803 149.649 53.8344 149.605 53.8723L149.406 54.0269ZM151.63 51.8053C151.589 51.8458 151.534 51.8686 151.476 51.8686C151.419 51.8686 151.364 51.8458 151.323 51.8053C151.282 51.7647 151.26 51.7097 151.26 51.6523C151.26 51.595 151.282 51.54 151.323 51.4994C151.7 51.0591 152.068 50.5953 152.408 50.1214C152.421 50.0921 152.441 50.0662 152.466 50.0455C152.49 50.0248 152.519 50.01 152.551 50.002C152.582 49.994 152.615 49.9932 152.646 49.9994C152.678 50.0057 152.708 50.019 152.734 50.0383C152.759 50.0576 152.78 50.0825 152.795 50.111C152.81 50.1395 152.819 50.1711 152.82 50.2032C152.821 50.2354 152.815 50.2674 152.802 50.2968C152.789 50.3263 152.769 50.3525 152.745 50.3735C152.408 50.8575 152.024 51.328 151.636 51.7784L151.63 51.8053ZM154.244 47.9704C154.207 48.0091 154.157 48.0327 154.103 48.0364C154.05 48.0402 153.997 48.0238 153.954 47.9906C153.912 47.9574 153.884 47.9097 153.875 47.8569C153.867 47.804 153.878 47.7498 153.907 47.7049C154.18 47.1906 154.433 46.6562 154.662 46.1252C154.673 46.0989 154.689 46.0751 154.709 46.055C154.73 46.035 154.754 46.0192 154.78 46.0084C154.806 45.9976 154.835 45.9922 154.863 45.9923C154.892 45.9924 154.92 45.9982 154.946 46.0092C154.973 46.0203 154.997 46.0364 155.017 46.0566C155.037 46.0769 155.053 46.1008 155.064 46.1272C155.074 46.1536 155.08 46.1818 155.08 46.2103C155.08 46.2388 155.074 46.267 155.063 46.2932C154.83 46.8377 154.571 47.3822 154.291 47.9065C154.279 47.9305 154.264 47.9521 154.244 47.9704ZM155.929 43.6549C155.893 43.6806 155.851 43.6949 155.807 43.6958C155.763 43.6968 155.72 43.6844 155.683 43.6603C155.647 43.6362 155.618 43.6015 155.602 43.5609C155.585 43.5203 155.582 43.4757 155.592 43.433C155.743 42.8717 155.871 42.297 155.972 41.7256C155.983 41.669 156.015 41.6188 156.062 41.5861C156.11 41.5533 156.168 41.5406 156.225 41.5509C156.282 41.5611 156.332 41.5934 156.365 41.6407C156.398 41.688 156.411 41.7463 156.4 41.8029C156.296 42.3878 156.164 42.9759 156.013 43.5473C156.001 43.5895 155.976 43.627 155.942 43.6549H155.929ZM156.602 39.0705C156.57 39.0966 156.531 39.1131 156.49 39.1179C156.449 39.1228 156.407 39.1158 156.369 39.0978C156.332 39.0798 156.3 39.0516 156.278 39.0164C156.256 38.9812 156.245 38.9405 156.245 38.8991C156.265 38.3176 156.262 37.7294 156.245 37.148C156.244 37.1195 156.248 37.0911 156.258 37.0643C156.268 37.0374 156.283 37.0128 156.302 36.9917C156.321 36.9707 156.344 36.9536 156.37 36.9415C156.396 36.9294 156.424 36.9224 156.452 36.9211C156.481 36.9198 156.51 36.9241 156.536 36.9338C156.563 36.9434 156.588 36.9583 156.609 36.9775C156.63 36.9967 156.647 37.0198 156.659 37.0456C156.672 37.0714 156.679 37.0993 156.68 37.1278C156.71 37.7227 156.714 38.3243 156.68 38.9159C156.685 38.9716 156.668 39.027 156.633 39.0705H156.602ZM156.265 34.4457C156.237 34.4707 156.202 34.4876 156.164 34.4947C156.127 34.5019 156.088 34.499 156.052 34.4863C156.016 34.4737 155.984 34.4518 155.96 34.4228C155.935 34.3938 155.918 34.3588 155.912 34.3214C155.804 33.75 155.669 33.1753 155.514 32.6174C155.499 32.5621 155.506 32.5029 155.534 32.4528C155.562 32.4027 155.609 32.3658 155.664 32.3502C155.719 32.3346 155.779 32.3416 155.829 32.3696C155.879 32.3977 155.916 32.4445 155.932 32.4997C156.09 33.0711 156.228 33.6559 156.34 34.2407C156.348 34.2769 156.348 34.3148 156.338 34.3507C156.328 34.3865 156.309 34.4193 156.282 34.4457H156.265ZM154.918 30.0126C154.902 30.0264 154.883 30.0377 154.864 30.0462C154.838 30.0579 154.81 30.0643 154.781 30.065C154.753 30.0658 154.724 30.0609 154.697 30.0505C154.671 30.0402 154.646 30.0247 154.626 30.0049C154.605 29.9851 154.589 29.9615 154.578 29.9353C154.345 29.4009 154.086 28.8732 153.809 28.359C153.789 28.309 153.788 28.2532 153.806 28.2024C153.825 28.1516 153.861 28.1094 153.909 28.0839C153.957 28.0584 154.012 28.0515 154.065 28.0644C154.117 28.0774 154.163 28.1093 154.193 28.154C154.476 28.6749 154.739 29.216 154.975 29.7639C154.993 29.8061 154.997 29.8528 154.987 29.8975C154.976 29.9421 154.952 29.9824 154.918 30.0126ZM152.6 25.9794C152.553 26.0128 152.495 26.0265 152.439 26.0177C152.382 26.0089 152.331 25.9783 152.297 25.9324C151.99 25.519 151.667 25.1123 151.333 24.7224L151.198 24.5678C151.179 24.5465 151.165 24.5216 151.155 24.4946C151.146 24.4677 151.142 24.4391 151.144 24.4106C151.146 24.3822 151.154 24.3544 151.166 24.3288C151.179 24.3033 151.197 24.2806 151.219 24.2619C151.262 24.2247 151.318 24.2059 151.374 24.2097C151.431 24.2135 151.484 24.2395 151.522 24.2821L151.66 24.4401C151.997 24.8367 152.334 25.2534 152.647 25.6769C152.666 25.7002 152.68 25.7272 152.688 25.7562C152.696 25.7852 152.698 25.8156 152.694 25.8453C152.689 25.8751 152.679 25.9036 152.663 25.9291C152.646 25.9545 152.625 25.9762 152.6 25.9928V25.9794ZM149.44 22.5781C149.4 22.6121 149.35 22.6309 149.298 22.6309C149.246 22.6309 149.196 22.6121 149.157 22.5781C148.719 22.2117 148.24 21.8454 147.782 21.5093C147.754 21.4953 147.728 21.4752 147.709 21.4504C147.689 21.4255 147.675 21.3966 147.667 21.3657C147.66 21.3348 147.66 21.3027 147.666 21.2716C147.673 21.2405 147.686 21.2113 147.705 21.186C147.725 21.1607 147.749 21.14 147.778 21.1253C147.806 21.1107 147.837 21.1024 147.869 21.1012C147.901 21.1 147.932 21.1058 147.962 21.1183C147.991 21.1307 148.017 21.1495 148.038 21.1732C148.523 21.5093 148.995 21.8958 149.446 22.2823C149.49 22.32 149.517 22.3732 149.521 22.4304C149.525 22.4877 149.507 22.5443 149.47 22.5882L149.44 22.5781ZM145.602 19.9599C145.569 19.9883 145.528 20.0061 145.485 20.0109C145.442 20.0157 145.398 20.0073 145.36 19.9868C144.844 19.7112 144.312 19.4591 143.776 19.2305C143.723 19.2078 143.681 19.1649 143.66 19.1114C143.638 19.0578 143.639 18.9979 143.662 18.9449C143.684 18.8918 143.727 18.85 143.781 18.8285C143.835 18.8071 143.895 18.8078 143.948 18.8306C144.494 19.0625 145.036 19.3246 145.565 19.6036C145.591 19.6167 145.613 19.6347 145.631 19.6565C145.65 19.6784 145.663 19.7036 145.672 19.7308C145.68 19.758 145.683 19.7867 145.681 19.815C145.678 19.8434 145.67 19.8709 145.656 19.896C145.645 19.9251 145.628 19.9515 145.606 19.9733L145.602 19.9599Z" fill="#91B3FA"/>
<path d="M145.788 56.5139L145.751 56.5408C145.491 56.682 145.229 56.8164 144.969 56.9408C144.918 56.9592 144.863 56.9583 144.813 56.9382C144.762 56.9181 144.722 56.8802 144.698 56.8318C144.674 56.7835 144.669 56.728 144.684 56.6762C144.698 56.6243 144.732 56.5797 144.777 56.5509C145.03 56.4265 145.286 56.2955 145.542 56.1577C145.589 56.1342 145.643 56.1286 145.694 56.1417C145.745 56.1549 145.79 56.186 145.82 56.2293C145.85 56.2727 145.863 56.3253 145.857 56.3776C145.851 56.4299 145.827 56.4783 145.788 56.5139Z" fill="#91B3FA"/>
<path d="M129.569 58.0675C129.541 58.0922 129.507 58.1093 129.47 58.1169C129.433 58.1246 129.395 58.1226 129.36 58.1112C129.083 58.0238 128.804 57.9297 128.528 57.8289C128.473 57.8093 128.429 57.769 128.405 57.717C128.381 57.665 128.378 57.6055 128.398 57.5516C128.417 57.4977 128.458 57.4537 128.51 57.4295C128.562 57.4052 128.622 57.4026 128.676 57.4222C128.945 57.5197 129.218 57.6138 129.491 57.6978C129.527 57.7099 129.56 57.7312 129.586 57.7597C129.611 57.7883 129.629 57.823 129.636 57.8604C129.644 57.8978 129.642 57.9367 129.63 57.973C129.618 58.0093 129.597 58.0419 129.569 58.0675Z" fill="#91B3FA"/>
<path d="M126.156 56.6389C126.123 56.6673 126.082 56.685 126.039 56.6898C125.995 56.6946 125.952 56.6862 125.913 56.6658C125.398 56.3935 124.886 56.0944 124.39 55.7785C124.342 55.7472 124.307 55.698 124.295 55.6416C124.283 55.5852 124.293 55.5262 124.325 55.4776C124.356 55.4291 124.405 55.3949 124.462 55.3826C124.518 55.3703 124.578 55.3809 124.626 55.4121C125.111 55.7213 125.613 56.0137 126.119 56.2792C126.15 56.2954 126.178 56.3191 126.198 56.3483C126.218 56.3775 126.231 56.4113 126.235 56.4465C126.239 56.4818 126.234 56.5175 126.221 56.5505C126.208 56.5835 126.186 56.6127 126.159 56.6355L126.156 56.6389ZM122.369 54.0812C122.33 54.1152 122.279 54.1339 122.227 54.1339C122.175 54.1339 122.125 54.1152 122.086 54.0812C121.638 53.7014 121.203 53.3014 120.792 52.8846C120.752 52.8436 120.729 52.7882 120.729 52.7305C120.73 52.6728 120.753 52.6177 120.794 52.5771C120.835 52.5365 120.891 52.5139 120.948 52.5143C121.006 52.5146 121.062 52.5378 121.102 52.5788C121.506 52.9855 121.931 53.3787 122.369 53.7484C122.412 53.7861 122.439 53.8393 122.444 53.8965C122.448 53.9537 122.43 54.0104 122.393 54.0543L122.369 54.0812ZM119.232 50.7504C119.186 50.7841 119.128 50.7984 119.072 50.7903C119.015 50.7821 118.964 50.7521 118.929 50.7067C118.592 50.2395 118.255 49.7522 117.918 49.2581C117.888 49.2095 117.877 49.1507 117.89 49.0946C117.903 49.0385 117.937 48.9897 117.986 48.959C118.034 48.9282 118.093 48.918 118.15 48.9307C118.206 48.9433 118.255 48.9776 118.286 49.0262C118.592 49.5102 118.919 49.9875 119.263 50.4446C119.299 50.4892 119.316 50.5464 119.311 50.6037C119.305 50.661 119.277 50.7137 119.232 50.7504ZM116.908 46.8315C116.891 46.8453 116.873 46.8566 116.854 46.8651C116.828 46.8769 116.8 46.8835 116.772 46.8844C116.743 46.8854 116.715 46.8808 116.688 46.8708C116.662 46.8608 116.637 46.8456 116.616 46.8262C116.596 46.8068 116.579 46.7834 116.567 46.7575C116.328 46.2265 116.106 45.6753 115.91 45.1241C115.901 45.0972 115.897 45.0687 115.898 45.0401C115.9 45.0116 115.907 44.9837 115.919 44.958C115.932 44.9322 115.949 44.9092 115.97 44.8901C115.992 44.871 116.017 44.8563 116.044 44.8468C116.07 44.8373 116.099 44.8332 116.128 44.8348C116.156 44.8363 116.184 44.8434 116.21 44.8558C116.236 44.8681 116.259 44.8854 116.278 44.9066C116.297 44.9279 116.312 44.9527 116.321 44.9796C116.513 45.5207 116.729 46.0585 116.965 46.5794C116.984 46.622 116.988 46.6695 116.978 46.7148C116.967 46.7601 116.943 46.801 116.908 46.8315ZM115.496 42.4924C115.468 42.5162 115.434 42.5324 115.398 42.5395C115.37 42.5454 115.342 42.5457 115.314 42.5404C115.286 42.5352 115.259 42.5244 115.235 42.5088C115.211 42.4931 115.191 42.473 115.175 42.4494C115.159 42.4258 115.148 42.3993 115.142 42.3715C115.024 41.8001 114.927 41.2153 114.859 40.6338C114.86 40.5809 114.88 40.53 114.916 40.4907C114.951 40.4513 115 40.4263 115.053 40.4201C115.105 40.4139 115.159 40.4271 115.202 40.4571C115.246 40.4872 115.277 40.5321 115.291 40.5834C115.358 41.1514 115.452 41.7228 115.57 42.2841C115.577 42.322 115.573 42.3611 115.56 42.3972C115.546 42.4332 115.523 42.465 115.493 42.4891L115.496 42.4924ZM115.065 37.9517C115.033 37.9803 114.994 37.9989 114.952 38.0053C114.91 38.0116 114.867 38.0054 114.828 37.9875C114.79 37.9695 114.758 37.9406 114.735 37.9043C114.713 37.8681 114.703 37.8261 114.704 37.7837C114.704 37.1989 114.748 36.6074 114.805 36.0293C114.818 35.9783 114.849 35.9337 114.892 35.9035C114.935 35.8733 114.988 35.8596 115.04 35.8649C115.092 35.8702 115.141 35.8942 115.177 35.9324C115.213 35.9706 115.234 36.0205 115.237 36.073C115.179 36.641 115.146 37.2191 115.136 37.7938C115.135 37.823 115.128 37.8518 115.116 37.8784C115.104 37.9049 115.086 37.9288 115.065 37.9484V37.9517ZM115.641 33.4279C115.606 33.4527 115.564 33.4666 115.521 33.4676C115.478 33.4687 115.436 33.4569 115.4 33.4338C115.363 33.4107 115.335 33.3772 115.318 33.3379C115.301 33.2985 115.296 33.2549 115.304 33.2128C115.442 32.6447 115.604 32.0767 115.789 31.5323C115.798 31.5053 115.813 31.4805 115.831 31.459C115.85 31.4376 115.873 31.4201 115.898 31.4075C115.924 31.3948 115.951 31.3873 115.98 31.3854C116.008 31.3834 116.037 31.3871 116.064 31.3961C116.091 31.4052 116.116 31.4194 116.137 31.4381C116.159 31.4568 116.176 31.4795 116.189 31.5049C116.201 31.5303 116.209 31.558 116.211 31.5864C116.213 31.6147 116.209 31.6431 116.2 31.6701C116.018 32.2112 115.863 32.7691 115.725 33.327C115.707 33.3678 115.676 33.4019 115.638 33.4245L115.641 33.4279ZM117.201 29.1392C117.163 29.1738 117.115 29.194 117.064 29.1963C117.013 29.1986 116.963 29.1829 116.923 29.1519C116.882 29.1209 116.854 29.0766 116.843 29.0269C116.833 28.9772 116.84 28.9253 116.864 28.8804C117.123 28.3595 117.406 27.8385 117.71 27.3377C117.739 27.2887 117.787 27.2534 117.842 27.2395C117.898 27.2256 117.957 27.2344 118.006 27.2638C118.055 27.2932 118.091 27.3409 118.104 27.3964C118.118 27.4518 118.11 27.5105 118.08 27.5596C117.784 28.0503 117.504 28.5679 117.251 29.072C117.238 29.0966 117.219 29.1183 117.197 29.1359L117.201 29.1392ZM119.66 25.2909C119.62 25.3319 119.566 25.3555 119.509 25.3564C119.452 25.3574 119.396 25.3356 119.355 25.2959C119.314 25.2563 119.291 25.2019 119.29 25.1449C119.289 25.0879 119.311 25.0328 119.35 24.9918C119.718 24.5347 120.108 24.0877 120.513 23.6675C120.552 23.6261 120.607 23.6021 120.665 23.6008C120.722 23.5996 120.778 23.6211 120.819 23.6608C120.861 23.7005 120.885 23.755 120.886 23.8124C120.887 23.8697 120.866 23.9252 120.826 23.9667C120.432 24.3801 120.048 24.817 119.687 25.264L119.66 25.2909ZM124.32 21.0392H124.299C123.821 21.3585 123.353 21.7114 122.905 22.0475C122.882 22.0657 122.857 22.0793 122.829 22.0875C122.802 22.0957 122.773 22.0982 122.744 22.0951C122.716 22.092 122.688 22.0832 122.663 22.0692C122.638 22.0553 122.616 22.0365 122.598 22.0139C122.58 21.9918 122.566 21.9662 122.558 21.9387C122.55 21.9113 122.547 21.8824 122.55 21.8539C122.554 21.8254 122.562 21.7979 122.576 21.7728C122.59 21.7478 122.609 21.7258 122.632 21.7081C123.09 21.3451 123.568 20.9955 124.057 20.6695C124.102 20.6434 124.155 20.6344 124.206 20.6443C124.257 20.6542 124.303 20.6822 124.335 20.7232C124.367 20.7642 124.383 20.8154 124.381 20.8673C124.378 20.9193 124.356 20.9684 124.32 21.0056V21.0392Z" fill="#91B3FA"/>
<path d="M127.568 19.268C127.551 19.2818 127.533 19.2931 127.514 19.3016C127.251 19.4159 126.988 19.5369 126.732 19.6579C126.682 19.6742 126.627 19.6718 126.578 19.6511C126.53 19.6303 126.49 19.5927 126.467 19.5451C126.444 19.4975 126.439 19.4432 126.453 19.3923C126.467 19.3413 126.499 19.2972 126.543 19.268C126.803 19.1437 127.072 19.0193 127.342 18.9017C127.39 18.8764 127.446 18.8701 127.498 18.8842C127.551 18.8982 127.596 18.9315 127.625 18.9773C127.654 19.0232 127.664 19.0783 127.654 19.1315C127.644 19.1848 127.615 19.2324 127.571 19.2647L127.568 19.268Z" fill="#91B3FA"/>
<path d="M131.243 22.8307C131.192 22.8398 131.145 22.8644 131.109 22.9011C131.073 22.9378 131.049 22.9849 131.041 23.0357L130.573 26.0304C129.251 26.5968 128.031 27.3745 126.961 28.3327L124.04 27.5058C123.99 27.4917 123.937 27.4935 123.888 27.511C123.839 27.5284 123.797 27.5607 123.767 27.6033L121.685 30.5845C121.655 30.6267 121.638 30.6772 121.638 30.729C121.638 30.7809 121.655 30.8314 121.685 30.8736L123.474 33.3204C122.943 34.654 122.633 36.0651 122.558 37.4981L119.906 38.987C119.86 39.0122 119.824 39.051 119.801 39.0981C119.779 39.1451 119.772 39.1979 119.781 39.2492L120.421 42.8252C120.431 42.876 120.455 42.9226 120.492 42.9587C120.529 42.9948 120.576 43.0187 120.627 43.0269L123.629 43.4974C124.197 44.8156 124.976 46.0326 125.937 47.1004L125.108 50.0144C125.094 50.0643 125.096 50.1173 125.113 50.1661C125.131 50.215 125.163 50.2571 125.206 50.2866L128.194 52.3637C128.236 52.3939 128.287 52.41 128.339 52.41C128.391 52.41 128.441 52.3939 128.484 52.3637L130.936 50.5791C132.273 51.1089 133.688 51.4177 135.124 51.4932L136.603 54.1383C136.629 54.1839 136.667 54.2204 136.715 54.2427C136.762 54.265 136.815 54.272 136.866 54.2627L140.451 53.6241C140.502 53.615 140.548 53.5904 140.585 53.5537C140.621 53.517 140.645 53.4699 140.653 53.4191L141.125 50.4244C142.446 49.858 143.666 49.0804 144.736 48.1222L147.657 48.949C147.707 48.9631 147.76 48.9613 147.809 48.9439C147.858 48.9264 147.901 48.8941 147.93 48.8515L150.012 45.8703C150.042 45.8281 150.059 45.7776 150.059 45.7258C150.059 45.674 150.042 45.6234 150.012 45.5813L148.223 43.1345C148.754 41.8009 149.064 40.3898 149.14 38.9567L151.791 37.4813C151.837 37.4561 151.873 37.4172 151.896 37.3702C151.918 37.3232 151.925 37.2703 151.916 37.2191L151.272 33.6094C151.263 33.5587 151.239 33.5121 151.202 33.4759C151.165 33.4398 151.118 33.416 151.067 33.4078L148.065 32.9372C147.497 31.619 146.718 30.4021 145.757 29.3342L146.586 26.4202C146.6 26.3704 146.598 26.3173 146.581 26.2685C146.563 26.2197 146.531 26.1776 146.488 26.148L143.5 24.0709C143.458 24.0408 143.407 24.0246 143.355 24.0246C143.303 24.0246 143.252 24.0408 143.21 24.0709L140.757 25.8791C139.421 25.3493 138.006 25.0405 136.57 24.9649L135.101 22.3165C135.075 22.2709 135.036 22.2344 134.989 22.2121C134.942 22.1898 134.889 22.1828 134.838 22.1921L131.243 22.8307Z" fill="#91B3FA"/>
<path d="M138.173 40.9088C137.914 41.1317 137.623 41.3162 137.311 41.4567C136.495 41.8223 135.57 41.8662 134.723 41.5794C133.875 41.2927 133.168 40.6965 132.744 39.9109C132.319 39.1252 132.208 38.2083 132.434 37.3445C132.659 36.4807 133.204 35.734 133.958 35.2546C134.713 34.7752 135.622 34.5987 136.502 34.7604C137.382 34.9221 138.168 35.4102 138.702 36.1264C139.236 36.8427 139.478 37.734 139.38 38.6212C139.282 39.5084 138.851 40.3258 138.173 40.9088ZM133.945 36.0186C133.578 36.335 133.296 36.7383 133.126 37.1916C132.889 37.8195 132.878 38.51 133.093 39.1455C133.309 39.781 133.739 40.3222 134.31 40.6768C134.882 41.0315 135.558 41.1777 136.225 41.0904C136.892 41.0032 137.508 40.6881 137.968 40.1986C138.428 39.7091 138.704 39.0757 138.748 38.4061C138.793 37.7366 138.603 37.0724 138.212 36.5267C137.82 35.981 137.251 35.5875 136.602 35.4134C135.952 35.2392 135.262 35.2951 134.649 35.5716C134.396 35.6865 134.16 35.837 133.949 36.0186H133.945Z" fill="#BDD0FB"/>
<path d="M141.815 45.188C140.133 46.6363 137.978 47.4217 135.756 47.3964C133.533 47.3712 131.397 46.5371 129.748 45.051C128.099 43.5648 127.051 41.5289 126.801 39.3261C126.55 37.1232 127.115 34.905 128.389 33.0885L128.524 32.9036C128.828 32.4919 129.166 32.1062 129.535 31.7508L129.663 31.6264L130.108 32.1037C129.667 32.5091 129.271 32.9598 128.925 33.4481C127.854 34.9752 127.319 36.8131 127.405 38.6751C127.491 40.5371 128.192 42.3183 129.4 43.7409C130.607 45.1634 132.252 46.1471 134.079 46.5386C135.906 46.9301 137.811 46.7072 139.498 45.9048C141.184 45.1024 142.557 43.7656 143.402 42.1031C144.246 40.4405 144.516 38.5457 144.168 36.7144C143.819 34.8832 142.873 33.2184 141.477 31.98C140.08 30.7416 138.312 29.9992 136.448 29.8686L136.492 29.22C138.294 29.3465 140.019 30.0043 141.446 31.1098C142.873 32.2154 143.938 33.7188 144.508 35.4295C145.077 37.1402 145.124 38.981 144.643 40.7184C144.161 42.4558 143.174 44.0114 141.805 45.188H141.815Z" fill="#BDD0FB"/>
<path d="M124.124 2.43965C124.108 2.45323 124.089 2.46276 124.069 2.46744C124.048 2.47212 124.027 2.47181 124.006 2.46654C123.838 2.42285 123.67 2.37915 123.504 2.34218C123.487 2.33927 123.47 2.3328 123.455 2.32316C123.44 2.31353 123.427 2.30093 123.417 2.28615C123.407 2.27137 123.4 2.25471 123.397 2.23719C123.393 2.21966 123.394 2.20165 123.398 2.18425C123.402 2.16685 123.409 2.15043 123.42 2.13599C123.43 2.12155 123.443 2.10939 123.459 2.10026C123.474 2.09114 123.491 2.08523 123.509 2.08291C123.527 2.08058 123.545 2.08189 123.562 2.08675C123.73 2.12372 123.899 2.16741 124.074 2.21446C124.097 2.22087 124.117 2.23332 124.134 2.25049C124.15 2.26767 124.161 2.28892 124.166 2.31201C124.172 2.3351 124.17 2.35915 124.163 2.38162C124.156 2.40409 124.142 2.42415 124.124 2.43965Z" fill="#91B3FA"/>
<path d="M129.006 23.9331C128.774 24.1314 128.534 24.323 128.288 24.5045C128.261 24.5195 128.228 24.5239 128.198 24.5171C128.167 24.5103 128.139 24.4926 128.12 24.4673C128.102 24.4419 128.093 24.4107 128.095 24.3793C128.097 24.3478 128.111 24.3183 128.133 24.2961C128.413 24.0877 128.689 23.8659 128.952 23.6239C128.979 23.6066 129.01 23.5994 129.042 23.6036C129.073 23.6078 129.102 23.6232 129.123 23.6469C129.144 23.6707 129.155 23.7011 129.156 23.7327C129.156 23.7643 129.145 23.7949 129.124 23.8189L129.006 23.9331ZM130.354 22.5887C130.329 22.6103 130.296 22.6216 130.263 22.6204C130.23 22.6191 130.199 22.6054 130.175 22.5821C130.152 22.5587 130.138 22.5273 130.137 22.4943C130.135 22.4612 130.147 22.4289 130.168 22.4039C130.397 22.1384 130.616 21.8594 130.819 21.5771C130.828 21.5608 130.84 21.5465 130.855 21.5353C130.869 21.5241 130.886 21.5161 130.905 21.512C130.923 21.5078 130.942 21.5075 130.96 21.5112C130.978 21.5148 130.995 21.5223 131.01 21.5331C131.026 21.5438 131.038 21.5577 131.048 21.5738C131.057 21.5898 131.063 21.6076 131.065 21.6261C131.067 21.6445 131.065 21.6632 131.059 21.6808C131.053 21.6985 131.043 21.7146 131.031 21.7283C130.822 22.0174 130.596 22.303 130.357 22.5719L130.354 22.5887ZM131.924 20.2831C131.901 20.3022 131.872 20.3128 131.842 20.3132C131.812 20.3136 131.782 20.3038 131.759 20.2854C131.735 20.2669 131.719 20.2409 131.712 20.2118C131.705 20.1826 131.709 20.1521 131.722 20.1251C131.887 19.8159 132.038 19.4966 132.176 19.174C132.181 19.1556 132.19 19.1385 132.201 19.1237C132.213 19.109 132.228 19.097 132.245 19.0886C132.262 19.0801 132.281 19.0754 132.3 19.0749C132.319 19.0743 132.338 19.0778 132.355 19.0851C132.372 19.0925 132.388 19.1035 132.401 19.1175C132.414 19.1315 132.423 19.148 132.429 19.166C132.435 19.1841 132.437 19.2031 132.434 19.2219C132.432 19.2407 132.426 19.2587 132.416 19.2748C132.277 19.6109 132.119 19.9302 131.954 20.2461C131.945 20.2648 131.931 20.2809 131.914 20.2932L131.924 20.2831ZM132.934 17.6884C132.913 17.7062 132.887 17.7168 132.859 17.7188C132.832 17.7208 132.804 17.714 132.781 17.6995C132.757 17.685 132.739 17.6634 132.728 17.6379C132.718 17.6123 132.716 17.5842 132.722 17.5573C132.813 17.2212 132.891 16.8851 132.951 16.5289C132.952 16.5102 132.957 16.4919 132.966 16.4752C132.974 16.4585 132.986 16.4439 133.001 16.4323C133.015 16.4206 133.033 16.4123 133.051 16.4077C133.069 16.4032 133.088 16.4026 133.106 16.406C133.125 16.4094 133.142 16.4167 133.158 16.4274C133.173 16.4381 133.186 16.452 133.196 16.468C133.205 16.4841 133.211 16.5021 133.213 16.5207C133.215 16.5393 133.213 16.5581 133.207 16.5759C133.143 16.912 133.066 17.2817 132.975 17.6245C132.97 17.653 132.956 17.6789 132.934 17.6985V17.6884ZM133.349 14.9324C133.329 14.9486 133.306 14.9588 133.281 14.9619C133.256 14.965 133.23 14.9608 133.207 14.9498C133.185 14.9388 133.165 14.9215 133.152 14.8999C133.139 14.8783 133.133 14.8534 133.133 14.8282C133.133 14.4921 133.133 14.1258 133.133 13.7762C133.13 13.7575 133.131 13.7383 133.136 13.72C133.142 13.7017 133.151 13.6848 133.163 13.6703C133.175 13.6559 133.191 13.6443 133.208 13.6363C133.225 13.6283 133.244 13.6242 133.263 13.6242C133.282 13.6242 133.301 13.6283 133.318 13.6363C133.335 13.6443 133.351 13.6559 133.363 13.6703C133.375 13.6848 133.384 13.7017 133.389 13.72C133.395 13.7383 133.396 13.7575 133.393 13.7762C133.409 14.1325 133.413 14.4955 133.393 14.8517C133.392 14.869 133.387 14.8859 133.38 14.9015C133.372 14.917 133.362 14.931 133.349 14.9425V14.9324ZM133.14 12.1529C133.123 12.1672 133.102 12.1769 133.079 12.1808C133.057 12.1848 133.034 12.183 133.013 12.1756C132.992 12.1681 132.973 12.1553 132.958 12.1384C132.943 12.1215 132.932 12.101 132.928 12.0789C132.864 11.7428 132.783 11.4067 132.688 11.0706C132.681 11.0379 132.687 11.0036 132.704 10.9748C132.721 10.9461 132.749 10.925 132.781 10.916C132.814 10.9069 132.848 10.9106 132.878 10.9262C132.908 10.9419 132.93 10.9683 132.941 11C133.036 11.3361 133.12 11.6958 133.187 12.0453C133.19 12.0678 133.188 12.0908 133.18 12.112C133.171 12.1332 133.158 12.1519 133.14 12.1663V12.1529ZM132.321 9.48759L132.288 9.50775C132.256 9.52133 132.22 9.52188 132.188 9.50931C132.156 9.49672 132.13 9.47202 132.116 9.44053C131.978 9.10443 131.823 8.80194 131.654 8.49273C131.642 8.46298 131.642 8.42995 131.653 8.39989C131.664 8.36982 131.685 8.34479 131.714 8.3295C131.742 8.31421 131.775 8.30972 131.806 8.31688C131.837 8.32405 131.865 8.34236 131.883 8.36838C132.052 8.68095 132.22 9.00697 132.355 9.33634C132.37 9.36338 132.374 9.39468 132.368 9.42478C132.362 9.45488 132.345 9.48187 132.321 9.50103V9.48759ZM130.93 7.07103C130.917 7.08632 130.9 7.09834 130.881 7.10614C130.863 7.11395 130.842 7.11733 130.822 7.11603C130.802 7.11473 130.782 7.10878 130.765 7.09864C130.747 7.0885 130.732 7.07445 130.721 7.05759C130.539 6.80888 130.344 6.56353 130.141 6.33162L130.061 6.23751C130.036 6.21295 130.022 6.17972 130.022 6.14508C130.022 6.11044 130.036 6.07722 130.061 6.05265C130.085 6.02924 130.118 6.01616 130.152 6.01616C130.185 6.01616 130.218 6.02924 130.243 6.05265L130.327 6.14676C130.532 6.38539 130.731 6.63411 130.92 6.88954C130.934 6.90135 130.945 6.91601 130.953 6.93254C130.962 6.94907 130.966 6.96712 130.967 6.98551C130.967 7.0039 130.964 7.02221 130.957 7.03926C130.95 7.05632 130.94 7.07172 130.926 7.08448L130.93 7.07103ZM129.036 5.041C129.013 5.06157 128.982 5.0729 128.95 5.0729C128.919 5.0729 128.888 5.06157 128.865 5.041C128.598 4.81245 128.322 4.59398 128.036 4.38896C128.019 4.38009 128.005 4.36786 127.994 4.35308C127.983 4.3383 127.975 4.3213 127.971 4.30321C127.966 4.28513 127.966 4.26636 127.97 4.24816C127.973 4.22996 127.981 4.21274 127.992 4.19764C128.002 4.18254 128.016 4.1699 128.032 4.16056C128.049 4.15122 128.066 4.14539 128.085 4.14346C128.103 4.14153 128.122 4.14354 128.14 4.14936C128.157 4.15518 128.174 4.16468 128.187 4.17722C128.477 4.3856 128.763 4.61079 129.033 4.84942C129.057 4.87398 129.071 4.90721 129.071 4.94185C129.071 4.97648 129.057 5.00971 129.033 5.03427L129.036 5.041ZM126.729 3.46805C126.707 3.48222 126.682 3.48977 126.656 3.48977C126.63 3.48977 126.605 3.48222 126.584 3.46805C126.274 3.30336 125.954 3.14876 125.634 3.01432C125.615 3.00972 125.598 3.0012 125.583 2.98935C125.568 2.9775 125.556 2.9626 125.548 2.94568C125.54 2.92875 125.535 2.9102 125.534 2.8913C125.534 2.87239 125.537 2.85359 125.545 2.83616C125.552 2.81874 125.563 2.80312 125.577 2.79037C125.591 2.77762 125.608 2.76804 125.626 2.7623C125.644 2.75655 125.663 2.75477 125.682 2.75709C125.7 2.7594 125.719 2.76574 125.735 2.77569C126.072 2.91685 126.388 3.07146 126.705 3.23951C126.735 3.25589 126.757 3.28332 126.768 3.31597C126.778 3.34861 126.774 3.38388 126.759 3.41428C126.751 3.43389 126.738 3.45121 126.722 3.46469L126.729 3.46805Z" fill="#91B3FA"/>
<path d="M126.833 25.4287H126.81C126.655 25.5128 126.496 25.5934 126.341 25.6707C126.31 25.6832 126.276 25.6835 126.245 25.6716C126.214 25.6596 126.188 25.6364 126.174 25.6065C126.159 25.5766 126.157 25.5423 126.166 25.5106C126.176 25.4788 126.198 25.452 126.227 25.4355C126.378 25.3615 126.533 25.2809 126.685 25.2002C126.713 25.1871 126.745 25.1843 126.775 25.1923C126.804 25.2003 126.831 25.2186 126.848 25.2439C126.866 25.2692 126.874 25.2999 126.871 25.3307C126.869 25.3614 126.855 25.3902 126.833 25.4119V25.4287Z" fill="#91B3FA"/>
<path d="M117.086 26.3599C117.07 26.3745 117.049 26.3847 117.028 26.3894C117.006 26.3941 116.983 26.3932 116.962 26.3868C116.797 26.333 116.625 26.2758 116.463 26.2153C116.446 26.2102 116.43 26.2017 116.416 26.1901C116.402 26.1786 116.391 26.1644 116.383 26.1483C116.375 26.1323 116.37 26.1148 116.369 26.0969C116.368 26.079 116.371 26.061 116.377 26.0442C116.384 26.0274 116.393 26.012 116.406 25.9991C116.418 25.9861 116.433 25.9758 116.45 25.9689C116.466 25.9619 116.484 25.9584 116.502 25.9586C116.52 25.9588 116.538 25.9627 116.554 25.97C116.716 26.0305 116.891 26.0843 117.043 26.1347C117.064 26.1418 117.084 26.1546 117.099 26.1717C117.115 26.1888 117.125 26.2096 117.13 26.232C117.135 26.2545 117.134 26.2778 117.127 26.2997C117.12 26.3215 117.107 26.3411 117.09 26.3565L117.086 26.3599Z" fill="#91B3FA"/>
<path d="M115.034 25.5022C115.013 25.5163 114.988 25.5239 114.962 25.5239C114.936 25.5239 114.911 25.5163 114.89 25.5022C114.58 25.3375 114.27 25.1661 113.973 24.9711C113.956 24.9631 113.941 24.9515 113.929 24.9373C113.917 24.923 113.909 24.9064 113.904 24.8885C113.899 24.8706 113.897 24.8518 113.9 24.8335C113.903 24.8151 113.91 24.7975 113.92 24.7819C113.93 24.7662 113.943 24.7529 113.959 24.7429C113.974 24.7328 113.992 24.7261 114.011 24.7234C114.029 24.7206 114.048 24.7218 114.066 24.7268C114.084 24.7319 114.1 24.7407 114.115 24.7527C114.404 24.9375 114.708 25.1156 115.011 25.2736C115.03 25.2837 115.046 25.2981 115.058 25.3158C115.07 25.3335 115.077 25.3538 115.079 25.375C115.082 25.3961 115.079 25.4176 115.071 25.4374C115.063 25.4572 115.051 25.4748 115.034 25.4887V25.5022ZM112.757 23.9628C112.733 23.9825 112.703 23.9933 112.673 23.9933C112.642 23.9933 112.612 23.9825 112.588 23.9628C112.319 23.7343 112.059 23.4923 111.81 23.2436C111.789 23.2185 111.777 23.1862 111.778 23.1532C111.78 23.1201 111.793 23.0888 111.817 23.0654C111.84 23.042 111.872 23.0283 111.905 23.0271C111.938 23.0258 111.97 23.0371 111.995 23.0587C112.238 23.3007 112.494 23.5393 112.757 23.7612C112.781 23.7857 112.795 23.819 112.795 23.8536C112.795 23.8882 112.781 23.9215 112.757 23.946V23.9628ZM110.87 21.9664C110.842 21.9865 110.808 21.995 110.774 21.99C110.74 21.985 110.709 21.9668 110.688 21.9395C110.476 21.6605 110.274 21.3648 110.089 21.069C110.074 21.0398 110.07 21.006 110.079 20.9745C110.088 20.9429 110.109 20.9158 110.136 20.8985C110.164 20.8813 110.198 20.875 110.23 20.8811C110.262 20.8871 110.291 20.905 110.311 20.9312C110.493 21.2236 110.692 21.5093 110.901 21.7849C110.92 21.8131 110.928 21.8479 110.923 21.8818C110.917 21.9158 110.898 21.9462 110.87 21.9664ZM109.472 19.6137L109.442 19.6339C109.41 19.6477 109.375 19.6487 109.343 19.6368C109.311 19.6248 109.285 19.6009 109.27 19.57C109.125 19.2339 108.994 18.9213 108.876 18.5886C108.868 18.5573 108.873 18.5243 108.888 18.4961C108.904 18.4679 108.929 18.4463 108.96 18.4355C108.99 18.4247 109.023 18.4254 109.053 18.4375C109.083 18.4497 109.107 18.4723 109.122 18.5012C109.236 18.8373 109.368 19.1499 109.509 19.4625C109.518 19.4874 109.52 19.5147 109.513 19.5405C109.507 19.5663 109.492 19.5895 109.472 19.607V19.6137ZM108.623 17.0056C108.607 17.0204 108.587 17.0308 108.566 17.0358C108.532 17.0428 108.496 17.0361 108.467 17.0172C108.438 16.9983 108.418 16.9688 108.411 16.935C108.34 16.5989 108.283 16.2393 108.239 15.8931C108.239 15.8608 108.25 15.8296 108.272 15.8055C108.293 15.7813 108.323 15.7659 108.355 15.7621C108.387 15.7584 108.42 15.7666 108.446 15.7852C108.472 15.8037 108.491 15.8314 108.498 15.8628C108.539 16.1989 108.596 16.535 108.667 16.8711C108.672 16.8944 108.67 16.9185 108.663 16.941C108.655 16.9635 108.641 16.9835 108.623 16.9988V17.0056ZM108.364 14.2764C108.344 14.2924 108.321 14.3026 108.296 14.3058C108.271 14.309 108.246 14.3051 108.224 14.2945C108.201 14.2839 108.182 14.2671 108.168 14.2461C108.155 14.225 108.148 14.2006 108.148 14.1756C108.148 13.8395 108.175 13.4698 108.209 13.1203C108.216 13.0891 108.234 13.0616 108.26 13.043C108.286 13.0244 108.318 13.016 108.35 13.0193C108.382 13.0226 108.412 13.0374 108.433 13.061C108.455 13.0845 108.467 13.1152 108.468 13.1471C108.434 13.4832 108.414 13.8362 108.407 14.1823C108.405 14.2143 108.39 14.2442 108.367 14.2664L108.364 14.2764ZM108.7 11.5574C108.679 11.5766 108.653 11.5885 108.624 11.5913C108.596 11.5941 108.568 11.5876 108.543 11.5728C108.519 11.558 108.5 11.5357 108.49 11.5093C108.479 11.4829 108.477 11.4537 108.485 11.4263C108.569 11.0902 108.667 10.7541 108.778 10.418C108.789 10.385 108.813 10.3578 108.844 10.3424C108.876 10.327 108.912 10.3245 108.945 10.3357C108.978 10.3468 109.005 10.3706 109.021 10.4018C109.036 10.433 109.038 10.4691 109.027 10.502C108.919 10.8381 108.822 11.1742 108.741 11.5103C108.733 11.5244 108.723 11.537 108.711 11.5473L108.7 11.5574ZM109.637 8.97952C109.614 8.99861 109.585 9.00925 109.555 9.00966C109.525 9.01008 109.496 9.00024 109.472 8.98179C109.449 8.96333 109.432 8.93738 109.425 8.90823C109.418 8.87908 109.422 8.84849 109.435 8.82155C109.59 8.50898 109.772 8.19641 109.944 7.89392C109.951 7.87658 109.962 7.86102 109.976 7.8483C109.99 7.83557 110.006 7.82598 110.024 7.82018C110.042 7.81438 110.061 7.81251 110.08 7.81468C110.099 7.81685 110.117 7.82303 110.133 7.83278C110.149 7.84254 110.163 7.85564 110.173 7.87121C110.184 7.88678 110.191 7.90444 110.194 7.92299C110.197 7.94155 110.197 7.96057 110.192 7.97875C110.187 7.99693 110.178 8.01385 110.166 8.02836C109.987 8.32413 109.829 8.62998 109.667 8.93583C109.662 8.948 109.656 8.95934 109.647 8.96944L109.637 8.97952ZM111.116 6.66716C111.091 6.68586 111.06 6.69497 111.029 6.69285C110.997 6.69073 110.968 6.67752 110.946 6.6556C110.923 6.63369 110.909 6.60451 110.907 6.57335C110.904 6.54218 110.913 6.51108 110.931 6.48566C111.153 6.21006 111.386 5.94454 111.628 5.68911C111.639 5.67359 111.653 5.66057 111.669 5.65096C111.686 5.64134 111.704 5.63536 111.723 5.63341C111.741 5.63146 111.761 5.63359 111.778 5.63966C111.796 5.64573 111.813 5.6556 111.827 5.66858C111.84 5.68157 111.851 5.69736 111.858 5.71489C111.865 5.73241 111.868 5.75125 111.867 5.77012C111.867 5.78899 111.862 5.80743 111.853 5.8242C111.844 5.84096 111.832 5.85564 111.817 5.86724C111.581 6.11595 111.349 6.37811 111.143 6.64699L111.116 6.66716ZM113.912 4.1128C113.626 4.30438 113.343 4.5094 113.074 4.7245C113.047 4.74541 113.012 4.75499 112.978 4.75123C112.945 4.74746 112.913 4.73064 112.892 4.70434C112.881 4.69117 112.873 4.67599 112.868 4.65968C112.863 4.64337 112.862 4.62626 112.863 4.60935C112.865 4.59244 112.871 4.57608 112.879 4.56123C112.887 4.54637 112.898 4.53332 112.912 4.52285C113.188 4.30438 113.474 4.096 113.768 3.8977C113.795 3.87961 113.829 3.87272 113.862 3.87841C113.895 3.8841 113.924 3.90195 113.944 3.92836C113.964 3.95477 113.973 3.98779 113.97 4.02076C113.967 4.05374 113.951 4.08423 113.926 4.10608L113.912 4.1128Z" fill="#91B3FA"/>
<path d="M115.897 3.02449L115.863 3.04466C115.705 3.11188 115.547 3.18582 115.395 3.25976C115.364 3.27222 115.33 3.27251 115.299 3.26058C115.267 3.24865 115.242 3.2254 115.228 3.19551C115.213 3.16562 115.21 3.13134 115.22 3.09959C115.23 3.06784 115.252 3.041 115.28 3.02449C115.435 2.95055 115.597 2.87661 115.759 2.80603C115.787 2.79426 115.819 2.79296 115.849 2.80234C115.878 2.81171 115.904 2.83117 115.92 2.85729C115.937 2.88341 115.943 2.9145 115.939 2.94509C115.935 2.97567 115.92 3.00379 115.897 3.02449Z" fill="#91B3FA"/>
<path d="M118.09 5.18287C118.06 5.18868 118.032 5.20373 118.01 5.22598C117.988 5.24822 117.974 5.27659 117.969 5.30723L117.686 7.10536C116.892 7.44623 116.159 7.91394 115.516 8.49009L113.761 7.99266C113.731 7.98403 113.699 7.98489 113.669 7.99512C113.64 8.00535 113.614 8.02445 113.596 8.0498L112.343 9.84121C112.325 9.86676 112.315 9.89729 112.315 9.92859C112.315 9.9599 112.325 9.99043 112.343 10.016L113.417 11.4847C113.097 12.2871 112.911 13.1363 112.865 13.9988L111.271 14.8861C111.244 14.9015 111.222 14.925 111.209 14.9533C111.196 14.9816 111.192 15.0133 111.197 15.044L111.581 17.1951C111.587 17.2258 111.602 17.254 111.624 17.2757C111.646 17.2974 111.675 17.3116 111.706 17.3161L113.508 17.5984C113.847 18.3885 114.313 19.1183 114.886 19.7595L114.405 21.5106C114.396 21.5406 114.397 21.5725 114.407 21.602C114.417 21.6315 114.436 21.6571 114.462 21.6753L116.258 22.9256C116.283 22.9436 116.314 22.9533 116.345 22.9533C116.377 22.9533 116.407 22.9436 116.433 22.9256L117.919 21.8467C118.722 22.1657 119.572 22.3519 120.435 22.3979L121.325 23.9876C121.34 24.0147 121.364 24.0364 121.392 24.0497C121.42 24.0629 121.452 24.0671 121.483 24.0616L123.639 23.6784C123.67 23.6726 123.698 23.6576 123.72 23.6353C123.741 23.6131 123.756 23.5847 123.761 23.5541L124.044 21.7559C124.837 21.4151 125.57 20.9473 126.213 20.3712L127.969 20.8686C127.999 20.8773 128.031 20.8764 128.06 20.8662C128.09 20.8559 128.115 20.8368 128.134 20.8115L129.374 19.0201C129.392 18.9945 129.401 18.964 129.401 18.9327C129.401 18.9014 129.392 18.8709 129.374 18.8453L128.295 17.3766C128.615 16.5752 128.802 15.7272 128.848 14.8659L130.442 13.9786C130.469 13.9631 130.49 13.9396 130.504 13.9113C130.517 13.8831 130.521 13.8514 130.516 13.8206L130.132 11.6696C130.126 11.6391 130.111 11.6111 130.088 11.5895C130.066 11.5678 130.038 11.5536 130.007 11.5486L128.204 11.2663C127.863 10.4743 127.394 9.74323 126.816 9.10179L127.315 7.35071C127.324 7.32075 127.324 7.28865 127.313 7.25906C127.303 7.22946 127.284 7.20388 127.258 7.18602L125.462 5.93574C125.436 5.91765 125.406 5.90794 125.374 5.90794C125.343 5.90794 125.312 5.91765 125.287 5.93574L123.814 7.00789C123.008 6.69011 122.154 6.50618 121.288 6.46341L120.398 4.87366C120.383 4.84654 120.359 4.82487 120.331 4.81163C120.302 4.79839 120.271 4.79423 120.24 4.79972L118.09 5.18287Z" fill="#91B3FA"/>
<path d="M122.258 16.0489C122.102 16.1853 121.927 16.2985 121.739 16.385C121.251 16.6083 120.696 16.639 120.186 16.471C119.676 16.303 119.249 15.9488 118.99 15.4794C118.731 15.01 118.66 14.4603 118.791 13.9408C118.922 13.4212 119.245 12.9703 119.695 12.6785C120.146 12.3868 120.69 12.2759 121.219 12.3681C121.748 12.4603 122.222 12.7488 122.547 13.1756C122.871 13.6024 123.022 14.1359 122.968 14.6689C122.915 15.2019 122.661 15.6949 122.258 16.0489ZM119.718 13.1081C119.497 13.2984 119.328 13.5411 119.226 13.8139C119.083 14.1915 119.076 14.6067 119.206 14.9889C119.336 15.371 119.594 15.6964 119.938 15.9097C120.281 16.1229 120.688 16.2108 121.089 16.1584C121.49 16.106 121.861 15.9165 122.137 15.6222C122.414 15.3279 122.58 14.9469 122.607 14.5443C122.633 14.1417 122.519 13.7423 122.284 13.4141C122.049 13.0859 121.707 12.8492 121.316 12.7444C120.926 12.6395 120.511 12.6731 120.142 12.8392C119.988 12.908 119.845 12.9986 119.718 13.1081Z" fill="#BDD0FB"/>
<path d="M124.445 18.6199C123.434 19.4911 122.139 19.9639 120.803 19.9493C119.467 19.9347 118.183 19.4336 117.191 18.5404C116.2 17.6472 115.57 16.4234 115.42 15.0992C115.269 13.775 115.609 12.4417 116.376 11.35L116.456 11.2391C116.639 10.9919 116.842 10.7603 117.063 10.5468L117.14 10.4728L117.406 10.7585C117.141 11.0049 116.903 11.2787 116.696 11.5752C116.055 12.4945 115.737 13.5994 115.792 14.7176C115.847 15.8358 116.271 16.9045 116.998 17.7572C117.726 18.6098 118.715 19.1983 119.813 19.4311C120.911 19.6639 122.055 19.5278 123.067 19.044C124.079 18.5602 124.902 17.7559 125.408 16.7566C125.914 15.7572 126.074 14.619 125.864 13.5193C125.653 12.4196 125.084 11.4202 124.245 10.6771C123.405 9.93388 122.343 9.48864 121.224 9.41075L121.251 9.02087C122.334 9.09718 123.369 9.49256 124.227 10.1569C125.084 10.8212 125.725 11.7245 126.067 12.7524C126.409 13.7802 126.437 14.8862 126.148 15.9302C125.86 16.9742 125.267 17.9092 124.445 18.6165V18.6199Z" fill="#BDD0FB"/>
<path d="M10.8047 134.386C10.8074 135.036 11.0678 135.659 11.5292 136.119C11.9906 136.579 12.6155 136.838 13.2675 136.839H146.435C147.087 136.838 147.711 136.579 148.173 136.119C148.634 135.659 148.895 135.036 148.897 134.386L150.006 58.041C150.006 56.6966 148.412 54.0549 145.491 54.2532L15.3429 50.8922C14.5024 50.8701 13.6661 51.0186 12.8849 51.3288C12.1037 51.6389 11.3938 52.1042 10.7983 52.6964C10.2028 53.2885 9.73413 53.9952 9.42076 54.7736C9.10739 55.5519 8.95583 56.3857 8.9753 57.2243L10.8047 134.386Z" fill="#A6ABD1"/>
<path d="M13.2336 132.029C13.2354 132.646 13.4816 133.236 13.9184 133.672C14.3553 134.108 14.9472 134.353 15.565 134.355H143.224C143.841 134.353 144.433 134.108 144.87 133.672C145.307 133.236 145.553 132.646 145.555 132.029L146.599 62.7224C146.475 58.5514 142.812 57.0524 140.589 57.1397L15.8548 53.8056C15.2639 53.7905 14.6761 53.8952 14.1271 54.1135C13.578 54.3318 13.0792 54.6591 12.6608 55.0755C12.2424 55.492 11.9131 55.9889 11.6931 56.5361C11.473 57.0834 11.3667 57.6695 11.3806 58.259L13.2336 132.029Z" fill="#6D8FCC"/>
<path d="M144.174 99.105C144.084 99.105 143.999 99.0696 143.936 99.0066C143.872 98.9435 143.837 98.858 143.837 98.7689L143.921 93.1493C143.921 93.0602 143.957 92.9747 144.02 92.9117C144.083 92.8486 144.169 92.8132 144.258 92.8132C144.347 92.8132 144.433 92.8486 144.496 92.9117C144.559 92.9747 144.595 93.0602 144.595 93.1493L144.511 98.7689C144.511 98.858 144.475 98.9435 144.412 99.0066C144.349 99.0696 144.263 99.105 144.174 99.105Z" fill="#A5AAD0"/>
<path d="M144.376 85.3317C144.286 85.3317 144.201 85.2963 144.138 85.2333C144.074 85.1702 144.039 85.0848 144.039 84.9956L144.356 63.4853C144.356 62.2081 143.961 61.1864 143.2 60.4604C141.778 59.116 139.521 59.1698 139.427 59.1765L99.5601 58.111C99.4707 58.111 99.385 58.0756 99.3218 58.0126C99.2586 57.9496 99.2231 57.8641 99.2231 57.7749C99.2231 57.6858 99.2586 57.6003 99.3218 57.5373C99.385 57.4743 99.4707 57.4388 99.5601 57.4388L139.417 58.4808C139.666 58.4808 142.068 58.4236 143.668 59.9529C144.568 60.8133 145.016 61.9997 145.036 63.4752L144.719 85.0091C144.716 85.097 144.678 85.1801 144.614 85.2404C144.549 85.3008 144.464 85.3335 144.376 85.3317Z" fill="#A5AAD0"/>
<path d="M1.90355 143.174L155.096 143.174C156.148 143.174 157 142.324 157 141.275V138.364C157 137.316 156.148 136.465 155.096 136.465L1.90355 136.465C0.852249 136.465 0 137.316 0 138.364V141.275C0 142.324 0.852249 143.174 1.90355 143.174Z" fill="#A5AAD0"/>
<path d="M39.0816 25.2367C39.0816 24.1253 39.301 23.0248 39.7273 21.998C40.1536 20.9712 40.7785 20.0383 41.5663 19.2524C42.354 18.4666 43.2892 17.8432 44.3185 17.4179C45.3477 16.9926 46.4509 16.7737 47.5649 16.7737H119.714C121.632 16.7748 123.476 17.5111 124.865 18.8304C126.254 20.1497 127.082 21.9511 127.177 23.862L132.503 128.211C132.541 128.946 132.43 129.681 132.178 130.373C131.925 131.064 131.536 131.698 131.033 132.237C130.531 132.776 129.924 133.209 129.251 133.509C128.578 133.81 127.85 133.973 127.113 133.988L44.4216 135.487C43.7246 135.502 43.0318 135.377 42.3838 135.12C41.7359 134.864 41.1458 134.481 40.6483 133.993C40.1509 133.506 39.756 132.925 39.4869 132.283C39.2179 131.642 39.0801 130.953 39.0816 130.258V25.2367Z" fill="#7898E9"/>
<path d="M56.4929 133.704L47.2414 133.586C45.7488 133.561 44.3256 132.953 43.277 131.893C42.2284 130.833 41.6378 129.405 41.6318 127.916V113.978C41.6381 113.93 41.6616 113.887 41.6978 113.855C41.7341 113.823 41.7807 113.806 41.8289 113.806C41.8772 113.806 41.9238 113.823 41.96 113.855C41.9963 113.887 42.0198 113.93 42.026 113.978V127.913C42.0311 129.299 42.5808 130.628 43.5572 131.615C44.5335 132.601 45.8586 133.167 47.2481 133.19L56.4997 133.311C56.5475 133.317 56.5914 133.34 56.6233 133.376C56.6551 133.413 56.6726 133.459 56.6726 133.507C56.6726 133.555 56.6551 133.602 56.6233 133.638C56.5914 133.674 56.5475 133.698 56.4997 133.704H56.4929Z" fill="#91B3FA"/>
<path d="M41.824 109.857C41.7713 109.857 41.7207 109.836 41.6834 109.799C41.6462 109.762 41.6252 109.711 41.6252 109.659V107.4C41.6215 107.372 41.6239 107.344 41.6321 107.317C41.6403 107.29 41.6542 107.265 41.6729 107.243C41.6916 107.222 41.7145 107.205 41.7403 107.194C41.7661 107.182 41.794 107.176 41.8223 107.176C41.8506 107.176 41.8786 107.182 41.9043 107.194C41.9301 107.205 41.9531 107.222 41.9717 107.243C41.9904 107.265 42.0043 107.29 42.0125 107.317C42.0207 107.344 42.0231 107.372 42.0194 107.4V109.659C42.0194 109.711 41.9989 109.76 41.9624 109.798C41.9258 109.835 41.8761 109.856 41.824 109.857Z" fill="#91B3FA"/>
<path d="M44.9908 18.3814C44.988 18.0291 45.0613 17.6802 45.2056 17.3586C45.3498 17.0369 45.5618 16.75 45.827 16.5173C46.0923 16.2846 46.4046 16.1115 46.7428 16.0098C47.081 15.9081 47.4372 15.8802 47.7872 15.9279C57.6384 17.2723 91.5214 21.3828 119.532 19.2385C119.835 19.2147 120.14 19.2517 120.428 19.3473C120.717 19.4428 120.983 19.595 121.212 19.7948C121.44 19.9947 121.626 20.2381 121.759 20.5108C121.892 20.7836 121.969 21.08 121.985 21.3828L127.567 126.199C127.605 126.889 127.367 127.566 126.906 128.082C126.444 128.598 125.797 128.911 125.105 128.951C113.313 129.647 64.7977 132.336 47.4974 130.528C46.9889 130.474 46.5181 130.235 46.175 129.857C45.8319 129.479 45.6406 128.988 45.6377 128.477L44.9908 18.3814Z" fill="#A6D1F9"/>
<path d="M46.1569 21.0057C46.1534 20.6664 46.2235 20.3302 46.3625 20.0204C46.5015 19.7106 46.7061 19.4345 46.9621 19.211C47.2182 18.9875 47.5197 18.8219 47.8459 18.7256C48.1721 18.6293 48.5154 18.6046 48.8521 18.6531C58.3227 19.9302 90.9288 23.8962 117.885 21.846C118.176 21.8236 118.469 21.8596 118.747 21.9517C119.024 22.0439 119.28 22.1904 119.5 22.3827C119.719 22.5749 119.898 22.809 120.026 23.0713C120.154 23.3335 120.228 23.6185 120.243 23.9096L125.634 124.776C125.67 125.439 125.442 126.089 125.001 126.584C124.559 127.08 123.939 127.382 123.276 127.425C111.939 128.097 65.2462 130.682 48.5927 128.941C48.1033 128.889 47.6501 128.66 47.32 128.296C46.9898 127.931 46.806 127.459 46.8037 126.968L46.1569 21.0057Z" fill="#C1E0FC"/>
<g opacity="0.6">
<path opacity="0.6" d="M116.824 58.5115C116.925 58.5204 117.027 58.5082 117.123 58.4758C117.219 58.4433 117.307 58.3914 117.382 58.3232C117.457 58.255 117.517 58.172 117.559 58.0794C117.6 57.9869 117.622 57.8868 117.622 57.7856C117.589 57.5755 117.48 57.3848 117.315 57.2497C117.151 57.1146 116.942 57.0446 116.729 57.0529L55.7688 56.5723C55.3039 56.5723 55.159 56.8613 55.4487 57.2243L55.9474 57.8494C56.1203 58.046 56.3305 58.2066 56.5658 58.322C56.8011 58.4373 57.0569 58.5052 57.3186 58.5216L116.824 58.5115Z" fill="white"/>
</g>
<g opacity="0.6">
<path opacity="0.6" d="M55.7688 61.7477C55.3039 61.7477 55.159 62.0367 55.4487 62.3997L55.9474 63.0249C56.1203 63.2215 56.3305 63.382 56.5658 63.4974C56.8011 63.6127 57.0569 63.6806 57.3186 63.6971H116.824C116.925 63.7059 117.027 63.6937 117.123 63.6613C117.219 63.6289 117.307 63.5769 117.382 63.5087C117.457 63.4405 117.517 63.3575 117.559 63.2649C117.6 63.1724 117.622 63.0724 117.622 62.9711C117.589 62.761 117.48 62.5703 117.315 62.4352C117.151 62.3001 116.942 62.2301 116.729 62.2384L55.7688 61.7477Z" fill="white"/>
</g>
<path d="M63.3593 88.0983L58.2012 88.058C57.8629 88.0684 57.5324 87.9548 57.2723 87.7387C57.0122 87.5226 56.8405 87.2189 56.7896 86.885L56.3381 82.5796C56.3255 82.4536 56.3387 82.3263 56.377 82.2056C56.4152 82.0848 56.4776 81.9731 56.5605 81.8771C56.6593 81.7634 56.78 81.6706 56.9154 81.6042C57.0508 81.5378 57.1982 81.4992 57.3488 81.4906C57.7835 81.4604 58.3933 81.41 59.0334 81.3528C60.381 81.2385 62.0892 81.094 63.0393 81.0806C63.3576 81.0656 63.672 81.1564 63.933 81.3389C64.1939 81.5214 64.3868 81.7852 64.4812 82.0889C64.7508 83.077 64.7272 84.9491 64.6733 86.9422C64.645 87.2663 64.4927 87.5672 64.2481 87.7824C64.0035 87.9977 63.6853 88.1108 63.3593 88.0983ZM57.3724 81.8704C57.2747 81.8756 57.1791 81.9003 57.0911 81.943C57.0031 81.9857 56.9247 82.0456 56.8603 82.1191C56.8116 82.175 56.7749 82.2401 56.7523 82.3106C56.7297 82.3811 56.7217 82.4555 56.7289 82.5292L57.1804 86.8346C57.221 87.0701 57.3457 87.283 57.5316 87.4337C57.7174 87.5845 57.9517 87.663 58.1911 87.6547L63.3357 87.7051C63.5616 87.7184 63.7839 87.6439 63.956 87.4973C64.1281 87.3507 64.2366 87.1433 64.2589 86.9186C64.3094 84.9558 64.333 83.114 64.0803 82.1796C64.0055 81.963 63.8622 81.7765 63.6721 81.648C63.482 81.5195 63.2552 81.456 63.0258 81.4671C62.0858 81.4671 60.4012 81.6217 59.0469 81.736C58.4 81.7898 57.7868 81.8435 57.3623 81.8738L57.3724 81.8704Z" fill="white"/>
<path opacity="0.6" d="M57.9249 82.3131C59.0063 82.2391 61.3546 82.0005 62.4698 81.977C62.6885 81.9646 62.9054 82.0234 63.0877 82.1447C63.27 82.2659 63.4078 82.443 63.4805 82.6492C63.6961 83.4424 63.6658 85.022 63.6287 86.484C63.6098 86.7064 63.5043 86.9125 63.335 87.0583C63.1656 87.204 62.9457 87.2778 62.7225 87.2638L58.6122 87.2235C58.3804 87.2321 58.1534 87.1559 57.974 87.0092C57.7947 86.8625 57.6753 86.6554 57.6385 86.4269L57.2746 83.0155C57.2706 82.9267 57.2842 82.8379 57.3148 82.7544C57.3454 82.6708 57.3922 82.5942 57.4527 82.5288C57.5132 82.4635 57.5861 82.4108 57.6671 82.3737C57.7482 82.3367 57.8358 82.3161 57.9249 82.3131Z" fill="white"/>
<g opacity="0.6">
<path opacity="0.6" d="M67.8776 85.2376C67.9502 85.5113 68.1122 85.7531 68.3379 85.9248C68.5637 86.0964 68.8403 86.1881 69.1241 86.1854L116.726 85.7821C116.972 85.7676 117.204 85.6598 117.373 85.4808C117.542 85.3018 117.636 85.0652 117.636 84.8192C117.636 84.5732 117.542 84.3365 117.373 84.1575C117.204 83.9785 116.972 83.8708 116.726 83.8562L69.1208 83.6411C68.9249 83.6399 68.7313 83.6837 68.5551 83.7691C68.3788 83.8544 68.2246 83.9791 68.1045 84.1335C67.9843 84.2878 67.9013 84.4677 67.8619 84.6591C67.8226 84.8506 67.828 85.0485 67.8776 85.2376Z" fill="white"/>
</g>
<path d="M63.359 99.0984L58.2144 99.048C57.8759 99.0592 57.545 98.9458 57.2848 98.7296C57.0245 98.5133 56.853 98.2092 56.8028 97.875L56.3513 93.5696C56.3387 93.4436 56.3519 93.3163 56.3902 93.1956C56.4284 93.0748 56.4908 92.9631 56.5737 92.8672C56.6725 92.7534 56.7932 92.6606 56.9286 92.5942C57.064 92.5279 57.2114 92.4892 57.362 92.4806C57.7966 92.4504 58.4064 92.4 59.0466 92.3428C60.3942 92.2286 62.1023 92.084 63.0524 92.0706H63.0726C63.3872 92.0603 63.6964 92.1534 63.9527 92.3356C64.209 92.5178 64.3981 92.7789 64.491 93.0789C64.7606 94.067 64.737 95.9391 64.6831 97.9322C64.6572 98.26 64.5046 98.5649 64.2575 98.7825C64.0105 99.0001 63.6883 99.1134 63.359 99.0984ZM57.3721 92.8705C57.2744 92.8757 57.1788 92.9004 57.0908 92.9431C57.0028 92.9858 56.9244 93.0457 56.86 93.1192C56.8113 93.1751 56.7746 93.2402 56.752 93.3107C56.7294 93.3812 56.7215 93.4556 56.7286 93.5293L57.1801 97.8347C57.2207 98.0702 57.3455 98.2831 57.5313 98.4338C57.7171 98.5846 57.9514 98.6631 58.1908 98.6548L63.3354 98.7052C63.5613 98.7184 63.7836 98.644 63.9557 98.4974C64.1278 98.3507 64.2363 98.1434 64.2586 97.9187C64.3091 95.9559 64.3327 94.1141 64.08 93.1797C64.0061 92.9625 63.8631 92.7753 63.6728 92.6467C63.4824 92.5181 63.2551 92.455 63.0255 92.4672C62.0855 92.4672 60.401 92.6218 59.0466 92.7361C58.3997 92.7899 57.7865 92.8436 57.362 92.8739L57.3721 92.8705Z" fill="white"/>
<path opacity="0.6" d="M57.9247 93.314C59.0062 93.2401 61.3545 93.0015 62.4696 92.9779C62.6884 92.9656 62.9052 93.0244 63.0875 93.1457C63.2698 93.2669 63.4077 93.4439 63.4804 93.6501C63.696 94.4433 63.6657 96.023 63.6286 97.485C63.6097 97.7074 63.5042 97.9135 63.3348 98.0592C63.1654 98.205 62.9456 98.2787 62.7223 98.2648L58.612 98.2244C58.3816 98.2413 58.1529 98.1739 57.9687 98.0347C57.7845 97.8955 57.6575 97.6941 57.6114 97.4682L57.2745 94.0131C57.2709 93.9246 57.2849 93.8362 57.3156 93.753C57.3464 93.6699 57.3934 93.5936 57.4538 93.5286C57.5142 93.4636 57.587 93.4112 57.6678 93.3744C57.7486 93.3376 57.8359 93.3171 57.9247 93.314Z" fill="white"/>
<g opacity="0.6">
<path opacity="0.6" d="M67.8771 96.2386C67.9497 96.5123 68.1117 96.7541 68.3374 96.9257C68.5632 97.0974 68.8398 97.1891 69.1236 97.1864L116.729 96.7965C116.975 96.782 117.206 96.6742 117.376 96.4952C117.545 96.3162 117.639 96.0796 117.639 95.8336C117.639 95.5876 117.545 95.3509 117.376 95.1719C117.206 94.9929 116.975 94.8852 116.729 94.8706L69.1236 94.6555C68.9289 94.6543 68.7365 94.6976 68.5611 94.782C68.3857 94.8664 68.2319 94.9897 68.1116 95.1424C67.9913 95.2952 67.9077 95.4734 67.867 95.6634C67.8264 95.8534 67.8298 96.0501 67.8771 96.2386Z" fill="white"/>
</g>
<path d="M63.359 110.1L58.2144 110.049C57.8759 110.061 57.545 109.947 57.2848 109.731C57.0245 109.515 56.853 109.211 56.8028 108.876L56.3513 104.571C56.3387 104.445 56.3519 104.318 56.3902 104.197C56.4284 104.076 56.4908 103.964 56.5737 103.868C56.6725 103.755 56.7932 103.662 56.9286 103.596C57.064 103.529 57.2114 103.491 57.362 103.482C57.7966 103.452 58.4064 103.401 59.0466 103.344C60.3942 103.23 62.1023 103.085 63.0524 103.072H63.0726C63.3872 103.062 63.6964 103.155 63.9527 103.337C64.209 103.519 64.3981 103.78 64.491 104.08C64.7606 105.068 64.737 106.94 64.6831 108.934C64.6572 109.261 64.5046 109.566 64.2575 109.784C64.0105 110.001 63.6883 110.115 63.359 110.1ZM57.3721 103.872C57.2744 103.877 57.1788 103.902 57.0908 103.944C57.0028 103.987 56.9244 104.047 56.86 104.121C56.8113 104.176 56.7746 104.242 56.752 104.312C56.7294 104.383 56.7215 104.457 56.7286 104.531L57.1801 108.836C57.2207 109.072 57.3455 109.284 57.5313 109.435C57.7171 109.586 57.9514 109.664 58.1908 109.656L63.3354 109.707C63.5613 109.72 63.7836 109.645 63.9557 109.499C64.1278 109.352 64.2363 109.145 64.2586 108.92C64.3091 106.957 64.3327 105.115 64.08 104.181C64.0061 103.964 63.8631 103.777 63.6728 103.648C63.4824 103.519 63.2551 103.456 63.0255 103.469C62.0855 103.469 60.401 103.623 59.0466 103.737C58.3997 103.791 57.7865 103.845 57.362 103.875L57.3721 103.872Z" fill="white"/>
<path opacity="0.6" d="M57.9247 104.315C59.0062 104.241 61.3545 104.002 62.4696 103.979C62.6884 103.967 62.9052 104.025 63.0875 104.147C63.2698 104.268 63.4077 104.445 63.4804 104.651C63.696 105.444 63.6657 107.024 63.6286 108.486C63.6097 108.708 63.5042 108.914 63.3348 109.06C63.1654 109.206 62.9456 109.28 62.7223 109.266L58.612 109.225C58.3802 109.234 58.1533 109.158 57.9739 109.011C57.7945 108.864 57.6752 108.657 57.6383 108.429L57.2745 105.014C57.2709 104.926 57.2849 104.837 57.3156 104.754C57.3464 104.671 57.3934 104.595 57.4538 104.53C57.5142 104.465 57.587 104.412 57.6678 104.375C57.7486 104.339 57.8359 104.318 57.9247 104.315Z" fill="white"/>
<g opacity="0.6">
<path opacity="0.6" d="M67.8771 107.238C67.9497 107.512 68.1117 107.754 68.3375 107.925C68.5632 108.097 68.8398 108.189 69.1237 108.186L116.726 107.783C116.972 107.768 117.203 107.66 117.372 107.481C117.541 107.302 117.636 107.066 117.636 106.82C117.636 106.574 117.541 106.337 117.372 106.158C117.203 105.979 116.972 105.871 116.726 105.857L69.1203 105.642C68.9244 105.641 68.7308 105.684 68.5546 105.77C68.3783 105.855 68.2242 105.98 68.104 106.134C67.9838 106.288 67.9008 106.468 67.8615 106.66C67.8221 106.851 67.8275 107.049 67.8771 107.238Z" fill="white"/>
</g>
<path d="M63.359 121.099L58.2144 121.049C57.8759 121.06 57.545 120.947 57.2848 120.731C57.0245 120.514 56.853 120.21 56.8028 119.876L56.3513 115.571C56.3387 115.445 56.3519 115.317 56.3902 115.197C56.4284 115.076 56.4908 114.964 56.5737 114.868C56.6725 114.754 56.7932 114.662 56.9286 114.595C57.064 114.529 57.2114 114.49 57.362 114.482C57.7966 114.451 58.4064 114.401 59.0466 114.344C60.3942 114.23 62.1023 114.085 63.0524 114.072H63.0726C63.3872 114.061 63.6964 114.154 63.9527 114.337C64.209 114.519 64.3981 114.78 64.491 115.08C64.7606 116.068 64.737 117.94 64.6831 119.933C64.6572 120.261 64.5046 120.566 64.2575 120.783C64.0105 121.001 63.6883 121.114 63.359 121.099ZM57.3721 114.871C57.2744 114.877 57.1788 114.901 57.0908 114.944C57.0028 114.987 56.9244 115.047 56.86 115.12C56.8113 115.176 56.7746 115.241 56.752 115.312C56.7294 115.382 56.7215 115.457 56.7286 115.53L57.1801 119.836C57.2207 120.071 57.3455 120.284 57.5313 120.435C57.7171 120.586 57.9514 120.664 58.1908 120.656L63.3354 120.706C63.5613 120.719 63.7836 120.645 63.9557 120.498C64.1278 120.352 64.2363 120.144 64.2586 119.92C64.3091 117.957 64.3327 116.115 64.08 115.181C64.0066 114.963 63.8637 114.776 63.6732 114.647C63.4828 114.518 63.2552 114.455 63.0255 114.468C62.0855 114.468 60.401 114.623 59.0466 114.737C58.3997 114.791 57.7865 114.845 57.362 114.875L57.3721 114.871Z" fill="white"/>
<path opacity="0.6" d="M57.9247 115.314C59.0062 115.24 61.3545 115.002 62.4696 114.978C62.6884 114.966 62.9052 115.025 63.0875 115.146C63.2698 115.267 63.4077 115.444 63.4804 115.651C63.696 116.444 63.6657 118.023 63.6286 119.485C63.6097 119.708 63.5042 119.914 63.3348 120.06C63.1654 120.205 62.9456 120.279 62.7223 120.265L58.612 120.225C58.3802 120.233 58.1533 120.157 57.9739 120.011C57.7945 119.864 57.6752 119.657 57.6383 119.428L57.2745 116.013C57.2709 115.925 57.2849 115.837 57.3156 115.753C57.3464 115.67 57.3934 115.594 57.4538 115.529C57.5142 115.464 57.587 115.412 57.6678 115.375C57.7486 115.338 57.8359 115.317 57.9247 115.314Z" fill="white"/>
<g opacity="0.6">
<path opacity="0.6" d="M67.8772 118.239C67.9499 118.513 68.1119 118.755 68.3376 118.926C68.5634 119.098 68.84 119.19 69.1238 119.187L116.726 118.784C116.972 118.769 117.203 118.661 117.372 118.482C117.541 118.303 117.636 118.067 117.636 117.821C117.636 117.575 117.541 117.338 117.372 117.159C117.203 116.98 116.972 116.872 116.726 116.858L69.1204 116.626C68.9227 116.624 68.7272 116.668 68.5493 116.754C68.3715 116.841 68.2162 116.967 68.0956 117.123C67.9751 117.28 67.8926 117.462 67.8547 117.656C67.8168 117.849 67.8245 118.049 67.8772 118.239Z" fill="white"/>
</g>
<path d="M62.9044 78.5257L57.7598 78.4753C57.4213 78.4864 57.0904 78.3731 56.8302 78.1568C56.5699 77.9406 56.3984 77.6364 56.3482 77.3023L55.8967 72.9968C55.8841 72.8708 55.8973 72.7436 55.9356 72.6228C55.9738 72.5021 56.0362 72.3903 56.1191 72.2944C56.2179 72.1807 56.3386 72.0879 56.474 72.0215C56.6094 71.9551 56.7568 71.9165 56.9074 71.9079C57.3421 71.8776 57.9519 71.8272 58.592 71.7701C59.9396 71.6558 61.6478 71.5113 62.5979 71.4978H62.6181C62.9326 71.4875 63.2418 71.5806 63.4981 71.7628C63.7544 71.945 63.9436 72.2062 64.0365 72.5061C64.306 73.4943 64.2824 75.3663 64.2285 77.3594C64.2026 77.6872 64.05 77.9921 63.803 78.2097C63.5559 78.4274 63.2337 78.5406 62.9044 78.5257ZM56.9175 72.2978C56.8198 72.3029 56.7242 72.3276 56.6362 72.3703C56.5483 72.413 56.4698 72.4729 56.4054 72.5465C56.3567 72.6023 56.32 72.6675 56.2974 72.738C56.2748 72.8085 56.2669 72.8828 56.274 72.9565L56.7255 77.2619C56.7661 77.4975 56.8909 77.7103 57.0767 77.8611C57.2625 78.0119 57.4968 78.0904 57.7362 78.082L62.8809 78.1324C63.1068 78.1457 63.3291 78.0712 63.5011 77.9246C63.6732 77.778 63.7818 77.5706 63.804 77.346C63.8545 75.3832 63.8781 73.5413 63.6254 72.607C63.552 72.3894 63.4091 72.2019 63.2187 72.0732C63.0282 71.9445 62.8006 71.8817 62.5709 71.8944C61.6309 71.8944 59.9464 72.049 58.592 72.1633C57.9451 72.2171 57.3319 72.2709 56.9074 72.3011L56.9175 72.2978Z" fill="white"/>
<path opacity="0.6" d="M57.4735 72.7447C58.555 72.6708 60.9033 72.4321 62.0184 72.4086C62.2372 72.3962 62.454 72.4551 62.6363 72.5763C62.8186 72.6976 62.9565 72.8746 63.0292 73.0808C63.2448 73.874 63.2145 75.4537 63.1774 76.9157C63.1585 77.138 63.053 77.3441 62.8836 77.4899C62.7142 77.6356 62.4944 77.7094 62.2711 77.6954L58.1608 77.6551C57.929 77.6638 57.7021 77.5876 57.5227 77.4408C57.3434 77.2941 57.224 77.087 57.1872 76.8585L56.8267 73.4169C56.8265 73.2432 56.8938 73.0762 57.0144 72.9508C57.135 72.8255 57.2995 72.7516 57.4735 72.7447Z" fill="white"/>
<g opacity="0.6">
<path opacity="0.6" d="M67.4259 75.6661C67.4986 75.9398 67.6605 76.1816 67.8863 76.3532C68.112 76.5249 68.3887 76.6166 68.6725 76.6139L116.274 76.2106C116.521 76.196 116.752 76.0883 116.921 75.9093C117.09 75.7303 117.184 75.4936 117.184 75.2476C117.184 75.0017 117.09 74.765 116.921 74.586C116.752 74.407 116.521 74.2992 116.274 74.2847L68.6691 74.0696C68.4732 74.0684 68.2796 74.1122 68.1034 74.1975C67.9272 74.2829 67.773 74.4076 67.6528 74.5619C67.5326 74.7163 67.4496 74.8961 67.4103 75.0876C67.3709 75.2791 67.3763 75.477 67.4259 75.6661Z" fill="white"/>
</g>
<path d="M88.1119 2.54771C85.5076 0.739492 83.2402 0.773102 81.6466 1.24364C80.9408 1.45287 80.3296 1.89995 79.9173 2.50859C79.505 3.11724 79.3172 3.84974 79.386 4.5811L80.0598 12.0728L88.2703 12.7954C88.2703 12.7954 93.2228 6.09355 88.1119 2.54771ZM84.5104 8.59749C84.1065 8.59749 83.7118 8.47803 83.3761 8.25423C83.0403 8.03043 82.7786 7.71233 82.6241 7.34016C82.4696 6.96799 82.4291 6.55847 82.5079 6.16338C82.5867 5.76828 82.7811 5.40537 83.0667 5.12052C83.3522 4.83568 83.716 4.64169 84.112 4.5631C84.5081 4.48451 84.9186 4.52485 85.2917 4.67901C85.6647 4.83316 85.9836 5.09422 86.2079 5.42916C86.4323 5.76411 86.552 6.1579 86.552 6.56073C86.5502 7.09916 86.3348 7.61499 85.9528 7.99541C85.5709 8.37583 85.0535 8.58988 84.5137 8.59077L84.5104 8.59749Z" fill="#7898E9"/>
<path d="M80.8921 8.91952C80.8433 8.91894 80.7964 8.90047 80.7603 8.86762C80.7243 8.83476 80.7016 8.78983 80.6967 8.74138L80.5855 7.54823C80.5804 7.52114 80.5811 7.4933 80.5874 7.46648C80.5937 7.43966 80.6056 7.41445 80.6222 7.39245C80.6389 7.37045 80.6599 7.35216 80.684 7.33873C80.7081 7.3253 80.7348 7.31703 80.7623 7.31445C80.7898 7.31187 80.8175 7.31504 80.8437 7.32375C80.8699 7.33246 80.894 7.34652 80.9145 7.36504C80.9349 7.38356 80.9513 7.40612 80.9625 7.4313C80.9738 7.45647 80.9796 7.48371 80.9797 7.51126L81.0909 8.70441C81.0956 8.75651 81.0794 8.80835 81.046 8.84864C81.0125 8.88893 80.9645 8.91441 80.9123 8.91952H80.8921ZM80.6765 6.56682C80.6277 6.56625 80.5808 6.54777 80.5447 6.51492C80.5087 6.48207 80.486 6.43714 80.4811 6.38869L80.3968 5.48458C80.3346 4.79107 80.5142 4.09738 80.9052 3.52059C81.2961 2.9438 81.8746 2.51923 82.5429 2.31853C83.5148 2.03163 84.5428 1.99005 85.5347 2.19753C85.5622 2.20061 85.5888 2.20938 85.6127 2.22329C85.6366 2.2372 85.6573 2.25593 85.6736 2.2783C85.6898 2.30066 85.7012 2.32616 85.707 2.35317C85.7127 2.38017 85.7128 2.40808 85.7072 2.43511C85.7015 2.46214 85.6902 2.48769 85.6741 2.51013C85.658 2.53258 85.6373 2.55141 85.6135 2.56543C85.5897 2.57945 85.5631 2.58835 85.5356 2.59156C85.5082 2.59476 85.4803 2.5922 85.4539 2.58405C84.5255 2.3903 83.5635 2.42957 82.6541 2.69832C82.0698 2.87272 81.5639 3.2435 81.2224 3.74771C80.881 4.25192 80.725 4.85849 80.7809 5.46442L80.8651 6.36852C80.8698 6.42062 80.8537 6.47246 80.8203 6.51275C80.7868 6.55304 80.7388 6.57852 80.6866 6.58363L80.6765 6.56682Z" fill="#91B3FA"/>
<path d="M68.9014 16.9125V13.1449C68.9016 12.8366 68.9641 12.5316 69.0849 12.2479C69.2057 11.9642 69.3825 11.7077 69.6047 11.4935C69.8269 11.2794 70.09 11.112 70.3784 11.0013C70.6668 10.8906 70.9745 10.839 71.2833 10.8493L97.313 11.74C97.8705 11.7591 98.4008 11.985 98.8002 12.3735C99.1996 12.7619 99.4394 13.2851 99.4726 13.8406L99.6916 17.4604L68.9014 16.9125Z" fill="#7898E9"/>
<path d="M78.6078 12.2672H77.4892C77.4612 12.2709 77.4327 12.2685 77.4056 12.2603C77.3786 12.2521 77.3536 12.2383 77.3323 12.2197C77.3111 12.201 77.294 12.1781 77.2824 12.1524C77.2707 12.1267 77.2646 12.0988 77.2646 12.0706C77.2646 12.0424 77.2707 12.0145 77.2824 11.9888C77.294 11.9631 77.3111 11.9402 77.3323 11.9216C77.3536 11.903 77.3786 11.8891 77.4056 11.8809C77.4327 11.8727 77.4612 11.8703 77.4892 11.874H78.6078C78.6358 11.8703 78.6643 11.8727 78.6914 11.8809C78.7185 11.8891 78.7435 11.903 78.7647 11.9216C78.786 11.9402 78.803 11.9631 78.8147 11.9888C78.8264 12.0145 78.8324 12.0424 78.8324 12.0706C78.8324 12.0988 78.8264 12.1267 78.8147 12.1524C78.803 12.1781 78.786 12.201 78.7647 12.2197C78.7435 12.2383 78.7185 12.2521 78.6914 12.2603C78.6643 12.2685 78.6358 12.2709 78.6078 12.2672Z" fill="#91B3FA"/>
<path d="M70.3096 15.729C70.2569 15.729 70.2063 15.7082 70.1691 15.671C70.1318 15.6338 70.1108 15.5833 70.1108 15.5308V14.0082C70.1117 13.4425 70.3374 12.9001 70.7384 12.5001C71.1395 12.1 71.6831 11.8749 72.2502 11.874H76.3639C76.3919 11.8703 76.4205 11.8727 76.4475 11.8809C76.4746 11.8891 76.4996 11.903 76.5208 11.9216C76.5421 11.9402 76.5591 11.9631 76.5708 11.9888C76.5825 12.0145 76.5885 12.0424 76.5885 12.0706C76.5885 12.0988 76.5825 12.1267 76.5708 12.1524C76.5591 12.1781 76.5421 12.201 76.5208 12.2197C76.4996 12.2383 76.4746 12.2521 76.4475 12.2603C76.4205 12.2685 76.3919 12.2709 76.3639 12.2672H72.2536C71.791 12.2681 71.3476 12.4518 71.0205 12.7781C70.6934 13.1044 70.5093 13.5468 70.5084 14.0082V15.5308C70.5084 15.5833 70.4874 15.6338 70.4502 15.671C70.4129 15.7082 70.3623 15.729 70.3096 15.729Z" fill="#91B3FA"/>
<path d="M58.2854 17.8627C58.3157 17.235 58.5869 16.6429 59.0429 16.2093C59.499 15.7757 60.1047 15.5337 60.7347 15.5336H106.261C107.054 15.5344 107.821 15.8139 108.427 16.3229C109.033 16.8319 109.44 17.5377 109.577 18.3165L109.614 18.5383C109.683 18.9513 109.662 19.3744 109.551 19.7782C109.44 20.1821 109.242 20.5569 108.971 20.8768C108.7 21.1967 108.362 21.4538 107.982 21.6304C107.601 21.807 107.186 21.8987 106.767 21.8993H60.071C59.8169 21.8991 59.5654 21.8475 59.3318 21.7477C59.0982 21.6478 58.8873 21.5017 58.7119 21.3182C58.5365 21.1348 58.4002 20.9177 58.3113 20.6802C58.2223 20.4427 58.1826 20.1897 58.1944 19.9365L58.2854 17.8627Z" fill="#7898E9"/>
<path d="M35.1225 153.012C35.1225 153.012 34.8226 154.693 34.6778 156.373C34.6649 156.528 34.6835 156.683 34.7325 156.83C34.7815 156.977 34.8598 157.113 34.9627 157.229C35.0656 157.346 35.191 157.44 35.3314 157.506C35.4718 157.573 35.6242 157.61 35.7795 157.617C38.0064 157.711 42.767 157.889 44.4751 157.812C44.5353 157.81 44.5941 157.794 44.6466 157.765C44.6992 157.735 44.7439 157.694 44.777 157.644C44.81 157.594 44.8305 157.536 44.8366 157.477C44.8427 157.417 44.8343 157.357 44.812 157.301C44.7325 157.101 44.5794 156.94 44.3841 156.85L36.5173 153.244L35.1225 153.012Z" fill="#4F5592"/>
<path d="M34.877 152.024L35.1162 154.04C35.1162 154.04 36.4941 154.679 37.4341 153.96L36.8647 151.715L34.877 152.024Z" fill="#E6A189"/>
<path d="M35.0589 114.138C34.9544 114.666 34.503 140.398 37.2623 151.933C37.2848 152.023 37.274 152.119 37.232 152.202C37.19 152.285 37.1194 152.351 37.0332 152.386C36.3151 152.663 35.5553 152.816 34.786 152.84C34.6356 152.846 34.4876 152.802 34.3655 152.714C34.2434 152.626 34.1542 152.5 34.1122 152.356C33.3238 149.667 29.547 136.274 29.0585 123.452C28.5094 109.141 29.0585 122.964 29.0585 122.964L29.3954 114.118L35.0589 114.138Z" fill="#8E86B9"/>
<path d="M26.0736 153.892C26.0736 153.892 25.5986 154.742 25.1404 157.001C25.1205 157.097 25.1212 157.197 25.1423 157.293C25.1635 157.389 25.2046 157.479 25.263 157.559C25.3215 157.638 25.3959 157.704 25.4816 157.753C25.5672 157.801 25.6622 157.832 25.7603 157.841C26.4947 157.912 27.6268 158.006 28.533 157.999C28.6317 157.999 28.7292 157.978 28.8192 157.937C28.9091 157.897 28.9895 157.838 29.055 157.764C29.1205 157.691 29.1697 157.604 29.1994 157.51C29.229 157.416 29.2385 157.317 29.2271 157.219C29.1078 156.027 28.6272 154.899 27.8491 153.986L26.0736 153.892Z" fill="#4F5592"/>
<path d="M25.6558 151.301L26.215 154.35C26.215 154.35 26.7676 154.76 27.8625 154.464L27.5964 151.184L25.6558 151.301Z" fill="#E6A189"/>
<path d="M24.1431 114.929C21.8892 128.507 24.6316 148.488 25.5581 152.397C25.5853 152.515 25.6468 152.621 25.735 152.704C25.8232 152.787 25.934 152.841 26.0534 152.861C26.64 152.965 27.2424 152.941 27.8188 152.79C27.9318 152.758 28.0317 152.691 28.1043 152.598C28.1769 152.506 28.2185 152.393 28.2231 152.276C28.3477 149.113 28.1254 129.704 30.2243 122.027C30.3307 121.639 30.5689 121.299 30.8982 121.066L34.9781 118.172L35.2915 113.497L24.1431 114.929Z" fill="#8E86B9"/>
<path d="M38.5124 89.2008C31.754 89.0899 24.2982 90.972 24.2982 90.972C22.2767 102.699 23.9612 116.223 23.9612 116.223C29.1935 117.591 35.0793 115.386 35.0793 115.386C35.9485 110.486 40.0049 96.6891 40.0049 96.6891C42.9037 96.3658 45.7105 95.4773 48.2659 94.0742C46.5578 92.098 45.7526 89.5839 45.4022 88.0984C43.1764 88.8183 40.8522 89.1902 38.5124 89.2008Z" fill="#91CE5E"/>
<path d="M58.4774 79.2711C58.3069 79.0475 58.068 78.8854 57.7968 78.8096C57.5256 78.7338 57.237 78.7483 56.9748 78.851C55.9641 83.0422 50.7656 86.4401 45.4087 88.1004C45.7456 89.586 46.5643 92.1 48.2724 94.0763C57.1601 89.0886 58.4774 79.2711 58.4774 79.2711Z" fill="#FDBEA5"/>
<path d="M58.3156 79.4727C58.3863 79.6945 57.5811 80.0273 57.1061 79.1366C57.1061 78.7064 56.8264 76.8545 57.0859 76.5016C58.4638 74.6295 61.1288 72.2802 61.1288 72.2802C61.2543 72.3877 61.3329 72.5397 61.348 72.7041C61.3631 72.8685 61.3135 73.0322 61.2096 73.1607L59.9125 74.5051C60.2311 74.9665 60.486 75.4684 60.6706 75.9974C60.7868 76.4521 60.7215 76.9341 60.4887 77.3418C60.2596 77.7519 59.9496 78.2829 59.6565 78.6862C59.5066 78.9094 59.3082 79.096 59.076 79.2321C58.8439 79.3683 58.584 79.4505 58.3156 79.4727Z" fill="#FDBEA5"/>
<path d="M59.3501 75.3738L58.1709 76.3821L57.8003 77.3904L58.8514 78.5566C58.8514 78.5566 59.2052 76.5837 59.468 76.1569C59.7308 75.73 59.596 75.4981 59.3501 75.3738Z" fill="url(#paint0_linear_2_1463)"/>
<path d="M26.8885 97.4985L24.2977 90.9714C24.2977 90.9714 17.984 95.25 16.9463 100.675C18.8531 100.809 20.7162 101.308 22.4345 102.143C22.9096 99.5823 26.8885 97.4985 26.8885 97.4985Z" fill="#91CE5E"/>
<path d="M32.4075 103.642C32.4075 103.642 25.3324 107.639 22.9269 104.227C22.7062 103.932 22.5487 103.595 22.4641 103.236C22.3794 102.878 22.3695 102.506 22.435 102.143C20.7166 101.308 18.8535 100.809 16.9467 100.675C16.5957 102.428 16.8849 104.248 17.762 105.807C21.9532 113.453 33.3542 105.387 33.3542 105.387L32.4075 103.642Z" fill="#FDBEA5"/>
<path d="M31.5552 108.697L35.4229 95.2198C35.4446 95.1446 35.4882 95.0776 35.5482 95.0274C35.6082 94.9771 35.6819 94.9458 35.7598 94.9375C36.4606 94.8568 38.4921 94.6282 40.837 94.4299C43.6603 94.1913 46.9418 93.9997 48.9027 94.1644C48.9684 94.1671 49.0324 94.1861 49.0888 94.2198C49.1453 94.2534 49.1924 94.3006 49.2259 94.3571C49.2593 94.4135 49.2781 94.4775 49.2805 94.543C49.2829 94.6086 49.2688 94.6737 49.2396 94.7324C48.1244 96.9809 43.539 106.133 41.2447 109.131C41.207 109.18 41.1585 109.219 41.103 109.246C41.0474 109.273 40.9863 109.286 40.9246 109.286L31.9493 109.202C31.8867 109.204 31.8244 109.192 31.7676 109.165C31.7107 109.139 31.661 109.1 31.6224 109.05C31.5839 109.001 31.5577 108.943 31.546 108.882C31.5343 108.821 31.5374 108.757 31.5552 108.697Z" fill="#3D416D"/>
<path d="M41.2343 93.2637L44.0374 92.7965C44.0717 92.7907 44.107 92.7939 44.1398 92.8057C44.1726 92.8175 44.2018 92.8376 44.2245 92.864C44.2472 92.8903 44.2627 92.9221 44.2695 92.9563C44.2762 92.9904 44.274 93.0257 44.2631 93.0587L43.9868 93.8989C43.9746 93.9345 43.9526 93.9659 43.9235 93.9896C43.8943 94.0134 43.8591 94.0285 43.8217 94.0334L41.1264 94.393C41.0942 94.3971 41.0613 94.3933 41.0308 94.382C41.0003 94.3708 40.973 94.3523 40.9511 94.3282C40.9293 94.3041 40.9136 94.2751 40.9054 94.2437C40.8972 94.2122 40.8968 94.1793 40.9041 94.1477L41.0759 93.415C41.0849 93.3772 41.1047 93.3429 41.1327 93.3161C41.1608 93.2892 41.1961 93.2711 41.2343 93.2637Z" fill="#91B3FA"/>
<path d="M39.1353 95.6303L39.3678 94.4304C39.3791 94.3715 39.4091 94.3178 39.4534 94.2772C39.4977 94.2367 39.5539 94.2114 39.6138 94.2053L45.2772 93.6305C45.3209 93.6264 45.365 93.6326 45.4059 93.6486C45.4468 93.6646 45.4833 93.69 45.5125 93.7228C45.5417 93.7555 45.5628 93.7946 45.574 93.837C45.5852 93.8794 45.5862 93.9238 45.5771 93.9666L45.2166 95.4623C45.2022 95.5202 45.1696 95.5721 45.1235 95.6102C45.0774 95.6484 45.0203 95.6707 44.9605 95.674L39.4251 95.953C39.3835 95.955 39.342 95.9477 39.3037 95.9317C39.2653 95.9157 39.2309 95.8914 39.2032 95.8605C39.1754 95.8296 39.1549 95.7929 39.1432 95.753C39.1315 95.7132 39.1288 95.6713 39.1353 95.6303Z" fill="#91B3FA"/>
<path d="M32.4882 105.445C32.4882 105.445 31.9492 103.233 32.1513 102.45C32.3535 101.667 32.7914 100.659 34.193 100.88C35.2321 101.073 36.2549 101.345 37.2521 101.694C37.2465 101.826 37.2082 101.955 37.1405 102.069C37.0727 102.183 36.9777 102.279 36.864 102.348C36.7502 102.416 36.6212 102.456 36.4885 102.462C36.3558 102.469 36.2234 102.443 36.1033 102.386L36.7771 102.897C36.7771 102.897 36.6828 103.714 35.7664 103.277L36.3829 103.949C36.3345 104.039 36.2675 104.117 36.1864 104.179C36.1052 104.241 36.0118 104.285 35.9123 104.307C35.8128 104.33 35.7095 104.332 35.6094 104.312C35.5093 104.292 35.4146 104.25 35.3317 104.191C34.7017 103.764 34.3648 105.71 32.4882 105.445Z" fill="#FDBEA5"/>
<path d="M31.6697 83.7285L29.5202 89.9329C29.503 89.9825 29.5037 90.0364 29.5222 90.0855C29.5406 90.1346 29.5757 90.1757 29.6213 90.2018C30.2075 90.5379 32.3165 91.4588 34.8636 89.8657C34.995 89.7835 35.1066 89.6734 35.1904 89.5433C35.2743 89.4132 35.3283 89.2662 35.3487 89.1128L36.0461 83.7352L31.6697 83.7285Z" fill="#E7A28A"/>
<path d="M36.3458 77.974C36.3458 77.974 38.7042 82.4072 38.4043 84.1986C38.1045 85.99 35.1734 85.8623 32.6196 84.4069L30.834 79.6175L36.3458 77.974Z" fill="#FDBFA6"/>
<path d="M32.7342 82.0649C32.7591 82.0546 32.7813 82.0389 32.7993 82.0189C32.8173 81.999 32.8307 81.9753 32.8384 81.9496C32.8462 81.9238 32.8481 81.8967 32.844 81.8702C32.84 81.8436 32.8301 81.8183 32.8151 81.796C32.5161 81.3718 32.2885 80.9019 32.1413 80.4046C32.1413 80.4046 31.7167 80.1323 33.2227 79.7727C34.7287 79.4131 36.9725 78.8552 37.4442 77.578C37.9159 76.3008 36.6963 73.2087 34.7691 75.6958C34.7522 75.7181 34.7303 75.7362 34.7051 75.7486C34.68 75.7611 34.6523 75.7675 34.6243 75.7675C34.5962 75.7675 34.5685 75.7611 34.5434 75.7486C34.5183 75.7362 34.4964 75.7181 34.4794 75.6958C34.1627 75.2858 33.3339 74.4321 32.1783 74.9497C31.1002 75.4337 30.9755 76.2235 30.9924 76.6302C30.9934 76.6574 30.9882 76.6845 30.9773 76.7095C30.9663 76.7344 30.9499 76.7566 30.9292 76.7744C30.9084 76.7921 30.884 76.805 30.8576 76.812C30.8312 76.8191 30.8036 76.8201 30.7768 76.815C30.231 76.7109 28.9204 76.6235 28.3106 77.9611C27.8086 79.0669 28.1354 79.6887 28.4319 79.9945C28.4542 80.0168 28.4703 80.0445 28.4787 80.0749C28.487 80.1053 28.4873 80.1373 28.4795 80.1678C28.4717 80.1983 28.456 80.2263 28.4341 80.2489C28.4122 80.2716 28.3847 80.2882 28.3544 80.297C27.9973 80.4079 27.5323 80.7104 27.5795 81.5473C27.6435 82.7069 28.9271 82.6027 29.3112 82.5556C29.3408 82.5511 29.371 82.554 29.3992 82.564C29.4275 82.5739 29.4528 82.5907 29.4729 82.6127C29.7896 82.9488 31.2181 84.4478 32.7645 84.6293C32.7954 84.6326 32.8265 84.6281 32.8551 84.6162C32.8837 84.6044 32.9089 84.5856 32.9284 84.5615C32.9478 84.5374 32.9609 84.5089 32.9664 84.4784C32.9719 84.448 32.9697 84.4167 32.9599 84.3874L32.2861 82.4481C32.2713 82.4043 32.2734 82.3565 32.2921 82.3142C32.3108 82.2719 32.3447 82.2381 32.3872 82.2195L32.7342 82.0649Z" fill="#66415C"/>
<path d="M33.0173 82.3439C33.0173 82.3439 31.3328 81.1944 31.2115 82.1624C31.0902 83.1303 32.7242 83.5673 33.5362 83.2043L33.0173 82.3439Z" fill="#FDBEA5"/>
<path d="M113.016 81.0439C113.04 80.9964 113.078 80.9574 113.125 80.9319C113.172 80.9064 113.225 80.8957 113.278 80.9012C113.331 80.9066 113.381 80.928 113.422 80.9625C113.462 80.997 113.491 81.043 113.505 81.0943C113.741 81.9446 114.313 83.4268 115.526 83.9545L115.698 84.0352C115.731 83.944 115.741 83.8465 115.728 83.7506C115.715 83.6547 115.679 83.5633 115.624 83.4839C115.25 82.9126 115.924 82.1396 115.924 82.1396C115.967 82.5688 116.169 82.9666 116.49 83.2554C116.734 83.4952 116.899 83.8035 116.962 84.1392C117.026 84.4748 116.986 84.8219 116.847 85.1342C116.197 87.6549 115.223 90.989 119.017 93.4224C122.81 95.8558 128.154 88.8246 128.154 88.8246L125.502 97.227C125.502 97.227 121.409 100.252 116.648 96.0036C111.888 91.7554 115.041 85.5846 115.041 85.5846C115.041 85.5846 111.403 84.1225 113.016 81.0439Z" fill="#FDBEA5"/>
<path d="M128.811 76.4998C128.811 76.4998 127.712 71.5793 133.359 72.8834C133.359 72.8834 136.101 72.4364 136.239 75.0176C136.239 75.0176 138.008 76.1805 136.711 78.4122C136.711 78.4122 141.964 76.3956 144.251 80.98C146.539 85.5644 144.436 88.0986 142.23 88.7574C142.737 89.0246 143.119 89.479 143.294 90.0235C143.47 90.5679 143.425 91.1593 143.17 91.6713C142.324 93.6879 138.042 95.1164 135.512 92.6595C135.512 92.6595 128.312 93.6073 128.457 88.5355C128.457 88.5355 125.108 86.3778 128.625 82.1866C132.143 77.9955 128.811 76.4998 128.811 76.4998Z" fill="#66415C"/>
<path d="M128.501 87.8989C129.636 87.5628 132.941 86.9343 136.085 89.8281C136.347 90.069 136.537 90.3768 136.636 90.7181C136.734 91.0595 136.737 91.4212 136.644 91.7641C135.798 94.8663 133.571 104.025 135.526 107.991C135.526 107.991 132.082 111.775 128.329 108.727C128.329 108.727 126.645 101.4 124.438 98.1869C122.915 95.9653 126.867 89.8483 127.868 88.3728C128.017 88.1464 128.241 87.9788 128.501 87.8989Z" fill="#90CD5E"/>
<path d="M131.634 81.7389C131.634 81.7389 133.318 86.4745 133.44 88.5651C132.842 88.799 132.192 88.8688 131.558 88.7671C130.924 88.6655 130.329 88.3961 129.835 87.987C129.835 87.987 129.653 83.2547 129.387 82.4077L131.634 81.7389Z" fill="#E6A189"/>
<path d="M129.302 75.2859C129.302 75.2859 124.923 81.4163 127.537 83.1943C130.151 84.9722 133.288 80.6197 133.288 80.6197C133.288 80.6197 134.299 77.2588 133.241 76.1261C132.183 74.9935 129.302 75.2859 129.302 75.2859Z" fill="#FDBEA5"/>
<path d="M131.334 73.8175C131.334 73.8175 129.312 74.2948 129.033 75.2056C128.753 76.1164 131.893 76.96 132.772 77.0004L133.487 80.6638C133.487 80.6638 135.586 77.2087 134.753 75.2123C133.921 73.2159 131.334 73.8175 131.334 73.8175Z" fill="#66435C"/>
<path d="M132.436 80.1659C132.436 80.1659 134.144 78.193 134.825 79.4937C135.505 80.7944 133.285 81.7455 132.52 81.1137L132.436 80.1659Z" fill="#FDBEA5"/>
<path d="M123.946 124.104C123.946 124.44 123.373 127.075 123.056 128.473C122.927 129.04 123.016 129.633 123.305 130.137L134.336 148.66C134.469 148.883 134.567 149.126 134.626 149.379C135.017 150.994 135.152 152.66 135.027 154.316L134.457 155.499L136.927 154.941L137.459 148.334L136.762 147.91C136.156 147.544 135.684 146.994 135.414 146.34C134.403 143.924 131.94 137.77 131.3 134.772C130.576 131.364 126.782 128.598 126.782 128.598L127.456 127.025L123.946 124.104Z" fill="#E6A189"/>
<path d="M139.669 152.673C139.669 152.673 138.322 150.565 138.18 149.745C138.039 148.925 137.587 147.477 136.765 147.914C136.765 147.914 136.378 151.9 136.513 153.456C136.647 155.012 134.747 154.961 134.747 154.961C134.407 155.022 134.092 155.181 133.841 155.419C133.783 155.48 133.744 155.556 133.729 155.639C133.713 155.722 133.721 155.807 133.752 155.885C133.783 155.964 133.836 156.031 133.904 156.081C133.972 156.13 134.053 156.159 134.137 156.165C135.022 156.225 135.91 156.175 136.782 156.017C136.958 155.983 137.118 155.891 137.236 155.757C137.355 155.623 137.425 155.453 137.436 155.274L137.709 150.686L139.393 152.804L139.669 152.673Z" fill="#3B3F6D"/>
<path d="M130.536 127.045C130.536 127.045 130.923 143.611 130.977 145.964C131.031 148.317 130.603 153.533 128.241 155.089L129.269 155.849C130.271 154.918 131.129 153.843 131.812 152.659C133.224 150.306 133.652 149.873 133.652 149.873L133.184 148.915C132.979 148.498 132.919 148.025 133.012 147.571C133.521 145.104 135.225 136.896 135.707 135.135C136.256 133.048 136.297 130.265 134.386 127.932C132.476 125.6 130.536 127.045 130.536 127.045Z" fill="#FDBEA5"/>
<path d="M132.719 156.621C132.754 156.622 132.789 156.609 132.815 156.586C132.842 156.563 132.859 156.532 132.864 156.497C132.942 155.946 133.272 153.731 133.538 153.156C133.845 152.484 134.849 149.735 133.538 149.499C133.538 149.499 130.28 154.248 129.653 154.877C129.471 155.058 129.236 155.177 128.982 155.217C128.728 155.257 128.468 155.217 128.238 155.102C127.817 155.251 127.446 155.517 127.17 155.868C127.122 155.932 127.091 156.007 127.083 156.087C127.075 156.166 127.089 156.247 127.124 156.318C127.159 156.39 127.214 156.451 127.281 156.494C127.349 156.537 127.427 156.56 127.507 156.561L129.701 156.581C130.012 156.584 130.317 156.493 130.576 156.319C130.834 156.146 131.034 155.898 131.149 155.61C131.537 154.648 132.2 153.237 132.972 152.608L132.571 156.446C132.566 156.468 132.567 156.49 132.572 156.512C132.578 156.533 132.588 156.553 132.602 156.57C132.616 156.587 132.634 156.6 132.655 156.609C132.675 156.618 132.697 156.622 132.719 156.621Z" fill="#3B3F6D"/>
<path d="M127.81 106.936C127.81 106.936 128.305 108.509 127.544 111.097L122.827 127.516C122.792 127.64 122.805 127.773 122.864 127.888C122.924 128.003 123.025 128.091 123.147 128.134C124.556 128.638 129.192 130.067 135.519 129.63C135.673 129.62 135.821 129.56 135.939 129.459C136.056 129.359 136.138 129.223 136.172 129.072L138.305 119.503C139.42 114.502 140.663 109.111 135.185 105.851C132.662 106.933 130.307 107.568 127.81 106.936Z" fill="#3B3F6D"/>
<path d="M136.533 90.4473C136.533 90.4473 141.896 94.8939 143.227 100.967C144.558 107.04 135.391 107.689 135.391 107.689C135.391 107.689 134.147 106.304 132.668 106.798C131.189 107.293 132.554 104.379 134.282 104.385C136.011 104.392 135.209 105.757 137.651 104.651C140.033 103.575 141.506 100.245 135.428 95.1997C135.074 94.9077 134.8 94.5322 134.629 94.1074C133.45 91.143 134.387 89.2003 136.533 90.4473Z" fill="#FDBEA5"/>
<path d="M59.0859 35.0441H60.2814V42.6138H64.8121V43.6881H59.0859V35.0441Z" fill="#7A9AEB"/>
<path d="M66.1839 35.0441H67.3793V43.6881H66.1839V35.0441Z" fill="#7A9AEB"/>
<path d="M73.6264 43.7869C72.7896 43.7869 72.0324 43.5976 71.355 43.2189C70.6856 42.8319 70.1596 42.3051 69.777 41.6382C69.3945 40.9632 69.2032 40.2058 69.2032 39.3661C69.2032 38.5264 69.3945 37.7731 69.777 37.1063C70.1596 36.4313 70.6896 35.9044 71.367 35.5257C72.0444 35.1388 72.8015 34.9453 73.6383 34.9453C74.2918 34.9453 74.8895 35.0606 75.4315 35.2911C75.9734 35.5133 76.4357 35.8468 76.8182 36.2913L76.0412 37.0693C75.4116 36.386 74.6265 36.0443 73.6861 36.0443C73.0645 36.0443 72.5026 36.1884 72.0006 36.4765C71.4985 36.7647 71.104 37.1639 70.8171 37.6743C70.5381 38.1765 70.3987 38.7404 70.3987 39.3661C70.3987 39.9918 70.5381 40.5598 70.8171 41.0702C71.104 41.5724 71.4985 41.9675 72.0006 42.2557C72.5026 42.5438 73.0645 42.6879 73.6861 42.6879C74.6186 42.6879 75.4036 42.3421 76.0412 41.6506L76.8182 42.4286C76.4357 42.8731 75.9694 43.2106 75.4195 43.4411C74.8776 43.6716 74.2799 43.7869 73.6264 43.7869Z" fill="#7A9AEB"/>
<path d="M84.5964 42.6138V43.6881H78.5236V35.0441H84.4291V36.1184H79.719V38.7734H83.915V39.823H79.719V42.6138H84.5964Z" fill="#7A9AEB"/>
<path d="M93.7287 35.0441V43.6881H92.7484L87.7276 37.2421V43.6881H86.5321V35.0441H87.5124L92.5332 41.4901V35.0441H93.7287Z" fill="#7A9AEB"/>
<path d="M98.6721 43.7869C98.0425 43.7869 97.4328 43.6881 96.8431 43.4905C96.2613 43.2847 95.8031 43.0213 95.4683 42.7002L95.9106 41.737C96.2294 42.0334 96.6359 42.2763 97.13 42.4656C97.6321 42.6467 98.1461 42.7373 98.6721 42.7373C99.3655 42.7373 99.8835 42.6179 100.226 42.3792C100.569 42.1322 100.74 41.807 100.74 41.4036C100.74 41.1073 100.645 40.8685 100.453 40.6874C100.27 40.4981 100.039 40.354 99.76 40.2552C99.489 40.1564 99.1025 40.0453 98.6004 39.9218C97.9708 39.7654 97.4607 39.609 97.0702 39.4525C96.6877 39.2961 96.3569 39.0574 96.078 38.7363C95.807 38.407 95.6716 37.9666 95.6716 37.415C95.6716 36.954 95.7871 36.5383 96.0182 36.1678C96.2573 35.7974 96.616 35.501 97.0941 35.2787C97.5723 35.0564 98.166 34.9453 98.8753 34.9453C99.3695 34.9453 99.8556 35.0112 100.334 35.1429C100.812 35.2746 101.222 35.464 101.565 35.7109L101.171 36.6988C100.82 36.4683 100.445 36.2954 100.047 36.1802C99.6484 36.0567 99.2579 35.9949 98.8753 35.9949C98.1979 35.9949 97.6879 36.1225 97.3452 36.3777C97.0105 36.633 96.8431 36.9622 96.8431 37.3656C96.8431 37.662 96.9387 37.9049 97.13 38.0942C97.3213 38.2753 97.5564 38.4194 97.8353 38.5264C98.1222 38.6252 98.5087 38.7322 98.9949 38.8475C99.6245 39.0039 100.131 39.1603 100.513 39.3167C100.896 39.4731 101.222 39.7119 101.493 40.0329C101.772 40.354 101.912 40.7862 101.912 41.3295C101.912 41.7823 101.792 42.198 101.553 42.5767C101.314 42.9472 100.951 43.2436 100.465 43.4658C99.9791 43.6799 99.3814 43.7869 98.6721 43.7869Z" fill="#7A9AEB"/>
<path d="M109.731 42.6138V43.6881H103.658V35.0441H109.564V36.1184H104.854V38.7734H109.05V39.823H104.854V42.6138H109.731Z" fill="#7A9AEB"/>
<defs>
<linearGradient id="paint0_linear_2_1463" x1="56.8502" y1="80.795" x2="60.2399" y2="73.9456" gradientUnits="userSpaceOnUse">
<stop stop-color="#FEBBBA"/>
<stop offset="1" stop-color="#FF928E"/>
</linearGradient>
</defs>
</svg>
