<svg width="178" height="157" viewBox="0 0 178 157" fill="none" xmlns="http://www.w3.org/2000/svg">
<g clip-path="url(#clip0_2_1358)">
<path d="M131.13 3.95808C133.915 5.18321 138.077 10.7456 141.727 19.6175C146.217 30.5482 148.884 31.5029 155.236 26.1123C161.588 20.7217 169.05 24.3462 174.451 38.666C179.851 52.9857 170.39 64.1233 161.623 81.5584C152.856 98.9934 170.362 94.4907 176.032 114.876C181.703 135.261 173.706 158.105 147.392 157.835C121.077 157.564 81.1997 158.083 81.1997 158.083C81.1997 158.083 44.2563 162.901 30.8015 150.446C17.3467 137.991 33.8947 131.951 21.3818 123.993C8.86902 116.034 -4.19118 115.496 1.27285 94.9298C6.73687 74.3635 14.4858 78.6212 19.4852 73.1224C24.4846 67.6237 27.4887 61.6666 20.3444 51.8656C13.2001 42.0645 7.73611 35.4838 11.348 22.5196C16.5288 3.91671 29.1053 1.51735 42.9229 9.39958C56.7405 17.2818 59.0858 27.3661 81.8871 21.5364C94.6067 18.2746 107.428 -6.46352 131.13 3.95808Z" fill="white"/>
<path d="M138.564 63.777L150.284 63.4587C150.284 63.4587 157.903 64.3116 157.559 71.1659C157.215 78.0203 148.894 117.349 146.921 125.409C146.298 127.819 145.847 130.27 145.568 132.744C145.46 133.829 145.127 134.88 144.591 135.83C144.055 136.78 143.327 137.609 142.454 138.262C141.581 138.916 140.582 139.381 139.519 139.628C138.457 139.875 137.354 139.899 136.282 139.697L115.381 135.812L138.564 63.777Z" fill="#7A9AEB"/>
<path d="M115.709 59.6824C115.709 59.6824 135.853 64.9552 150.281 63.4532C150.281 63.4532 141.393 60.9966 137.148 81.8111C133.905 97.722 130.07 128.589 126.837 133.922C123.604 139.256 114.315 145.448 104.628 136.535C94.941 127.622 115.709 59.6824 115.709 59.6824Z" fill="#93ADEB"/>
<path d="M116.654 27.3661C116.654 27.3661 138.631 34.3987 142.303 31.1847C142.303 31.1847 141.396 23.8657 134.465 22.9111C127.534 21.9564 116.654 27.3661 116.654 27.3661Z" fill="#6688CC"/>
<path d="M41.9808 20.1838C39.435 42.6085 34.0696 90.0387 31.2342 113.103C30.9277 115.587 31.5261 118.098 32.9199 120.177C34.3137 122.255 36.4097 123.762 38.824 124.422C56.6449 129.259 96.777 139.782 112.784 140.867C111.21 139.649 110.012 138.011 109.327 136.142C108.642 134.274 108.498 132.25 108.911 130.303L130.516 28.6388C131.28 25.0462 135.391 23.191 138.503 25.1384C140.464 26.3668 141.73 28.3821 142.303 31.1846C141.705 26.5991 140.031 22.9905 134.465 22.9109C134.465 22.9109 81.957 12.7503 56.1803 9.14488C54.5198 8.91525 52.8302 9.02037 51.211 9.45405C49.5918 9.88773 48.0758 10.6412 46.7525 11.67C45.4291 12.6988 44.3251 13.9822 43.5056 15.4444C42.6861 16.9066 42.1676 18.5181 41.9808 20.1838Z" fill="#A7D2F9"/>
<path opacity="0.53" d="M57.0779 12.3691L128.043 24.0126C120.756 44.9226 113.055 88.9606 105.366 132.34C105.143 133.601 105.274 134.899 105.744 136.091C106.215 137.282 107.008 138.319 108.033 139.086C108.033 139.086 60.9571 130.055 41.0518 124.509C38.7784 123.874 36.7893 122.483 35.4125 120.566C34.0356 118.649 33.3532 116.32 33.4779 113.963C34.4771 94.9081 37.5862 45.7946 44.1195 20.7891C44.8389 18.0217 46.5673 15.6233 48.9651 14.0653C51.3629 12.5072 54.2567 11.9022 57.0779 12.3691Z" fill="#DAEDFF"/>
<path d="M49.3447 45.5336L48.5587 53.5877C48.4899 54.3011 48.6805 55.0153 49.0954 55.5997C49.5104 56.1841 50.1219 56.5995 50.8181 56.7698L55.3752 57.8836C55.7648 57.9786 56.1697 57.994 56.5654 57.9289C56.9612 57.8638 57.3397 57.7195 57.6784 57.5047C58.0171 57.2899 58.309 57.009 58.5366 56.6788C58.7642 56.3486 58.9228 55.9758 59.003 55.5829L60.7374 47.0738C60.8199 46.6698 60.8178 46.253 60.7311 45.8499C60.6444 45.4468 60.475 45.066 60.2337 44.7317C59.9923 44.3973 59.6843 44.1167 59.3289 43.9074C58.9736 43.6982 58.5787 43.565 58.1692 43.5161L52.6638 42.8574C52.2694 42.8106 51.8696 42.8432 51.488 42.953C51.1063 43.0629 50.7504 43.2479 50.4412 43.4972C50.132 43.7465 49.8758 44.0551 49.6875 44.4048C49.4992 44.7545 49.3826 45.1383 49.3447 45.5336Z" fill="url(#paint0_linear_2_1358)"/>
<path d="M65.9916 46.3928C73.6832 47.7134 103.225 52.7412 110.681 54.0109C110.904 54.0489 111.117 54.1315 111.307 54.2536C111.498 54.3757 111.662 54.5348 111.789 54.7216C111.917 54.9083 112.006 55.1188 112.05 55.3406C112.095 55.5624 112.095 55.7909 112.049 56.0125C111.962 56.443 111.71 56.8227 111.348 57.071C110.986 57.3193 110.541 57.4167 110.108 57.3426L65.4156 49.96C65 49.8913 64.625 49.6698 64.3642 49.3389C64.1034 49.0081 63.9756 48.5918 64.0058 48.1716L64.0217 47.952C64.0362 47.7154 64.1004 47.4845 64.2101 47.2744C64.3198 47.0642 64.4725 46.8796 64.6584 46.7325C64.8443 46.5853 65.0591 46.479 65.2888 46.4205C65.5185 46.362 65.758 46.3525 65.9916 46.3928Z" fill="url(#paint1_linear_2_1358)"/>
<path d="M63.3913 56.6935C63.4332 56.8137 63.5062 56.9206 63.603 57.0033C63.6997 57.0861 63.8166 57.1417 63.9419 57.1644L94.5429 62.7141C94.7275 62.747 94.9176 62.7065 95.0727 62.6013C95.2278 62.4961 95.3358 62.3345 95.3735 62.1509L95.7872 60.1429C95.8065 60.0483 95.8065 59.9508 95.7873 59.8562C95.7681 59.7616 95.7301 59.6719 95.6754 59.5923C95.6208 59.5127 95.5507 59.4449 95.4693 59.393C95.3879 59.3411 95.2969 59.3061 95.2017 59.2901L65.3612 54.3609C65.0573 54.3093 64.7451 54.3379 64.4556 54.4438C64.1661 54.5497 63.9092 54.7293 63.7103 54.9648C63.5114 55.2003 63.3773 55.4837 63.3214 55.7868C63.2655 56.09 63.2896 56.4025 63.3913 56.6935Z" fill="url(#paint2_linear_2_1358)"/>
<path d="M44.8706 67.4237L44.0845 75.4778C44.0158 76.1912 44.2064 76.9055 44.6213 77.4899C45.0362 78.0742 45.6478 78.4896 46.344 78.6599L50.901 79.7737C51.2907 79.8687 51.6955 79.8841 52.0913 79.819C52.487 79.7539 52.8656 79.6096 53.2043 79.3948C53.543 79.18 53.8348 78.8991 54.0624 78.5689C54.29 78.2387 54.4487 77.866 54.5289 77.473L56.2632 68.9639C56.3458 68.5599 56.3437 68.1432 56.257 67.74C56.1703 67.3369 56.0009 66.9561 55.7595 66.6218C55.5182 66.2875 55.2101 66.0068 54.8548 65.7976C54.4994 65.5884 54.1046 65.4551 53.6951 65.4062L48.1897 64.7475C47.7953 64.7008 47.3955 64.7333 47.0138 64.8432C46.6322 64.9531 46.2763 65.1381 45.9671 65.3874C45.6579 65.6367 45.4016 65.9452 45.2133 66.2949C45.025 66.6446 44.9085 67.0284 44.8706 67.4237Z" fill="url(#paint3_linear_2_1358)"/>
<path d="M61.5267 68.2852C69.2184 69.6058 98.7597 74.6336 106.216 75.9033C106.439 75.9413 106.652 76.0239 106.842 76.146C107.033 76.2681 107.197 76.4272 107.324 76.614C107.452 76.8007 107.541 77.0112 107.586 77.233C107.63 77.4548 107.63 77.6833 107.584 77.9049C107.497 78.3335 107.247 78.7115 106.887 78.9596C106.527 79.2077 106.084 79.3064 105.653 79.235L60.9507 71.8365C60.5351 71.7677 60.1601 71.5462 59.8993 71.2154C59.6385 70.8846 59.5107 70.4683 59.541 70.0481L59.5569 69.8285C59.5735 69.5933 59.6392 69.3642 59.7498 69.1559C59.8604 68.9476 60.0135 68.7649 60.1991 68.6195C60.3847 68.474 60.5988 68.3691 60.8275 68.3116C61.0562 68.254 61.2944 68.245 61.5267 68.2852Z" fill="url(#paint4_linear_2_1358)"/>
<path opacity="0.78" d="M58.9268 78.5995C58.9687 78.7197 59.0417 78.8266 59.1384 78.9094C59.2351 78.9921 59.3521 79.0477 59.4773 79.0705L90.0784 84.6202C90.2629 84.653 90.453 84.6126 90.6082 84.5073C90.7633 84.4021 90.8712 84.2405 90.909 84.0569L91.3195 82.049C91.3388 81.9544 91.3388 81.8569 91.3196 81.7623C91.3004 81.6677 91.2623 81.5779 91.2077 81.4983C91.153 81.4188 91.0829 81.351 91.0015 81.2991C90.9202 81.2472 90.8291 81.2122 90.7339 81.1962L60.8935 76.267C60.5898 76.216 60.278 76.2451 59.989 76.3513C59.6999 76.4574 59.4435 76.6371 59.245 76.8725C59.0465 77.1079 58.9128 77.391 58.857 77.6938C58.8012 77.9967 58.8252 78.3088 58.9268 78.5995Z" fill="white"/>
<path d="M40.4152 89.3178L39.6324 97.375C39.5637 98.0884 39.7542 98.8027 40.1692 99.387C40.5841 99.9714 41.1956 100.387 41.8918 100.557L46.4616 101.671C46.8513 101.766 47.2561 101.781 47.6519 101.716C48.0476 101.651 48.4262 101.507 48.7648 101.292C49.1035 101.077 49.3954 100.796 49.623 100.466C49.8506 100.136 50.0093 99.7631 50.0895 99.3702L51.8238 90.8611C51.9064 90.4571 51.9042 90.0404 51.8175 89.6372C51.7308 89.2341 51.5615 88.8533 51.3201 88.519C51.0788 88.1847 50.7707 87.904 50.4154 87.6948C50.06 87.4856 49.6652 87.3523 49.2557 87.3034L43.7503 86.6447C43.3549 86.5957 42.9537 86.6264 42.5703 86.735C42.187 86.8437 41.8293 87.028 41.5184 87.2772C41.2075 87.5264 40.9497 87.8353 40.7603 88.1858C40.5708 88.5363 40.4535 88.9212 40.4152 89.3178Z" fill="url(#paint5_linear_2_1358)"/>
<path d="M57.0648 90.177C64.7565 91.4976 94.2978 96.5254 101.754 97.7951C101.977 97.8332 102.19 97.9157 102.38 98.0378C102.571 98.1599 102.735 98.3191 102.863 98.5058C102.99 98.6925 103.079 98.9031 103.124 99.1248C103.168 99.3466 103.168 99.5751 103.122 99.7967C103.035 100.225 102.785 100.603 102.425 100.851C102.065 101.1 101.622 101.198 101.191 101.127L56.4888 93.7283C56.0732 93.6596 55.6982 93.4381 55.4374 93.1072C55.1766 92.7764 55.0488 92.3601 55.0791 91.9399L55.095 91.7204C55.1116 91.4851 55.1773 91.256 55.2879 91.0477C55.3985 90.8395 55.5516 90.6568 55.7372 90.5113C55.9228 90.3659 56.1369 90.261 56.3656 90.2034C56.5942 90.1458 56.8325 90.1368 57.0648 90.177Z" fill="url(#paint6_linear_2_1358)"/>
<path d="M54.4651 100.478C54.507 100.598 54.58 100.705 54.6767 100.788C54.7734 100.87 54.8904 100.926 55.0156 100.949L85.604 106.498C85.7885 106.531 85.9786 106.491 86.1337 106.386C86.2889 106.28 86.3968 106.119 86.4345 105.935L86.8451 103.927C86.8643 103.833 86.8644 103.735 86.8451 103.641C86.8259 103.546 86.7879 103.456 86.7332 103.377C86.6786 103.297 86.6085 103.229 86.5271 103.177C86.4457 103.125 86.3547 103.09 86.2595 103.074L56.419 98.1453C56.1163 98.0969 55.8062 98.1278 55.519 98.2351C55.2318 98.3424 54.9773 98.5223 54.7804 98.7573C54.5836 98.9924 54.451 99.2744 54.3957 99.576C54.3405 99.8775 54.3644 100.188 54.4651 100.478Z" fill="url(#paint7_linear_2_1358)"/>
<g style="mix-blend-mode:soft-light">
<path d="M128.705 109.719C128.615 109.7 128.536 109.647 128.485 109.571C128.434 109.495 128.414 109.402 128.431 109.311C128.431 109.311 128.632 108.217 129.284 104.494C129.292 104.448 129.309 104.405 129.334 104.366C129.358 104.327 129.39 104.294 129.428 104.267C129.466 104.241 129.508 104.222 129.553 104.212C129.598 104.202 129.645 104.201 129.69 104.209C129.735 104.217 129.779 104.233 129.817 104.258C129.856 104.283 129.89 104.315 129.916 104.353C129.943 104.39 129.962 104.433 129.972 104.478C129.982 104.523 129.983 104.569 129.975 104.614C129.338 108.341 129.125 109.429 129.122 109.439C129.105 109.53 129.052 109.61 128.976 109.663C128.9 109.715 128.806 109.735 128.715 109.719H128.705Z" fill="white"/>
</g>
<g style="mix-blend-mode:soft-light">
<path d="M130.296 100.632C130.208 100.613 130.13 100.561 130.079 100.487C130.027 100.412 130.007 100.32 130.022 100.231C130.439 97.8061 130.869 95.1204 131.321 92.2755C131.935 88.4315 132.565 84.4569 133.249 80.6447C135.054 70.5795 137.491 67.0728 139.216 65.9017C140.155 65.2653 140.807 65.3735 140.88 65.3894C140.972 65.4071 141.052 65.4603 141.104 65.5373C141.156 65.6143 141.175 65.7087 141.157 65.7999C141.14 65.891 141.086 65.9714 141.009 66.0233C140.932 66.0753 140.838 66.0945 140.747 66.0767C140.667 66.0767 136.642 65.6949 133.937 80.7688C133.253 84.5874 132.622 88.546 132.008 92.3869C131.553 95.2349 131.127 97.9239 130.707 100.342C130.699 100.388 130.682 100.431 130.658 100.47C130.633 100.509 130.601 100.543 130.564 100.569C130.526 100.596 130.484 100.615 130.439 100.625C130.394 100.635 130.348 100.636 130.303 100.629L130.296 100.632Z" fill="white"/>
</g>
<path d="M73.0848 127.449C72.6868 127.339 72.3455 127.082 72.1301 126.73C71.0322 125.215 71.0736 123.229 71.3472 121.403C70.5835 121.972 69.807 122.523 69.0401 123.064L68.7568 122.666C69.6574 122.03 70.5708 121.393 71.4618 120.703C71.9102 118.198 72.5323 115.728 73.3235 113.311C73.8072 111.834 74.3863 110.281 75.341 108.954C75.7058 108.393 76.2131 107.938 76.8113 107.637C77.1379 107.482 77.5028 107.427 77.8605 107.479C78.2182 107.53 78.5528 107.686 78.8225 107.926C79.3539 108.464 79.3603 109.282 79.3157 109.836C79.0707 113.167 77.1963 115.882 75.6688 117.581C74.5215 118.82 73.2635 119.951 71.9105 120.96C71.5923 122.828 71.43 124.913 72.5247 126.424C72.6679 126.686 72.9077 126.881 73.193 126.968C73.5749 127.032 73.9567 126.727 74.2813 126.418C75.744 125.029 76.9962 123.434 77.9983 121.683C78.1853 121.132 78.4557 120.614 78.8002 120.146L79.2171 120.394C78.9773 120.903 78.7196 121.4 78.4438 121.883C78.2713 122.403 78.1822 122.946 78.1797 123.493C78.1797 123.783 78.2274 124.766 78.8798 125.021C79.3667 125.221 79.9745 124.945 80.7414 124.174L83.8792 121.024L83.3095 122.265C83.109 122.704 82.7049 123.764 83.3095 124.174C83.6437 124.4 84.0765 124.26 84.5825 124.098C85.0884 123.936 85.5912 123.78 86.1004 123.949L86.3391 124.031L86.2468 124.267C86.1927 124.4 85.7504 125.594 86.3582 125.858C86.6382 125.982 86.9246 125.829 87.3606 125.565C87.6881 125.326 88.0716 125.174 88.4744 125.126L88.4935 125.613C88.1752 125.663 87.8738 125.79 87.6152 125.982C87.1824 126.243 86.6923 126.542 86.1609 126.3C85.4671 125.982 85.4544 125.135 85.6963 124.349C85.369 124.359 85.046 124.426 84.7416 124.547C84.2006 124.722 83.5864 124.919 83.0549 124.547C82.6158 124.254 82.4535 123.726 82.5744 123.042L81.1201 124.502C80.5346 125.091 79.6467 125.832 78.727 125.457C78.0905 125.199 77.7214 124.458 77.7246 123.474C77.7246 123.338 77.7246 123.201 77.7405 123.064C76.8524 124.406 75.8147 125.644 74.6473 126.752C74.2622 127.121 73.7403 127.528 73.1421 127.43L73.0848 127.449ZM77.9187 107.987C77.6085 107.93 77.2884 107.966 76.999 108.092C76.4814 108.358 76.0425 108.755 75.7261 109.244C74.8096 110.517 74.2495 112.025 73.7753 113.466C73.0474 115.691 72.4639 117.961 72.0282 120.26C73.1994 119.359 74.2917 118.359 75.2933 117.272C76.7699 115.637 78.5806 113.015 78.8161 109.82C78.8702 109.069 78.7588 108.579 78.4597 108.276C78.3121 108.128 78.1238 108.027 77.9187 107.987Z" fill="url(#paint8_linear_2_1358)"/>
<path d="M56.0914 24.1295L57.603 24.4032L53.9624 33.6951L59.6906 34.7325L59.1909 36.0531L51.9448 34.742L56.0914 24.1295ZM64.394 25.6315L65.9088 25.9052L61.7368 36.5177L60.2252 36.244L64.394 25.6315ZM68.932 37.9465C67.9672 37.8005 67.0665 37.3745 66.3416 36.7213C65.6809 36.1141 65.2428 35.3029 65.0973 34.4175C64.943 33.4313 65.0676 32.4217 65.4569 31.5026C65.85 30.4907 66.4719 29.5834 67.274 28.8518C68.0663 28.1179 69.0153 27.5738 70.049 27.2608C71.0682 26.9483 72.1475 26.885 73.1963 27.0762C73.9504 27.1954 74.6693 27.4777 75.303 27.9036C75.8675 28.287 76.3094 28.8251 76.5759 29.4533L75.217 30.2329C74.9861 29.7487 74.6372 29.3303 74.2024 29.0162C73.7675 28.702 73.2607 28.5022 72.7285 28.435C71.9477 28.2918 71.1438 28.341 70.3863 28.5782C69.6145 28.8184 68.9065 29.2292 68.3149 29.78C67.7233 30.3308 67.2631 31.0076 66.9685 31.7603C66.6769 32.4486 66.58 33.2037 66.6885 33.9433C66.7908 34.6069 67.1136 35.2167 67.605 35.6744C68.1418 36.1644 68.8117 36.4844 69.5303 36.5941C70.741 36.8014 71.9852 36.5384 73.0085 35.859L73.6195 36.9918C72.9377 37.4447 72.1731 37.7584 71.3696 37.9147C70.5653 38.079 69.7371 38.0898 68.9288 37.9465H68.932ZM82.7018 38.9011L82.1831 40.2217L74.4947 38.8216L78.6508 28.2091L86.126 29.5615L85.6041 30.8662L79.6436 29.7874L78.3707 33.0491L83.682 34.0038L83.176 35.2766L77.8679 34.322L76.525 37.7492L82.7018 38.9011ZM97.2163 31.5821L93.0602 42.1947L91.8191 41.9687L88.5668 32.9027L85.4673 40.8168L83.9525 40.5431L88.1054 29.9115L89.3465 30.1374L92.6052 39.2098L95.7047 31.2989L97.2163 31.5821ZM100.24 43.6235C99.2749 43.4771 98.3742 43.0512 97.6491 42.3983C96.9894 41.7903 96.5515 40.9795 96.4049 40.0944C96.2532 39.1087 96.3799 38.1003 96.7708 37.1828C97.1618 36.1705 97.7828 35.2631 98.5847 34.532C99.377 33.798 100.326 33.2539 101.36 32.9409C102.38 32.6288 103.46 32.5655 104.51 32.7564C105.263 32.8758 105.981 33.1581 106.614 33.5837C107.178 33.9673 107.62 34.5053 107.887 35.1334L106.528 35.9131C106.299 35.4283 105.951 35.0092 105.516 34.6949C105.082 34.3806 104.575 34.1811 104.042 34.1151C103.262 33.972 102.458 34.0212 101.7 34.2583C100.928 34.4986 100.22 34.9093 99.6288 35.4601C99.0372 36.011 98.5771 36.6878 98.2824 37.4405C97.9898 38.1285 97.8918 38.8836 97.9992 39.6235C98.1029 40.2866 98.4255 40.896 98.9157 41.3546C99.4521 41.8452 100.122 42.1653 100.841 42.2742C102.052 42.4802 103.295 42.2174 104.319 41.5391L104.927 42.672C104.246 43.1248 103.483 43.4384 102.68 43.5948C101.876 43.7532 101.049 43.7586 100.243 43.6107L100.24 43.6235ZM114.009 44.5781L113.494 45.8987L105.805 44.5081L109.965 33.8956L117.427 35.2289L116.908 36.5463L110.948 35.4676L109.675 38.7293L114.986 39.6839L114.48 40.9568L109.169 40.0022L107.826 43.4293L114.009 44.5781Z" fill="#7B9BEC"/>
<path d="M86.5362 81.8358H109.64C111.331 81.8337 113.005 82.165 114.568 82.8106C116.13 83.4563 117.55 84.4037 118.747 85.5986C119.943 86.7935 120.892 88.2125 121.539 89.7745C122.186 91.3364 122.519 93.0106 122.519 94.7013V157.864H73.6733V94.7013C73.6729 93.0119 74.0053 91.339 74.6516 89.7781C75.2978 88.2173 76.2452 86.7989 77.4397 85.6042C78.6341 84.4095 80.0523 83.4618 81.6131 82.8152C83.1739 82.1686 84.8468 81.8358 86.5362 81.8358Z" fill="#6DA33A"/>
<path d="M74.1478 81.8358H97.2514C100.662 81.8375 103.933 83.1938 106.344 85.6065C108.755 88.0191 110.109 91.2906 110.108 94.7013V157.864H61.269V94.7013C61.2686 93.0106 61.6015 91.3364 62.2488 89.7745C62.896 88.2125 63.8448 86.7935 65.041 85.5986C66.2371 84.4037 67.6572 83.4563 69.2198 82.8106C70.7824 82.165 72.4571 81.8337 74.1478 81.8358Z" fill="#91CE5E"/>
<path d="M38.3053 104.056H54.656C58.0674 104.056 61.3391 105.411 63.7514 107.823C66.1637 110.235 67.5189 113.507 67.5189 116.918V157.755H25.4424V116.918C25.4424 113.507 26.7976 110.235 29.2098 107.823C31.6221 105.411 34.8938 104.056 38.3053 104.056Z" fill="#7A9AEB"/>
<path d="M25.9007 104.056H42.2514C45.6629 104.056 48.9346 105.411 51.3468 107.823C53.7591 110.235 55.1143 113.507 55.1143 116.918V157.755H13.0474V116.918C13.0474 113.509 14.4012 110.239 16.8114 107.827C19.2216 105.415 22.4909 104.059 25.9007 104.056Z" fill="#93ADEB"/>
<path d="M142.036 104.056H158.386C160.076 104.056 161.748 104.389 163.309 105.035C164.869 105.682 166.287 106.629 167.482 107.823C168.676 109.018 169.624 110.436 170.27 111.996C170.917 113.557 171.249 115.229 171.249 116.918V157.755H129.173V116.918C129.173 113.507 130.528 110.235 132.94 107.823C135.353 105.411 138.624 104.056 142.036 104.056Z" fill="#7A9AEB"/>
<path d="M129.631 104.056H145.982C149.393 104.056 152.665 105.411 155.077 107.823C157.489 110.235 158.845 113.507 158.845 116.918V157.755H116.768V116.918C116.768 113.507 118.123 110.235 120.536 107.823C122.948 105.411 126.22 104.056 129.631 104.056Z" fill="#93ADEB"/>
<path d="M17.1652 118.752C17.1875 118.752 29.4999 97.1802 31.1674 95.1531C31.3051 94.9855 31.4828 94.8553 31.6842 94.7747C31.8856 94.694 32.104 94.6655 32.3194 94.6917L35.7563 95.1022L39.7787 103.834L33.064 99.92C33.7291 104.521 25.0892 111.376 22.1265 113.858C22.055 113.918 21.9967 113.992 21.955 114.075C21.9133 114.158 21.8892 114.25 21.8841 114.343C21.879 114.436 21.8931 114.529 21.9255 114.616C21.9579 114.704 22.0079 114.783 22.0724 114.851L23.2562 116.089C21.4345 117.984 19.102 119.311 16.5415 119.907L17.1652 118.752Z" fill="#E8A38B"/>
<path d="M22.5721 115.417C22.7938 115.494 22.9977 115.615 23.1716 115.772C23.3455 115.93 23.4858 116.121 23.584 116.334C23.6397 116.493 23.6415 116.666 23.5892 116.827C23.5368 116.987 23.4333 117.126 23.2944 117.222C22.0502 118.113 17.9482 120.986 16.0547 121.559C16.0191 121.569 15.9815 121.57 15.9455 121.561C15.9095 121.553 15.8763 121.535 15.8494 121.509C15.8224 121.484 15.8025 121.452 15.7916 121.417C15.7807 121.381 15.7793 121.344 15.7874 121.307C15.886 120.868 16.1979 119.99 17.2099 118.704L17.1176 118.889C17.0936 118.939 17.0861 118.996 17.0961 119.05C17.1061 119.105 17.1331 119.155 17.1734 119.194C17.2136 119.232 17.2649 119.257 17.32 119.265C17.3752 119.272 17.4313 119.262 17.4804 119.236C18.7501 118.51 21.3214 116.948 22.5721 115.417Z" fill="#383D6D"/>
<path d="M21.9575 124.043C21.9766 124.043 23.8255 119.588 23.8446 119.566C25.5376 109.253 29.6714 100.422 30.8902 98.0991C30.9908 97.9067 31.1383 97.7428 31.3191 97.6227C31.4999 97.5025 31.7082 97.43 31.9245 97.4118L35.3741 97.1158L41.1023 104.852L33.732 102.379C35.3232 106.751 28.2394 115.2 25.8399 118.242C25.782 118.315 25.7397 118.399 25.7156 118.489C25.6916 118.579 25.6862 118.673 25.6999 118.766C25.7137 118.858 25.7462 118.946 25.7954 119.025C25.8447 119.104 25.9097 119.173 25.9863 119.226L27.3961 120.199C25.9951 122.421 23.98 124.19 21.5947 125.291L21.9575 124.043Z" fill="#FDBFA6"/>
<path d="M26.5787 119.684C26.811 119.715 27.0348 119.792 27.2366 119.912C27.4384 120.031 27.614 120.189 27.753 120.378C27.8391 120.523 27.8754 120.692 27.8564 120.859C27.8375 121.026 27.7642 121.183 27.6479 121.304C26.6105 122.427 23.1768 126.077 21.4361 127.01C21.403 127.029 21.3655 127.038 21.3275 127.038C21.2895 127.037 21.2523 127.026 21.2199 127.006C21.1874 126.987 21.1608 126.958 21.1429 126.925C21.125 126.891 21.1163 126.854 21.1179 126.816C21.1179 126.367 21.2547 125.441 21.9834 123.977L21.9325 124.174C21.9186 124.229 21.9223 124.286 21.9431 124.338C21.9638 124.39 22.0006 124.434 22.0481 124.464C22.0955 124.494 22.1512 124.508 22.2071 124.504C22.263 124.5 22.3162 124.478 22.359 124.442C23.4632 123.487 25.6717 121.435 26.5787 119.684Z" fill="#383D6D"/>
<path d="M51.5184 95.4897C51.5184 95.4897 54.6371 100.129 54.8949 102.245C55.1526 104.362 54.0325 105.109 50.7579 105.364C41.0423 106.166 36.2497 103.254 36.2497 103.254C35.5846 99.0155 35.1105 97.9368 29.5669 95.6329C29.5669 95.6329 36.5871 96.1898 38 95.6329C39.413 95.076 51.5184 95.4897 51.5184 95.4897Z" fill="#383D6D"/>
<path d="M39.6611 67.8317C39.6611 67.8317 41.7201 67.8317 42.4807 68.5954C43.0917 69.2318 44.9756 68.4076 45.8794 69.7823C46.0997 70.1286 46.4278 70.3928 46.8131 70.5342C47.1984 70.6757 47.6195 70.6865 48.0115 70.5651C50.0259 69.9287 53.396 69.4737 55.4645 72.4967C57.0556 74.8038 56.2441 76.3726 55.0762 77.3527C54.6619 77.6941 54.3944 78.1815 54.3287 78.7143C54.2629 79.2471 54.4041 79.7848 54.723 80.2167C55.3786 81.0663 55.6363 82.301 54.427 83.9716C51.7157 87.7202 44.8324 83.017 44.8324 83.017L38.4678 72.0035L39.6611 67.8317Z" fill="#663F5C"/>
<path d="M43.0818 94.8763C43.0818 94.8763 39.4476 91.4173 37.6719 89.1261C37.196 88.5152 36.8729 87.7993 36.7295 87.0383C36.5862 86.2772 36.6267 85.4929 36.8477 84.7506C37.6656 82.0013 39.1135 79.15 39.2472 78.7045C39.4508 78.0236 43.5242 78.0681 43.5242 78.0681C43.5242 78.0681 51.5404 83.2709 54.6877 92.0696L51.1522 93.1707C51.1522 93.1707 49.0582 89.6703 46.9929 87.4428C46.9929 87.4428 50.5698 92.1683 50.6971 94.103L43.0818 94.8763Z" fill="#91CE5E"/>
<path d="M38.7446 74.9114C38.786 75.0515 39.8489 78.5773 39.9348 78.6505C40.0207 78.7237 42.2674 78.8446 43.324 78.1222L41.1632 73.349L38.7446 74.9114Z" fill="#FDBFA6"/>
<path d="M35.8232 70.9629C35.8232 70.9629 35.0658 72.7099 35.9569 75.3702C36.8479 78.0305 38.299 78.2596 39.2187 77.5977C40.1384 76.9358 41.3318 75.768 41.4814 73.3591C41.6309 70.9502 36.8638 68.7354 35.8232 70.9629Z" fill="#FDBFA6"/>
<path d="M39.6831 73.1898C39.6831 73.1898 38.0919 69.594 35.667 71.8342L35.4825 72.7602C35.4825 72.7602 33.188 72.1079 33.9422 70.0267C34.1623 69.4707 34.4981 68.968 34.9275 68.5518C35.3569 68.1356 35.8699 67.8156 36.4325 67.6131C36.9951 67.4105 37.5944 67.33 38.1905 67.3769C38.7866 67.4238 39.366 67.597 39.8899 67.8851C42.3435 69.2312 43.1773 70.8191 43.0468 72.7125C42.9163 74.6059 41.497 73.9567 41.497 73.9567C41.497 73.9567 41.2233 72.5661 40.5423 72.3179C39.8613 72.0697 39.9059 73.123 39.9059 73.123L39.6831 73.1898Z" fill="#663F5C"/>
<path d="M40.237 73.2376C40.237 73.2376 39.4 71.3919 40.5711 71.3283C41.7422 71.2646 41.2649 73.1071 41.0326 73.7785L40.237 73.2376Z" fill="#FDBFA6"/>
<path d="M36.1606 96.2424L38.8911 93.2734L42.0447 94.123C42.0447 94.123 45.7203 94.6927 47.8238 94.123L49.9273 93.5534L54.6817 92.0737L55.4295 94.1835C55.5213 94.4444 55.5255 94.7281 55.4417 94.9916C55.3579 95.2551 55.1905 95.4842 54.9649 95.6441C54.5867 95.9267 54.1854 96.1769 53.7652 96.3919C53.1287 96.6656 39.3461 96.4778 39.3461 96.4778L36.1606 96.2424Z" fill="#FDBFA6"/>
<path d="M45.1889 97.4157H45.1603H32.6061C32.5287 97.4215 32.4511 97.4113 32.3779 97.3857C32.3047 97.3601 32.2376 97.3197 32.1807 97.267C32.1239 97.2142 32.0785 97.1504 32.0475 97.0793C32.0165 97.0082 32.0005 96.9315 32.0005 96.854C32.0005 96.7765 32.0165 96.6998 32.0475 96.6287C32.0785 96.5577 32.1239 96.4938 32.1807 96.4411C32.2376 96.3883 32.3047 96.3479 32.3779 96.3223C32.4511 96.2967 32.5287 96.2865 32.6061 96.2924H45.1603C45.3026 96.2988 45.4372 96.359 45.537 96.4607C45.6368 96.5625 45.6942 96.6982 45.6979 96.8407C45.7015 96.9831 45.651 97.1216 45.5566 97.2283C45.4621 97.335 45.3307 97.402 45.1889 97.4157Z" fill="#8282B4"/>
<path d="M21.3213 86.0166H31.7816C32.1592 86.0167 32.529 86.1242 32.8479 86.3264C33.1668 86.5287 33.4217 86.8174 33.5827 87.159L38.4167 97.4088H25.4233C25.1803 97.4085 24.943 97.3353 24.7421 97.1986C24.5412 97.0618 24.3861 96.8679 24.2968 96.6419L20.548 87.159C20.4976 87.0326 20.479 86.8958 20.4936 86.7605C20.5083 86.6253 20.5558 86.4957 20.6321 86.383C20.7083 86.2703 20.811 86.178 20.9312 86.1142C21.0513 86.0503 21.1853 86.0168 21.3213 86.0166Z" fill="#A7ACD2"/>
<path d="M143.968 70.4728C143.936 70.5365 141.864 72.0639 141.864 72.0639C141.864 72.0639 142.323 75.3352 144.178 76.6271C146.221 78.0464 149.104 75.4561 149.104 75.4561C149.104 75.4561 151.398 76.0003 152.605 71.2238C152.885 70.1292 151.268 70.0369 149.317 70.2374C146.816 70.4951 143.968 70.4728 143.968 70.4728Z" fill="#663F5C"/>
<path d="M140.095 81.6315C140.904 81.0737 141.801 80.6563 142.749 80.3968C143.105 80.2982 145.03 80.8583 146.221 80.8328C147.856 80.7946 149.518 80.0532 150.867 80.3873C151.95 80.6159 152.987 81.0281 153.931 81.6061C155.825 82.9521 156.935 85.4629 157.613 87.9481C156.787 88.7732 155.802 89.4227 154.717 89.8574L154.418 101.95L147.271 105.606L139.115 101.511L139.407 89.7015C139.407 89.7015 136.817 88.4955 136.626 88.0563C136.435 87.6172 137.81 83.2035 140.095 81.6315Z" fill="#91CE5E"/>
<path d="M136.75 87.9869C136.75 87.9869 133.278 97.6098 141.205 101.565C142.847 101.346 142.217 98.6185 142.217 98.6185C142.217 98.6185 138.777 97.858 139.812 89.8294C138.85 89.0466 136.75 87.9869 136.75 87.9869Z" fill="#FDBFA6"/>
<path d="M157.448 87.9869C157.448 87.9869 159.838 98.033 152.993 101.565C151.351 101.346 151.981 98.6185 151.981 98.6185C151.981 98.6185 154.752 97.2534 154.386 89.8294C155.351 89.0466 157.448 87.9869 157.448 87.9869Z" fill="#FDBFA6"/>
<path d="M152.044 91.6583H141.676C140.212 91.6583 139.025 92.8451 139.025 94.3091V99.5915C139.025 101.055 140.212 102.242 141.676 102.242H152.044C153.508 102.242 154.695 101.055 154.695 99.5915V94.3091C154.695 92.8451 153.508 91.6583 152.044 91.6583Z" fill="#A7ACD2"/>
<path d="M161.569 105.377C159.774 104.966 155.63 105.186 155.63 105.186L155.462 105.641L155.182 107.91C155.182 107.91 159.128 108.623 161.075 108.62C161.261 108.62 161.445 108.592 161.623 108.537C161.683 108.483 161.74 108.429 161.794 108.368C162.616 107.471 162.38 106.147 161.569 105.377Z" fill="#383D6D"/>
<path d="M154.44 105.059L155.144 105.088C155.335 105.098 155.521 105.149 155.691 105.237C155.862 105.324 156.011 105.447 156.13 105.597C156.388 105.919 156.517 106.325 156.493 106.736C156.479 107.062 156.344 107.37 156.114 107.602C156.008 107.71 155.88 107.795 155.738 107.85C155.597 107.905 155.445 107.929 155.293 107.92L154.221 107.844L154.44 105.059Z" fill="#FDBFA6"/>
<path d="M130.837 105.161C132.642 104.805 136.779 105.161 136.779 105.161L136.935 105.623L137.157 107.875C137.157 107.875 133.192 108.464 131.248 108.404C131.063 108.398 130.879 108.365 130.704 108.305C130.646 108.251 130.589 108.194 130.535 108.13C129.736 107.22 130.007 105.906 130.837 105.161Z" fill="#383D6D"/>
<path d="M137.972 105.059H137.269C137.077 105.064 136.889 105.109 136.717 105.192C136.545 105.274 136.392 105.393 136.269 105.54C136.003 105.854 135.864 106.255 135.878 106.666C135.885 106.993 136.013 107.307 136.238 107.544C136.342 107.655 136.468 107.743 136.608 107.801C136.749 107.859 136.9 107.887 137.052 107.882L138.128 107.837L137.972 105.059Z" fill="#FDBFA6"/>
<path d="M162.071 98.2647C161.257 96.3936 159.268 96.0881 157.575 96.9632C157.546 97.0014 146.822 102.497 137.367 104.919C137.633 105.795 137.781 106.702 137.806 107.617C137.806 107.829 137.806 108.029 137.806 108.215C145.059 107.843 152.929 105.425 159.691 103.299C161.779 102.612 162.972 100.34 162.071 98.2647Z" fill="#2B3259"/>
<path d="M154.491 107.747C154.455 106.738 154.665 105.736 155.102 104.826C155.102 104.785 155.131 104.746 155.144 104.705C154.603 104.536 153.906 104.31 152.989 104.002C147.21 102.069 141.613 99.6299 136.263 96.7115C134.354 95.6741 132.206 96.3678 131.598 98.6208C131.054 100.626 132.234 102.341 134.054 102.942C139.464 104.743 136.648 104.244 138.417 104.81C143.165 106.277 149.072 107.614 154.504 107.992C154.498 107.897 154.494 107.82 154.491 107.747Z" fill="#383D6D"/>
<path d="M142.752 80.3983C142.997 81.3175 143.552 82.1241 144.322 82.6823C145.092 83.2405 146.031 83.5161 146.981 83.4627C150.552 83.3991 150.87 80.3888 150.87 80.3888L148.537 79.8733L148.343 77.2734L144.843 77.5344L144.779 80.0037L142.752 80.3983Z" fill="#FDBFA6"/>
<path d="M145.326 69.9257C145.326 69.9257 141.294 77.7156 146.068 79.6026C149.431 80.9359 151.541 74.4316 150.911 72.6687C149.937 69.9448 149.298 70.2661 149.298 70.2661L145.326 69.9257Z" fill="#FDBFA6"/>
<path d="M151.885 69.2144C153.871 69.7618 152.175 74.0672 149.183 73.049C146.192 72.0307 145.018 72.0466 144.55 72.8676C144.082 73.6886 143.983 76.6066 142.959 75.1651C141.851 73.574 141.231 70.4141 142.593 69.3895C143.808 68.4762 144.091 67.0601 145.549 67.1078C147.484 67.1715 148.98 66.3155 149.851 66.9328C150.867 67.6424 150.424 68.8135 151.885 69.2144Z" fill="#663F5C"/>
<path d="M144.369 73.5394C144.369 73.5394 143.513 72.6165 143.373 73.7303C143.233 74.844 143.691 76.276 144.194 75.49C144.697 74.704 144.369 73.5394 144.369 73.5394Z" fill="#FDBFA6"/>
<path d="M77.2155 82.154C77.2101 82.1128 77.2101 82.0711 77.2155 82.0299C77.8519 79.5478 80.3978 78.2749 80.3978 78.2749L81.6294 78.3704C82.339 80.5597 82.7941 81.6289 82.6795 82.224C82.6795 82.2399 82.6795 82.2558 82.6795 82.2717C80.8585 82.4031 79.0292 82.3637 77.2155 82.154Z" fill="#4E5493"/>
<path d="M82.7018 82.2741C82.679 82.3694 82.6305 82.4567 82.5614 82.5263C82.4924 82.5959 82.4056 82.6451 82.3104 82.6687C80.8656 82.9869 78.568 82.7292 77.6038 82.6019C77.499 82.5838 77.404 82.5291 77.3358 82.4475C77.2677 82.3659 77.2307 82.2627 77.2315 82.1564C79.0472 82.3665 80.8787 82.4059 82.7018 82.2741Z" fill="#2F3560"/>
<path d="M79.4019 76.3555L79.9397 78.9521C79.9546 79.0416 79.9979 79.124 80.0633 79.187C80.1286 79.2501 80.2124 79.2904 80.3025 79.3022C80.5805 79.3347 80.8614 79.3347 81.1394 79.3022C81.2094 79.2889 81.2759 79.2618 81.3353 79.2224C81.3946 79.183 81.4455 79.1322 81.4849 79.073C81.5243 79.0137 81.5515 78.9471 81.5649 78.8772C81.5782 78.8072 81.5775 78.7354 81.5627 78.6657L81.1871 76.3618L79.4019 76.3555Z" fill="url(#paint9_linear_2_1358)"/>
<path d="M93.1367 82.2519C91.8224 82.2137 91.1413 82.0609 90.7881 81.9177C90.7881 82.0482 90.7881 82.1819 90.7881 82.3187C90.7872 82.3863 90.8126 82.4516 90.8589 82.5009C90.9052 82.5501 90.9688 82.5795 91.0363 82.5828L98.2602 82.5351C98.3155 82.5334 98.3695 82.5173 98.4167 82.4884C98.464 82.4595 98.5028 82.4188 98.5295 82.3703C98.5562 82.3218 98.5697 82.2671 98.5688 82.2117C98.5679 82.1564 98.5526 82.1022 98.5243 82.0546C97.5823 82.1341 95.1701 82.3091 93.1367 82.2519Z" fill="#2F3560"/>
<path d="M98.5463 82.056C98.5385 82.0371 98.5289 82.019 98.5176 82.0019C97.8812 81.1109 96.255 79.3353 93.0441 78.5652L91.5038 78.5175C91.5038 78.5175 90.8164 79.7108 90.8037 81.9192C91.1569 82.0624 91.8348 82.2183 93.1523 82.2533C95.1858 82.3106 97.598 82.1356 98.5463 82.056Z" fill="#4E5493"/>
<path d="M91.2178 76.1811C91.2337 76.2956 91.4469 78.0395 91.536 78.7268C91.5388 78.8045 91.5686 78.8788 91.6203 78.9369C91.672 78.995 91.7424 79.0332 91.8192 79.045C92.1702 79.0928 92.5264 79.0874 92.8758 79.0291C92.9775 79.0043 93.0675 78.9452 93.1307 78.8617C93.1939 78.7782 93.2264 78.6755 93.2226 78.5709V75.8311L91.2178 76.1811Z" fill="url(#paint10_linear_2_1358)"/>
<path d="M80.4295 42.2623C80.4295 42.2623 77.9664 64.1683 79.3348 77.8612C79.3348 77.8612 80.9768 77.8612 81.8011 77.5875C81.8011 77.5875 84.3469 56.1652 85.1902 50.0364C85.1987 49.9885 85.2238 49.9452 85.261 49.914C85.2983 49.8828 85.3453 49.8657 85.3939 49.8657C85.4425 49.8657 85.4895 49.8828 85.5268 49.914C85.564 49.9452 85.5891 49.9885 85.5976 50.0364C86.6191 55.1946 90.6352 75.4173 91.1125 77.3266C91.1125 77.3266 92.4809 77.8739 93.5788 77.3266C93.5788 77.3266 91.3894 48.0252 89.76 42.8224L80.4295 42.2623Z" fill="#8F87BA"/>
<path d="M75.5 16.7917C75.5 16.7917 83.774 15.6716 91.3479 16.814C92.2449 16.9473 93.0537 17.4276 93.6001 18.1513C94.1465 18.875 94.3868 19.7843 94.2693 20.6835L93.5756 25.8195C93.5756 25.8195 91.3861 37.5935 89.7568 42.7996C89.7568 42.7996 83.459 43.8942 80.4453 42.2522C80.4453 42.2522 77.979 27.4647 76.6266 25.2722C76.5947 25.2817 75.2264 19.5316 75.5 16.7917Z" fill="#92CF5E"/>
<path d="M82.7396 9.31177L81.7021 16.3125C81.7021 16.3125 84.598 17.6427 86.6252 16.2553L86.1892 11.307L82.7396 9.31177Z" fill="#E8A38B"/>
<path d="M87.1949 4.74529C87.2267 4.80575 87.8536 8.34114 88.2355 10.5273C88.2731 10.7406 88.2652 10.9594 88.2122 11.1694C88.1592 11.3794 88.0623 11.5757 87.9279 11.7456C87.7935 11.9154 87.6247 12.0549 87.4325 12.1548C87.2404 12.2547 87.0292 12.3128 86.813 12.3252L85.9729 12.3761C85.2268 12.42 84.4913 12.1831 83.9112 11.712C83.3311 11.2408 82.9483 10.5696 82.8383 9.83039L82.2305 5.86541C82.2305 5.86541 86.4025 3.30695 87.1949 4.74529Z" fill="#FDC0A7"/>
<path d="M81.3304 5.88701C81.2164 5.77118 81.1277 5.63301 81.0697 5.48121C81.0117 5.3294 80.9858 5.16725 80.9936 5.00494C81.0014 4.84264 81.0427 4.6837 81.1149 4.53812C81.1871 4.39255 81.2886 4.2635 81.4131 4.15909C81.6669 3.9024 81.9975 3.73553 82.3548 3.68384C82.712 3.63215 83.0764 3.69846 83.3925 3.87269C83.4988 3.92077 83.6176 3.93404 83.7319 3.91061C83.8462 3.88718 83.9502 3.82825 84.029 3.74223C84.0675 3.6969 84.1169 3.66204 84.1726 3.6409C84.2282 3.61976 84.2883 3.61302 84.3472 3.6213C84.4171 3.63643 84.4893 3.63686 84.5594 3.62257C84.6294 3.60827 84.6957 3.57956 84.7541 3.53826C84.8125 3.49697 84.8616 3.44398 84.8984 3.38268C84.9352 3.32137 84.9588 3.25309 84.9678 3.18217C84.9861 2.86436 85.1152 2.56302 85.3326 2.33049C85.5501 2.09796 85.8421 1.94893 86.1579 1.9093C87.7714 1.59108 88.5733 3.2108 88.5447 4.34366C88.516 5.47651 86.7498 5.71517 85.7474 5.52742C85.0123 5.39059 84.3727 6.03657 84.0894 6.38979C84.038 6.453 84.0017 6.5272 83.9835 6.60666C83.9653 6.68612 83.9656 6.7687 83.9844 6.84802L84.239 7.94268C84.0774 8.29104 83.8767 8.61987 83.6407 8.92279C83.495 9.11314 83.2901 9.2497 83.0584 9.31102C82.7592 8.75095 81.9159 8.65549 81.5277 8.64276C81.4537 8.64054 81.381 8.62299 81.3142 8.59122C81.2474 8.55945 81.1879 8.51415 81.1394 8.4582C80.8435 8.12089 80.382 7.36671 81.2667 6.62527C81.3714 6.53472 81.4366 6.40693 81.4485 6.26906C81.4603 6.13119 81.418 5.99413 81.3304 5.88701Z" fill="#663F5C"/>
<path d="M83.348 10.4827C83.348 10.4827 83.3129 8.50344 82.5142 8.31887C81.7154 8.13431 80.8498 8.71346 81.534 9.90995C82.3837 11.3706 83.348 10.4827 83.348 10.4827Z" fill="#FDC0A7"/>
<path d="M80.1941 26.2497C80.1941 26.2497 56.6801 19.8504 68.356 3.38904L69.1452 4.50598C69.1452 4.50598 65.6287 15.6436 77.2823 16.7128C77.2728 16.7159 80.2896 24.5027 80.1941 26.2497Z" fill="#92CF5E"/>
<path d="M68.2669 3.47178C68.2669 3.47178 68.0028 0.289615 69.5908 0.0286776C71.1788 -0.23226 71.7102 1.35246 71.9743 2.148C72.2385 2.94354 69.5908 4.53144 69.0625 4.53144C68.5343 4.53144 68.2669 3.47178 68.2669 3.47178Z" fill="#FDC0A7"/>
<path d="M92.8564 28.0036C92.8564 28.0036 95.8955 40.0322 111.142 26.7817L109.974 26.0689C109.974 26.0689 96.5511 35.5931 94.1962 19.3513C94.1962 19.3513 92.8564 26.5462 92.8564 28.0036Z" fill="#6DA537"/>
<path d="M111.063 26.8712C111.063 26.8712 114.245 26.9221 114.41 25.3215C114.576 23.7208 112.946 23.2944 112.138 23.0939C111.33 22.8935 109.911 25.6397 109.955 26.1584C110 26.6771 111.063 26.8712 111.063 26.8712Z" fill="#FDC0A7"/>
<path d="M111.448 3.89503C118.302 1.86481 124.842 2.41214 128.104 3.27451C131.964 4.29599 133.243 5.05971 136.658 5.44475C139.694 5.78842 147.764 3.33179 146.73 5.17745C145.384 7.58635 145.753 17.0183 147.761 20.9514C148.054 21.5242 138.497 22.9403 132.709 21.8806C124.727 20.4296 122.159 17.9825 116.918 19.0931C114.977 19.5148 113.134 20.3044 111.489 21.4192C112.017 15.5927 110.913 9.71203 111.448 3.89503Z" fill="#93D05E"/>
<path d="M111.533 82.1222C111.458 82.1222 111.385 82.092 111.331 82.0383C111.277 81.9846 111.247 81.9118 111.247 81.8358V2.02712C111.247 1.95116 111.277 1.87832 111.331 1.82461C111.385 1.7709 111.458 1.74072 111.533 1.74072C111.609 1.74072 111.682 1.7709 111.736 1.82461C111.79 1.87832 111.82 1.95116 111.82 2.02712V81.8358C111.82 81.9118 111.79 81.9846 111.736 82.0383C111.682 82.092 111.609 82.1222 111.533 82.1222Z" fill="#4B7522"/>
<path d="M125.847 31.9849C125.817 31.988 125.787 31.982 125.76 31.9677C125.734 31.9533 125.712 31.9312 125.699 31.9044C125.685 31.8775 125.68 31.8472 125.683 31.8172C125.687 31.7873 125.7 31.7592 125.72 31.7367C125.857 31.5871 125.994 31.4376 126.137 31.2944C126.149 31.2752 126.165 31.2591 126.185 31.2472C126.204 31.2353 126.226 31.2279 126.248 31.2257C126.271 31.2235 126.294 31.2264 126.315 31.2343C126.336 31.2422 126.356 31.2548 126.371 31.2713C126.387 31.2877 126.399 31.3075 126.406 31.3291C126.413 31.3507 126.414 31.3736 126.411 31.3961C126.408 31.4186 126.4 31.44 126.387 31.4588C126.374 31.4775 126.357 31.4931 126.337 31.5044C126.201 31.6444 126.064 31.7908 125.93 31.9372C125.908 31.9617 125.879 31.9785 125.847 31.9849Z" fill="#91B3FA"/>
<path d="M149.677 39.3691C149.637 39.3736 149.598 39.3624 149.567 39.338C149.536 39.3135 149.516 39.2778 149.511 39.2386C149.46 38.8568 149.393 38.4749 149.311 38.0994C149.306 38.0802 149.306 38.0604 149.31 38.041C149.313 38.0216 149.32 38.0032 149.331 37.9866C149.342 37.9701 149.355 37.9558 149.372 37.9446C149.388 37.9333 149.406 37.9254 149.425 37.9212C149.444 37.9171 149.464 37.9167 149.484 37.9202C149.503 37.9237 149.521 37.931 149.538 37.9416C149.555 37.9522 149.569 37.966 149.58 37.9822C149.591 37.9984 149.599 38.0166 149.603 38.0358C149.686 38.4176 149.756 38.8122 149.807 39.2005C149.81 39.2201 149.808 39.2401 149.803 39.2593C149.798 39.2785 149.789 39.2964 149.777 39.3121C149.765 39.3278 149.75 39.3409 149.733 39.3507C149.715 39.3605 149.696 39.3668 149.677 39.3691ZM148.932 36.3938C148.899 36.3972 148.865 36.3893 148.837 36.3714C148.809 36.3535 148.787 36.3267 148.776 36.2951C148.642 35.9356 148.493 35.576 148.327 35.2291C148.312 35.1935 148.311 35.1533 148.325 35.1171C148.339 35.0809 148.366 35.0514 148.401 35.0349C148.436 35.0184 148.476 35.0162 148.513 35.0287C148.55 35.0411 148.58 35.0674 148.598 35.1018C148.766 35.4582 148.916 35.8242 149.056 36.1933C149.063 36.2119 149.066 36.2317 149.066 36.2516C149.065 36.2715 149.061 36.291 149.052 36.3091C149.044 36.3272 149.032 36.3434 149.017 36.3568C149.003 36.3703 148.986 36.3807 148.967 36.3874L148.932 36.3938ZM147.557 33.6571C147.529 33.6605 147.501 33.656 147.476 33.6442C147.451 33.6324 147.429 33.6137 147.414 33.5903C147.204 33.2721 146.978 32.9539 146.742 32.6357C146.73 32.62 146.721 32.6021 146.716 32.583C146.711 32.5638 146.71 32.5439 146.712 32.5242C146.715 32.5046 146.721 32.4856 146.731 32.4684C146.741 32.4512 146.754 32.4362 146.77 32.424C146.785 32.4119 146.803 32.403 146.822 32.3978C146.841 32.3926 146.861 32.3912 146.881 32.3937C146.901 32.3963 146.92 32.4026 146.937 32.4124C146.954 32.4223 146.969 32.4354 146.981 32.4511C147.22 32.7693 147.452 33.0875 147.665 33.4057C147.68 33.4271 147.688 33.4519 147.69 33.4776C147.692 33.5033 147.688 33.5291 147.677 33.5525C147.666 33.5758 147.649 33.596 147.628 33.611C147.607 33.626 147.583 33.6353 147.557 33.638V33.6571ZM145.613 31.2928C145.591 31.2952 145.569 31.2928 145.548 31.2857C145.527 31.2785 145.508 31.2668 145.492 31.2514C145.215 30.9841 144.925 30.7264 144.629 30.4845C144.614 30.472 144.602 30.4566 144.592 30.4391C144.583 30.4217 144.577 30.4026 144.575 30.383C144.573 30.3633 144.575 30.3435 144.581 30.3246C144.587 30.3057 144.596 30.2882 144.609 30.2729C144.621 30.2576 144.637 30.245 144.654 30.2357C144.672 30.2264 144.691 30.2207 144.71 30.2187C144.73 30.2168 144.75 30.2188 144.769 30.2245C144.788 30.2303 144.805 30.2397 144.82 30.2522C145.139 30.5004 145.422 30.7645 145.702 31.0382C145.723 31.058 145.738 31.0834 145.745 31.1113C145.751 31.1393 145.75 31.1687 145.741 31.1959C145.731 31.2231 145.714 31.247 145.691 31.2648C145.669 31.2825 145.641 31.2934 145.613 31.296V31.2928ZM143.204 29.4217C143.17 29.4252 143.137 29.4173 143.108 29.3994C142.79 29.1989 142.44 29.0144 142.096 28.8425C142.079 28.8337 142.063 28.8216 142.05 28.8066C142.037 28.7917 142.027 28.7744 142.02 28.7557C142.007 28.7178 142.01 28.6763 142.028 28.6404C142.046 28.6046 142.077 28.5772 142.115 28.5644C142.153 28.5516 142.194 28.5543 142.23 28.572C142.583 28.7471 142.93 28.938 143.264 29.1416C143.291 29.1577 143.312 29.1819 143.325 29.2106C143.337 29.2393 143.34 29.2712 143.333 29.3018C143.327 29.3323 143.311 29.36 143.287 29.381C143.264 29.4019 143.235 29.415 143.204 29.4185V29.4217ZM127.687 30.284C127.654 30.2878 127.621 30.2808 127.593 30.2641C127.565 30.2474 127.543 30.2219 127.531 30.1916C127.519 30.1612 127.517 30.1277 127.525 30.0961C127.534 30.0645 127.553 30.0366 127.579 30.0167C127.897 29.7781 128.215 29.549 128.533 29.3358C128.567 29.3142 128.607 29.3068 128.646 29.3152C128.685 29.3235 128.719 29.347 128.74 29.3803C128.762 29.4136 128.769 29.4542 128.761 29.4929C128.752 29.5317 128.729 29.5656 128.696 29.5871C128.377 29.794 128.059 30.0199 127.741 30.2522C127.723 30.2689 127.701 30.281 127.677 30.2872L127.687 30.284ZM140.416 28.1329C140.395 28.1375 140.373 28.1375 140.352 28.1329C139.99 28.012 139.614 27.9038 139.242 27.8147C139.223 27.8101 139.204 27.8017 139.188 27.7901C139.172 27.7785 139.159 27.7639 139.149 27.7471C139.138 27.7302 139.131 27.7115 139.128 27.692C139.125 27.6725 139.126 27.6525 139.13 27.6333C139.135 27.6141 139.143 27.5959 139.155 27.5799C139.167 27.5639 139.181 27.5504 139.198 27.54C139.215 27.5297 139.234 27.5228 139.253 27.5197C139.273 27.5166 139.293 27.5173 139.312 27.5219C139.694 27.6142 140.076 27.7256 140.448 27.8401C140.482 27.85 140.511 27.8714 140.53 27.9006C140.55 27.9298 140.558 27.9649 140.555 27.9998C140.551 28.0347 140.535 28.0672 140.51 28.0915C140.484 28.1159 140.451 28.1305 140.416 28.1329ZM130.3 28.6961C130.263 28.7019 130.226 28.6942 130.195 28.6743C130.164 28.6545 130.142 28.6239 130.132 28.5885C130.122 28.5531 130.125 28.5153 130.142 28.4823C130.158 28.4493 130.186 28.4235 130.22 28.4097C130.576 28.2443 130.946 28.0915 131.311 27.9579C131.349 27.9444 131.39 27.9463 131.427 27.9633C131.463 27.9804 131.491 28.011 131.504 28.0486C131.518 28.0861 131.516 28.1275 131.499 28.1636C131.482 28.1997 131.451 28.2276 131.413 28.2411C131.054 28.3716 130.694 28.5211 130.344 28.6834L130.3 28.6961ZM137.422 27.4901H137.39C137.008 27.4519 136.62 27.4296 136.235 27.4233C136.195 27.4233 136.157 27.4075 136.129 27.3795C136.101 27.3514 136.085 27.3134 136.085 27.2737C136.085 27.234 136.101 27.196 136.129 27.168C136.157 27.1399 136.195 27.1241 136.235 27.1241C136.626 27.1241 137.024 27.1528 137.415 27.191C137.455 27.191 137.493 27.2067 137.521 27.2348C137.549 27.2628 137.565 27.3009 137.565 27.3405C137.565 27.3802 137.549 27.4182 137.521 27.4463C137.493 27.4743 137.455 27.4901 137.415 27.4901H137.422ZM133.205 27.7224C133.166 27.7287 133.126 27.7192 133.093 27.6959C133.061 27.6727 133.039 27.6375 133.033 27.5983C133.027 27.559 133.036 27.5189 133.06 27.4867C133.083 27.4544 133.118 27.4328 133.157 27.4265C133.542 27.3437 133.934 27.2769 134.322 27.2292C134.362 27.2246 134.401 27.2357 134.433 27.2601C134.464 27.2845 134.485 27.3202 134.491 27.3596C134.493 27.3793 134.492 27.3993 134.487 27.4185C134.482 27.4376 134.473 27.4556 134.461 27.4713C134.449 27.487 134.433 27.5001 134.416 27.5099C134.399 27.5197 134.38 27.5259 134.36 27.5283C133.978 27.576 133.596 27.6397 133.221 27.7224H133.205Z" fill="#91B3FA"/>
<path d="M149.772 41.8709H149.747C149.727 41.8701 149.707 41.8653 149.689 41.8569C149.671 41.8484 149.655 41.8364 149.641 41.8215C149.628 41.8067 149.618 41.7894 149.611 41.7705C149.605 41.7517 149.602 41.7317 149.603 41.7118C149.603 41.5145 149.619 41.3141 149.622 41.1168C149.622 41.0968 149.626 41.0771 149.634 41.0588C149.642 41.0404 149.653 41.0238 149.667 41.0099C149.682 40.9959 149.698 40.985 149.717 40.9777C149.735 40.9703 149.755 40.9668 149.775 40.9672C149.795 40.9672 149.815 40.9712 149.833 40.9789C149.852 40.9866 149.868 40.9979 149.882 41.0121C149.896 41.0263 149.907 41.0432 149.914 41.0617C149.922 41.0802 149.925 41.1 149.925 41.1199C149.925 41.3204 149.925 41.5241 149.906 41.7277C149.904 41.7637 149.89 41.798 149.866 41.8243C149.841 41.8506 149.808 41.8671 149.772 41.8709Z" fill="#91B3FA"/>
<path d="M145.024 51.5511C144.992 51.5554 144.959 51.5491 144.931 51.5331C144.902 51.5171 144.88 51.4923 144.867 51.4624C144.854 51.4325 144.851 51.3992 144.859 51.3675C144.866 51.3358 144.884 51.3075 144.91 51.287C145.059 51.1597 145.205 51.026 145.352 50.8892C145.381 50.8618 145.42 50.847 145.46 50.8482C145.5 50.8494 145.538 50.8664 145.565 50.8955C145.593 50.9247 145.607 50.9635 145.606 51.0035C145.605 51.0435 145.588 51.0813 145.559 51.1088C145.412 51.2488 145.26 51.3856 145.107 51.5161C145.083 51.5359 145.055 51.5482 145.024 51.5511Z" fill="#91B3FA"/>
<path d="M137.546 54.7969C137.285 54.8255 137.017 54.8478 136.756 54.8605C136.737 54.8618 136.717 54.8591 136.698 54.8526C136.679 54.8461 136.662 54.8358 136.647 54.8225C136.632 54.8091 136.62 54.7929 136.611 54.7749C136.603 54.7568 136.598 54.7373 136.597 54.7173C136.596 54.6774 136.61 54.6383 136.636 54.6085C136.663 54.5788 136.701 54.5607 136.741 54.5582C137.116 54.5391 137.498 54.5041 137.873 54.4532C137.913 54.4486 137.952 54.4593 137.983 54.483C138.015 54.5067 138.036 54.5417 138.042 54.5805C138.048 54.6198 138.037 54.6595 138.013 54.6912C137.99 54.7228 137.954 54.7436 137.915 54.7492L137.546 54.7969ZM139.741 54.3737C139.704 54.3782 139.666 54.3683 139.636 54.3461C139.605 54.3239 139.584 54.2909 139.577 54.2539C139.57 54.2168 139.577 54.1784 139.597 54.1463C139.616 54.1142 139.648 54.0909 139.684 54.0809C140.047 53.9791 140.41 53.8613 140.766 53.7309C140.804 53.717 140.845 53.7185 140.882 53.7352C140.918 53.7519 140.946 53.7824 140.96 53.82C140.974 53.8575 140.973 53.8991 140.956 53.9355C140.939 53.9719 140.909 54.0002 140.871 54.0141C140.508 54.1477 140.136 54.2687 139.764 54.3737H139.741ZM134.898 54.8255H134.869C134.484 54.7937 134.096 54.7428 133.717 54.676C133.678 54.6692 133.643 54.6472 133.62 54.6146C133.597 54.5821 133.588 54.5418 133.595 54.5026C133.602 54.4633 133.624 54.4284 133.656 54.4054C133.689 54.3824 133.729 54.3733 133.768 54.38C134.141 54.4437 134.519 54.4914 134.898 54.5264C134.938 54.5264 134.976 54.5422 135.004 54.5702C135.032 54.5983 135.048 54.6363 135.048 54.676C135.048 54.7156 135.032 54.7537 135.004 54.7817C134.976 54.8098 134.938 54.8255 134.898 54.8255ZM142.536 53.2504C142.5 53.2557 142.464 53.2481 142.433 53.2289C142.403 53.2097 142.381 53.1802 142.37 53.1459C142.36 53.1115 142.362 53.0746 142.377 53.0417C142.391 53.0089 142.417 52.9825 142.45 52.9672C142.768 52.789 143.112 52.5948 143.43 52.3912C143.446 52.3805 143.465 52.3732 143.484 52.3697C143.503 52.3662 143.523 52.3665 143.542 52.3706C143.562 52.3748 143.58 52.3826 143.596 52.3938C143.612 52.405 143.626 52.4192 143.637 52.4357C143.647 52.4522 143.655 52.4707 143.658 52.49C143.662 52.5093 143.661 52.5292 143.657 52.5484C143.653 52.5676 143.645 52.5858 143.634 52.602C143.623 52.6181 143.609 52.6319 143.592 52.6426C143.274 52.8526 142.93 53.0499 142.59 53.2313C142.574 53.2406 142.557 53.2471 142.539 53.2504H142.536ZM131.938 54.2368C131.919 54.241 131.898 54.241 131.878 54.2368C131.509 54.1191 131.143 53.9886 130.783 53.8423C130.747 53.8271 130.717 53.7979 130.702 53.7612C130.687 53.7245 130.687 53.6833 130.702 53.6466C130.717 53.6098 130.746 53.5807 130.783 53.5654C130.82 53.5502 130.861 53.5502 130.898 53.5654C131.248 53.7086 131.608 53.8391 131.967 53.9504C132.001 53.9601 132.03 53.9812 132.05 54.0101C132.069 54.0391 132.078 54.074 132.075 54.1087C132.071 54.1435 132.056 54.176 132.031 54.2006C132.006 54.2252 131.973 54.2402 131.938 54.2432V54.2368ZM129.179 53.0213C129.147 53.025 129.115 53.0183 129.087 53.0022C128.753 52.808 128.422 52.598 128.107 52.3657C128.091 52.3544 128.077 52.3401 128.067 52.3235C128.056 52.3069 128.049 52.2884 128.046 52.2691C128.042 52.2497 128.043 52.2299 128.047 52.2107C128.051 52.1915 128.059 52.1734 128.07 52.1573C128.082 52.1412 128.096 52.1275 128.113 52.1169C128.129 52.1064 128.148 52.0992 128.167 52.0958C128.186 52.0924 128.206 52.0929 128.225 52.0971C128.245 52.1014 128.263 52.1094 128.279 52.1207C128.597 52.3371 128.915 52.5407 129.234 52.7317C129.262 52.7472 129.284 52.7714 129.297 52.8007C129.311 52.83 129.314 52.8627 129.307 52.8942C129.301 52.9256 129.284 52.954 129.26 52.9752C129.235 52.9964 129.205 53.0092 129.173 53.0117L129.179 53.0213ZM126.754 51.2329C126.733 51.2353 126.712 51.2331 126.691 51.2265C126.671 51.2199 126.653 51.2091 126.637 51.1947C126.354 50.9338 126.077 50.6569 125.816 50.3705C125.789 50.341 125.775 50.3019 125.776 50.2619C125.778 50.2219 125.796 50.1843 125.825 50.1573C125.855 50.1303 125.894 50.1161 125.934 50.1179C125.974 50.1197 126.011 50.1373 126.038 50.1668C126.293 50.4469 126.564 50.7174 126.84 50.9719C126.862 50.9913 126.878 51.0167 126.886 51.0449C126.893 51.0731 126.892 51.1029 126.883 51.1307C126.874 51.1584 126.857 51.1829 126.834 51.2011C126.811 51.2192 126.784 51.2303 126.754 51.2329ZM124.778 48.9576C124.751 48.9607 124.724 48.9564 124.699 48.9452C124.675 48.934 124.654 48.9163 124.638 48.894C124.419 48.5758 124.212 48.2575 124.018 47.9107C124.008 47.8936 124.002 47.8747 123.999 47.8551C123.996 47.8355 123.998 47.8156 124.003 47.7965C124.008 47.7775 124.017 47.7596 124.029 47.744C124.041 47.7284 124.056 47.7153 124.073 47.7054C124.091 47.6956 124.109 47.6893 124.129 47.6868C124.149 47.6842 124.168 47.6856 124.188 47.6908C124.207 47.6959 124.224 47.7048 124.24 47.7169C124.256 47.729 124.269 47.744 124.279 47.7611C124.466 48.0793 124.67 48.3976 124.886 48.7158C124.902 48.7372 124.911 48.7623 124.913 48.7884C124.916 48.8146 124.911 48.8409 124.9 48.8648C124.889 48.8886 124.872 48.9092 124.851 48.9244C124.829 48.9396 124.804 48.9488 124.778 48.9513V48.9576ZM123.346 46.3069C123.314 46.3107 123.281 46.3037 123.253 46.287C123.225 46.2704 123.203 46.2449 123.19 46.2146C123.044 45.855 122.913 45.4891 122.796 45.1199C122.79 45.1011 122.788 45.0813 122.79 45.0617C122.791 45.0421 122.797 45.0231 122.806 45.0056C122.815 44.9882 122.828 44.9727 122.843 44.9601C122.858 44.9475 122.876 44.938 122.894 44.9322C122.913 44.9263 122.933 44.9242 122.953 44.926C122.972 44.9278 122.991 44.9335 123.009 44.9426C123.026 44.9518 123.042 44.9643 123.054 44.9794C123.067 44.9946 123.076 45.012 123.082 45.0308C123.193 45.3904 123.324 45.75 123.467 46.1C123.475 46.1184 123.479 46.1381 123.479 46.158C123.479 46.178 123.475 46.1977 123.467 46.2161C123.46 46.2345 123.448 46.2511 123.434 46.2651C123.42 46.279 123.403 46.29 123.384 46.2973L123.346 46.3069ZM122.519 43.4111C122.481 43.4157 122.442 43.4054 122.411 43.3823C122.38 43.3591 122.36 43.325 122.353 43.287C122.309 43.0261 122.274 42.7619 122.245 42.4978C122.232 42.3769 122.221 42.2549 122.21 42.1319C122.208 42.0925 122.221 42.0539 122.247 42.0238C122.272 41.9937 122.308 41.9744 122.347 41.9696C122.367 41.9678 122.386 41.97 122.405 41.9759C122.424 41.9819 122.442 41.9915 122.457 42.0042C122.472 42.0169 122.484 42.0325 122.493 42.0501C122.502 42.0676 122.508 42.0867 122.509 42.1064C122.509 42.2252 122.521 42.344 122.544 42.4628C122.573 42.7206 122.608 42.9783 122.649 43.2329C122.652 43.2523 122.652 43.2722 122.647 43.2914C122.643 43.3105 122.634 43.3286 122.623 43.3446C122.611 43.3606 122.597 43.3741 122.58 43.3844C122.563 43.3947 122.545 43.4016 122.525 43.4047L122.519 43.4111Z" fill="#91B3FA"/>
<path d="M122.36 40.3944H122.334C122.315 40.3936 122.295 40.3888 122.277 40.3803C122.259 40.3718 122.243 40.3598 122.229 40.345C122.216 40.3302 122.206 40.3128 122.199 40.294C122.193 40.2752 122.19 40.2552 122.191 40.2353C122.191 40.0348 122.22 39.8312 122.239 39.6307C122.243 39.591 122.262 39.5545 122.293 39.5291C122.324 39.5038 122.363 39.4916 122.403 39.4954C122.443 39.4992 122.479 39.5186 122.504 39.5494C122.53 39.5801 122.542 39.6197 122.538 39.6593C122.519 39.8566 122.503 40.0539 122.49 40.2512C122.489 40.2867 122.475 40.3205 122.451 40.3468C122.428 40.373 122.395 40.3899 122.36 40.3944Z" fill="#91B3FA"/>
<path d="M125.771 38.6469C125.76 38.6795 125.759 38.7148 125.768 38.7479C125.778 38.781 125.798 38.8102 125.825 38.8315L127.416 40.0662C127.32 41.0101 127.378 41.9635 127.588 42.8887L126.172 44.3048C126.148 44.329 126.132 44.36 126.126 44.3936C126.121 44.4272 126.125 44.4618 126.14 44.4926L127.193 46.6532C127.208 46.6843 127.233 46.7098 127.263 46.7264C127.293 46.7429 127.328 46.7496 127.362 46.7455L129.351 46.5037C129.951 47.2395 130.667 47.8726 131.47 48.378V50.3827C131.471 50.4171 131.481 50.4505 131.501 50.4785C131.521 50.5064 131.549 50.5274 131.582 50.5387L133.854 51.3215C133.887 51.3328 133.922 51.3337 133.955 51.324C133.988 51.3143 134.017 51.2945 134.039 51.2674L135.273 49.6763C136.217 49.7728 137.171 49.7147 138.096 49.5045L139.512 50.9205C139.536 50.9445 139.567 50.9605 139.601 50.9662C139.635 50.9718 139.669 50.967 139.7 50.9523L141.861 49.899C141.892 49.8841 141.917 49.8597 141.934 49.8295C141.95 49.7993 141.957 49.7646 141.953 49.7304L141.711 47.7415C142.447 47.1417 143.08 46.4259 143.585 45.6222H145.59C145.625 45.6221 145.658 45.6114 145.686 45.5914C145.714 45.5714 145.735 45.5433 145.746 45.5108L146.529 43.2388C146.54 43.2062 146.541 43.1709 146.532 43.1378C146.522 43.1047 146.502 43.0755 146.475 43.0542L144.884 41.8195C144.981 40.8758 144.924 39.9224 144.715 38.997L146.131 37.5809C146.155 37.5567 146.171 37.5257 146.177 37.492C146.183 37.4584 146.178 37.4239 146.163 37.3931L145.113 35.2484C145.098 35.2173 145.074 35.1918 145.043 35.1752C145.013 35.1587 144.979 35.152 144.944 35.1561L142.955 35.3979C142.356 34.6621 141.64 34.029 140.836 33.5236V31.5189C140.836 31.4845 140.825 31.4511 140.805 31.4231C140.785 31.3952 140.757 31.3742 140.725 31.3629L138.452 30.5801C138.42 30.5688 138.385 30.5679 138.351 30.5776C138.318 30.5873 138.289 30.6071 138.268 30.6342L137.033 32.2253C136.089 32.1288 135.136 32.1869 134.21 32.3971L132.794 30.9811C132.77 30.9571 132.739 30.9411 132.705 30.9355C132.672 30.9298 132.637 30.9346 132.607 30.9493L130.446 32.0026C130.415 32.0176 130.389 32.0419 130.373 32.0721C130.356 32.1023 130.349 32.137 130.353 32.1712L130.595 34.1601C129.859 34.7599 129.226 35.4758 128.721 36.2794H126.716C126.682 36.2795 126.648 36.2902 126.62 36.3102C126.592 36.3302 126.571 36.3583 126.56 36.3908L125.771 38.6469Z" fill="#91B3FA"/>
<path d="M136.403 43.2966C136.018 43.3389 135.629 43.2858 135.269 43.1421C134.909 42.9983 134.591 42.7684 134.341 42.4724C134.001 42.07 133.806 41.5655 133.786 41.0392C133.766 40.5129 133.922 39.9951 134.231 39.568C134.539 39.1409 134.981 38.8291 135.487 38.6821C135.992 38.5352 136.533 38.5616 137.022 38.757C137.511 38.9525 137.921 39.3058 138.186 39.7609C138.451 40.2159 138.556 40.7466 138.485 41.2684C138.414 41.7902 138.17 42.2733 137.793 42.6408C137.416 43.0083 136.927 43.2392 136.403 43.2966ZM135.938 39.0548C135.595 39.0927 135.267 39.2234 134.992 39.4328C134.717 39.6423 134.503 39.9226 134.375 40.2438C134.247 40.565 134.208 40.9151 134.263 41.2566C134.318 41.5982 134.465 41.9183 134.688 42.1829C134.9 42.435 135.175 42.6279 135.484 42.7426C135.793 42.8573 136.126 42.89 136.452 42.8375C136.778 42.785 137.084 42.649 137.341 42.4429C137.599 42.2368 137.798 41.9675 137.921 41.6613C138.043 41.3552 138.084 41.0225 138.04 40.6957C137.996 40.369 137.867 40.0593 137.668 39.7968C137.468 39.5343 137.204 39.328 136.901 39.198C136.598 39.0679 136.266 39.0186 135.938 39.0548Z" fill="#BDD0FB"/>
<path d="M136.839 46.9552C135.606 47.0842 134.363 46.831 133.279 46.2299C132.194 45.6288 131.321 44.7089 130.777 43.5949C130.728 43.4973 130.682 43.3976 130.64 43.2957C130.53 43.0362 130.439 42.7693 130.366 42.497V42.4588L130.347 42.3856L130.786 42.2774C130.881 42.663 131.017 43.0374 131.19 43.3944C131.25 43.5174 131.315 43.6384 131.385 43.7572C132.088 44.9685 133.222 45.8704 134.561 46.2832C135.9 46.696 137.345 46.5894 138.608 45.9847L138.647 45.9656C139.418 45.5887 140.091 45.039 140.615 44.3592C141.139 43.6793 141.498 42.8878 141.666 42.0462C141.834 41.2047 141.805 40.3357 141.582 39.5071C141.359 38.6785 140.947 37.9126 140.379 37.269C139.812 36.6254 139.103 36.1216 138.309 35.7967C137.515 35.4718 136.656 35.3346 135.8 35.3959C134.944 35.4572 134.114 35.7152 133.374 36.1498C132.634 36.5845 132.004 37.1841 131.534 37.902L131.155 37.6569C131.713 36.8073 132.476 36.1124 133.374 35.6368C134.272 35.1611 135.275 34.9202 136.291 34.9364C137.307 34.9527 138.303 35.2255 139.185 35.7295C140.067 36.2336 140.808 36.9525 141.338 37.8195C141.868 38.6864 142.17 39.6733 142.216 40.6884C142.263 41.7034 142.051 42.7137 141.602 43.6252C141.154 44.5368 140.482 45.3201 139.649 45.9023C138.816 46.4845 137.849 46.8467 136.839 46.9552Z" fill="#BDD0FB"/>
<path d="M148.471 49.4381C148.426 49.443 148.381 49.4342 148.341 49.413C148.301 49.3917 148.269 49.359 148.249 49.319C148.228 49.2791 148.22 49.2338 148.225 49.1892C148.231 49.1446 148.25 49.1027 148.28 49.069C148.48 48.8431 148.697 48.6267 148.916 48.4326C148.96 48.4054 149.012 48.3943 149.063 48.4009C149.114 48.4076 149.161 48.4318 149.196 48.4692C149.231 48.5067 149.252 48.5552 149.256 48.6066C149.259 48.6579 149.245 48.7088 149.215 48.7508C149.002 48.9449 148.798 49.1517 148.604 49.3649C148.57 49.4045 148.522 49.4305 148.471 49.4381Z" fill="#91B3FA"/>
<path d="M163.539 52.3363C163.49 52.3416 163.44 52.3304 163.398 52.3045C163.356 52.2786 163.324 52.2394 163.306 52.1931C163.171 51.8266 163.012 51.4694 162.829 51.1239C162.757 50.9882 162.682 50.8545 162.603 50.723C162.585 50.6979 162.572 50.6693 162.566 50.639C162.559 50.6087 162.559 50.5775 162.566 50.5472C162.572 50.5169 162.585 50.4882 162.603 50.4631C162.621 50.4379 162.644 50.4168 162.67 50.401C162.697 50.3853 162.727 50.3752 162.757 50.3716C162.788 50.3679 162.819 50.3707 162.849 50.3797C162.878 50.3887 162.906 50.4038 162.929 50.424C162.953 50.4442 162.972 50.4691 162.985 50.497C163.068 50.6349 163.146 50.775 163.22 50.9171C163.412 51.2801 163.579 51.6553 163.72 52.0404C163.741 52.0957 163.739 52.1569 163.714 52.2106C163.69 52.2643 163.645 52.3061 163.59 52.3268L163.539 52.3363ZM161.101 48.7405C161.07 48.7439 161.039 48.7409 161.009 48.7316C160.98 48.7223 160.953 48.7069 160.929 48.6864C160.524 48.3283 160.086 48.0087 159.621 47.7317C159.572 47.7005 159.538 47.6515 159.524 47.595C159.511 47.5386 159.52 47.4792 159.55 47.4295C159.58 47.3798 159.628 47.3436 159.684 47.3288C159.74 47.3139 159.8 47.3215 159.85 47.3499C160.339 47.6446 160.8 47.9845 161.225 48.365C161.256 48.3938 161.279 48.431 161.29 48.4722C161.301 48.5133 161.299 48.5567 161.286 48.5972C161.273 48.6377 161.249 48.6737 161.216 48.7007C161.183 48.7278 161.143 48.7449 161.101 48.75V48.7405ZM157.257 46.7198C157.232 46.7241 157.206 46.7241 157.18 46.7198C156.652 46.5904 156.113 46.5105 155.57 46.4811C155.516 46.4722 155.467 46.4435 155.432 46.4006C155.398 46.3576 155.381 46.3035 155.384 46.2485C155.387 46.1936 155.41 46.1417 155.449 46.103C155.489 46.0643 155.541 46.0414 155.596 46.0388C156.165 46.0702 156.731 46.1543 157.285 46.2902C157.335 46.3036 157.379 46.3338 157.409 46.3757C157.439 46.4175 157.453 46.4685 157.45 46.5199C157.447 46.5713 157.425 46.62 157.39 46.6576C157.355 46.6952 157.308 46.7194 157.257 46.7262V46.7198ZM151.344 47.3053C151.292 47.3108 151.239 47.2976 151.196 47.2679C151.152 47.2383 151.12 47.1942 151.106 47.1435C151.092 47.0928 151.096 47.0387 151.118 46.9908C151.14 46.943 151.179 46.9044 151.226 46.8821C151.744 46.6396 152.283 46.4457 152.837 46.3029C152.866 46.2926 152.897 46.2884 152.927 46.2907C152.958 46.293 152.988 46.3016 153.016 46.3161C153.043 46.3306 153.067 46.3506 153.086 46.3748C153.105 46.3991 153.119 46.427 153.127 46.4569C153.135 46.4869 153.136 46.518 153.131 46.5485C153.126 46.579 153.115 46.6082 153.098 46.6341C153.081 46.66 153.059 46.6821 153.033 46.6991C153.008 46.716 152.978 46.7274 152.948 46.7325C152.422 46.8683 151.909 47.0526 151.417 47.283C151.395 47.2942 151.372 47.3018 151.347 47.3053H151.344Z" fill="#91B3FA"/>
<path d="M164.073 55.8852H164.038C163.98 55.8819 163.925 55.8557 163.886 55.8122C163.846 55.7687 163.826 55.7115 163.828 55.6529C163.828 55.3633 163.844 55.0738 163.828 54.7874C163.832 54.7327 163.856 54.6813 163.895 54.6431C163.934 54.6049 163.986 54.5824 164.041 54.58C164.096 54.5777 164.149 54.5956 164.192 54.6303C164.234 54.665 164.262 54.7141 164.271 54.7683C164.271 55.0706 164.271 55.3761 164.271 55.6784C164.267 55.7305 164.246 55.7798 164.21 55.8176C164.174 55.8554 164.125 55.8793 164.073 55.8852Z" fill="#91B3FA"/>
<path d="M160.592 62.5111C160.544 62.516 160.495 62.5051 160.454 62.4801C160.412 62.455 160.38 62.4172 160.362 62.3722C160.344 62.3272 160.341 62.2776 160.354 62.2309C160.367 62.1842 160.394 62.1429 160.433 62.1133C160.661 61.9377 160.881 61.7508 161.091 61.5532C161.134 61.511 161.191 61.4873 161.251 61.4873C161.31 61.4873 161.367 61.511 161.41 61.5532C161.452 61.5954 161.476 61.6526 161.476 61.7123C161.476 61.772 161.452 61.8292 161.41 61.8714C161.19 62.0783 160.958 62.2756 160.716 62.4601C160.681 62.4895 160.637 62.5072 160.592 62.5111Z" fill="#91B3FA"/>
<path d="M156.681 64.2321C156.625 64.2351 156.571 64.2172 156.528 64.182C156.485 64.1467 156.456 64.0966 156.448 64.0416C156.44 63.9865 156.453 63.9305 156.485 63.8844C156.516 63.8384 156.563 63.8058 156.617 63.7929C157.144 63.7007 157.66 63.5601 158.161 63.3729C158.215 63.3552 158.275 63.3592 158.326 63.3841C158.378 63.409 158.418 63.453 158.438 63.5067C158.458 63.5604 158.457 63.6199 158.434 63.6726C158.412 63.7253 158.37 63.7673 158.317 63.7897C157.79 63.9868 157.247 64.1348 156.694 64.2321H156.681ZM154.024 64.2957H153.973C153.416 64.226 152.866 64.1057 152.331 63.9361C152.301 63.9294 152.272 63.9165 152.247 63.8982C152.222 63.8799 152.202 63.8567 152.186 63.8299C152.171 63.8032 152.161 63.7735 152.158 63.7428C152.154 63.7121 152.158 63.6811 152.167 63.6516C152.176 63.6222 152.191 63.595 152.212 63.5718C152.232 63.5486 152.257 63.5298 152.285 63.5168C152.313 63.5037 152.344 63.4967 152.374 63.496C152.405 63.4953 152.436 63.5011 152.464 63.5129C152.974 63.6746 153.497 63.7896 154.027 63.8566C154.081 63.8631 154.131 63.8892 154.167 63.9299C154.203 63.9707 154.223 64.0232 154.223 64.0777C154.223 64.1322 154.203 64.1848 154.167 64.2255C154.131 64.2663 154.081 64.2924 154.027 64.2989L154.024 64.2957ZM150.033 62.7714C149.98 62.7772 149.927 62.7637 149.884 62.7333C149.427 62.4133 149.001 62.0522 148.611 61.6545C148.568 61.6123 148.545 61.5551 148.545 61.4954C148.545 61.4357 148.568 61.3785 148.611 61.3363C148.653 61.2941 148.71 61.2704 148.77 61.2704C148.829 61.2704 148.887 61.2941 148.929 61.3363C149.305 61.7158 149.715 62.0599 150.154 62.3641C150.191 62.39 150.22 62.4265 150.236 62.4689C150.251 62.5113 150.254 62.5575 150.243 62.6014C150.232 62.6453 150.208 62.6847 150.174 62.7146C150.14 62.7444 150.097 62.7631 150.052 62.7683L150.033 62.7714ZM147.207 59.5702C147.163 59.5747 147.119 59.5659 147.08 59.5449C147.04 59.5239 147.008 59.4917 146.988 59.4524C146.729 58.9552 146.516 58.4354 146.351 57.8995C146.339 57.8708 146.333 57.8398 146.333 57.8085C146.333 57.7772 146.34 57.7464 146.353 57.718C146.367 57.6896 146.386 57.6642 146.409 57.6436C146.433 57.623 146.46 57.6076 146.49 57.5984C146.52 57.5892 146.552 57.5864 146.583 57.5901C146.614 57.5939 146.644 57.6042 146.67 57.6203C146.697 57.6364 146.72 57.658 146.738 57.6836C146.756 57.7092 146.769 57.7384 146.775 57.7691C146.933 58.2798 147.137 58.7751 147.386 59.2488C147.401 59.2806 147.409 59.3156 147.408 59.3509C147.407 59.3862 147.398 59.4208 147.381 59.4519C147.364 59.483 147.34 59.5097 147.311 59.5297C147.282 59.5497 147.249 59.5625 147.214 59.567L147.207 59.5702Z" fill="#91B3FA"/>
<path d="M146.182 55.4174H146.157C146.098 55.4174 146.041 55.394 145.999 55.3522C145.958 55.3104 145.934 55.2538 145.934 55.1947C145.934 54.8924 145.934 54.5869 145.979 54.2846C145.98 54.2541 145.987 54.2242 146 54.1967C146.013 54.1692 146.032 54.1447 146.055 54.1246C146.078 54.1046 146.105 54.0895 146.134 54.0802C146.163 54.071 146.193 54.0678 146.224 54.0708C146.254 54.0739 146.283 54.0831 146.31 54.098C146.336 54.1128 146.36 54.133 146.378 54.1572C146.397 54.1814 146.41 54.2092 146.417 54.2388C146.425 54.2683 146.426 54.2991 146.421 54.3292C146.392 54.6155 146.376 54.9083 146.376 55.1947C146.377 55.2491 146.357 55.3019 146.322 55.3429C146.286 55.3839 146.236 55.4105 146.182 55.4174Z" fill="#91B3FA"/>
<path d="M148.41 53.6577C148.402 53.6789 148.402 53.702 148.408 53.7237C148.414 53.7454 148.427 53.7646 148.445 53.7786L149.476 54.5837C149.413 55.1998 149.45 55.8221 149.587 56.4261L148.665 57.349C148.649 57.3651 148.639 57.3857 148.635 57.408C148.632 57.4302 148.635 57.453 148.645 57.4731L149.333 58.8828C149.343 58.9027 149.358 58.9192 149.377 58.93C149.397 58.9408 149.419 58.9454 149.441 58.9432L150.739 58.7841C151.13 59.2637 151.597 59.6765 152.121 60.0061V61.3139C152.121 61.3364 152.128 61.3583 152.141 61.3765C152.154 61.3948 152.172 61.4085 152.194 61.4158L153.677 61.9281C153.698 61.9356 153.721 61.9363 153.743 61.93C153.764 61.9237 153.784 61.9108 153.798 61.8931L154.603 60.8653C155.219 60.9286 155.841 60.8909 156.445 60.7539L157.368 61.6767C157.384 61.6924 157.405 61.7027 157.427 61.7061C157.449 61.7095 157.472 61.7059 157.492 61.6958L158.902 61.0085C158.922 60.9988 158.939 60.9832 158.949 60.9639C158.96 60.9445 158.965 60.9223 158.963 60.9003L158.803 59.6019C159.283 59.2111 159.696 58.7446 160.025 58.2209H161.333C161.356 58.2208 161.378 58.2137 161.396 58.2005C161.414 58.1874 161.428 58.169 161.435 58.1477L161.948 56.6648C161.955 56.6435 161.956 56.6204 161.949 56.5987C161.943 56.577 161.93 56.5579 161.913 56.5439L160.881 55.7388C160.945 55.1227 160.907 54.5003 160.77 53.8963L161.693 52.9735C161.709 52.9574 161.719 52.9367 161.722 52.9145C161.726 52.8922 161.722 52.8695 161.712 52.8494L161.025 51.4429C161.015 51.4229 160.999 51.4064 160.98 51.3956C160.961 51.3848 160.939 51.3802 160.916 51.3824L159.618 51.5415C159.227 51.0619 158.761 50.6491 158.237 50.3196V49.0053C158.237 48.9829 158.23 48.961 158.217 48.9427C158.203 48.9245 158.185 48.9108 158.164 48.9035L156.681 48.3912C156.66 48.3837 156.636 48.383 156.615 48.3893C156.593 48.3956 156.574 48.4085 156.56 48.4262L155.755 49.454C155.139 49.3907 154.516 49.4283 153.912 49.5654L152.989 48.6426C152.973 48.6269 152.953 48.6166 152.93 48.6132C152.908 48.6097 152.885 48.6133 152.865 48.6235L151.452 49.3235C151.432 49.3332 151.416 49.3488 151.405 49.3681C151.394 49.3875 151.39 49.4097 151.392 49.4317L151.551 50.7301C151.071 51.121 150.659 51.5875 150.329 52.1111H149.021C148.999 52.1112 148.977 52.1183 148.958 52.1315C148.94 52.1446 148.926 52.163 148.919 52.1843L148.41 53.6577Z" fill="#91B3FA"/>
<path d="M155.363 56.8774C155.252 56.8881 155.14 56.8881 155.029 56.8774C154.803 56.8588 154.583 56.7955 154.381 56.6912C154.179 56.5869 154.001 56.4436 153.855 56.2696C153.607 55.9753 153.465 55.6066 153.451 55.2223C153.437 54.838 153.552 54.4601 153.778 54.1486C154.003 53.837 154.326 53.6098 154.696 53.503C155.065 53.3961 155.46 53.4158 155.817 53.5589C156.174 53.702 156.473 53.9602 156.666 54.2927C156.859 54.6251 156.936 55.0126 156.884 55.3936C156.832 55.7746 156.654 56.1272 156.378 56.3955C156.103 56.6638 155.745 56.8323 155.363 56.8742V56.8774ZM155.045 54.1089C154.854 54.1303 154.673 54.2029 154.521 54.319C154.368 54.4352 154.25 54.5905 154.179 54.7685C154.108 54.9464 154.086 55.1404 154.117 55.3296C154.147 55.5189 154.228 55.6964 154.351 55.8432C154.469 55.9835 154.621 56.0909 154.793 56.1549C154.964 56.2189 155.15 56.2373 155.331 56.2083C155.511 56.1794 155.682 56.104 155.825 55.9896C155.968 55.8752 156.079 55.7256 156.147 55.5556C156.215 55.3855 156.238 55.2007 156.213 55.0192C156.188 54.8377 156.117 54.6657 156.006 54.5199C155.895 54.3742 155.748 54.2597 155.58 54.1877C155.411 54.1157 155.227 54.0885 155.045 54.1089Z" fill="#BDD0FB"/>
<path d="M155.647 59.2679C154.805 59.3543 153.957 59.1806 153.218 58.7704C152.478 58.3602 151.882 57.7331 151.51 56.9736C151.392 56.7339 151.299 56.4835 151.23 56.2258L151.21 56.1494L151.847 55.9903C151.906 56.2287 151.99 56.4602 152.098 56.6808L152.156 56.7922C152.511 57.4605 153.075 57.9935 153.763 58.3092C154.451 58.6248 155.223 58.7057 155.961 58.5392C156.699 58.3727 157.362 57.9681 157.848 57.3878C158.333 56.8075 158.615 56.0837 158.648 55.3278C158.682 54.5719 158.466 53.8259 158.034 53.2047C157.602 52.5835 156.978 52.1216 156.257 51.8901C155.537 51.6587 154.76 51.6705 154.047 51.9238C153.334 52.1771 152.724 52.6578 152.312 53.2918L151.751 52.9291C152.132 52.349 152.652 51.8745 153.265 51.5495C153.877 51.2245 154.562 51.0596 155.255 51.0701C155.949 51.0805 156.628 51.2661 157.231 51.6095C157.833 51.9529 158.339 52.4429 158.701 53.0342C159.064 53.6254 159.271 54.2987 159.303 54.9913C159.336 55.684 159.193 56.3737 158.887 56.9962C158.582 57.6188 158.124 58.1541 157.556 58.5523C156.989 58.9506 156.33 59.199 155.64 59.2743L155.647 59.2679Z" fill="#BDD0FB"/>
<path d="M58.1598 17.782C56.6785 16.6106 54.883 15.905 53.0004 15.7542C51.1179 15.6035 49.233 16.0144 47.5841 16.9351C45.9352 17.8557 44.5964 19.2447 43.737 20.9263C42.8777 22.608 42.5364 24.5067 42.7564 26.3823C42.9764 28.2579 43.7477 30.0261 44.9729 31.4633C46.198 32.9004 47.8219 33.942 49.6391 34.4561C51.4563 34.9703 53.3852 34.9339 55.1817 34.3517C56.9783 33.7695 58.5618 32.6675 59.7319 31.1852C61.2999 29.199 62.0151 26.6715 61.7203 24.1582C61.4255 21.6449 60.1449 19.3515 58.1598 17.782Z" fill="#FAB258"/>
<path d="M59.5091 24.5027C59.6913 26.1735 59.2929 27.8561 58.3808 29.2678C57.4687 30.6795 56.0986 31.7343 54.5005 32.255C52.9024 32.7757 51.1738 32.7306 49.6051 32.1272C48.0364 31.5238 46.7232 30.3989 45.886 28.9415C45.0489 27.4841 44.7389 25.783 45.0081 24.124C45.2773 22.465 46.1092 20.9492 47.3642 19.8312C48.6193 18.7132 50.2208 18.0612 51.8998 17.9848C53.5789 17.9083 55.2331 18.412 56.5845 19.4112C57.3985 20.0106 58.0788 20.7728 58.5823 21.6494C59.0858 22.5259 59.4014 23.4976 59.5091 24.5027Z" fill="#FECA62"/>
<path d="M55.3913 26.9873C55.3913 26.2172 55.3181 25.4375 54.5671 24.9189C54.7862 24.6861 54.9556 24.4112 55.065 24.1108C55.1745 23.8105 55.2216 23.491 55.2035 23.1718C55.2035 22.3668 54.9394 21.7749 54.4143 21.4185C54.335 21.364 54.2521 21.3151 54.1661 21.2721C54.1674 21.2488 54.1674 21.2254 54.1661 21.2021V20.292C54.1724 20.2014 54.16 20.1105 54.1297 20.025C54.0993 19.9394 54.0517 19.861 53.9898 19.7946C53.9278 19.7282 53.8529 19.6753 53.7696 19.6391C53.6864 19.6029 53.5966 19.5842 53.5058 19.5842C53.415 19.5842 53.3252 19.6029 53.2419 19.6391C53.1586 19.6753 53.0837 19.7282 53.0218 19.7946C52.9599 19.861 52.9122 19.9394 52.8819 20.025C52.8516 20.1105 52.8392 20.2014 52.8455 20.292V21.0016C52.4922 21.0016 52.0626 21.0016 51.5248 21.0016V20.292C51.5311 20.2014 51.5187 20.1105 51.4883 20.025C51.458 19.9394 51.4104 19.861 51.3485 19.7946C51.2865 19.7282 51.2116 19.6753 51.1283 19.6391C51.0451 19.6029 50.9553 19.5842 50.8645 19.5842C50.7737 19.5842 50.6839 19.6029 50.6006 19.6391C50.5173 19.6753 50.4424 19.7282 50.3805 19.7946C50.3185 19.861 50.2709 19.9394 50.2406 20.025C50.2103 20.1105 50.1978 20.2014 50.2041 20.292V21.0016H49.9082C49.6913 21.0016 49.4833 21.0878 49.3299 21.2411C49.1765 21.3945 49.0903 21.6025 49.0903 21.8194C49.0903 22.0363 49.1765 22.2443 49.3299 22.3977C49.4833 22.5511 49.6913 22.6372 49.9082 22.6372H50.1023V27.9165H49.9082C49.6913 27.9165 49.4833 28.0026 49.3299 28.156C49.1765 28.3094 49.0903 28.5174 49.0903 28.7343C49.0903 28.9512 49.1765 29.1592 49.3299 29.3126C49.4833 29.4659 49.6913 29.5521 49.9082 29.5521H50.2041V30.2585C50.2158 30.4257 50.2904 30.5823 50.4129 30.6966C50.5355 30.811 50.6969 30.8746 50.8645 30.8746C51.0321 30.8746 51.1935 30.811 51.316 30.6966C51.4386 30.5823 51.5132 30.4257 51.5248 30.2585V29.5521H52.8264V30.2585C52.838 30.4257 52.9126 30.5823 53.0351 30.6966C53.1577 30.811 53.3191 30.8746 53.4867 30.8746C53.6543 30.8746 53.8157 30.811 53.9382 30.6966C54.0608 30.5823 54.1354 30.4257 54.147 30.2585V29.3484C54.147 29.3484 54.147 29.3198 54.147 29.3039C54.9394 28.9379 55.3913 28.1615 55.3913 26.9873ZM51.6266 22.4463C52.9218 22.4463 53.6665 22.3095 53.6665 23.296C53.6665 24.4288 52.9759 24.2506 51.6266 24.2506V22.4463ZM51.6266 28.1074V25.638C53.256 25.638 53.8542 25.428 53.8542 26.9332C53.8542 27.7478 53.536 28.1106 52.7754 28.1106H51.6203L51.6266 28.1074Z" fill="#FFE0A5"/>
<path d="M40.6538 46.0205C39.6894 45.2597 38.5211 44.8021 37.2965 44.7055C36.072 44.6089 34.8464 44.8777 33.7747 45.4779C32.7029 46.078 31.8333 46.9825 31.2759 48.077C30.7184 49.1715 30.4981 50.4068 30.6429 51.6265C30.7877 52.8462 31.291 53.9956 32.0892 54.9291C32.8874 55.8627 33.9447 56.5386 35.1271 56.8712C36.3095 57.2037 37.5641 57.1781 38.7319 56.7976C39.8998 56.417 40.9286 55.6986 41.688 54.7333C42.7052 53.4403 43.1676 51.7965 42.9737 50.1629C42.7798 48.5293 41.9454 47.0394 40.6538 46.0205Z" fill="#FAB258"/>
<path d="M41.5288 50.3896C41.6455 51.4735 41.3859 52.5646 40.7935 53.4798C40.2011 54.395 39.312 55.0786 38.2753 55.416C37.2386 55.7534 36.1174 55.724 35.0999 55.3328C34.0823 54.9416 33.2302 54.2123 32.6865 53.2674C32.1429 52.3224 31.9408 51.2192 32.1142 50.1429C32.2875 49.0666 32.8257 48.0827 33.6386 47.3561C34.4514 46.6296 35.4894 46.2047 36.5783 46.1527C37.6673 46.1008 38.741 46.4248 39.6194 47.0706C40.1511 47.4606 40.5955 47.9572 40.9243 48.5287C41.2531 49.1002 41.459 49.734 41.5288 50.3896Z" fill="#FECA62"/>
<path d="M38.853 52.0054C38.853 51.5058 38.8052 50.9967 38.3152 50.6594C38.4571 50.5078 38.5667 50.3289 38.6372 50.1336C38.7078 49.9383 38.7379 49.7307 38.7257 49.5234C38.7454 49.3055 38.7086 49.0861 38.6189 48.8866C38.5291 48.687 38.3894 48.514 38.2133 48.3841C38.1615 48.3486 38.1073 48.3167 38.051 48.2887C38.0518 48.2738 38.0518 48.259 38.051 48.2441V47.6523C38.051 47.5383 38.0058 47.429 37.9252 47.3485C37.8446 47.2679 37.7354 47.2227 37.6214 47.2227C37.5075 47.2227 37.3982 47.2679 37.3176 47.3485C37.2371 47.429 37.1918 47.5383 37.1918 47.6523V48.12C36.9627 48.12 36.6826 48.12 36.3326 48.12V47.6618C36.3326 47.5479 36.2873 47.4386 36.2068 47.358C36.1262 47.2775 36.0169 47.2322 35.903 47.2322C35.789 47.2322 35.6798 47.2775 35.5992 47.358C35.5186 47.4386 35.4734 47.5479 35.4734 47.6618V48.1264H35.2824C35.1415 48.1264 35.0063 48.1824 34.9066 48.282C34.807 48.3817 34.751 48.5169 34.751 48.6578C34.751 48.7988 34.807 48.9339 34.9066 49.0336C35.0063 49.1332 35.1415 49.1892 35.2824 49.1892H35.4097V52.6196H35.2824C35.1415 52.6196 35.0063 52.6756 34.9066 52.7753C34.807 52.8749 34.751 53.0101 34.751 53.151C34.751 53.292 34.807 53.4271 34.9066 53.5268C35.0063 53.6265 35.1415 53.6825 35.2824 53.6825H35.4734V54.1407C35.4734 54.2546 35.5186 54.3639 35.5992 54.4445C35.6798 54.525 35.789 54.5703 35.903 54.5703C36.0169 54.5703 36.1262 54.525 36.2068 54.4445C36.2873 54.3639 36.3326 54.2546 36.3326 54.1407V53.6825H37.1918V54.1407C37.1918 54.2546 37.2371 54.3639 37.3176 54.4445C37.3982 54.525 37.5075 54.5703 37.6214 54.5703C37.7354 54.5703 37.8446 54.525 37.9252 54.4445C38.0058 54.3639 38.051 54.2546 38.051 54.1407V53.5488C38.051 53.5488 38.051 53.5297 38.051 53.5202C38.5602 53.2751 38.853 52.7692 38.853 52.0054ZM36.4058 49.0556C37.2491 49.0556 37.7296 48.9665 37.7296 49.6093C37.7296 50.3475 37.2809 50.2457 36.4058 50.2457V49.0556ZM36.4058 52.7373V51.1304C37.4655 51.1304 37.8569 50.9935 37.8569 51.9736C37.8569 52.5019 37.6405 52.7373 37.1568 52.7373H36.4058Z" fill="#FFE0A5"/>
<path d="M65.7529 40.5823C64.1231 39.2953 62.1483 38.5203 60.0782 38.3554C58.0081 38.1905 55.9356 38.6431 54.1226 39.6558C52.3096 40.6686 50.8377 42.1961 49.8927 44.0453C48.9478 45.8945 48.5724 47.9823 48.814 50.0448C49.0555 52.1073 49.9031 54.0519 51.2497 55.6327C52.5963 57.2136 54.3814 58.3597 56.3793 58.9262C58.3772 59.4927 60.4982 59.4542 62.4742 58.8155C64.4503 58.1769 66.1925 56.9667 67.4809 55.338C68.3368 54.2558 68.9711 53.0157 69.3475 51.6883C69.724 50.3609 69.8351 48.9724 69.6746 47.6021C69.5142 46.2317 69.0852 44.9064 68.4123 43.7019C67.7394 42.4974 66.8357 41.4374 65.7529 40.5823Z" fill="#FAB258"/>
<path d="M67.2324 47.9744C67.428 49.8088 66.9866 51.6547 65.9824 53.2023C64.9781 54.7499 63.472 55.9049 61.7169 56.4735C59.9618 57.0421 58.0645 56.9898 56.3435 56.3252C54.6224 55.6606 53.1823 54.4243 52.2649 52.8237C51.3476 51.2231 51.0087 49.3557 51.3052 47.5348C51.6017 45.714 52.5156 44.0505 53.8934 42.8236C55.2713 41.5968 57.0292 40.8812 58.8722 40.797C60.7152 40.7127 62.5311 41.265 64.0151 42.3611C64.912 43.0218 65.6613 43.8622 66.2152 44.8287C66.7692 45.7952 67.1156 46.8666 67.2324 47.9744Z" fill="#FECA62"/>
<path d="M62.7074 50.7072C62.7074 49.8608 62.6279 49.0016 61.8005 48.432C62.0388 48.1769 62.2231 47.8763 62.3423 47.5482C62.4616 47.2201 62.5132 46.8713 62.4942 46.5227C62.4942 45.6349 62.2015 44.9889 61.6255 44.5943C61.5381 44.534 61.4466 44.4797 61.3518 44.432C61.3531 44.4066 61.3531 44.3811 61.3518 44.3556V43.3405C61.3518 43.1477 61.2752 42.9627 61.1388 42.8264C61.0024 42.69 60.8175 42.6134 60.6246 42.6134C60.4318 42.6134 60.2468 42.69 60.1104 42.8264C59.9741 42.9627 59.8975 43.1477 59.8975 43.3405V44.1297C59.5092 44.1138 59.0382 44.1138 58.4432 44.1297V43.3405C58.4432 43.1477 58.3665 42.9627 58.2302 42.8264C58.0938 42.69 57.9089 42.6134 57.716 42.6134C57.5231 42.6134 57.3382 42.69 57.2018 42.8264C57.0655 42.9627 56.9888 43.1477 56.9888 43.3405V44.1265H56.6706C56.4318 44.1265 56.2027 44.2214 56.0338 44.3903C55.8649 44.5592 55.77 44.7882 55.77 45.0271C55.77 45.2659 55.8649 45.495 56.0338 45.6639C56.2027 45.8328 56.4318 45.9276 56.6706 45.9276H56.8838V51.7319H56.6706C56.5523 51.7319 56.4352 51.7552 56.326 51.8004C56.2167 51.8457 56.1174 51.912 56.0338 51.9957C55.9502 52.0793 55.8838 52.1786 55.8386 52.2878C55.7933 52.3971 55.77 52.5142 55.77 52.6325C55.77 52.7507 55.7933 52.8678 55.8386 52.9771C55.8838 53.0863 55.9502 53.1856 56.0338 53.2692C56.1174 53.3529 56.2167 53.4192 56.326 53.4645C56.4352 53.5097 56.5523 53.533 56.6706 53.533H56.9888V54.3095C56.9888 54.5023 57.0655 54.6872 57.2018 54.8236C57.3382 54.96 57.5231 55.0366 57.716 55.0366C57.9089 55.0366 58.0938 54.96 58.2302 54.8236C58.3665 54.6872 58.4432 54.5023 58.4432 54.3095V53.533H59.8975V54.3095C59.8975 54.5023 59.9741 54.6872 60.1104 54.8236C60.2468 54.96 60.4318 55.0366 60.6246 55.0366C60.8175 55.0366 61.0024 54.96 61.1388 54.8236C61.2752 54.6872 61.3518 54.5023 61.3518 54.3095V53.3103C61.3518 53.2943 61.3518 53.2784 61.3518 53.2625C62.211 52.852 62.7074 51.9992 62.7074 50.7072ZM58.5704 45.7144C59.9961 45.7144 60.7981 45.5649 60.7981 46.65C60.7981 47.8974 60.0375 47.7065 58.5704 47.7065V45.7144ZM58.5704 51.9419V49.2244C60.3621 49.2244 61.0272 48.9921 61.0272 50.65C61.0272 51.5442 60.6612 51.9451 59.8402 51.9451H58.5673L58.5704 51.9419Z" fill="#FFE0A5"/>
<path d="M132.085 10.7016H135.98V12.7286H132.085V16.5122H129.45V7.08984H136.658V9.28872H132.085V10.7016ZM123.038 9.28872V10.7016H127.251V12.7286H123.034V14.3197H127.954V16.5186H120.399V7.08984H127.957V9.28872H123.038Z" fill="white"/>
</g>
<defs>
<linearGradient id="paint0_linear_2_1358" x1="48.6187" y1="49.0347" x2="59.8785" y2="51.3297" gradientUnits="userSpaceOnUse">
<stop stop-color="#DAE3FE"/>
<stop offset="1" stop-color="#E9EFFD"/>
</linearGradient>
<linearGradient id="paint1_linear_2_1358" x1="8556.74" y1="4342.07" x2="15912.8" y2="4342.07" gradientUnits="userSpaceOnUse">
<stop stop-color="#DAE3FE"/>
<stop offset="1" stop-color="#E9EFFD"/>
</linearGradient>
<linearGradient id="paint2_linear_2_1358" x1="5896.51" y1="3537" x2="9234.93" y2="3537" gradientUnits="userSpaceOnUse">
<stop stop-color="#DAE3FE"/>
<stop offset="1" stop-color="#E9EFFD"/>
</linearGradient>
<linearGradient id="paint3_linear_2_1358" x1="1635.96" y1="7274.54" x2="2078.4" y2="7274.54" gradientUnits="userSpaceOnUse">
<stop stop-color="#DAE3FE"/>
<stop offset="1" stop-color="#E9EFFD"/>
</linearGradient>
<linearGradient id="paint4_linear_2_1358" x1="8552.28" y1="5135.54" x2="15908.4" y2="5135.54" gradientUnits="userSpaceOnUse">
<stop stop-color="#DAE3FE"/>
<stop offset="1" stop-color="#E9EFFD"/>
</linearGradient>
<linearGradient id="paint5_linear_2_1358" x1="1633.16" y1="8359.89" x2="2076.07" y2="8359.89" gradientUnits="userSpaceOnUse">
<stop stop-color="#DAE3FE"/>
<stop offset="1" stop-color="#E9EFFD"/>
</linearGradient>
<linearGradient id="paint6_linear_2_1358" x1="8547.81" y1="5929.54" x2="15903.9" y2="5929.54" gradientUnits="userSpaceOnUse">
<stop stop-color="#DAE3FE"/>
<stop offset="1" stop-color="#E9EFFD"/>
</linearGradient>
<linearGradient id="paint7_linear_2_1358" x1="5884.56" y1="4757.27" x2="9221.25" y2="4757.27" gradientUnits="userSpaceOnUse">
<stop stop-color="#DAE3FE"/>
<stop offset="1" stop-color="#E9EFFD"/>
</linearGradient>
<linearGradient id="paint8_linear_2_1358" x1="93.7684" y1="98.9255" x2="70.959" y2="134.246" gradientUnits="userSpaceOnUse">
<stop stop-color="#09005D"/>
<stop offset="1" stop-color="#1A0F91"/>
</linearGradient>
<linearGradient id="paint9_linear_2_1358" x1="80.9103" y1="73.8575" x2="79.8125" y2="83.439" gradientUnits="userSpaceOnUse">
<stop stop-color="#FEBBBA"/>
<stop offset="1" stop-color="#FF928E"/>
</linearGradient>
<linearGradient id="paint10_linear_2_1358" x1="4306.93" y1="841.77" x2="4290.3" y2="931.332" gradientUnits="userSpaceOnUse">
<stop stop-color="#FEBBBA"/>
<stop offset="1" stop-color="#FF928E"/>
</linearGradient>
<clipPath id="clip0_2_1358">
<rect width="178" height="157" fill="white"/>
</clipPath>
</defs>
</svg>
