<svg width="174" height="152" viewBox="0 0 174 152" fill="none" xmlns="http://www.w3.org/2000/svg">
<g clip-path="url(#clip0_2_1653)">
<path d="M152.476 128.335C149.342 131.331 141.148 137.664 138.467 138.991C114.414 150.672 79.2212 146.956 71.4803 145.78C60.0389 144.035 33.6444 145.514 17.6717 131.407C-6.49495 110.093 -4.22932 74.255 14.4998 52.1073C17.936 48.0494 38.9308 23.8917 75.7095 20.2889C97.9881 18.0893 131.331 20.6681 150.135 32.5005C189.595 57.3408 172.716 108.88 152.476 128.335Z" fill="white"/>
<path d="M149.796 26.5846L155.46 26.4329C155.46 26.4329 159.123 26.85 158.972 30.1874C158.82 33.5247 154.78 52.6005 153.836 56.5067C153.534 57.7961 153.27 59.0097 153.194 60.0716C152.968 62.3091 150.891 63.864 148.701 63.4468L138.619 61.5506L149.796 26.5846Z" fill="#7A9AEB"/>
<path d="M138.732 24.5763C138.732 24.5763 148.474 27.1172 155.422 26.3967C155.422 26.3967 151.117 25.221 149.078 35.3088C147.492 43.0454 145.642 57.9875 144.094 60.6042C142.546 63.1831 138.052 66.1791 133.37 61.8557C128.725 57.5703 138.732 24.5763 138.732 24.5763Z" fill="#93ADEB"/>
<path d="M139.185 8.91222C139.185 8.91222 149.796 12.3254 151.57 10.7705C151.57 10.7705 151.117 7.20563 147.794 6.75054C144.472 6.29545 139.185 8.91222 139.185 8.91222Z" fill="#6688CC"/>
<path d="M103.124 5.423C101.916 16.3072 99.3102 39.3272 97.913 50.5148C97.6109 53.0178 99.1591 55.3691 101.576 56.0138C110.185 58.3651 129.594 63.4849 137.297 63.9779C135.749 62.7643 135.032 60.7923 135.409 58.8581L145.831 9.51881C146.209 7.7743 148.172 6.86412 149.683 7.81222C150.627 8.41901 151.231 9.40504 151.533 10.7324C151.231 8.49486 150.438 6.75035 147.757 6.71242C147.757 6.71242 122.382 1.78228 109.921 0.0377738C106.598 -0.417316 103.502 2.00983 103.124 5.423Z" fill="#A7D2F9"/>
<mask id="mask0_2_1653" style="mask-type:alpha" maskUnits="userSpaceOnUse" x="99" y="1" width="46" height="63">
<path d="M110.412 1.63042L144.698 7.28112C141.186 17.4448 137.448 38.7961 133.748 59.844C133.521 61.0955 134.012 62.347 135.031 63.1055C135.031 63.1055 112.3 58.7063 102.671 56.0136C100.405 55.3689 98.8946 53.2452 99.0079 50.8939C99.4988 41.6404 101.009 17.824 104.143 5.6883C104.899 2.91984 107.58 1.1374 110.412 1.63042Z" fill="url(#paint0_linear_2_1653)"/>
</mask>
<g mask="url(#mask0_2_1653)">
<path opacity="0.53" d="M110.412 1.63042L144.698 7.28112C141.186 17.4448 137.448 38.7961 133.748 59.844C133.521 61.0955 134.012 62.347 135.031 63.1055C135.031 63.1055 112.3 58.7063 102.671 56.0136C100.405 55.3689 98.8946 53.2452 99.0079 50.8939C99.4988 41.6404 101.009 17.824 104.143 5.6883C104.899 2.91984 107.58 1.1374 110.412 1.63042Z" fill="#DAEDFF"/>
<path d="M106.673 17.7103L106.296 21.6165C106.22 22.337 106.673 22.9817 107.391 23.1713L109.581 23.7023C110.374 23.8919 111.167 23.3989 111.318 22.6025L112.149 18.4688C112.3 17.6344 111.733 16.838 110.903 16.7242L108.259 16.4209C107.466 16.3071 106.749 16.9139 106.673 17.7103Z" fill="#F6F6F6"/>
<path d="M114.717 18.1285C118.417 18.7732 132.691 21.2004 136.316 21.8071C136.769 21.883 137.071 22.3381 136.995 22.7932C136.92 23.2103 136.504 23.5137 136.051 23.4379L114.452 19.8351C114.037 19.7592 113.735 19.38 113.773 18.9628V18.8491C113.81 18.394 114.264 18.0527 114.717 18.1285Z" fill="#F6F6F6"/>
<path d="M113.47 23.1324C113.508 23.2462 113.621 23.3221 113.735 23.36L128.537 26.0526C128.726 26.0905 128.914 25.9768 128.952 25.7871L129.141 24.8011C129.179 24.6115 129.065 24.4219 128.839 24.3839L114.414 21.9947C113.772 21.881 113.244 22.5257 113.47 23.1324Z" fill="#F6F6F6"/>
<path d="M104.521 28.3306L104.143 32.2368C104.068 32.9574 104.521 33.6021 105.239 33.7917L107.429 34.3226C108.222 34.5123 109.015 34.0192 109.166 33.2228L109.996 29.0891C110.147 28.2548 109.581 27.4584 108.75 27.3446L106.107 27.0412C105.314 26.9654 104.597 27.5342 104.521 28.3306Z" fill="#F6F6F6"/>
<path d="M112.564 28.7487C116.264 29.3935 130.538 31.8206 134.163 32.4274C134.616 32.5032 134.918 32.9583 134.843 33.4134C134.767 33.8306 134.352 34.134 133.899 34.0581L112.3 30.4553C111.884 30.3795 111.582 30.0002 111.62 29.5831V29.4693C111.658 29.0142 112.073 28.6729 112.564 28.7487Z" fill="#F6F6F6"/>
<path opacity="0.78" d="M111.318 33.7522C111.356 33.866 111.469 33.9418 111.582 33.9797L126.384 36.6724C126.573 36.7103 126.762 36.5965 126.8 36.4069L126.989 35.4209C127.026 35.2312 126.913 35.0416 126.687 35.0037L112.262 32.6145C111.62 32.5007 111.091 33.1454 111.318 33.7522Z" fill="#F6F6F6"/>
<path d="M102.369 38.9463L101.991 42.8525C101.916 43.5731 102.369 44.2178 103.086 44.4074L105.276 44.9384C106.069 45.128 106.862 44.635 107.013 43.8386L107.844 39.7048C107.995 38.8705 107.429 38.0741 106.598 37.9603L103.955 37.6569C103.162 37.5811 102.444 38.1499 102.369 38.9463Z" fill="#EFF8FE"/>
<path d="M110.412 39.3645C114.112 40.0092 128.386 42.4363 132.011 43.0431C132.464 43.1189 132.766 43.574 132.69 44.0291C132.615 44.4463 132.199 44.7497 131.746 44.6738L110.147 41.071C109.732 40.9952 109.43 40.616 109.468 40.1988V40.085C109.505 39.6299 109.921 39.2886 110.412 39.3645Z" fill="#EFF8FE"/>
<path d="M109.166 44.3679C109.203 44.4817 109.317 44.5575 109.43 44.5955L124.232 47.2881C124.421 47.326 124.61 47.2122 124.647 47.0226L124.836 46.0366C124.874 45.847 124.761 45.6573 124.534 45.6194L110.11 43.2302C109.468 43.1164 108.939 43.7611 109.166 44.3679Z" fill="#EFF8FE"/>
<path d="M109.921 7.31921L110.639 7.43299L108.864 11.946L111.62 12.439L111.356 13.0837L107.844 12.439L109.921 7.31921ZM113.961 8.03977L114.679 8.19147L112.678 13.3492L111.96 13.2354L113.961 8.03977ZM116.152 14.0318C115.623 13.9559 115.208 13.7284 114.905 13.425C114.566 13.1216 114.377 12.7424 114.301 12.3252C114.226 11.8701 114.264 11.415 114.49 10.922C114.679 10.429 114.981 10.0118 115.359 9.63259C115.736 9.29127 116.189 9.0258 116.68 8.8741C117.171 8.72241 117.7 8.68448 118.191 8.79826C118.606 8.8741 118.946 8.98788 119.21 9.21542C119.474 9.40504 119.701 9.67051 119.814 9.9739L119.172 10.3531C118.946 9.86013 118.53 9.59466 117.964 9.48089C117.586 9.40504 117.209 9.44297 116.831 9.55674C116.454 9.67051 116.114 9.86013 115.849 10.1256C115.547 10.3911 115.359 10.7324 115.208 11.0737C115.056 11.4529 115.019 11.7943 115.056 12.1356C115.094 12.4769 115.245 12.7424 115.51 12.9699C115.736 13.1975 116.076 13.3492 116.454 13.425C117.02 13.5388 117.586 13.425 118.153 13.0837L118.455 13.6525C118.115 13.8801 117.737 14.0318 117.36 14.1076C116.944 14.1076 116.529 14.1076 116.152 14.0318ZM122.797 14.4869L122.533 15.1316L118.833 14.449L120.834 9.29127L124.459 9.93598L124.194 10.5807L121.325 10.0498L120.721 11.6426L123.288 12.0977L123.062 12.7044L120.494 12.2494L119.852 13.918L122.797 14.4869ZM129.821 10.922L127.819 16.0797L127.215 15.9659L125.629 11.5667L124.119 15.3971L123.402 15.2454L125.403 10.0877L126.007 10.2014L127.593 14.6007L129.103 10.7703L129.821 10.922ZM131.256 16.8003C130.727 16.7244 130.312 16.4969 130.01 16.1935C129.67 15.8901 129.481 15.5108 129.405 15.0937C129.33 14.6386 129.405 14.1835 129.594 13.6905C129.783 13.1975 130.085 12.7803 130.463 12.4011C130.84 12.0597 131.293 11.7943 131.784 11.6426C132.275 11.4909 132.804 11.4529 133.295 11.5667C133.71 11.6426 134.05 11.7563 134.314 11.9839C134.579 12.1735 134.805 12.439 134.918 12.7424L134.277 13.1216C134.05 12.6286 133.635 12.3631 133.068 12.2494C132.691 12.1735 132.313 12.2114 131.935 12.3252C131.558 12.439 131.218 12.6286 130.954 12.8941C130.652 13.1595 130.463 13.5009 130.312 13.8422C130.161 14.2214 130.123 14.5627 130.161 14.904C130.198 15.2454 130.349 15.5108 130.614 15.7384C130.84 15.9659 131.18 16.1176 131.558 16.1935C132.124 16.3072 132.691 16.1935 133.257 15.8521L133.559 16.421C133.219 16.6486 132.842 16.8003 132.464 16.8761C132.049 16.8382 131.671 16.8382 131.256 16.8003ZM137.939 17.2553L137.675 17.9001L133.974 17.2174L135.976 12.0597L139.601 12.7044L139.336 13.3492L136.467 12.8182L135.862 14.411L138.43 14.8661L138.204 15.4729L135.636 15.0178L134.994 16.6865L137.939 17.2553Z" fill="#7B9BEC"/>
<path d="M143.641 11.1498C143.603 11.1498 143.603 11.1498 143.603 11.1498C143.565 11.1119 143.565 11.0739 143.603 11.036C143.679 10.9602 143.754 10.8843 143.792 10.8085C143.83 10.7705 143.867 10.7705 143.905 10.8085C143.943 10.8464 143.943 10.8843 143.905 10.9222C143.83 10.9981 143.754 11.0739 143.716 11.1498C143.679 11.1119 143.679 11.1498 143.641 11.1498Z" fill="#91B3FA"/>
<path d="M155.158 14.7146C155.12 14.7146 155.082 14.6767 155.082 14.6387C155.044 14.4491 155.044 14.2595 154.969 14.0699C154.969 14.032 154.969 13.994 155.007 13.994C155.044 13.994 155.082 13.994 155.082 14.032C155.12 14.2216 155.158 14.4112 155.196 14.6008C155.233 14.6767 155.196 14.7146 155.158 14.7146ZM154.818 13.2735C154.78 13.2735 154.742 13.2735 154.742 13.2355C154.667 13.0459 154.591 12.8942 154.516 12.7046C154.516 12.6667 154.516 12.6288 154.554 12.5908C154.591 12.5908 154.629 12.5908 154.667 12.6288C154.742 12.8184 154.818 12.9701 154.893 13.1597C154.893 13.2355 154.856 13.2735 154.818 13.2735ZM154.138 11.9461C154.1 11.9461 154.1 11.9461 154.063 11.9082C153.949 11.7565 153.836 11.6048 153.723 11.4531C153.685 11.4152 153.685 11.3773 153.723 11.3393C153.761 11.3014 153.798 11.3014 153.836 11.3393C153.949 11.491 154.063 11.6427 154.176 11.7944C154.214 11.8703 154.214 11.9082 154.138 11.9461C154.176 11.9461 154.138 11.9461 154.138 11.9461ZM153.194 10.8084C153.156 10.8084 153.156 10.8084 153.119 10.7705C152.968 10.6567 152.854 10.505 152.703 10.3912C152.666 10.3533 152.666 10.3154 152.703 10.2775C152.741 10.2395 152.779 10.2395 152.817 10.2775C152.968 10.3912 153.119 10.5429 153.232 10.6567C153.27 10.6946 153.27 10.7326 153.232 10.7705C153.232 10.8084 153.194 10.8084 153.194 10.8084ZM152.024 9.89822H151.986C151.835 9.78445 151.646 9.7086 151.495 9.63275C151.457 9.63275 151.457 9.55691 151.457 9.51898C151.457 9.48106 151.533 9.48106 151.571 9.48106C151.759 9.55691 151.91 9.67068 152.061 9.74653C152.099 9.78445 152.099 9.82237 152.099 9.8603C152.061 9.89822 152.061 9.89822 152.024 9.89822ZM144.509 10.3154C144.472 10.3154 144.472 10.3154 144.434 10.2775C144.396 10.2395 144.434 10.2016 144.434 10.1637C144.585 10.0499 144.736 9.93615 144.887 9.82237C144.925 9.78445 144.962 9.82237 145 9.8603C145.038 9.89822 145 9.93615 144.962 9.97407C144.849 10.0878 144.698 10.2016 144.509 10.3154C144.547 10.3154 144.547 10.3154 144.509 10.3154ZM150.664 9.25351C150.475 9.17766 150.287 9.13974 150.098 9.10182C150.06 9.10182 150.022 9.06389 150.06 9.02597C150.06 8.98804 150.098 8.95012 150.136 8.98804C150.324 9.02597 150.513 9.10182 150.702 9.13974C150.74 9.13974 150.778 9.17766 150.74 9.21559C150.74 9.25351 150.702 9.25351 150.664 9.25351ZM145.793 9.55691C145.755 9.55691 145.718 9.55691 145.718 9.51898C145.718 9.48106 145.718 9.44313 145.755 9.40521C145.944 9.32936 146.095 9.25351 146.284 9.17766C146.322 9.17766 146.36 9.17766 146.36 9.21559C146.36 9.25351 146.36 9.29144 146.322 9.29144C146.171 9.40521 145.982 9.44313 145.793 9.55691ZM149.229 8.95012C149.041 8.95012 148.852 8.91219 148.663 8.91219C148.625 8.91219 148.587 8.87427 148.587 8.83635C148.587 8.79842 148.625 8.7605 148.663 8.7605C148.852 8.7605 149.041 8.7605 149.229 8.79842C149.267 8.79842 149.305 8.83635 149.305 8.87427C149.305 8.91219 149.267 8.95012 149.229 8.95012ZM147.19 9.06389C147.153 9.06389 147.115 9.02597 147.115 8.98804C147.115 8.95012 147.115 8.91219 147.153 8.91219C147.341 8.87427 147.53 8.83635 147.719 8.79842C147.757 8.79842 147.794 8.83635 147.794 8.87427C147.794 8.91219 147.757 8.95012 147.719 8.95012C147.568 8.98804 147.379 9.02597 147.19 9.06389Z" fill="#91B3FA"/>
<path d="M149.305 22.2223C149.192 22.2223 149.041 22.2603 148.928 22.2603C148.89 22.2603 148.852 22.2223 148.852 22.1844C148.852 22.1465 148.89 22.1086 148.928 22.1086C149.116 22.1086 149.305 22.0706 149.456 22.0706C149.494 22.0706 149.532 22.1086 149.532 22.1465C149.532 22.1844 149.494 22.2223 149.456 22.2223C149.418 22.1844 149.343 22.1844 149.305 22.2223ZM150.362 21.9948C150.325 21.9948 150.287 21.9948 150.287 21.9569C150.287 21.9189 150.287 21.881 150.325 21.881C150.514 21.8431 150.665 21.7672 150.853 21.7293C150.891 21.7293 150.929 21.7293 150.929 21.7672C150.929 21.8052 150.929 21.8431 150.891 21.8431C150.74 21.881 150.551 21.9569 150.362 21.9948ZM148.021 22.2223C147.833 22.2223 147.644 22.1844 147.455 22.1465C147.417 22.1465 147.379 22.1086 147.379 22.0706C147.379 22.0327 147.417 21.9948 147.455 21.9948C147.644 22.0327 147.833 22.0327 147.984 22.0706C148.021 22.0706 148.059 22.1086 148.059 22.1465C148.059 22.1844 148.059 22.2223 148.021 22.2223ZM151.722 21.4638C151.684 21.4638 151.646 21.4638 151.646 21.4259C151.609 21.388 151.646 21.3501 151.684 21.3121C151.835 21.2363 151.986 21.1225 152.175 21.0467C152.213 21.0088 152.251 21.0467 152.288 21.0846C152.326 21.1225 152.288 21.1605 152.251 21.1984C152.062 21.2742 151.911 21.3501 151.722 21.4638ZM146.586 21.9189C146.586 21.9569 146.586 21.9189 146.586 21.9189C146.36 21.8431 146.209 21.8052 146.02 21.7293C145.982 21.7293 145.982 21.6535 145.982 21.6155C145.982 21.5776 146.058 21.5776 146.096 21.5776C146.247 21.6535 146.435 21.6914 146.624 21.7672C146.662 21.7672 146.7 21.8052 146.662 21.8431C146.624 21.9189 146.624 21.9189 146.586 21.9189ZM145.265 21.3501H145.227C145.076 21.2742 144.887 21.1605 144.736 21.0467C144.698 21.0088 144.698 20.9708 144.736 20.9329C144.774 20.895 144.812 20.895 144.849 20.9329C145 21.0467 145.152 21.1225 145.303 21.2363C145.34 21.2742 145.34 21.3121 145.34 21.3501C145.303 21.3501 145.265 21.3501 145.265 21.3501ZM144.094 20.4778C144.056 20.4778 144.056 20.4778 144.019 20.4778C143.868 20.364 143.754 20.2123 143.641 20.0607C143.603 20.0227 143.603 19.9848 143.641 19.9469C143.679 19.909 143.717 19.909 143.754 19.9469C143.868 20.0986 144.019 20.2123 144.132 20.3261C144.17 20.364 144.17 20.402 144.132 20.4399C144.132 20.4778 144.094 20.4778 144.094 20.4778ZM143.112 19.378C143.075 19.378 143.075 19.378 143.037 19.3401C142.924 19.1884 142.848 19.0367 142.735 18.8471C142.697 18.8092 142.735 18.7712 142.773 18.7333C142.81 18.6954 142.848 18.7333 142.886 18.7712C142.961 18.9229 143.075 19.0746 143.188 19.2263C143.188 19.3022 143.188 19.3401 143.112 19.378C143.15 19.378 143.15 19.378 143.112 19.378ZM142.433 18.0886C142.395 18.0886 142.357 18.0886 142.357 18.0507C142.282 17.8611 142.206 17.7094 142.168 17.5197C142.168 17.4818 142.168 17.4439 142.206 17.4439C142.244 17.4439 142.282 17.4439 142.282 17.4818C142.319 17.6714 142.395 17.8231 142.471 18.0127C142.508 18.0127 142.508 18.0886 142.433 18.0886ZM142.055 16.6854C142.017 16.6854 141.98 16.6475 141.98 16.6096C141.942 16.4958 141.942 16.3441 141.942 16.2303C141.942 16.1545 141.942 16.1165 141.942 16.0407C141.942 16.0028 141.98 15.9648 142.017 15.9648C142.055 15.9648 142.093 16.0028 142.093 16.0407C142.093 16.1165 142.093 16.1545 142.093 16.2303C142.093 16.3441 142.131 16.4958 142.131 16.6096C142.093 16.6475 142.093 16.6854 142.055 16.6854Z" fill="#91B3FA"/>
<path d="M141.942 15.2079C141.904 15.2079 141.866 15.17 141.866 15.132C141.866 15.0183 141.866 14.9424 141.904 14.8287C141.904 14.7907 141.942 14.7528 141.98 14.7528C142.017 14.7528 142.055 14.7907 142.055 14.8287C142.055 14.9424 142.055 15.0183 142.017 15.132C142.017 15.17 141.98 15.2079 141.942 15.2079Z" fill="#91B3FA"/>
<path d="M143.604 14.3723C143.604 14.4102 143.604 14.4481 143.641 14.4481L144.396 15.0549C144.359 15.51 144.359 15.9651 144.472 16.4202L143.792 17.1028C143.755 17.1408 143.755 17.1787 143.792 17.1787L144.283 18.2406C144.283 18.2785 144.321 18.2785 144.359 18.2785L145.303 18.1647C145.605 18.544 145.945 18.8473 146.322 19.0749V20.0609C146.322 20.0988 146.36 20.1368 146.36 20.1368L147.455 20.516C147.493 20.516 147.531 20.516 147.531 20.4781L148.135 19.7196C148.588 19.7575 149.041 19.7575 149.494 19.6438L150.174 20.3264C150.212 20.3643 150.249 20.3643 150.249 20.3264L151.307 19.8334C151.344 19.8334 151.344 19.7955 151.344 19.7575L151.231 18.8094C151.609 18.506 151.911 18.1647 152.137 17.7855H153.119C153.157 17.7855 153.195 17.7475 153.195 17.7475L153.572 16.6477C153.572 16.6098 153.572 16.5719 153.535 16.5719L152.779 15.9651C152.817 15.51 152.817 15.0549 152.704 14.5998L153.383 13.9172C153.421 13.8793 153.421 13.8414 153.383 13.8414L152.893 12.7795C152.893 12.7416 152.855 12.7416 152.817 12.7416L151.873 12.8553C151.571 12.4761 151.231 12.1727 150.854 11.9451V10.9591C150.854 10.9212 150.816 10.8833 150.816 10.8833L149.721 10.504C149.683 10.504 149.645 10.504 149.645 10.542L149.041 11.3004C148.588 11.2625 148.135 11.2625 147.682 11.3763L147.002 10.6936C146.964 10.6557 146.926 10.6557 146.926 10.6936L145.869 11.1867C145.831 11.1867 145.831 11.2246 145.831 11.2625L145.945 12.2106C145.567 12.514 145.265 12.8553 145.038 13.2346H144.057C144.019 13.2346 143.981 13.2725 143.981 13.2725L143.604 14.3723Z" fill="#91B3FA"/>
</g>
<path d="M102.482 17.9383C101.198 16.9144 99.3103 17.1419 98.253 18.4314C97.2334 19.7208 97.46 21.617 98.7438 22.6789C100.028 23.7028 101.916 23.4753 102.973 22.1859C103.993 20.8964 103.766 19.0002 102.482 17.9383Z" fill="#FAB258"/>
<path d="M102.897 20.0629C102.973 20.6318 102.822 21.2007 102.444 21.6937C101.689 22.7176 100.254 22.9452 99.2347 22.1867C98.7061 21.8074 98.3662 21.2007 98.3285 20.5939C98.2529 20.025 98.404 19.4561 98.7816 18.9631C99.1592 18.4701 99.6878 18.1288 100.292 18.053C100.896 17.9771 101.5 18.1288 101.991 18.4701C102.482 18.8494 102.822 19.4182 102.897 20.0629Z" fill="#FECA62"/>
<path d="M101.614 20.8578C101.614 20.6302 101.576 20.3648 101.349 20.2131C101.463 20.0993 101.538 19.9097 101.538 19.6442C101.538 19.3787 101.463 19.1891 101.274 19.0753C101.236 19.0753 101.236 19.0374 101.198 19.0374C101.198 19.0374 101.198 19.0374 101.198 18.9995V18.6961C101.198 18.5823 101.123 18.5065 101.01 18.5065C100.896 18.5065 100.821 18.5823 100.821 18.6961V18.9616C100.707 18.9616 100.556 18.9616 100.405 18.9616V18.734C100.405 18.6202 100.33 18.5444 100.217 18.5444C100.103 18.5444 100.028 18.6202 100.028 18.734V18.9616C99.9901 18.9616 99.9523 18.9616 99.9523 18.9616C99.8013 18.9616 99.688 19.0753 99.688 19.227C99.688 19.3787 99.8013 19.4925 99.9523 19.4925H100.028V21.1612H99.9523C99.8013 21.1612 99.688 21.2749 99.688 21.4266C99.688 21.5783 99.8013 21.6921 99.9523 21.6921H100.028V21.9196C100.028 22.0334 100.103 22.1093 100.217 22.1093C100.33 22.1093 100.405 22.0334 100.405 21.9196V21.6921H100.821V21.9196C100.821 22.0334 100.896 22.1093 101.01 22.1093C101.123 22.1093 101.198 22.0334 101.198 21.9196V21.6162C101.463 21.4646 101.614 21.237 101.614 20.8578ZM100.443 19.4166C100.859 19.4166 101.085 19.3787 101.085 19.6821C101.085 20.0234 100.859 19.9855 100.443 19.9855V19.4166ZM100.443 21.1991V20.4027C100.972 20.4027 101.161 20.3268 101.161 20.8198C101.161 21.0853 101.047 21.1991 100.821 21.1991H100.443Z" fill="#FFE0A5"/>
<path d="M107.082 3.80932C105.081 2.2165 102.173 2.55782 100.587 4.5678C99.0013 6.57778 99.3411 9.49794 101.342 11.0908C103.344 12.6836 106.251 12.3423 107.837 10.3323C109.423 8.32229 109.083 5.40213 107.082 3.80932Z" fill="#FAB258"/>
<path d="M107.724 7.07173C107.8 7.94399 107.573 8.85417 107.044 9.5368C105.874 11.0917 103.684 11.433 102.098 10.2953C101.305 9.6885 100.776 8.81624 100.701 7.83022C100.625 6.95796 100.852 6.04778 101.38 5.36515C101.947 4.60667 102.778 4.11365 103.684 3.96195C104.628 3.81026 105.534 4.0378 106.289 4.60667C107.12 5.17553 107.611 6.08571 107.724 7.07173Z" fill="#FECA62"/>
<path d="M105.76 8.28451C105.76 7.90527 105.723 7.52603 105.345 7.29849C105.534 7.10887 105.647 6.80547 105.647 6.46416C105.647 6.08491 105.534 5.78152 105.27 5.62982C105.232 5.5919 105.194 5.5919 105.156 5.55398V5.51605V5.06096C105.156 4.87134 105.005 4.75757 104.854 4.75757C104.665 4.75757 104.552 4.90927 104.552 5.06096V5.40228C104.363 5.40228 104.174 5.40228 103.91 5.40228V5.06096C103.91 4.87134 103.759 4.75757 103.608 4.75757C103.419 4.75757 103.306 4.90927 103.306 5.06096V5.40228C103.268 5.40228 103.23 5.40228 103.155 5.40228C102.928 5.40228 102.777 5.5919 102.777 5.78152C102.777 5.97114 102.966 6.16076 103.155 6.16076H103.23V8.7396H103.155C102.928 8.7396 102.777 8.92923 102.777 9.11885C102.777 9.34639 102.966 9.49809 103.155 9.49809H103.306V9.83941C103.306 10.029 103.457 10.1428 103.608 10.1428C103.797 10.1428 103.91 9.9911 103.91 9.83941V9.49809H104.552V9.83941C104.552 10.029 104.703 10.1428 104.854 10.1428C105.043 10.1428 105.156 9.9911 105.156 9.83941V9.42224C105.156 9.42224 105.156 9.42224 105.156 9.38432C105.534 9.23262 105.76 8.85338 105.76 8.28451ZM103.91 6.08491C104.552 6.08491 104.892 6.00907 104.892 6.50208C104.892 7.07094 104.552 6.95717 103.91 6.95717V6.08491ZM103.91 8.81545V7.60188C104.703 7.60188 105.005 7.48811 105.005 8.24659C105.005 8.62583 104.854 8.81545 104.477 8.81545H103.91Z" fill="#FFE0A5"/>
<path d="M114.603 15.3222C112.413 13.5777 109.204 13.9569 107.467 16.1565C105.73 18.3561 106.107 21.5797 108.297 23.3242C110.487 25.0687 113.697 24.6895 115.434 22.4899C117.171 20.2523 116.793 17.0667 114.603 15.3222Z" fill="#FAB258"/>
<path d="M115.321 18.8889C115.434 19.875 115.17 20.8231 114.566 21.6195C113.282 23.364 110.865 23.7053 109.128 22.4538C108.26 21.8091 107.693 20.8231 107.58 19.7233C107.467 18.7372 107.731 17.7891 108.335 16.9927C108.939 16.1584 109.845 15.5895 110.865 15.4378C111.885 15.2861 112.904 15.5516 113.735 16.1584C114.641 16.841 115.207 17.8271 115.321 18.8889Z" fill="#FECA62"/>
<path d="M113.131 20.2136C113.131 19.7965 113.093 19.3793 112.678 19.1138C112.904 18.9242 113.017 18.5829 113.017 18.1657C113.017 17.7486 112.866 17.4073 112.602 17.2176C112.564 17.1797 112.527 17.1797 112.451 17.1418V17.1039V16.6108C112.451 16.4212 112.3 16.2695 112.111 16.2695C111.922 16.2695 111.771 16.4212 111.771 16.6108V16.9901C111.583 16.9901 111.356 16.9901 111.054 16.9901V16.6108C111.054 16.4212 110.903 16.2695 110.714 16.2695C110.525 16.2695 110.374 16.4212 110.374 16.6108V16.9901C110.336 16.9901 110.261 16.9901 110.223 16.9901C109.997 16.9901 109.77 17.1797 109.77 17.4452C109.77 17.7106 109.959 17.9003 110.223 17.9003H110.336V20.7067H110.223C109.997 20.7067 109.77 20.8963 109.77 21.1617C109.77 21.3893 109.959 21.6168 110.223 21.6168H110.374V21.9961C110.374 22.1857 110.525 22.3374 110.714 22.3374C110.903 22.3374 111.054 22.1857 111.054 21.9961V21.6168H111.771V21.9961C111.771 22.1857 111.922 22.3374 112.111 22.3374C112.3 22.3374 112.451 22.1857 112.451 21.9961V21.5031C112.451 21.5031 112.451 21.5031 112.451 21.4651C112.904 21.2755 113.131 20.8584 113.131 20.2136ZM111.129 17.7865C111.809 17.7865 112.224 17.7106 112.224 18.2416C112.224 18.8484 111.847 18.7725 111.129 18.7725V17.7865ZM111.129 20.8204V19.4931C111.998 19.4931 112.3 19.3793 112.3 20.1757C112.3 20.5929 112.111 20.8204 111.734 20.8204H111.129Z" fill="#FFE0A5"/>
<path d="M149.418 152H87.3022V72.6629C87.3022 62.4613 95.534 54.1938 105.692 54.1938H137.712C147.87 54.1938 156.102 62.4613 156.102 72.6629V145.288C156.064 148.966 153.081 152 149.418 152Z" fill="#6DA13F"/>
<path d="M132.917 152H87.3022V72.6629C87.3022 62.4613 95.534 54.1938 105.692 54.1938H121.211C131.369 54.1938 139.6 62.4613 139.6 72.6629V145.288C139.6 148.966 136.58 152 132.917 152Z" fill="#91CE5E"/>
<path d="M118.983 151.774H59.0571V91.9674C59.0571 81.7658 67.2889 73.4983 77.4465 73.4983H100.631C110.789 73.4983 119.021 81.7658 119.021 91.9674V151.774H118.983Z" fill="#7898E9"/>
<path d="M103.879 151.774H59.0571V91.9674C59.0571 81.7658 67.2889 73.4983 77.4464 73.4983H85.5272C95.6847 73.4983 103.916 81.7658 103.916 91.9674V151.774H103.879Z" fill="#93ADEB"/>
<path d="M88.0195 151.734H43.0469C39.3464 151.734 36.3633 148.738 36.3633 145.021V122.57C36.3633 112.368 44.595 104.101 54.7526 104.101H69.6302C79.7877 104.101 88.0195 112.368 88.0195 122.57V151.734Z" fill="#6DA23D"/>
<path d="M73.3685 151.734H43.0469C39.3464 151.734 36.3633 148.738 36.3633 145.021V122.57C36.3633 112.368 44.595 104.101 54.7526 104.101H54.9792C65.1367 104.101 73.3685 112.368 73.3685 122.57V151.734Z" fill="#91CE5E"/>
<path d="M60.4922 151.733H15.5195C11.819 151.733 8.83594 148.737 8.83594 145.02V141.152C8.83594 130.951 17.0677 122.683 27.2253 122.683H42.1029C52.2604 122.683 60.4922 130.951 60.4922 141.152V151.733Z" fill="#7999EA"/>
<path d="M48.7487 151.733H15.5195C11.819 151.733 8.83594 148.737 8.83594 145.02V141.152C8.83594 130.951 17.0677 122.683 27.2253 122.683H30.3594C40.5169 122.683 48.7487 130.951 48.7487 141.152V151.733Z" fill="#93ADEB"/>
<path d="M57.7357 55.1416L53.6953 61.3612C55.5833 65.0398 57.6602 67.0498 59.737 67.9979C60.1146 65.7224 61.4362 63.8262 62.418 62.6885C58.7174 60.6027 57.7357 55.1416 57.7357 55.1416Z" fill="#5C619E"/>
<path d="M71.5558 61.5896C67.4399 64.0547 64.4946 63.903 62.4178 62.6894C61.436 63.8271 60.1144 65.7233 59.7368 67.9988C66.3449 71.0706 72.9529 63.372 72.9529 63.372L71.5558 61.5896Z" fill="#FDC1A8"/>
<path d="M71.7824 62.6508C71.7824 62.6508 70.6874 60.7167 72.2733 59.1997C72.2733 59.1997 72.802 58.5929 73.3684 59.4652C73.3684 59.4652 75.1054 57.9103 75.5585 58.5171C76.0116 59.1618 77.2577 60.7167 76.0494 62.4991C74.8033 64.3574 72.3111 63.5231 71.7824 62.6508Z" fill="#FDC1A8"/>
<path d="M13.2914 103.345C12.9516 103.572 12.7628 104.027 12.8383 104.444C13.1782 106.189 14.2732 110.854 16.9542 113.584C17.143 113.774 17.4073 113.736 17.5584 113.584C16.8787 112.864 16.0479 111.65 15.0662 109.602C13.518 106.454 13.2159 104.482 13.2914 103.345Z" fill="#44497C"/>
<path d="M16.7276 103.268C16.7276 103.268 14.9906 102.32 13.2914 103.344C13.2537 104.52 13.518 106.454 15.0284 109.639C16.0102 111.687 16.8409 112.901 17.5206 113.621C17.5583 113.583 17.5961 113.508 17.6339 113.432C18.1625 111.649 19.2198 106.757 16.7276 103.268Z" fill="#44497C"/>
<path d="M19.2199 103.383L17.6717 104.9C17.4074 105.165 16.9543 105.203 16.6522 105.013C16.3879 104.824 16.048 104.52 15.8592 104.027C15.7459 103.724 15.7837 103.383 16.0103 103.155L17.5584 101.411C17.936 100.994 18.578 101.069 18.8801 101.562L19.3709 102.397C19.5597 102.7 19.522 103.117 19.2199 103.383Z" fill="url(#paint1_linear_2_1653)"/>
<path d="M69.8564 95.7962C70.234 95.9858 70.6872 95.9479 71.0648 95.6445C72.4242 94.4689 75.8981 91.2074 76.9554 87.5287C77.0309 87.3012 76.8799 87.0737 76.6533 86.9978C76.389 87.9459 75.7471 89.2733 74.4255 91.1695C72.4242 94.0517 70.876 95.2653 69.8564 95.7962Z" fill="#44497C"/>
<path d="M68.082 92.8021C68.082 92.8021 68.1198 94.7741 69.819 95.7981C70.8385 95.2671 72.3867 94.0536 74.388 91.1713C75.6719 89.2751 76.3138 87.9478 76.6159 86.9996C76.5404 86.9996 76.4649 86.9617 76.3893 86.9996C74.6524 87.4547 69.8945 88.9338 68.082 92.8021Z" fill="#44497C"/>
<path d="M67.9684 89.539L69.5921 90.9801C69.8942 91.2455 69.9697 91.6627 69.7809 92.004C69.6299 92.3074 69.3278 92.6487 68.8747 92.8763C68.6103 93.028 68.2327 92.99 68.0062 92.8004L66.1559 91.3972C65.7028 91.0559 65.7406 90.3733 66.1559 90.0699L66.9489 89.501C67.251 89.2735 67.6663 89.2735 67.9684 89.539Z" fill="url(#paint2_linear_2_1653)"/>
<path d="M35.1169 75.0526C35.1169 75.0526 31.9072 85.9748 29.8682 90.7911C29.8682 90.7911 26.2432 91.36 24.0153 92.6494C21.7874 93.9768 16.9541 101.22 16.9541 101.22C16.9541 101.22 18.2002 103.61 19.7106 103.989L33.4554 94.4319L44.4059 81.6514L43.8773 75.7352L35.1169 75.0526Z" fill="#716D9E"/>
<path d="M35.3439 74.1416L34.3999 77.1376C34.3999 77.1376 35.2684 84.9879 45.0861 83.6606C54.9416 82.3332 56.1877 80.7404 56.1877 80.7404C56.1877 80.7404 55.3192 85.7464 66.1186 91.7763C66.1186 91.7763 67.7423 90.5248 68.1199 89.1217L60.5679 76.6446C59.5106 75.0139 58.5288 74.5588 56.6408 74.8622C52.4116 75.5448 44.4819 76.3791 43.2736 76.1895L35.3439 74.1416Z" fill="#9088BB"/>
<path d="M43.0089 51.9194C40.1392 52.0711 35.6079 53.4364 32.6626 56.129C33.5688 57.115 34.966 58.7458 35.9855 60.3386C36.8918 59.4663 38.2511 58.7458 40.1014 58.2907C38.4777 64.3585 36.5897 70.123 34.2485 75.4703C34.0975 75.8116 34.2863 76.1909 34.6261 76.3047C36.4386 76.9494 41.7251 78.4284 45.992 76.0013L55.4321 62.4244C56.4517 60.9833 57.1313 59.2767 57.3957 57.5322L57.7733 55.105C57.7355 55.143 49.2772 51.5781 43.0089 51.9194Z" fill="#5C619E"/>
<path d="M37.8735 72.4356C37.4581 71.5254 36.061 70.6911 35.3813 70.3118C34.8149 69.0983 32.4738 63.6751 35.9855 60.3757C34.9659 58.7829 33.5688 57.1522 32.6626 56.1661C29.2641 59.2759 28.0558 64.206 33.9842 71.0703C33.6443 72.7769 34.7016 74.7489 35.3058 75.0144C35.5701 75.1282 38.4399 73.6491 37.8735 72.4356Z" fill="#FDC1A8"/>
<path d="M49.3903 48.3169L46.9358 53.1712C46.7848 53.4746 46.8226 53.8159 47.0491 54.0814C47.6533 54.764 49.0504 55.8259 51.5049 55.0674C51.7692 54.9915 51.958 54.7261 51.9957 54.4606L52.6377 50.0614L49.3903 48.3169Z" fill="#FDC1A8"/>
<path d="M53.5061 42.6654C53.5061 42.6654 54.941 46.0027 55.0543 47.7472C55.1676 49.4918 55.5452 50.6295 53.5061 50.9708C51.5048 51.3121 49.8056 50.3261 48.8616 48.5816C48.8616 48.5816 47.4267 45.889 47.7288 44.7892C48.0686 43.7273 53.5061 42.6654 53.5061 42.6654Z" fill="#FDC1A8"/>
<path d="M49.5415 47.33L49.6548 47.2921C49.8059 47.2163 49.8814 47.0646 49.8059 46.9129C49.5038 46.344 48.9751 45.0925 49.6926 44.7891C50.5988 44.4099 54.2616 43.6514 55.0546 42.362C55.8098 41.1105 55.1301 39.4797 54.1483 39.0246C54.0728 38.9867 53.9973 39.0246 53.9595 39.1005L53.884 39.2522C53.8085 39.366 53.6574 39.328 53.6197 39.2143C53.5819 39.1005 53.4309 39.0626 53.3553 39.1763C53.1288 39.5556 52.4491 40.2003 50.7121 40.5037C48.2199 40.9588 46.5962 41.9827 46.5585 43.6893C46.5585 43.8031 46.4452 43.841 46.3319 43.8031C46.1431 43.6893 45.841 43.6514 45.4634 43.9548C44.7837 44.5236 45.048 46.0406 46.5585 47.2542C46.634 47.33 46.634 47.4059 46.5585 47.4817C46.2941 47.6713 45.8788 48.0885 46.9361 48.6574C48.0311 49.2262 48.8241 49.1883 49.1262 49.1504C49.2017 49.1504 49.2394 49.0745 49.2394 48.9987L48.8996 47.4817C48.8996 47.4059 48.9374 47.33 49.0506 47.33H49.5415Z" fill="#7A4F6F"/>
<path d="M49.6169 47.6702C49.6169 47.6702 49.0505 45.5464 48.1065 46.1532C47.1625 46.76 48.5974 48.5424 49.3526 48.6183L49.6169 47.6702Z" fill="url(#paint3_linear_2_1653)"/>
</g>
<defs>
<linearGradient id="paint0_linear_2_1653" x1="139.109" y1="17.0323" x2="72.8098" y2="73.3624" gradientUnits="userSpaceOnUse">
<stop stop-color="white"/>
<stop offset="1"/>
</linearGradient>
<linearGradient id="paint1_linear_2_1653" x1="15.7836" y1="103.119" x2="19.4859" y2="103.119" gradientUnits="userSpaceOnUse">
<stop stop-color="#FEBBBA"/>
<stop offset="1" stop-color="#FF928E"/>
</linearGradient>
<linearGradient id="paint2_linear_2_1653" x1="65.8253" y1="91.1527" x2="69.893" y2="91.1527" gradientUnits="userSpaceOnUse">
<stop stop-color="#FEBBBA"/>
<stop offset="1" stop-color="#FF928E"/>
</linearGradient>
<linearGradient id="paint3_linear_2_1653" x1="52.7736" y1="44.2677" x2="44.4876" y2="50.5803" gradientUnits="userSpaceOnUse">
<stop stop-color="#FEBBBA"/>
<stop offset="1" stop-color="#FF928E"/>
</linearGradient>
<clipPath id="clip0_2_1653">
<rect width="174" height="152" fill="white"/>
</clipPath>
</defs>
</svg>
