<svg width="175" height="149" viewBox="0 0 175 149" fill="none" xmlns="http://www.w3.org/2000/svg">
<g clip-path="url(#clip0_2_1749)">
<path d="M154.856 118.726C151.302 121.656 147.921 123.53 145.234 125.028C113.856 142.504 76.7134 137.428 68.8255 136.168C57.167 134.328 34.6301 130.785 18.3342 115.899C-6.32634 93.382 -2.46906 57.9545 16.644 34.5519C20.1545 30.2597 38.6174 6.51642 76.15 2.70114C98.8603 0.384726 125.341 5.05162 144.541 17.5194C184.76 43.6813 181.9 96.5841 154.856 118.726Z" fill="white"/>
<path d="M9.30859 35.8216V103.96C9.30859 107.396 12.062 110.22 15.4953 110.254L154.424 111.954C157.823 112.023 160.645 109.267 160.645 105.831L160.883 38.3049C160.883 35.8556 158.945 33.8485 156.498 33.8145L14.3055 30.957C11.5521 30.8889 9.30859 33.1001 9.30859 35.8216Z" fill="#B2D8FB"/>
<g opacity="0.53">
<path opacity="0.53" d="M90.0757 40.5847H86.4385V105.083H90.0757V40.5847Z" fill="white"/>
<path opacity="0.53" d="M96.1944 40.5847H92.5571V105.083H96.1944V40.5847Z" fill="white"/>
<path opacity="0.53" d="M102.279 40.5847H98.6421V105.083H102.279V40.5847Z" fill="white"/>
<path opacity="0.53" d="M108.398 40.5847H104.761V105.083H108.398V40.5847Z" fill="white"/>
<path opacity="0.53" d="M114.516 40.5847H110.879V105.083H114.516V40.5847Z" fill="white"/>
<path opacity="0.53" d="M120.601 40.5847H116.964V105.083H120.601V40.5847Z" fill="white"/>
<path opacity="0.53" d="M126.72 40.5847H123.083V105.083H126.72V40.5847Z" fill="white"/>
</g>
<path d="M90.0757 71.3375H86.4385V105.084H90.0757V71.3375Z" fill="#92ACEA"/>
<path d="M96.1944 82.9375H92.5571V105.083H96.1944V82.9375Z" fill="#92ACEA"/>
<path d="M102.279 54.2609H98.6421V105.084H102.279V54.2609Z" fill="#92ACEA"/>
<path d="M108.398 92.8711H104.761V105.084H108.398V92.8711Z" fill="#92ACEA"/>
<path d="M114.516 61.0637H110.879V105.083H114.516V61.0637Z" fill="#92ACEA"/>
<path d="M120.602 68.6846H116.964V105.084H120.602V68.6846Z" fill="#92ACEA"/>
<path d="M126.72 76.9504H123.083V105.084H126.72V76.9504Z" fill="#92ACEA"/>
<path opacity="0.57" d="M26.169 37.6244C21.274 37.6244 17.2969 41.6045 17.2969 46.5032C17.2969 51.4018 21.274 55.3819 26.169 55.3819C31.064 55.3819 35.0412 51.4018 35.0412 46.5032C35.0412 41.6045 31.098 37.6244 26.169 37.6244ZM26.169 51.5719C23.3816 51.5719 21.1041 49.2927 21.1041 46.5032C21.1041 43.7137 23.3816 41.4344 26.169 41.4344C28.9564 41.4344 31.234 43.7137 31.234 46.5032C31.234 49.3267 28.9564 51.5719 26.169 51.5719Z" fill="white"/>
<path opacity="0.57" d="M47.8223 37.6244C42.9274 37.6244 38.9502 41.6045 38.9502 46.5032C38.9502 51.4018 42.9274 55.3819 47.8223 55.3819C52.7173 55.3819 56.6945 51.4018 56.6945 46.5032C56.6945 41.6045 52.7173 37.6244 47.8223 37.6244ZM47.8223 51.5719C45.0349 51.5719 42.7574 49.2927 42.7574 46.5032C42.7574 43.7137 45.0349 41.4344 47.8223 41.4344C50.6098 41.4344 52.8873 43.7137 52.8873 46.5032C52.8873 49.3267 50.6098 51.5719 47.8223 51.5719Z" fill="white"/>
<path opacity="0.57" d="M69.442 37.6244C64.547 37.6244 60.5698 41.6045 60.5698 46.5032C60.5698 51.4018 64.547 55.3819 69.442 55.3819C74.3369 55.3819 78.3141 51.4018 78.3141 46.5032C78.3481 41.6045 74.3709 37.6244 69.442 37.6244ZM69.442 51.5719C66.6545 51.5719 64.377 49.2927 64.377 46.5032C64.377 43.7137 66.6545 41.4344 69.442 41.4344C72.2294 41.4344 74.5069 43.7137 74.5069 46.5032C74.5069 49.3267 72.2634 51.5719 69.442 51.5719Z" fill="white"/>
<path d="M83.4468 50.1429H57.0684V55.7219H83.4468V50.1429Z" fill="url(#paint0_linear_2_1749)"/>
<path opacity="0.44" d="M76.2745 105.423L19.3364 104.981C18.2147 104.981 17.2969 104.063 17.2969 102.94V73.6504C17.2969 72.5277 18.2147 71.6093 19.3364 71.6093H76.2745C77.3963 71.6093 78.3141 72.5277 78.3141 73.6504V103.348C78.3481 104.539 77.3963 105.457 76.2745 105.423Z" fill="white"/>
<path opacity="0.44" d="M67.4364 84.8433L60.1279 77.0872L49.6241 88.5173L42.2137 80.523L35.2791 88.3812L29.9423 81.9178L19.4385 92.8716V100.798C19.4385 101.852 20.2883 102.703 21.3421 102.703L74.3029 103.111C75.3567 103.111 76.2065 102.261 76.2065 101.206V79.6725L67.4364 84.8433Z" fill="white"/>
<path d="M67.6742 84.639H67.4702V103.077H67.6742V84.639Z" fill="white"/>
<path d="M60.2298 77.1208H60.0259V102.975H60.2298V77.1208Z" fill="white"/>
<path d="M49.7259 88.3802H49.522V102.872H49.7259V88.3802Z" fill="white"/>
<path d="M42.5199 80.8282H42.3159V102.906H42.5199V80.8282Z" fill="white"/>
<path d="M35.3812 88.1761H35.1772V102.906H35.3812V88.1761Z" fill="white"/>
<path d="M30.1463 81.3719H29.9424V102.735H30.1463V81.3719Z" fill="white"/>
<path d="M30.044 82.9715C30.9263 82.9715 31.6416 82.2557 31.6416 81.3727C31.6416 80.4896 30.9263 79.7738 30.044 79.7738C29.1616 79.7738 28.4463 80.4896 28.4463 81.3727C28.4463 82.2557 29.1616 82.9715 30.044 82.9715Z" fill="url(#paint1_linear_2_1749)"/>
<path d="M35.2789 89.2309C35.8609 89.2309 36.3327 88.7588 36.3327 88.1764C36.3327 87.594 35.8609 87.1218 35.2789 87.1218C34.6969 87.1218 34.2251 87.594 34.2251 88.1764C34.2251 88.7588 34.6969 89.2309 35.2789 89.2309Z" fill="url(#paint2_linear_2_1749)"/>
<path d="M42.4175 81.8829C42.9995 81.8829 43.4713 81.4108 43.4713 80.8284C43.4713 80.246 42.9995 79.7738 42.4175 79.7738C41.8356 79.7738 41.3638 80.246 41.3638 80.8284C41.3638 81.4108 41.8356 81.8829 42.4175 81.8829Z" fill="url(#paint3_linear_2_1749)"/>
<path d="M49.6241 89.4349C50.2061 89.4349 50.6779 88.9628 50.6779 88.3804C50.6779 87.7979 50.2061 87.3258 49.6241 87.3258C49.0421 87.3258 48.5703 87.7979 48.5703 88.3804C48.5703 88.9628 49.0421 89.4349 49.6241 89.4349Z" fill="url(#paint4_linear_2_1749)"/>
<path d="M60.128 78.1749C60.71 78.1749 61.1818 77.7028 61.1818 77.1204C61.1818 76.5379 60.71 76.0658 60.128 76.0658C59.546 76.0658 59.0742 76.5379 59.0742 77.1204C59.0742 77.7028 59.546 78.1749 60.128 78.1749Z" fill="url(#paint5_linear_2_1749)"/>
<path d="M67.5723 85.6934C68.1543 85.6934 68.6261 85.2213 68.6261 84.6389C68.6261 84.0565 68.1543 83.5844 67.5723 83.5844C66.9903 83.5844 66.5186 84.0565 66.5186 84.6389C66.5186 85.2213 66.9903 85.6934 67.5723 85.6934Z" fill="url(#paint6_linear_2_1749)"/>
<g opacity="0.48">
<path opacity="0.48" d="M33.7495 66.744H18.1468C17.5009 66.744 16.957 67.1182 16.957 67.5605C16.957 68.0027 17.5009 68.3769 18.1468 68.3769H33.7495C34.3954 68.3769 34.9393 68.0027 34.9393 67.5605C34.9393 67.1182 34.3954 66.744 33.7495 66.744Z" fill="white"/>
<path opacity="0.48" d="M33.7495 63.1036H18.1468C17.5009 63.1036 16.957 63.4778 16.957 63.9201C16.957 64.3623 17.5009 64.7365 18.1468 64.7365H33.7495C34.3954 64.7365 34.9392 64.3623 34.9392 63.9201C34.9392 63.4778 34.3954 63.1036 33.7495 63.1036Z" fill="white"/>
<path opacity="0.48" d="M33.7495 59.4637H18.1468C17.5009 59.4637 16.957 59.8379 16.957 60.2802C16.957 60.7224 17.5009 61.0966 18.1468 61.0966H33.7495C34.3954 61.0966 34.9393 60.7224 34.9393 60.2802C34.9393 59.8379 34.3954 59.4637 33.7495 59.4637Z" fill="white"/>
</g>
<g opacity="0.48">
<path opacity="0.48" d="M55.437 66.744H39.8343C39.1884 66.744 38.6445 67.1182 38.6445 67.5605C38.6445 68.0027 39.1884 68.3769 39.8343 68.3769H55.437C56.0829 68.3769 56.6268 68.0027 56.6268 67.5605C56.6268 67.1182 56.1169 66.744 55.437 66.744Z" fill="white"/>
<path opacity="0.48" d="M55.437 63.1036H39.8343C39.1884 63.1036 38.6445 63.4778 38.6445 63.9201C38.6445 64.3623 39.1884 64.7365 39.8343 64.7365H55.437C56.0829 64.7365 56.6268 64.3623 56.6268 63.9201C56.6268 63.4778 56.1169 63.1036 55.437 63.1036Z" fill="white"/>
<path opacity="0.48" d="M55.437 59.4637H39.8343C39.1884 59.4637 38.6445 59.8379 38.6445 60.2802C38.6445 60.7224 39.1884 61.0966 39.8343 61.0966H55.437C56.0829 61.0966 56.6268 60.7224 56.6268 60.2802C56.6268 59.8379 56.1169 59.4637 55.437 59.4637Z" fill="white"/>
</g>
<g opacity="0.48">
<path opacity="0.48" d="M77.1582 66.744H61.5555C60.9096 66.744 60.3657 67.1182 60.3657 67.5605C60.3657 68.0027 60.9096 68.3769 61.5555 68.3769H77.1582C77.8041 68.3769 78.348 68.0027 78.348 67.5605C78.348 67.1182 77.8041 66.744 77.1582 66.744Z" fill="white"/>
<path opacity="0.48" d="M77.1582 63.1036H61.5555C60.9096 63.1036 60.3657 63.4778 60.3657 63.9201C60.3657 64.3623 60.9096 64.7365 61.5555 64.7365H77.1582C77.8041 64.7365 78.348 64.3623 78.348 63.9201C78.348 63.4778 77.8041 63.1036 77.1582 63.1036Z" fill="white"/>
<path opacity="0.48" d="M77.1582 59.4637H61.5555C60.9096 59.4637 60.3657 59.8379 60.3657 60.2802C60.3657 60.7224 60.9096 61.0966 61.5555 61.0966H77.1582C77.8041 61.0966 78.348 60.7224 78.348 60.2802C78.348 59.8379 77.8041 59.4637 77.1582 59.4637Z" fill="white"/>
</g>
<path d="M143.207 77.3926C147.187 77.3926 150.413 74.1638 150.413 70.1807C150.413 66.1977 147.187 62.9689 143.207 62.9689C139.226 62.9689 136 66.1977 136 70.1807C136 74.1638 139.226 77.3926 143.207 77.3926Z" fill="url(#paint7_linear_2_1749)"/>
<path d="M147.489 68.6506C147.727 69.1949 147.829 69.7732 147.829 70.4195C147.829 72.9709 145.756 75.046 143.206 75.046C140.657 75.046 138.583 72.9709 138.583 70.4195C138.583 67.8682 140.657 65.7931 143.206 65.7931C143.274 65.7931 143.376 65.7931 143.444 65.7931V64.6024C143.376 64.6024 143.274 64.6024 143.206 64.6024C140.011 64.6024 137.394 67.2218 137.394 70.4195C137.394 73.6173 140.011 76.2367 143.206 76.2367C146.402 76.2367 149.019 73.6173 149.019 70.4195C149.019 69.6371 148.849 68.8887 148.577 68.1743L147.489 68.6506Z" fill="#91B3FA"/>
<path opacity="0.5" d="M149.121 80.4877H137.36C136.612 80.4877 136.034 81.1 136.034 81.8144C136.034 82.5628 136.646 83.1411 137.36 83.1411H149.121C149.869 83.1411 150.447 82.5288 150.447 81.8144C150.481 81.066 149.869 80.4877 149.121 80.4877Z" fill="white"/>
<path d="M143.172 54.1579C147.152 54.1579 150.379 50.929 150.379 46.946C150.379 42.963 147.152 39.7341 143.172 39.7341C139.192 39.7341 135.966 42.963 135.966 46.946C135.966 50.929 139.192 54.1579 143.172 54.1579Z" fill="url(#paint8_linear_2_1749)"/>
<path d="M145.62 51.1306C144.906 51.5728 144.056 51.845 143.138 51.845C140.589 51.845 138.515 49.7699 138.515 47.2185C138.515 44.6671 140.589 42.592 143.138 42.592C143.206 42.592 143.308 42.592 143.376 42.592V41.4014C143.308 41.4014 143.206 41.4014 143.138 41.4014C139.943 41.4014 137.326 44.0208 137.326 47.2185C137.326 50.4162 139.943 53.0356 143.138 53.0356C144.26 53.0356 145.314 52.7295 146.198 52.1852L145.62 51.1306Z" fill="#91B3FA"/>
<path opacity="0.5" d="M149.155 57.2529H137.394C136.646 57.2529 136.068 57.8653 136.068 58.5796C136.068 59.328 136.68 59.9064 137.394 59.9064H149.155C149.903 59.9064 150.481 59.294 150.481 58.5796C150.481 57.8312 149.903 57.2529 149.155 57.2529Z" fill="white"/>
<path opacity="0.91" d="M143.206 100.762C147.186 100.762 150.412 97.5333 150.412 93.5502C150.412 89.5672 147.186 86.3384 143.206 86.3384C139.226 86.3384 136 89.5672 136 93.5502C136 97.5333 139.226 100.762 143.206 100.762Z" fill="white"/>
<path d="M147.149 96.1365C146.299 97.3612 144.906 98.1776 143.308 98.1776C140.758 98.1776 138.685 96.1025 138.685 93.5511C138.685 90.9998 140.758 88.9246 143.308 88.9246C143.376 88.9246 143.478 88.9246 143.546 88.9246V87.734C143.478 87.734 143.376 87.734 143.308 87.734C140.113 87.734 137.495 90.3534 137.495 93.5511C137.495 96.7488 140.113 99.3683 143.308 99.3683C145.279 99.3683 147.047 98.3817 148.101 96.8509L147.149 96.1365Z" fill="url(#paint9_linear_2_1749)"/>
<path opacity="0.5" d="M137.325 106.273H149.087C149.835 106.273 150.412 105.66 150.412 104.946C150.412 104.198 149.801 103.619 149.087 103.619H137.325C136.577 103.619 136 104.232 136 104.946C136 105.66 136.577 106.273 137.325 106.273Z" fill="white"/>
<path d="M46.8366 17.2472C46.3947 38.1344 44.967 110.185 45.6468 135.733C45.7148 138.454 47.5844 140.597 49.8959 140.699C61.3175 141.142 103.231 142.23 121.927 141.346C125.836 141.142 128.929 137.468 128.997 132.909C129.371 110.968 130.255 49.2924 128.215 21.0572C127.978 17.6554 125.7 14.968 122.811 14.6278C110.369 13.165 68.2861 9.59307 52.1395 10.8177C49.1821 11.0559 46.9046 13.8454 46.8366 17.2472Z" fill="#A3A9CF"/>
<path d="M51.9354 23.6766C51.3236 40.5497 49.386 96.6458 49.9978 117.363C50.0998 120.391 52.1394 122.84 54.7229 123.01C65.3626 123.724 101.701 125.357 117.338 123.894C120.159 123.622 122.369 120.969 122.505 117.669C123.286 100.456 125.564 48.2378 124.986 27.7248C124.884 24.4591 122.743 21.7716 119.955 21.4995C108.432 20.2748 69.8157 17.4173 56.5585 18.2677C54.009 18.4038 52.0374 20.7511 51.9354 23.6766Z" fill="#B2D8FB"/>
<path d="M80.4897 14.968C80.4897 15.6144 80.9317 16.1247 81.4755 16.1587C84.161 16.3288 91.7754 16.805 95.1747 17.0091C95.8545 17.0431 96.3644 16.3628 96.2285 15.5804L96.1945 15.4443C96.0925 14.934 95.7186 14.5258 95.2767 14.4578C92.9651 14.2196 86.0646 13.5393 81.4415 13.7094C80.9317 13.7774 80.4897 14.3217 80.4897 14.968Z" fill="#8181B2"/>
<path d="M85.8269 59.0217C94.6318 59.0217 101.77 51.8786 101.77 43.0671C101.77 34.2557 94.6318 27.1125 85.8269 27.1125C77.022 27.1125 69.8843 34.2557 69.8843 43.0671C69.8843 51.8786 77.022 59.0217 85.8269 59.0217Z" fill="#90AAE8"/>
<path d="M90.6879 37.0464C90.6879 39.7339 88.5124 42.6594 85.7929 42.6594C83.1075 42.6594 80.8979 39.7339 80.8979 37.0464C80.8979 34.359 83.0735 32.4199 85.7929 32.4199C88.5124 32.4199 90.6879 34.359 90.6879 37.0464Z" fill="white"/>
<path d="M79.7423 53.0693H91.6739C92.9316 53.0693 94.0534 52.2529 94.4273 51.0622L95.0731 49.0551C95.549 47.5923 94.7672 45.9935 93.3395 45.4492C88.4785 43.6803 83.4476 43.8844 78.3146 45.6193C76.8869 46.0955 76.0711 47.6264 76.479 49.1232L76.9889 50.9602C77.2949 52.1848 78.4506 53.0693 79.7423 53.0693Z" fill="white"/>
<g opacity="0.71">
<path opacity="0.65" d="M114.415 84.5019H60.196C58.9382 84.5019 57.9185 83.4814 57.9185 82.2227V77.7663C57.9185 76.5076 58.9382 75.4871 60.196 75.4871H114.415C115.672 75.4871 116.692 76.5076 116.692 77.7663V82.2227C116.726 83.4814 115.672 84.5019 114.415 84.5019Z" fill="white"/>
<path opacity="0.65" d="M114.109 99.2665H59.8561C58.5984 99.2665 57.5786 98.246 57.5786 96.9873V92.5309C57.5786 91.2723 58.5984 90.2517 59.8561 90.2517H114.075C115.332 90.2517 116.352 91.2723 116.352 92.5309V96.9873C116.386 98.246 115.366 99.2665 114.109 99.2665Z" fill="white"/>
<path opacity="0.65" d="M102.279 116.921H69.9523C68.3886 116.921 67.1309 115.663 67.1309 114.098V108.179C67.1309 106.614 68.3886 105.355 69.9523 105.355H102.279C103.843 105.355 105.101 106.614 105.101 108.179V114.064C105.101 115.629 103.843 116.921 102.279 116.921Z" fill="white"/>
</g>
<path opacity="0.75" d="M93.0331 82.5284H63.0174C61.6237 82.5284 60.502 81.4058 60.502 80.011C60.502 78.6163 61.6237 77.4937 63.0174 77.4937H93.0331C94.4268 77.4937 95.5486 78.6163 95.5486 80.011C95.5146 81.4058 94.3928 82.5284 93.0331 82.5284Z" fill="white"/>
<g opacity="0.75">
<path opacity="0.75" d="M61.7259 96.5777C62.8711 96.5777 63.7995 95.6486 63.7995 94.5026C63.7995 93.3565 62.8711 92.4275 61.7259 92.4275C60.5807 92.4275 59.6523 93.3565 59.6523 94.5026C59.6523 95.6486 60.5807 96.5777 61.7259 96.5777Z" fill="white"/>
<path opacity="0.75" d="M67.369 96.679C68.5142 96.679 69.4425 95.75 69.4425 94.6039C69.4425 93.4579 68.5142 92.5288 67.369 92.5288C66.2238 92.5288 65.2954 93.4579 65.2954 94.6039C65.2954 95.75 66.2238 96.679 67.369 96.679Z" fill="white"/>
<path opacity="0.75" d="M72.8416 96.952C73.9868 96.952 74.9152 96.0229 74.9152 94.8769C74.9152 93.7308 73.9868 92.8018 72.8416 92.8018C71.6964 92.8018 70.7681 93.7308 70.7681 94.8769C70.7681 96.0229 71.6964 96.952 72.8416 96.952Z" fill="white"/>
<path opacity="0.75" d="M78.4842 97.0538C79.6294 97.0538 80.5578 96.1247 80.5578 94.9787C80.5578 93.8326 79.6294 92.9036 78.4842 92.9036C77.339 92.9036 76.4106 93.8326 76.4106 94.9787C76.4106 96.1247 77.339 97.0538 78.4842 97.0538Z" fill="white"/>
<path opacity="0.75" d="M84.1615 96.9857C85.3067 96.9857 86.235 96.0566 86.235 94.9106C86.235 93.7645 85.3067 92.8354 84.1615 92.8354C83.0163 92.8354 82.0879 93.7645 82.0879 94.9106C82.0879 96.0566 83.0163 96.9857 84.1615 96.9857Z" fill="white"/>
<path opacity="0.75" d="M89.8045 97.1228C90.9497 97.1228 91.8781 96.1937 91.8781 95.0476C91.8781 93.9016 90.9497 92.9725 89.8045 92.9725C88.6593 92.9725 87.731 93.9016 87.731 95.0476C87.731 96.1937 88.6593 97.1228 89.8045 97.1228Z" fill="white"/>
</g>
<path d="M113.395 101.781L119.718 103.38L118.12 115.252C118.12 115.252 120.499 117.634 121.281 120.797C122.063 123.961 122.811 137.262 122.811 137.262L124.307 138.181L124.477 138.929L120.125 144.814L120.839 140.154C120.941 139.405 120.771 137.909 120.805 137.875C118.426 131.547 113.361 113.722 113.361 113.722V101.781H113.395Z" fill="#F4A98F"/>
<path d="M111.525 138.964C111.593 138.964 111.661 138.964 111.729 138.964C111.423 135.154 110.03 118.349 108.636 112.056C107.038 104.946 111.015 90.6921 111.015 90.6921L118.12 97.802L114.177 111.239C116.896 115.321 113.735 139.1 113.803 139.1V139.168L114.823 140.597L114.687 141.379L108.398 145.087L110.879 141.073C111.287 140.427 111.491 139.712 111.525 138.964Z" fill="#FDBAA1"/>
<path d="M119.548 59.1226C119.548 59.1226 133.383 74.7369 119.548 82.7653L118.12 81.7447C118.12 81.7447 124.987 75.1452 118.12 67.0828L119.548 59.1226Z" fill="#FDBAA1"/>
<path d="M107.99 145.666H109.996C110.37 145.666 110.744 145.496 110.947 145.19C111.559 144.374 112.885 142.775 113.497 142.741C114.347 142.673 114.211 145.666 114.211 145.666H114.687L115.265 141.958C115.401 141.04 114.959 140.121 114.109 139.679C114.109 139.679 113.905 141.108 112.885 141.72C111.865 142.333 108.67 144.578 108.67 144.578C108.67 144.578 108.296 144.51 107.854 144.612C107.242 144.748 107.344 145.666 107.99 145.666Z" fill="#383D6D"/>
<path d="M119.956 145.462L121.826 144.68C122.165 144.544 122.437 144.237 122.539 143.863C122.811 142.877 123.389 140.904 123.933 140.631C124.681 140.257 125.735 143.047 125.735 143.047L126.177 142.877L125.293 139.237C125.055 138.318 124.273 137.638 123.355 137.57C123.355 137.57 123.729 138.931 123.015 139.917C122.301 140.904 120.228 144.203 120.228 144.203C120.228 144.203 119.854 144.305 119.48 144.544C118.936 144.85 119.378 145.7 119.956 145.462Z" fill="#383D6D"/>
<path d="M109.214 78.6487C109.214 78.6487 109.451 80.0775 109.112 83.9896C108.772 87.9017 107.14 97.1206 107.48 105.931C107.48 105.931 112.103 107.02 120.159 106.51C120.159 106.51 123.559 92.7663 122.743 87.5275C121.927 82.2886 117.44 78.5466 117.44 78.5466L109.214 78.6487Z" fill="#383D6D"/>
<path d="M112.613 52.4557L112.069 59.1232H117.44L116.08 48.9518L112.613 52.4557Z" fill="#FDBAA1"/>
<path d="M119.038 58.2046C117.168 58.1025 113.021 57.8984 110.097 58.0685C108.534 58.1365 107.242 59.2591 106.936 60.79L106.222 64.2258C105.95 65.5185 105.984 66.8452 106.324 68.1039L109.214 78.6836C109.214 78.6836 111.763 80.2144 117.406 78.5815C117.406 78.5815 122.335 66.8112 120.329 59.2591C120.125 58.6468 119.616 58.2386 119.038 58.2046Z" fill="#8ECB5E"/>
<path d="M107.072 60.1781C106.291 62.2532 105.577 64.4644 104.795 66.5055C104.421 67.526 104.013 68.5466 103.571 69.4651C103.367 69.9413 103.129 70.3495 102.891 70.7237C102.687 71.0979 102.415 71.4041 102.313 71.5742C102.279 71.6082 102.381 71.6082 102.415 71.6082C102.415 71.6082 101.872 71.7103 101.702 71.7103H101.056C100.104 71.6762 99.0502 71.5061 97.9624 71.268C95.7869 70.8598 93.5433 70.2815 91.1978 69.8733H91.1638C90.7219 69.8052 90.28 70.0774 90.212 70.5196C90.144 70.8258 90.28 71.0979 90.484 71.268C91.4358 72.0845 92.4216 72.7648 93.4413 73.4112C93.9512 73.7173 94.4951 74.0235 95.005 74.3297C95.5489 74.6018 96.0928 74.8739 96.6707 75.1461C97.8264 75.6564 98.9822 76.0986 100.376 76.4048C100.75 76.4728 101.09 76.5408 101.464 76.5749C101.872 76.5749 102.246 76.6089 102.687 76.6089C102.925 76.5749 103.163 76.5408 103.401 76.5068C103.537 76.4728 103.639 76.4728 103.775 76.4388C103.945 76.4048 104.115 76.3367 104.251 76.2687C104.591 76.1326 104.795 75.9965 105.067 75.8605C105.305 75.7244 105.509 75.5543 105.713 75.3842C106.461 74.7379 106.937 74.1256 107.344 73.5132C107.752 72.9009 108.058 72.2886 108.364 71.7103C108.942 70.5196 109.384 69.363 109.758 68.1724C110.506 65.7911 111.016 63.4779 111.22 60.9945C111.322 59.8039 110.438 58.7493 109.248 58.6473C108.262 58.5792 107.378 59.1575 107.038 60.042L107.072 60.1781Z" fill="#FDBAA1"/>
<path d="M91.9115 70.9277L90.9597 68.6484L85.9287 67.3898C85.9287 67.3898 85.5208 68.2742 87.6284 68.6484C87.6284 68.6484 86.8805 69.4989 87.2885 70.4854C87.6964 71.472 91.9795 72.4585 91.9115 70.9277Z" fill="#FDBAA1"/>
<path d="M110.336 44.7673C110.132 44.8694 108.636 50.2103 109.894 52.4555C111.151 54.7007 115.027 52.1833 116.08 48.9516C117.134 45.7198 115.469 41.7737 110.336 44.7673Z" fill="#FDBAA1"/>
<path d="M120.363 48.9517C121.247 53.204 124.103 52.0473 126.142 53.9524C129.439 57.014 134.164 53.8503 138.753 56.7759C142.051 58.885 143.648 64.2599 142.085 68.5802C139.875 74.6015 132.363 77.0508 128.454 75.2138C124.714 73.4789 125.258 68.24 120.227 66.1989C118.086 65.3485 117.032 65.8928 115.774 64.6341C113.531 62.3889 114.143 58.0686 114.381 56.4017C114.89 52.7957 116.08 52.1154 115.502 50.5505C114.381 47.4549 109.112 48.1012 108.67 45.9241C108.262 43.951 112.069 40.175 115.672 40.7533C121.247 41.6718 119.989 47.0807 120.363 48.9517Z" fill="#66455C"/>
<path d="M134.334 31.3987C134.334 23.9147 140.657 17.8254 148.272 17.8254C155.648 17.8254 161.495 23.5745 161.495 30.6843C161.495 37.7601 155.682 43.8494 148.272 44.2236C140.657 44.5978 134.334 38.8827 134.334 31.3987Z" fill="#6BA03D"/>
<path d="M135.592 31.3649C135.592 24.5613 141.337 19.0844 148.238 19.0844C154.934 19.0844 160.203 24.2891 160.203 30.7186C160.203 37.148 154.934 42.625 148.238 42.9992C141.337 43.3394 135.592 38.1346 135.592 31.3649Z" fill="#8ECB5E"/>
<path d="M144.124 30.582H143.002V26.0575C143.002 24.2886 144.328 22.7918 146.096 22.5537L148.407 22.2815C149.393 22.1454 150.413 22.4856 151.161 23.132C151.909 23.8123 152.35 24.7648 152.35 25.7514V29.6975H151.229V25.7854C151.229 25.105 150.923 24.4587 150.413 24.0164C149.903 23.5742 149.223 23.3701 148.543 23.4381L146.232 23.7103C145.042 23.8463 144.124 24.8669 144.124 26.0575V30.582Z" fill="white"/>
<path d="M142.663 29.5609L152.589 29.0166C152.996 28.9826 153.336 29.3228 153.336 29.731V37.5892C153.336 37.9634 153.03 38.3036 152.623 38.3036H142.935C142.561 38.3036 142.255 37.9974 142.221 37.6232L142.017 30.2753C141.983 29.9011 142.289 29.5949 142.663 29.5609Z" fill="white"/>
<path d="M149.291 36.0253L148.679 34.2904C148.611 34.0863 148.645 33.8482 148.815 33.6781C149.121 33.3719 149.291 32.9297 149.291 32.4534C149.257 31.6029 148.577 30.9226 147.727 30.8886C146.81 30.8545 146.028 31.6029 146.028 32.5214C146.028 33.0317 146.266 33.508 146.64 33.7801C146.844 33.9502 146.912 34.1883 146.844 34.4265L146.3 35.9913C146.164 36.3655 146.436 36.7737 146.844 36.7737H148.747C149.155 36.8077 149.427 36.4335 149.291 36.0253Z" fill="#8ECB5E"/>
<path d="M49.2162 103.415C49.1482 103.415 49.0802 103.381 49.0123 103.313C48.9103 103.211 48.9443 103.041 49.0462 102.973C49.2842 102.769 49.5561 102.565 49.8281 102.361C49.9301 102.293 50.1 102.293 50.168 102.395C50.236 102.497 50.236 102.667 50.134 102.735C49.8621 102.939 49.6241 103.143 49.3862 103.313C49.3182 103.381 49.2842 103.415 49.2162 103.415Z" fill="#91B3FA"/>
<path d="M83.7529 119.847C83.617 119.847 83.515 119.745 83.515 119.609V119.506C83.515 118.894 83.481 118.248 83.447 117.635C83.447 117.499 83.549 117.397 83.6849 117.363C83.8209 117.363 83.9229 117.465 83.9569 117.601C84.0249 118.248 84.0589 118.86 84.0589 119.506V119.609C84.0249 119.745 83.8889 119.847 83.7529 119.847ZM83.1411 114.676C83.0391 114.676 82.9371 114.608 82.9031 114.506C82.7331 113.893 82.5632 113.281 82.3592 112.669V112.635C82.3252 112.499 82.3932 112.363 82.4952 112.329C82.6312 112.295 82.7671 112.363 82.8011 112.465V112.499C83.0051 113.111 83.209 113.757 83.345 114.37C83.379 114.506 83.311 114.642 83.1751 114.676C83.1751 114.676 83.175 114.676 83.1411 114.676ZM81.3054 109.845C81.2035 109.845 81.1355 109.811 81.1015 109.709C80.7955 109.131 80.4556 108.553 80.1157 108.008C80.0477 107.906 80.0817 107.736 80.1837 107.668C80.2857 107.6 80.4556 107.634 80.5236 107.736C80.8975 108.28 81.2375 108.859 81.5434 109.471C81.6114 109.607 81.5774 109.743 81.4414 109.811C81.3734 109.811 81.3394 109.845 81.3054 109.845ZM78.3141 105.559C78.2461 105.559 78.1781 105.525 78.1441 105.491C77.7022 105.015 77.2263 104.538 76.7504 104.096C76.6484 103.994 76.6484 103.858 76.7504 103.756C76.8524 103.654 76.9883 103.654 77.0903 103.756C77.5662 104.198 78.0421 104.675 78.518 105.185C78.62 105.287 78.586 105.423 78.484 105.525C78.45 105.559 78.3821 105.559 78.3141 105.559ZM74.4049 102.191C74.3709 102.191 74.3029 102.191 74.2689 102.157C73.725 101.783 73.1811 101.443 72.6033 101.137C72.5013 101.069 72.4333 100.933 72.5013 100.796C72.5693 100.694 72.7052 100.626 72.8412 100.694C73.4191 101.001 73.997 101.375 74.5749 101.715C74.6768 101.783 74.7108 101.953 74.6428 102.055C74.5409 102.157 74.4729 102.191 74.4049 102.191ZM52.7174 101.069C52.6155 101.069 52.5475 101.035 52.5135 100.933C52.4455 100.83 52.4795 100.66 52.6155 100.592C53.1933 100.286 53.8052 99.98 54.4171 99.7419C54.5531 99.6739 54.689 99.7419 54.723 99.878C54.791 100.014 54.723 100.15 54.5871 100.184C53.9752 100.422 53.3973 100.728 52.8194 101.035C52.7854 101.069 52.7514 101.069 52.7174 101.069ZM69.7479 99.8439C69.7139 99.8439 69.6799 99.8439 69.6799 99.8439C69.068 99.6398 68.4221 99.4357 67.8103 99.2656C67.6743 99.2316 67.6063 99.0955 67.6403 98.9595C67.6743 98.8234 67.8103 98.7554 67.9462 98.7894C68.5921 98.9595 69.238 99.1636 69.8498 99.3677C69.9858 99.4017 70.0538 99.5378 69.9858 99.6739C69.9518 99.7759 69.8498 99.8439 69.7479 99.8439ZM57.5444 99.2316C57.4425 99.2316 57.3405 99.1636 57.3065 99.0615C57.2725 98.9255 57.3405 98.7894 57.4764 98.7554C58.1223 98.5853 58.8022 98.4492 59.448 98.3471C59.584 98.3131 59.72 98.4152 59.72 98.5513C59.754 98.6873 59.652 98.8234 59.516 98.8234C58.8702 98.9254 58.2243 99.0615 57.5784 99.1976C57.5784 99.2316 57.5784 99.2316 57.5444 99.2316ZM64.6829 98.6873C64.0031 98.6193 63.3572 98.5853 62.7113 98.5853C62.5754 98.5853 62.4734 98.4832 62.4734 98.3471C62.4734 98.2111 62.5754 98.109 62.7113 98.109C63.3912 98.109 64.0371 98.143 64.7169 98.2111C64.8529 98.2111 64.9549 98.3471 64.9209 98.4832C64.9209 98.6193 64.8189 98.6873 64.6829 98.6873Z" fill="#91B3FA"/>
<path d="M83.3454 124.031H83.3114C83.1754 123.997 83.1074 123.861 83.1074 123.759C83.1754 123.453 83.2434 123.113 83.2774 122.807C83.3114 122.671 83.4134 122.569 83.5493 122.603C83.6853 122.637 83.7873 122.739 83.7533 122.875C83.6853 123.181 83.6513 123.521 83.5833 123.861C83.5493 123.963 83.4474 124.031 83.3454 124.031Z" fill="#91B3FA"/>
<path d="M73.8267 137.706C73.7587 137.706 73.6568 137.672 73.6228 137.604C73.5548 137.502 73.5888 137.332 73.6908 137.264C73.9627 137.093 74.2347 136.923 74.5066 136.719C74.6086 136.651 74.7785 136.685 74.8465 136.787C74.9145 136.889 74.8805 137.059 74.7785 137.127C74.5066 137.298 74.2346 137.502 73.9627 137.672C73.8947 137.672 73.8607 137.706 73.8267 137.706Z" fill="#91B3FA"/>
<path d="M64.1731 140.836C64.0371 140.836 63.9352 140.734 63.9352 140.598C63.9352 140.462 64.0371 140.36 64.1731 140.326C64.819 140.292 65.4648 140.19 66.0767 140.088C66.2127 140.054 66.3486 140.156 66.3486 140.292C66.3826 140.428 66.2807 140.564 66.1447 140.564C65.4988 140.7 64.853 140.802 64.1731 140.836ZM61.0118 140.836C61.0118 140.836 60.9778 140.836 61.0118 140.836C60.3319 140.768 59.686 140.7 59.0402 140.598C58.9042 140.564 58.8022 140.462 58.8362 140.326C58.8702 140.19 58.9722 140.088 59.1082 140.122C59.754 140.224 60.3999 140.326 61.0118 140.36C61.1477 140.36 61.2497 140.496 61.2497 140.632C61.2497 140.734 61.1137 140.836 61.0118 140.836ZM69.1701 139.85C69.0681 139.85 68.9661 139.782 68.9321 139.68C68.8981 139.543 68.9661 139.407 69.1021 139.373C69.238 139.339 69.34 139.305 69.476 139.237C69.9519 139.067 70.4278 138.897 70.9037 138.693C71.0397 138.625 71.1756 138.693 71.2096 138.829C71.2776 138.965 71.2096 139.101 71.0737 139.135C70.5978 139.339 70.0879 139.543 69.612 139.714C69.476 139.748 69.374 139.816 69.238 139.85C69.238 139.85 69.204 139.85 69.1701 139.85ZM55.9808 139.816C55.9468 139.816 55.9128 139.816 55.9128 139.816C55.301 139.611 54.6551 139.373 54.0772 139.101C53.9412 139.033 53.9073 138.897 53.9412 138.795C54.0092 138.659 54.1452 138.625 54.2472 138.659C54.8251 138.931 55.4369 139.135 56.0488 139.339C56.1848 139.373 56.2528 139.509 56.2188 139.645C56.1848 139.748 56.0828 139.816 55.9808 139.816ZM51.3578 137.638C51.3238 137.638 51.2558 137.638 51.2218 137.604C50.6779 137.264 50.134 136.89 49.5902 136.482C49.4882 136.414 49.4542 136.244 49.5562 136.142C49.6242 136.04 49.7941 136.006 49.8961 136.108C50.406 136.482 50.9499 136.856 51.4938 137.196C51.5957 137.264 51.6297 137.434 51.5617 137.536C51.5278 137.604 51.4598 137.638 51.3578 137.638ZM47.4146 134.407C47.3466 134.407 47.2786 134.373 47.2447 134.339C46.8027 133.862 46.3608 133.352 45.9529 132.842C45.8849 132.74 45.8849 132.57 45.9869 132.502C46.0889 132.434 46.2589 132.434 46.3268 132.536C46.7348 133.046 47.1427 133.522 47.5846 133.998C47.6866 134.101 47.6866 134.237 47.5846 134.339C47.5166 134.373 47.4826 134.407 47.4146 134.407ZM44.3553 130.324C44.2873 130.324 44.1853 130.29 44.1513 130.188C43.8114 129.61 43.5054 129.032 43.2335 128.419C43.1655 128.283 43.2335 128.147 43.3695 128.079C43.5054 128.011 43.6414 128.079 43.7094 128.215C43.9813 128.794 44.2873 129.372 44.5932 129.916C44.6612 130.018 44.6272 130.188 44.4912 130.256C44.4232 130.324 44.3893 130.324 44.3553 130.324ZM42.3497 125.596C42.2477 125.596 42.1457 125.528 42.1117 125.426C41.9418 124.78 41.7718 124.133 41.6358 123.521C41.6018 123.385 41.7038 123.249 41.8398 123.249C41.9758 123.215 42.1117 123.317 42.1117 123.453C42.2477 124.065 42.3837 124.711 42.5536 125.324C42.5876 125.46 42.5196 125.596 42.3837 125.63C42.3837 125.596 42.3497 125.596 42.3497 125.596ZM41.5338 120.561C41.3979 120.561 41.2959 120.459 41.2959 120.323C41.2959 120.051 41.2959 119.779 41.2959 119.507C41.2959 119.132 41.2959 118.724 41.3299 118.35C41.3299 118.214 41.4659 118.112 41.6018 118.112C41.7378 118.112 41.8398 118.248 41.8398 118.384C41.8058 118.758 41.8058 119.132 41.8058 119.507C41.8058 119.779 41.8058 120.051 41.8058 120.323C41.7718 120.459 41.6698 120.561 41.5338 120.561Z" fill="#91B3FA"/>
<path d="M41.9416 115.459H41.9076C41.7716 115.425 41.7036 115.289 41.7036 115.187C41.7716 114.881 41.8396 114.54 41.9416 114.234C41.9756 114.098 42.1115 114.03 42.2475 114.064C42.3835 114.098 42.4515 114.234 42.4175 114.37C42.3495 114.676 42.2475 114.983 42.2135 115.323C42.1795 115.391 42.0775 115.459 41.9416 115.459Z" fill="#91B3FA"/>
<path d="M47.5506 113.518C47.5166 113.62 47.5166 113.722 47.5845 113.825L49.6921 116.07C49.3182 117.464 49.1822 118.927 49.2842 120.424L46.8027 122.261C46.7007 122.329 46.6667 122.431 46.7007 122.533L47.7885 126.071C47.8225 126.173 47.9245 126.241 48.0265 126.241L51.1198 126.343C51.8677 127.636 52.8195 128.759 53.9072 129.677L53.4313 132.739C53.4313 132.841 53.4653 132.943 53.5673 133.011L56.8306 134.746C56.9326 134.78 57.0346 134.78 57.1365 134.712L59.3801 132.603C60.7738 132.977 62.2355 133.113 63.7312 133.011L65.5668 135.494C65.6348 135.596 65.7367 135.63 65.8387 135.596L69.374 134.508C69.476 134.474 69.5439 134.372 69.5439 134.269L69.6459 131.174C70.9376 130.425 72.0594 129.473 72.9772 128.384L76.0366 128.861C76.1386 128.861 76.2405 128.827 76.3085 128.725L78.0422 125.459C78.0761 125.357 78.0761 125.255 78.0082 125.153L75.9006 122.907C76.2745 121.513 76.4105 120.05 76.3085 118.553L78.79 116.716C78.892 116.648 78.926 116.546 78.892 116.444L77.8042 112.906C77.7702 112.804 77.6682 112.736 77.5663 112.736L74.4729 112.634C73.7251 111.341 72.7733 110.219 71.6855 109.3L72.1614 106.238C72.1614 106.136 72.1274 106.034 72.0254 105.966L68.7621 104.231C68.6601 104.197 68.5581 104.197 68.4562 104.265L66.2126 106.375C64.8189 106 63.3572 105.864 61.8616 105.966L60.0259 103.483C59.958 103.381 59.856 103.347 59.754 103.381L56.2187 104.47C56.1168 104.504 56.0488 104.606 56.0488 104.708L55.9468 107.803C54.6551 108.552 53.5333 109.504 52.6155 110.593L49.5561 110.117C49.4542 110.117 49.3522 110.151 49.2842 110.253L47.5506 113.518Z" fill="#91B3FA"/>
<path d="M62.813 123.111C62.541 123.111 62.2351 123.077 61.9632 123.009C61.0114 122.771 60.1955 122.192 59.7196 121.376C59.2097 120.56 59.0398 119.573 59.2777 118.621C59.5157 117.668 60.0936 116.852 60.9094 116.375C61.7252 115.865 62.711 115.695 63.6628 115.933C64.6146 116.171 65.4304 116.75 65.9063 117.566C66.4162 118.382 66.5862 119.369 66.3482 120.321C66.1103 121.274 65.5324 122.09 64.7166 122.567C64.1387 122.907 63.4588 123.111 62.813 123.111ZM62.779 116.511C62.2351 116.511 61.7252 116.647 61.2493 116.954C60.5695 117.362 60.1275 118.008 59.9236 118.757C59.7536 119.505 59.8556 120.287 60.2635 120.968C60.6714 121.648 61.3173 122.09 62.0651 122.295C62.813 122.465 63.5948 122.363 64.2747 121.954C64.9545 121.546 65.3964 120.9 65.6004 120.151C65.7703 119.403 65.6684 118.621 65.2605 117.94C64.8525 117.26 64.2067 116.818 63.4588 116.613C63.2549 116.545 63.0169 116.511 62.779 116.511Z" fill="#BDD0FB"/>
<path d="M62.8471 128.793C61.3514 128.793 59.8898 128.419 58.53 127.739C56.3205 126.582 54.7228 124.643 53.975 122.262V122.228C53.805 121.649 53.6691 121.071 53.6011 120.493C53.6011 120.459 53.6011 120.459 53.6011 120.425C53.6011 120.391 53.6011 120.357 53.6011 120.323L54.3149 120.255C54.3829 120.867 54.4849 121.445 54.6548 122.058C55.3347 124.235 56.8304 126.038 58.836 127.092C60.8755 128.147 63.1871 128.385 65.3626 127.705C67.5381 127.024 69.3398 125.528 70.3935 123.52C71.0394 122.262 71.3793 120.901 71.3793 119.54C71.3793 118.69 71.2434 117.839 70.9714 116.989C70.2916 114.812 68.7959 113.009 66.7903 111.954C64.7507 110.9 62.4392 110.662 60.2637 111.342C58.768 111.818 57.4423 112.669 56.4225 113.825L55.8786 113.349C57.0004 112.09 58.4281 111.172 60.0597 110.662C62.4392 109.913 64.9547 110.151 67.1302 111.308C69.3398 112.465 70.9374 114.404 71.6853 116.785C71.9572 117.703 72.0932 118.622 72.0932 119.574C72.0932 121.071 71.7193 122.534 71.0054 123.895C69.8497 126.106 67.9121 127.705 65.5326 128.453C64.7167 128.657 63.7989 128.793 62.8471 128.793Z" fill="#BDD0FB"/>
<path d="M34.9052 91.6117C34.8372 91.6117 34.7692 91.5777 34.7012 91.5096C34.5992 91.4076 34.6332 91.2375 34.7352 91.1695C35.0072 90.9653 35.2451 90.7612 35.5171 90.5571C35.619 90.4891 35.789 90.5231 35.857 90.6252C35.925 90.7272 35.891 90.8973 35.789 90.9653C35.5171 91.1354 35.2791 91.3396 35.0412 91.5437C35.0072 91.5777 34.9392 91.6117 34.9052 91.6117Z" fill="#91B3FA"/>
<path d="M52.4454 97.9043C52.3434 97.9043 52.2414 97.8362 52.2074 97.7002C52.1054 97.2239 51.9695 96.7136 51.8335 96.2714C51.7655 96.1013 51.7315 95.9652 51.6635 95.7952C51.6295 95.6591 51.6635 95.523 51.7995 95.489C51.9355 95.455 52.0714 95.489 52.1054 95.6251C52.1734 95.7952 52.2414 95.9652 52.2754 96.1013C52.4454 96.6116 52.5813 97.0878 52.6833 97.5981C52.7173 97.7342 52.6153 97.8703 52.4794 97.8703C52.4794 97.9043 52.4454 97.9043 52.4454 97.9043ZM50.2018 93.1077C50.1339 93.1077 50.0659 93.0737 49.9979 93.0057C49.59 92.4954 49.1141 92.0191 48.6042 91.5769C48.5022 91.4748 48.5022 91.3388 48.5702 91.2367C48.6722 91.1347 48.8081 91.1347 48.9101 91.2027C49.454 91.6449 49.9299 92.1552 50.3718 92.6995C50.4738 92.8015 50.4398 92.9716 50.3378 93.0397C50.3038 93.0737 50.2358 93.1077 50.2018 93.1077ZM45.9187 89.944C45.8847 89.944 45.8507 89.944 45.8168 89.91C45.2049 89.6719 44.559 89.4678 43.9132 89.3317C43.7772 89.2977 43.7092 89.1616 43.7092 89.0595C43.7432 88.9235 43.8792 88.8554 43.9811 88.8554C44.661 88.9915 45.3409 89.1956 45.9867 89.4678C46.1227 89.5358 46.1567 89.6719 46.1227 89.7739C46.0887 89.876 46.0207 89.944 45.9187 89.944ZM38.6783 89.6038C38.5763 89.6038 38.4743 89.5358 38.4403 89.4337C38.4063 89.2977 38.4743 89.1616 38.6103 89.1276C39.2901 88.9235 39.97 88.7874 40.6498 88.7194C40.7858 88.7194 40.8878 88.7874 40.9218 88.9235C40.9218 89.0595 40.8538 89.1616 40.7178 89.1956C40.072 89.2637 39.3921 89.3997 38.7462 89.6038C38.7122 89.6038 38.6783 89.6038 38.6783 89.6038Z" fill="#91B3FA"/>
<path d="M52.4118 102.191H52.3778C52.2418 102.156 52.1738 102.02 52.1738 101.918C52.2418 101.612 52.2758 101.306 52.3098 100.966C52.3098 100.83 52.4458 100.728 52.5817 100.762C52.7177 100.762 52.8197 100.898 52.7857 101.034C52.7517 101.374 52.6837 101.68 52.6157 102.02C52.6497 102.122 52.5478 102.191 52.4118 102.191Z" fill="#91B3FA"/>
<path d="M47.109 109.436C47.0071 109.436 46.9391 109.401 46.9051 109.299C46.8371 109.197 46.8711 109.027 47.0071 108.959C47.279 108.789 47.551 108.619 47.8229 108.449C47.9249 108.381 48.0948 108.415 48.1628 108.517C48.2308 108.619 48.1968 108.789 48.0948 108.857C47.8229 109.061 47.551 109.231 47.245 109.402C47.211 109.436 47.177 109.436 47.109 109.436Z" fill="#91B3FA"/>
<path d="M42.0779 110.865C41.9419 110.865 41.8399 110.763 41.8399 110.627C41.8399 110.491 41.9419 110.389 42.0779 110.389C42.7237 110.355 43.3696 110.287 44.0155 110.15C44.1514 110.116 44.2874 110.219 44.3214 110.321C44.3554 110.457 44.2534 110.593 44.1514 110.627C43.4716 110.763 42.7917 110.831 42.0779 110.865ZM38.8485 110.457C38.8146 110.457 38.8146 110.457 38.7806 110.457C38.1347 110.287 37.4888 110.014 36.877 109.708C36.741 109.64 36.707 109.504 36.775 109.368C36.843 109.232 36.9789 109.198 37.1149 109.266C37.6928 109.572 38.3047 109.776 38.9505 109.98C39.0865 110.014 39.1545 110.15 39.1205 110.287C39.0865 110.389 38.9845 110.457 38.8485 110.457ZM34.3275 107.871C34.2595 107.871 34.1915 107.837 34.1575 107.803C33.6476 107.327 33.2057 106.817 32.7978 106.272C32.7298 106.17 32.7298 106 32.8658 105.932C32.9678 105.864 33.1377 105.864 33.2057 106C33.5796 106.545 34.0216 107.021 34.4975 107.463C34.5994 107.565 34.5994 107.701 34.4975 107.803C34.4635 107.837 34.3955 107.871 34.3275 107.871ZM31.5061 103.483C31.4041 103.483 31.3021 103.415 31.2681 103.313C31.0642 102.666 30.8942 101.986 30.7922 101.306C30.7582 101.17 30.8602 101.034 30.9962 101.034C31.1322 101 31.2681 101.102 31.2681 101.238C31.3701 101.884 31.5061 102.53 31.71 103.143C31.744 103.279 31.676 103.415 31.5741 103.449C31.5741 103.483 31.5401 103.483 31.5061 103.483Z" fill="#91B3FA"/>
<path d="M31.0639 98.2442H31.0299C30.8939 98.2102 30.7919 98.1081 30.8259 97.972C30.8939 97.6319 30.9619 97.3257 31.0299 96.9855C31.0639 96.8494 31.1998 96.7814 31.3358 96.8154C31.4718 96.8494 31.5398 96.9855 31.5058 97.1216C31.4378 97.4278 31.3698 97.7339 31.3018 98.0401C31.3018 98.1762 31.1998 98.2442 31.0639 98.2442Z" fill="#91B3FA"/>
<path d="M34.0553 96.6801C34.0213 96.7141 34.0213 96.7822 34.0893 96.8162L35.1771 97.9728C35.0071 98.6872 34.9051 99.4356 34.9731 100.218L33.6814 101.171C33.6474 101.205 33.6134 101.273 33.6474 101.307L34.2253 103.11C34.2253 103.178 34.2932 103.212 34.3612 103.212L35.9589 103.246C36.3328 103.892 36.8427 104.47 37.3866 104.981L37.1486 106.545C37.1486 106.613 37.1826 106.647 37.2166 106.681L38.9163 107.566C38.9503 107.6 39.0183 107.6 39.0522 107.532L40.208 106.443C40.9219 106.613 41.6697 106.716 42.4515 106.647L43.4033 107.94C43.4373 107.974 43.5053 108.008 43.5393 107.974L45.3409 107.396C45.4089 107.396 45.4429 107.328 45.4429 107.26L45.4769 105.661C46.1228 105.287 46.7006 104.776 47.2105 104.232L48.7742 104.47C48.8422 104.47 48.8762 104.436 48.9102 104.402L49.794 102.701C49.828 102.667 49.828 102.599 49.76 102.565L48.6722 101.409C48.8422 100.694 48.9442 99.9459 48.8762 99.1634L50.1679 98.2109C50.2019 98.1769 50.2359 98.1089 50.2019 98.0749L49.624 96.2719C49.624 96.2039 49.556 96.1698 49.4881 96.1698L47.8904 96.1358C47.5165 95.4895 47.0066 94.9112 46.4627 94.4009L46.7006 92.836C46.7006 92.768 46.6667 92.734 46.6327 92.7L44.933 91.8155C44.899 91.7815 44.831 91.7815 44.797 91.8495L43.6413 92.9381C42.9274 92.768 42.1796 92.666 41.3978 92.734L40.446 91.4413C40.412 91.4073 40.344 91.3733 40.31 91.4073L38.5084 91.9856C38.4404 91.9856 38.4064 92.0536 38.4064 92.1217L38.3724 93.7205C37.7265 94.0947 37.1486 94.605 36.6388 95.1493L35.0751 94.9112C35.0071 94.9112 34.9731 94.9452 34.9391 94.9792L34.0553 96.6801Z" fill="#91B3FA"/>
<path d="M41.8737 101.783C41.1938 101.783 40.5139 101.443 40.106 100.796C39.8341 100.32 39.7321 99.7759 39.8681 99.2316C40.004 98.6873 40.31 98.2451 40.7859 97.9729C41.2618 97.7008 41.8057 97.5987 42.3496 97.7348C42.8934 97.8709 43.3353 98.1771 43.6073 98.6533C44.1852 99.6058 43.8792 100.899 42.9274 101.477C42.6215 101.681 42.2476 101.783 41.8737 101.783ZM41.8737 98.3812C41.6357 98.3812 41.3977 98.4492 41.1938 98.5853C40.8879 98.7554 40.6839 99.0615 40.5819 99.4017C40.5139 99.7419 40.5479 100.116 40.7519 100.388C41.1258 101.001 41.9416 101.205 42.5535 100.83C43.1654 100.456 43.3693 99.6398 42.9954 99.0275C42.8255 98.7213 42.5195 98.5172 42.1796 98.4152C42.0776 98.4152 41.9756 98.3812 41.8737 98.3812Z" fill="#BDD0FB"/>
<path d="M41.9075 104.709C41.1256 104.709 40.3438 104.504 39.596 104.13C38.4402 103.518 37.5564 102.463 37.1825 101.205C37.0805 100.865 37.0125 100.524 36.9785 100.184L37.6924 100.116C37.7264 100.422 37.7943 100.694 37.8623 101.001C38.2023 102.089 38.9161 102.974 39.9359 103.484C40.9217 103.994 42.0774 104.096 43.1652 103.79C44.9668 103.212 46.1226 101.545 46.1226 99.7419C46.1226 99.3337 46.0546 98.8914 45.9186 98.4832C45.2388 96.272 42.8593 95.0134 40.6158 95.6937C39.8679 95.9319 39.222 96.3401 38.7122 96.9184L38.1683 96.4421C38.7801 95.7618 39.528 95.2855 40.3778 95.0134C42.9953 94.1969 45.7827 95.6597 46.5645 98.2791C46.7005 98.7554 46.8025 99.2657 46.8025 99.7419C46.8025 101.851 45.4427 103.824 43.3352 104.47C42.8933 104.607 42.3834 104.709 41.9075 104.709Z" fill="#BDD0FB"/>
</g>
<defs>
<linearGradient id="paint0_linear_2_1749" x1="95.5312" y1="15.4318" x2="46.3678" y2="88.2408" gradientUnits="userSpaceOnUse">
<stop stop-color="#FF928E"/>
<stop offset="1" stop-color="#FE7062"/>
</linearGradient>
<linearGradient id="paint1_linear_2_1749" x1="31.3953" y1="77.2964" x2="24.6355" y2="97.7178" gradientUnits="userSpaceOnUse">
<stop stop-color="#FEBBBA"/>
<stop offset="1" stop-color="#FF928E"/>
</linearGradient>
<linearGradient id="paint2_linear_2_1749" x1="36.151" y1="85.4778" x2="31.6979" y2="98.9307" gradientUnits="userSpaceOnUse">
<stop stop-color="#FEBBBA"/>
<stop offset="1" stop-color="#FF928E"/>
</linearGradient>
<linearGradient id="paint3_linear_2_1749" x1="43.2957" y1="78.1362" x2="38.8425" y2="91.5891" gradientUnits="userSpaceOnUse">
<stop stop-color="#FEBBBA"/>
<stop offset="1" stop-color="#FF928E"/>
</linearGradient>
<linearGradient id="paint4_linear_2_1749" x1="50.5069" y1="85.7125" x2="46.0538" y2="99.1653" gradientUnits="userSpaceOnUse">
<stop stop-color="#FEBBBA"/>
<stop offset="1" stop-color="#FF928E"/>
</linearGradient>
<linearGradient id="paint5_linear_2_1749" x1="61.0056" y1="74.4246" x2="56.5525" y2="87.8774" gradientUnits="userSpaceOnUse">
<stop stop-color="#FEBBBA"/>
<stop offset="1" stop-color="#FF928E"/>
</linearGradient>
<linearGradient id="paint6_linear_2_1749" x1="68.4685" y1="81.9567" x2="64.0155" y2="95.4094" gradientUnits="userSpaceOnUse">
<stop stop-color="#4F52FF"/>
<stop offset="1" stop-color="#4042E2"/>
</linearGradient>
<linearGradient id="paint7_linear_2_1749" x1="135.969" y1="70.1896" x2="150.413" y2="70.1896" gradientUnits="userSpaceOnUse">
<stop stop-color="#DAE3FE"/>
<stop offset="1" stop-color="#E9EFFD"/>
</linearGradient>
<linearGradient id="paint8_linear_2_1749" x1="135.937" y1="46.9586" x2="150.382" y2="46.9586" gradientUnits="userSpaceOnUse">
<stop stop-color="#DAE3FE"/>
<stop offset="1" stop-color="#E9EFFD"/>
</linearGradient>
<linearGradient id="paint9_linear_2_1749" x1="151.571" y1="85.6957" x2="129.202" y2="106.909" gradientUnits="userSpaceOnUse">
<stop stop-color="#FDF53F"/>
<stop offset="1" stop-color="#D93C65"/>
</linearGradient>
<clipPath id="clip0_2_1749">
<rect width="175" height="149" fill="white"/>
</clipPath>
</defs>
</svg>
