<svg width="110" height="89" viewBox="0 0 110 89" fill="none" xmlns="http://www.w3.org/2000/svg">
<path d="M1.22735 30.4581C2.50234 32.8821 4.52702 34.9216 6.08793 37.1877C10.5978 43.7343 5.90507 51.4022 7.96467 58.4625C9.75829 64.6146 17.217 66.263 22.6694 66.5198C31.8569 66.9412 41.0345 66.31 49.8929 63.6326C56.0434 61.7744 62.194 59.3404 68.6769 59.1944C75.2996 59.0433 81.5299 61.902 87.9297 63.2533C94.9563 64.7372 103.359 63.1257 105.051 54.6923C106.1 49.4685 103.276 44.6575 103.012 39.5126C102.661 32.7024 108.978 28.9658 109.796 22.6005C110.311 18.587 108.386 14.9997 105.874 12.0974C103.225 9.03394 99.6589 6.32633 95.568 6.07454C91.2942 5.811 87.4792 8.22317 83.4831 9.3747C72.2559 12.6111 65.8843 1.82092 55.5564 0.310169C50.9019 -0.361278 45.1703 -0.045698 40.9398 2.28422C37.0051 4.45132 35.0968 9.26727 30.6834 10.6773C26.0123 12.1746 21.7385 9.18334 17.3002 8.22653C12.7039 7.23782 8.36029 8.99365 5.48617 12.8427C2.69849 16.5743 -0.318587 21.491 0.0271719 26.4194C0.138601 27.8364 0.547745 29.2132 1.22735 30.4581V30.4581Z" fill="#F6F9FD"/>
<path d="M25.5786 27.8945V63.4443C25.5786 66.0596 27.8543 68.1797 30.6603 68.1797H89.7651C92.5711 68.1797 94.8468 66.0596 94.8468 63.4443V27.8945H25.5786Z" fill="#7494E5"/>
<path d="M77.5652 17.3095L62.5413 8.12912C61.8421 7.69232 61.0362 7.46094 60.2141 7.46094C59.3919 7.46094 58.586 7.69232 57.8868 8.12912L42.8629 17.3061L25.5068 27.9066L42.8596 38.4819L60.2124 49.0571L77.5652 38.4718L94.9179 27.9066L77.5652 17.3095Z" fill="#5579C4"/>
<g style="mix-blend-mode:soft-light">
<g style="mix-blend-mode:soft-light">
<path d="M26.93 88.6342C26.9063 88.6345 26.8832 88.6278 26.8632 88.615C26.8433 88.6022 26.8276 88.5837 26.8179 88.562C26.8081 88.5403 26.8049 88.5161 26.8086 88.4926C26.8123 88.469 26.8227 88.4471 26.8385 88.4294L48.4817 63.841C48.4926 63.829 48.5058 63.8193 48.5204 63.8124C48.5351 63.8055 48.5509 63.8016 48.567 63.8009C48.5832 63.8002 48.5993 63.8027 48.6144 63.8083C48.6296 63.8139 48.6435 63.8224 48.6554 63.8334C48.6673 63.8445 48.677 63.8577 48.6838 63.8725C48.6906 63.8873 48.6945 63.9033 48.6951 63.9196C48.6958 63.9359 48.6934 63.9521 48.6878 63.9675C48.6823 63.9828 48.6738 63.9968 48.6629 64.0089L27.028 88.5989C27.0153 88.6118 26.9999 88.6216 26.9829 88.6277C26.966 88.6338 26.9479 88.636 26.93 88.6342Z" fill="white"/>
</g>
<g style="mix-blend-mode:soft-light">
<path d="M93.4884 66.6342C93.4711 66.6342 93.454 66.6304 93.4382 66.6232C93.4224 66.6159 93.4084 66.6054 93.397 66.5922L71.7555 42.0089C71.7446 41.9968 71.7361 41.9828 71.7306 41.9675C71.7251 41.9521 71.7226 41.9359 71.7233 41.9196C71.724 41.9033 71.7278 41.8873 71.7346 41.8725C71.7414 41.8577 71.7511 41.8445 71.763 41.8334C71.7749 41.8224 71.7888 41.8139 71.804 41.8083C71.8191 41.8027 71.8353 41.8002 71.8514 41.8009C71.8675 41.8016 71.8833 41.8055 71.898 41.8124C71.9126 41.8193 71.9258 41.829 71.9367 41.841L93.5799 66.4294C93.5957 66.447 93.6061 66.469 93.6098 66.4926C93.6135 66.5161 93.6103 66.5403 93.6006 66.562C93.5908 66.5837 93.5751 66.6021 93.5552 66.615C93.5352 66.6278 93.5121 66.6345 93.4884 66.6342Z" fill="white"/>
</g>
</g>
<path d="M81.7594 10.6953H33.275C32.8578 10.7058 32.4611 10.8802 32.1693 11.1815C31.8775 11.4827 31.7136 11.8871 31.7124 12.3085V52.0413H88.7144V17.8294L81.7594 10.6953Z" fill="#5653E5"/>
<path d="M88.6879 17.8315L82.3263 17.8869C82.2473 17.8876 82.169 17.8716 82.0965 17.8398C82.0241 17.8079 81.9591 17.7611 81.9057 17.7023C81.8545 17.6397 81.8164 17.5672 81.7938 17.4893C81.7713 17.4114 81.7646 17.3296 81.7744 17.2491V10.7461L88.6879 17.8315Z" fill="#91B3FA"/>
<path d="M72.7878 29.3851C72.8045 30.784 72.5644 32.1738 72.0796 33.4843C71.6075 34.7243 70.9426 35.6967 70.0849 36.4018C69.238 37.1013 68.1734 37.4759 67.0794 37.4593C66.3684 37.4728 65.6684 37.2812 65.0614 36.907C64.5003 36.5668 64.0586 36.0579 63.798 35.4517H63.552C63.0465 36.0937 62.4013 36.6094 61.6665 36.9587C60.9316 37.3081 60.1269 37.4816 59.3148 37.466C57.4962 37.466 56.0633 36.9137 55.0161 35.8092C53.9688 34.7047 53.4452 33.1939 53.4452 31.2769C53.4452 29.088 54.1334 27.3244 55.5098 25.9859C56.8862 24.6475 58.6837 23.9761 60.9023 23.9716C61.881 23.9798 62.8576 24.0656 63.823 24.2284C64.7139 24.3586 65.5925 24.5641 66.4494 24.8428L66.0953 32.452C66.0953 33.8933 66.4832 34.614 67.2589 34.614C67.9161 34.614 68.4397 34.1289 68.8298 33.1587C69.2199 32.1884 69.415 30.9205 69.415 29.3549C69.415 27.6853 69.0709 26.2098 68.3827 24.9284C67.7265 23.6799 66.715 22.6584 65.4786 21.9959C64.1588 21.3058 62.6891 20.9596 61.2032 20.9887C59.1286 20.9887 57.3261 21.419 55.7957 22.2796C54.274 23.1311 53.0458 24.4312 52.275 26.0061C51.4582 27.6299 51.0498 29.5049 51.0498 31.6311C51.0498 34.4937 51.8073 36.6905 53.3222 38.2214C54.8371 39.7523 57.033 40.5172 59.9099 40.516C61.1154 40.5027 62.3173 40.3786 63.5005 40.1451C64.8116 39.8994 66.1 39.5428 67.352 39.0792V42.0671C65.1534 43.0105 62.7153 43.4822 60.0379 43.4822C56.1348 43.4822 53.0917 42.4448 50.9085 40.37C48.7254 38.2952 47.631 35.4114 47.6255 31.7184C47.6255 29.1557 48.1829 26.8297 49.2978 24.7404C50.3875 22.6762 52.0395 20.9702 54.0586 19.8237C56.1176 18.6364 58.4881 18.0427 61.1699 18.0427C63.4296 18.0427 65.4481 18.5094 67.2257 19.4427C68.9564 20.3312 70.388 21.7173 71.3399 23.426C72.3052 25.1494 72.7878 27.1358 72.7878 29.3851ZM57.0175 31.3307C57.0175 33.5196 57.9007 34.614 59.6672 34.614C60.5915 34.614 61.2952 34.2845 61.7783 33.6253C62.2615 32.9662 62.5541 31.8952 62.656 30.4125L62.8555 26.9746C62.2723 26.8558 61.6784 26.7995 61.0835 26.8068C59.7991 26.8068 58.8017 27.2113 58.0913 28.0204C57.381 28.8295 57.023 29.9329 57.0175 31.3307Z" fill="white"/>
<path d="M90.9119 47.6134V53.5053C90.9119 53.9854 90.6227 54.3749 90.2653 54.3749H69.0061C68.7085 54.3749 68.4509 54.6468 68.3777 55.0329L67.9887 57.0858C67.9389 57.3578 67.6563 57.3813 67.5831 57.1177L67.0844 55.3837C66.988 55.048 66.752 54.8231 66.4794 54.8231H65.5651C65.2077 54.8231 64.9185 54.4336 64.9185 53.9535V47.8971C64.9185 47.4204 65.2044 47.0309 65.5601 47.0276L90.2453 46.7422C90.6193 46.7389 90.9119 47.13 90.9119 47.6134Z" fill="#BDD0FB"/>
<path d="M68.2229 53.2997C69.6633 53.2997 70.8311 52.0897 70.8311 50.5971C70.8311 49.1045 69.6633 47.8945 68.2229 47.8945C66.7825 47.8945 65.6147 49.1045 65.6147 50.5971C65.6147 52.0897 66.7825 53.2997 68.2229 53.2997Z" fill="#7D97F4"/>
<path d="M69.1674 49.5012C69.1674 49.9864 68.7784 50.5084 68.2964 50.5084C67.8143 50.5084 67.4253 49.9847 67.4253 49.5012C67.4419 49.2797 67.5408 49.0726 67.7022 48.9215C67.8636 48.7705 68.0755 48.6865 68.2955 48.6865C68.5156 48.6865 68.7275 48.7705 68.8889 48.9215C69.0502 49.0726 69.1491 49.2797 69.1657 49.5012H69.1674Z" fill="url(#paint0_linear_2_1026)"/>
<path d="M67.2162 52.3792H69.3406C69.4497 52.3794 69.556 52.3445 69.6442 52.2797C69.7324 52.2148 69.7978 52.1232 69.831 52.0183L69.9457 51.6574C69.9865 51.53 69.9769 51.3915 69.919 51.2711C69.861 51.1506 69.7592 51.0575 69.6348 51.0111C68.7704 50.6922 67.8761 50.7324 66.9602 51.0413C66.8356 51.083 66.7317 51.1714 66.6699 51.2882C66.608 51.405 66.5929 51.5414 66.6277 51.6691L66.7158 52.0048C66.7471 52.114 66.813 52.2097 66.9034 52.2773C66.9938 52.3449 67.1037 52.3807 67.2162 52.3792Z" fill="url(#paint1_linear_2_1026)"/>
<path d="M88.882 51.3011C88.8773 51.438 88.8193 51.5676 88.7207 51.6619C88.6221 51.7561 88.4908 51.8074 88.3551 51.8046H72.8375C72.7018 51.8074 72.5704 51.7561 72.4719 51.6619C72.3733 51.5676 72.3153 51.438 72.3105 51.3011V51.3011C72.3153 51.1641 72.3733 51.0345 72.4719 50.9402C72.5704 50.846 72.7018 50.7947 72.8375 50.7975H88.3551C88.4908 50.7947 88.6221 50.846 88.7207 50.9402C88.8193 51.0345 88.8773 51.1641 88.882 51.3011V51.3011Z" fill="url(#paint2_linear_2_1026)"/>
<path d="M81.5347 52.9415C81.5347 53.0649 81.4862 53.1831 81.3999 53.2703C81.3135 53.3575 81.1964 53.4065 81.0743 53.4065H72.939C72.8169 53.4065 72.6997 53.3575 72.6134 53.2703C72.527 53.1831 72.4785 53.0649 72.4785 52.9415V52.9415C72.4785 52.8182 72.527 52.7 72.6134 52.6128C72.6997 52.5256 72.8169 52.4766 72.939 52.4766H81.0743C81.1964 52.4766 81.3135 52.5256 81.3999 52.6128C81.4862 52.7 81.5347 52.8182 81.5347 52.9415V52.9415Z" fill="url(#paint3_linear_2_1026)"/>
<path d="M88.8906 52.9415C88.8906 53.064 88.8428 53.1815 88.7575 53.2686C88.6722 53.3556 88.5564 53.4052 88.4351 53.4065H82.5606C82.4384 53.4065 82.3213 53.3575 82.235 53.2703C82.1486 53.1831 82.1001 53.0649 82.1001 52.9415V52.9415C82.1001 52.8182 82.1486 52.7 82.235 52.6128C82.3213 52.5256 82.4384 52.4766 82.5606 52.4766H88.4351C88.5572 52.4766 88.6743 52.5256 88.7607 52.6128C88.8471 52.7 88.8956 52.8182 88.8956 52.9415H88.8906Z" fill="url(#paint4_linear_2_1026)"/>
<path d="M80.7487 48.1182H72.9126C72.5563 48.1182 72.2676 48.4098 72.2676 48.7695V48.8249C72.2676 49.1846 72.5563 49.4762 72.9126 49.4762H80.7487C81.1049 49.4762 81.3937 49.1846 81.3937 48.8249V48.7695C81.3937 48.4098 81.1049 48.1182 80.7487 48.1182Z" fill="#7D97F4"/>
<path d="M53.9588 11.2391C53.9489 21.1833 53.8741 55.4791 53.2856 67.6205C53.2224 68.9064 52.3265 69.9202 51.236 69.9387C45.8435 70.026 26.0787 70.1066 17.2751 69.4788C15.4466 69.3462 14.0204 67.5568 14.0303 65.3863C14.0752 54.9503 14.3146 25.6031 15.5696 12.1741C15.7192 10.566 16.818 9.30704 18.1828 9.17779C24.0656 8.61545 43.9485 7.3632 51.5435 8.11858C52.9133 8.25287 53.9605 9.60584 53.9588 11.2391Z" fill="#A2A7CE"/>
<path d="M51.4873 14.2267C51.602 22.2555 51.9312 48.9623 51.4242 58.8242C51.3494 60.2661 50.3619 61.4109 49.1401 61.468C44.1117 61.703 26.9617 62.0857 19.611 61.2246C18.2812 61.0702 17.2738 59.7793 17.2372 58.2031C17.0427 50.0114 16.5158 25.1343 17.0095 15.3849C17.0876 13.8289 18.1365 12.5817 19.4531 12.4709C24.8988 12.016 43.1342 11.0524 49.3845 11.5946C50.5581 11.7021 51.4674 12.8368 51.4873 14.2267Z" fill="#B0D7FB"/>
<path d="M34.2523 71.3743C41.2305 71.3743 46.8875 65.6618 46.8875 58.6151C46.8875 51.5684 41.2305 45.856 34.2523 45.856C27.2741 45.856 21.6172 51.5684 21.6172 58.6151C21.6172 65.6618 27.2741 71.3743 34.2523 71.3743Z" fill="#5653E5"/>
<path d="M42.0256 61.9428C41.9322 61.6073 41.7637 61.2979 41.5331 61.0386C41.3026 60.7793 41.0161 60.5769 40.6957 60.4472L39.7798 60.0963C39.4237 59.9517 39.0304 59.9298 38.6607 60.0339C38.2911 60.138 37.9657 60.3623 37.7352 60.6721L36.9256 61.7632C35.654 61.8001 34.1878 61.3217 32.8862 60.3381C31.6644 59.4148 30.8217 58.223 30.4576 57.0547C30.4554 57.0467 30.4557 57.0382 30.4585 57.0303C30.4613 57.0225 30.4664 57.0157 30.4731 57.011C30.4799 57.0062 30.4879 57.0036 30.4961 57.0036C30.5044 57.0036 30.5124 57.0062 30.5191 57.011L31.2489 56.0274C31.5122 55.6711 31.6514 55.2369 31.6447 54.7923C31.6381 54.3478 31.4861 53.918 31.2123 53.5699L30.6089 52.8027C30.3921 52.5272 30.1156 52.3056 29.8006 52.1549C29.4857 52.0043 29.1407 51.9287 28.7922 51.9338C28.4437 51.939 28.1011 52.0249 27.7907 52.1849C27.4803 52.3448 27.2103 52.5746 27.0017 52.8565C26.7826 53.1531 26.6203 53.4884 26.5229 53.8452C25.858 56.2355 27.7597 59.8496 31.2788 62.5085C34.7979 65.1674 38.7591 65.995 40.847 64.6739C41.1596 64.4781 41.4336 64.2254 41.6549 63.9286C41.864 63.6489 42.0063 63.3241 42.0706 62.9796C42.1349 62.6351 42.1195 62.2803 42.0256 61.9428V61.9428Z" fill="#FCFCFC"/>
<defs>
<linearGradient id="paint0_linear_2_1026" x1="67.427" y1="49.5902" x2="69.1674" y2="49.5902" gradientUnits="userSpaceOnUse">
<stop stop-color="#DAE3FE"/>
<stop offset="1" stop-color="#E9EFFD"/>
</linearGradient>
<linearGradient id="paint1_linear_2_1026" x1="1413.55" y1="539.24" x2="1481.41" y2="539.24" gradientUnits="userSpaceOnUse">
<stop stop-color="#DAE3FE"/>
<stop offset="1" stop-color="#E9EFFD"/>
</linearGradient>
<linearGradient id="paint2_linear_2_1026" x1="7280.91" y1="358.725" x2="8932.92" y2="358.725" gradientUnits="userSpaceOnUse">
<stop stop-color="#DAE3FE"/>
<stop offset="1" stop-color="#E9EFFD"/>
</linearGradient>
<linearGradient id="paint3_linear_2_1026" x1="4021.17" y1="345.813" x2="4514.46" y2="345.813" gradientUnits="userSpaceOnUse">
<stop stop-color="#DAE3FE"/>
<stop offset="1" stop-color="#E9EFFD"/>
</linearGradient>
<linearGradient id="paint4_linear_2_1026" x1="3438.32" y1="345.813" x2="3715.91" y2="345.813" gradientUnits="userSpaceOnUse">
<stop stop-color="#DAE3FE"/>
<stop offset="1" stop-color="#E9EFFD"/>
</linearGradient>
</defs>
</svg>
