<svg width="100" height="81" viewBox="0 0 100 81" fill="none" xmlns="http://www.w3.org/2000/svg">
<path d="M87.8004 70.4449C85.7618 72.0601 83.8343 73.1017 82.3098 73.924C64.3973 83.5941 43.2061 80.7767 38.6968 80.0875C32.0497 79.0713 19.1937 77.1056 9.89864 68.8805C-4.1646 56.4361 -1.97811 36.8298 8.92514 23.8881C10.9286 21.521 21.4639 8.38161 42.881 6.26709C55.8441 4.9925 70.9568 7.56321 81.9009 14.4628C104.881 28.9532 103.238 58.21 87.8004 70.4449Z" fill="#F6F9FD"/>
<path d="M78.8459 8.12547L40.042 9.00456C39.0112 9.02774 38.0287 9.44827 37.2974 10.1792C36.5662 10.9102 36.1421 11.8957 36.1129 12.9321L34.5242 69.5681C34.5127 69.968 34.5813 70.3662 34.7261 70.7389C34.8708 71.1115 35.0886 71.4511 35.3666 71.7374C35.6445 72.0237 35.9769 72.2508 36.344 72.4052C36.711 72.5596 37.1052 72.6381 37.5031 72.6361L81.9942 72.4403C82.3681 72.4386 82.7379 72.362 83.082 72.215C83.4261 72.068 83.7376 71.8535 83.9985 71.5842C84.2593 71.3148 84.4641 70.9959 84.601 70.646C84.738 70.2962 84.8042 69.9224 84.7959 69.5465L83.5129 12.611C83.4995 12.0083 83.3681 11.4141 83.1263 10.8625C82.8845 10.3108 82.5369 9.81247 82.1035 9.39592C81.6701 8.97937 81.1593 8.65277 80.6004 8.43478C80.0414 8.21679 79.4452 8.11168 78.8459 8.12547Z" fill="#7797E8"/>
<path d="M78.7314 8.31316C73.4491 9.15701 55.2777 11.806 40.1865 10.9876C40.0233 10.9787 39.86 11.0026 39.7061 11.058C39.5523 11.1134 39.411 11.1992 39.2905 11.3102C39.1701 11.4213 39.0729 11.5555 39.0048 11.7048C38.9366 11.8542 38.8988 12.0157 38.8936 12.18L37.1705 69.0725C37.1595 69.4477 37.2967 69.812 37.5521 70.0857C37.8076 70.3594 38.1604 70.5203 38.5334 70.533C44.8787 70.766 71.0056 71.6295 80.2909 70.4371C80.5637 70.4015 80.8139 70.266 80.9935 70.0564C81.1731 69.8469 81.2696 69.5781 81.2644 69.3015L80.2636 9.60732C80.2604 9.41662 80.2165 9.22883 80.1349 9.05665C80.0533 8.88446 79.9359 8.73189 79.7907 8.60922C79.6454 8.48655 79.4757 8.39664 79.293 8.34557C79.1102 8.29449 78.9187 8.28344 78.7314 8.31316Z" fill="#A5D0F9"/>
<path d="M78.1957 9.7985C73.112 10.611 55.6259 13.1622 41.1032 12.3731C40.9462 12.3644 40.789 12.3874 40.6409 12.4407C40.4928 12.494 40.3568 12.5765 40.2409 12.6834C40.125 12.7903 40.0315 12.9194 39.9659 13.0631C39.9003 13.2069 39.864 13.3624 39.8591 13.5205L38.208 68.269C38.1985 68.6293 38.3305 68.9788 38.5754 69.2419C38.8202 69.505 39.1583 69.6605 39.5164 69.6748C45.6222 69.898 70.7659 70.7301 79.7007 69.5828C79.9635 69.549 80.2047 69.4188 80.3779 69.2172C80.5511 69.0156 80.6442 68.7567 80.6391 68.4903L79.6793 11.0457C79.6767 10.8611 79.6345 10.6792 79.5556 10.5125C79.4767 10.3458 79.3629 10.1982 79.222 10.0798C79.0812 9.96134 78.9165 9.87491 78.7394 9.82637C78.5623 9.77783 78.3768 9.76832 78.1957 9.7985Z" fill="#AFD6FB"/>
<path opacity="0.78" d="M75.0459 15.3682L74.7694 27.1038C74.7648 27.2916 74.6898 27.4707 74.5595 27.6054C74.4292 27.7401 74.2531 27.8203 74.0665 27.8301C71.9093 27.9398 65.1843 28.2589 61.3818 28.1454C61.1749 28.1393 60.9778 28.0556 60.8293 27.9106C60.6808 27.7656 60.5917 27.57 60.5796 27.3622C60.4569 25.1654 60.1552 18.769 60.5932 16.0828C60.6283 15.8723 60.7336 15.68 60.8918 15.5377C61.0499 15.3953 61.2516 15.3114 61.4635 15.2996L74.2165 14.5595C74.3251 14.5524 74.434 14.5682 74.5362 14.6059C74.6383 14.6437 74.7315 14.7025 74.8097 14.7787C74.8878 14.8549 74.9492 14.9467 74.9899 15.0483C75.0306 15.1498 75.0497 15.2588 75.0459 15.3682Z" fill="white"/>
<path d="M67.8553 22.2499C69.2399 22.2183 70.3369 21.064 70.3055 19.6716C70.274 18.2792 69.1261 17.1761 67.7415 17.2077C66.3568 17.2393 65.2598 18.3936 65.2913 19.786C65.3227 21.1784 66.4706 22.2815 67.8553 22.2499Z" fill="#7797E8"/>
<path d="M71.7712 27.0409L63.7884 27.223C63.6776 27.2252 63.5682 27.1974 63.4717 27.1425C63.3752 27.0876 63.2951 27.0077 63.2398 26.9111C63.1845 26.8145 63.156 26.7047 63.1573 26.5932C63.1586 26.4817 63.1896 26.3726 63.2472 26.2773C63.9014 25.1946 65.2857 23.595 67.7448 23.6087C70.1143 23.6224 71.5512 25.0067 72.2794 26.0071C72.3492 26.1031 72.3915 26.2165 72.4017 26.335C72.4119 26.4535 72.3896 26.5725 72.3372 26.6791C72.2848 26.7857 72.2043 26.8758 72.1045 26.9396C72.0047 27.0034 71.8894 27.0384 71.7712 27.0409Z" fill="#7797E8"/>
<g opacity="0.6">
<path opacity="0.6" d="M43.0954 17.1204C43.0428 17.1228 42.9903 17.1144 42.941 17.0958C42.8917 17.0772 42.8467 17.0488 42.8087 17.0122C42.7706 16.9756 42.7404 16.9316 42.7197 16.8829C42.699 16.8342 42.6884 16.7818 42.6885 16.7289C42.6924 16.6207 42.737 16.5181 42.8132 16.4418C42.8895 16.3654 42.9917 16.3211 43.0993 16.3177L57.18 15.744C57.2274 15.7365 57.2758 15.7419 57.3203 15.7599C57.3648 15.7779 57.4036 15.8076 57.4326 15.846C57.4615 15.8844 57.4796 15.9299 57.4849 15.9778C57.4901 16.0257 57.4823 16.0742 57.4624 16.118L57.3708 16.398C57.3274 16.5074 57.2541 16.6022 57.1593 16.6715C57.0646 16.7408 56.9523 16.7817 56.8354 16.7895L43.0954 17.1204Z" fill="white"/>
</g>
<g opacity="0.6">
<path opacity="0.6" d="M57.2284 17.9357C57.2757 17.9281 57.3242 17.9336 57.3687 17.9515C57.4132 17.9695 57.452 17.9993 57.4809 18.0376C57.5099 18.076 57.528 18.1216 57.5332 18.1695C57.5385 18.2174 57.5307 18.2658 57.5107 18.3096L57.4192 18.5994C57.3758 18.7088 57.3025 18.8036 57.2077 18.8729C57.113 18.9422 57.0007 18.9831 56.8838 18.991L43.1437 19.3043C43.0912 19.3066 43.0386 19.2983 42.9893 19.2797C42.9401 19.2611 42.895 19.2326 42.857 19.196C42.819 19.1594 42.7887 19.1154 42.768 19.0667C42.7474 19.018 42.7368 18.9656 42.7368 18.9127C42.7407 18.8045 42.7853 18.7019 42.8616 18.6256C42.9378 18.5493 43.0401 18.5049 43.1476 18.5015L57.2284 17.9357Z" fill="white"/>
</g>
<g opacity="0.6">
<path opacity="0.6" d="M57.2889 20.1539C57.3363 20.1464 57.3848 20.1519 57.4292 20.1698C57.4737 20.1878 57.5125 20.2175 57.5415 20.2559C57.5704 20.2943 57.5885 20.3399 57.5938 20.3878C57.599 20.4357 57.5912 20.4841 57.5713 20.5279L57.4798 20.8079C57.4363 20.9173 57.363 21.0121 57.2682 21.0814C57.1735 21.1507 57.0612 21.1916 56.9443 21.1995L43.2043 21.5127C43.1517 21.5151 43.0992 21.5067 43.0499 21.4881C43.0006 21.4695 42.9556 21.4411 42.9175 21.4045C42.8795 21.3679 42.8492 21.3239 42.8286 21.2752C42.8079 21.2265 42.7973 21.1741 42.7974 21.1211C42.8013 21.013 42.8458 20.9104 42.9221 20.8341C42.9984 20.7577 43.1006 20.7134 43.2082 20.71L57.2889 20.1539Z" fill="white"/>
</g>
<path opacity="0.6" d="M48.1165 22.304C47.0359 22.2453 45.0129 22.2531 43.8993 22.2629C43.671 22.2656 43.4505 22.3461 43.2737 22.4912C43.0969 22.6363 42.9742 22.8374 42.9258 23.0617C42.6255 24.4105 42.4947 25.7918 42.5363 27.1733C42.5465 27.4101 42.6491 27.6334 42.8218 27.7946C42.9946 27.9559 43.2236 28.0422 43.4592 28.0348L47.5635 27.8977C47.8072 27.8891 48.0391 27.7902 48.2145 27.6199C48.3899 27.4496 48.4965 27.2201 48.5137 26.9755L48.7862 23.0833C48.7939 22.9877 48.7826 22.8916 48.753 22.8005C48.7234 22.7093 48.676 22.6251 48.6137 22.5525C48.5514 22.48 48.4753 22.4207 48.3899 22.378C48.3046 22.3354 48.2116 22.3102 48.1165 22.304Z" fill="white"/>
<g opacity="0.6">
<path opacity="0.6" d="M50.6691 24.221C50.616 24.2242 50.5629 24.2164 50.5129 24.1982C50.4629 24.18 50.4172 24.1516 50.3785 24.1149C50.3399 24.0782 50.3091 24.034 50.2881 23.9849C50.267 23.9358 50.2563 23.8829 50.2563 23.8294C50.2592 23.7214 50.3024 23.6184 50.3775 23.541C50.4526 23.4637 50.554 23.4178 50.6613 23.4124L57.2052 23.0208C57.256 23.0151 57.3073 23.0217 57.355 23.0401C57.4027 23.0585 57.4453 23.0881 57.4792 23.1264C57.5132 23.1648 57.5375 23.2108 57.5501 23.2605C57.5627 23.3103 57.5633 23.3623 57.5518 23.4124L57.5148 23.6571C57.4941 23.7691 57.4365 23.8709 57.3515 23.9461C57.2664 24.0214 57.1587 24.0658 57.0456 24.0722L50.6691 24.221Z" fill="white"/>
</g>
<g opacity="0.6">
<path opacity="0.6" d="M57.2887 25.6089C57.3383 25.6055 57.3881 25.6138 57.434 25.6332C57.4799 25.6526 57.5206 25.6825 57.5529 25.7206C57.5853 25.7586 57.6083 25.8037 57.6203 25.8523C57.6322 25.9009 57.6326 25.9517 57.6216 26.0005L57.5768 26.2432C57.5508 26.3534 57.4891 26.4518 57.4013 26.5227C57.3134 26.5936 57.2046 26.6331 57.092 26.6348L50.7136 26.5448C50.6103 26.5448 50.5113 26.5035 50.4383 26.4301C50.3652 26.3566 50.3242 26.257 50.3242 26.1532C50.3306 26.0449 50.3775 25.9432 50.4556 25.8683C50.5336 25.7935 50.6369 25.7512 50.7448 25.7499L57.2887 25.6089Z" fill="white"/>
</g>
<g opacity="0.6">
<path opacity="0.6" d="M42.0749 32.2456C42.0231 32.2481 41.9713 32.2397 41.923 32.2209C41.8746 32.2022 41.8306 32.1734 41.794 32.1365C41.7573 32.0996 41.7287 32.0555 41.71 32.0068C41.6913 31.9582 41.683 31.9061 41.6855 31.854C41.6941 31.7452 41.7424 31.6434 41.8211 31.5683C41.8998 31.4931 42.0034 31.4498 42.1119 31.4468L74.9832 30.4365C75.2071 30.4365 75.2811 30.5716 75.1448 30.7517L74.8294 31.1688C74.7479 31.2683 74.6476 31.3507 74.5344 31.4112C74.4211 31.4717 74.297 31.5091 74.1694 31.5212L42.0749 32.2456Z" fill="white"/>
</g>
<g opacity="0.6">
<path opacity="0.6" d="M75.0296 32.6321C75.2535 32.6321 75.3275 32.7672 75.1912 32.9473L74.8758 33.3643C74.7094 33.5587 74.4738 33.6796 74.2197 33.7011L42.1252 34.4314C42.0734 34.4339 42.0216 34.4255 41.9733 34.4067C41.9249 34.3879 41.8809 34.3592 41.8443 34.3223C41.8076 34.2854 41.779 34.2412 41.7603 34.1926C41.7416 34.1439 41.7333 34.0919 41.7358 34.0398C41.7444 33.931 41.7927 33.8292 41.8714 33.754C41.9501 33.6789 42.0537 33.6356 42.1622 33.6326L75.0296 32.6321Z" fill="white"/>
</g>
<path opacity="0.25" d="M75.215 36.2802C74.4246 36.2372 72.9487 36.243 72.1349 36.2509C71.967 36.2522 71.8046 36.3111 71.6747 36.4179C71.5447 36.5248 71.4549 36.6731 71.4203 36.8382C71.2033 37.8225 71.1098 38.8301 71.1419 39.8377C71.1495 40.0105 71.2244 40.1733 71.3505 40.2909C71.4766 40.4086 71.6437 40.4715 71.8156 40.4662L74.814 40.3664C74.9922 40.3605 75.1619 40.2884 75.2903 40.164C75.4187 40.0396 75.4966 39.8717 75.509 39.6929L75.7037 36.85C75.7093 36.7802 75.7011 36.71 75.6794 36.6435C75.6578 36.577 75.6233 36.5154 75.5778 36.4624C75.5323 36.4094 75.4769 36.366 75.4146 36.3347C75.3523 36.3035 75.2845 36.2849 75.215 36.2802Z" fill="white"/>
<g opacity="0.6">
<path opacity="0.6" d="M69.7494 37.5677C69.7996 37.5621 69.8505 37.5683 69.8979 37.5858C69.9453 37.6034 69.988 37.6318 70.0226 37.6689C70.0572 37.706 70.0827 37.7506 70.0971 37.7993C70.1116 37.848 70.1145 37.8994 70.1057 37.9495L70.0317 38.5369C70.0144 38.6489 69.9593 38.7515 69.8756 38.8274C69.7919 38.9034 69.6848 38.948 69.5722 38.9539L62.1969 39.1223C62.1436 39.1233 62.0906 39.1137 62.0409 39.0941C61.9913 39.0745 61.946 39.0452 61.9076 39.0079C61.8692 38.9706 61.8386 38.926 61.8174 38.8768C61.7962 38.8275 61.7849 38.7745 61.7842 38.7209V38.5055C61.7843 38.3949 61.8258 38.2884 61.9005 38.2071C61.9752 38.1258 62.0775 38.0758 62.1872 38.067L69.7494 37.5677Z" fill="white"/>
</g>
<path opacity="0.25" d="M58.8776 36.6513C58.0871 36.6083 56.6113 36.6141 55.7975 36.622C55.6296 36.6232 55.4672 36.6822 55.3373 36.789C55.2073 36.8959 55.1175 37.0442 55.0829 37.2093C54.8659 38.1936 54.7724 39.2012 54.8045 40.2088C54.8121 40.3816 54.887 40.5444 55.0131 40.662C55.1392 40.7797 55.3063 40.8426 55.4782 40.8373L58.4765 40.7375C58.6547 40.7316 58.8245 40.6595 58.9528 40.5351C59.0812 40.4107 59.1592 40.2428 59.1716 40.0639L59.3663 37.2211C59.3719 37.1513 59.3636 37.0811 59.342 37.0146C59.3204 36.9481 59.2858 36.8865 59.2404 36.8335C59.1949 36.7805 59.1394 36.7371 59.0772 36.7058C59.0149 36.6746 58.9471 36.656 58.8776 36.6513Z" fill="white"/>
<g opacity="0.6">
<path opacity="0.6" d="M53.3949 37.9381C53.4451 37.9324 53.4959 37.9386 53.5434 37.9562C53.5908 37.9738 53.6335 38.0022 53.6681 38.0393C53.7027 38.0763 53.7282 38.121 53.7426 38.1697C53.757 38.2184 53.76 38.2698 53.7512 38.3198L53.6772 38.9072C53.6599 39.0192 53.6048 39.1218 53.5211 39.1978C53.4374 39.2737 53.3303 39.3184 53.2177 39.3242L45.8425 39.4926C45.7891 39.4937 45.7361 39.4841 45.6864 39.4645C45.6368 39.4448 45.5915 39.4155 45.5531 39.3782C45.5148 39.3409 45.4841 39.2964 45.4629 39.2471C45.4417 39.1979 45.4304 39.1449 45.4297 39.0913V38.8759C45.4298 38.7652 45.4714 38.6587 45.546 38.5775C45.6207 38.4962 45.723 38.4462 45.8327 38.4373L53.3949 37.9381Z" fill="white"/>
</g>
<g opacity="0.6">
<path opacity="0.6" d="M44.1618 46.8083C44.11 46.8108 44.0583 46.8024 44.0099 46.7836C43.9615 46.7648 43.9176 46.7361 43.8809 46.6992C43.8442 46.6623 43.8156 46.6181 43.7969 46.5695C43.7783 46.5208 43.7699 46.4688 43.7724 46.4167C43.7805 46.3081 43.8284 46.2063 43.9068 46.1311C43.9852 46.0559 44.0885 46.0125 44.1969 46.0095L76.1278 45.0305C76.3517 45.0305 76.4276 45.1676 76.2933 45.3497L75.9915 45.7608C75.9109 45.8586 75.8117 45.9391 75.6997 45.9976C75.5876 46.0561 75.4651 46.0914 75.3392 46.1015L44.1618 46.8083Z" fill="white"/>
</g>
<g opacity="0.6">
<path opacity="0.6" d="M76.1742 47.218C76.3981 47.218 76.474 47.3551 76.3397 47.5372L76.0379 47.9483C75.9573 48.0461 75.8581 48.1266 75.7461 48.1851C75.634 48.2436 75.5115 48.2789 75.3856 48.289L44.2121 48.9997C44.1603 49.0022 44.1086 48.9938 44.0602 48.975C44.0118 48.9562 43.9679 48.9275 43.9312 48.8906C43.8945 48.8537 43.8659 48.8095 43.8472 48.7609C43.8286 48.7122 43.8202 48.6602 43.8227 48.6081C43.8317 48.5008 43.8794 48.4005 43.9569 48.3262C44.0344 48.2519 44.1362 48.2087 44.2433 48.2048L76.1742 47.218Z" fill="white"/>
</g>
<g opacity="0.6">
<path opacity="0.6" d="M76.2215 49.4326C76.4454 49.4326 76.5214 49.5697 76.387 49.7518L76.0853 50.1629C76.0047 50.2607 75.9055 50.3412 75.7934 50.3997C75.6814 50.4582 75.5588 50.4935 75.433 50.5036L44.2595 51.2143C44.2077 51.2168 44.1559 51.2084 44.1075 51.1896C44.0592 51.1708 44.0152 51.1421 43.9785 51.1052C43.9419 51.0683 43.9133 51.0242 43.8946 50.9755C43.8759 50.9269 43.8676 50.8748 43.8701 50.8227C43.8782 50.7141 43.9261 50.6123 44.0045 50.5371C44.0829 50.4619 44.1862 50.4186 44.2945 50.4155L76.2215 49.4326Z" fill="white"/>
</g>
<path d="M56.9114 6.46109L61.3058 5.9677L61.5842 1.8992C61.6102 1.50301 61.4992 1.10995 61.27 0.786663C61.0407 0.463373 60.7074 0.229734 60.3264 0.125348C59.462 -0.1096 58.2431 -0.101768 56.8646 0.908505C54.1583 2.89772 56.9114 6.46109 56.9114 6.46109ZM57.7525 3.05631C57.7475 2.83799 57.8071 2.6231 57.9236 2.43881C58.0401 2.25451 58.2083 2.10908 58.4069 2.02091C58.6056 1.93275 58.8258 1.90579 59.0397 1.94346C59.2536 1.98113 59.4516 2.08174 59.6087 2.23255C59.7657 2.38337 59.8748 2.57762 59.9221 2.79076C59.9694 3.0039 59.9527 3.22635 59.8743 3.42998C59.7959 3.63362 59.6592 3.8093 59.4814 3.93481C59.3037 4.06032 59.093 4.13002 58.8759 4.13511C58.586 4.14197 58.3051 4.03319 58.0946 3.83255C57.8841 3.6319 57.7611 3.35566 57.7525 3.06415V3.05631Z" fill="#7797E8"/>
<path d="M60.8168 4.27853C60.7888 4.27652 60.7626 4.26348 60.744 4.24223C60.7255 4.22098 60.7159 4.19323 60.7175 4.16498L60.7623 3.51691C60.7615 3.50172 60.7639 3.48652 60.7693 3.47232C60.7748 3.45812 60.7831 3.44523 60.7939 3.43452C60.8046 3.42381 60.8175 3.41552 60.8317 3.41018C60.8459 3.40484 60.861 3.40259 60.8761 3.40357C60.8912 3.40454 60.9059 3.40872 60.9193 3.41584C60.9327 3.42296 60.9444 3.43284 60.9537 3.44485C60.963 3.45685 60.9697 3.4707 60.9733 3.48549C60.9769 3.50027 60.9773 3.51565 60.9746 3.53062L60.9298 4.17868C60.9279 4.2052 60.9163 4.23007 60.8972 4.2485C60.8782 4.26694 60.853 4.27764 60.8266 4.27853H60.8168ZM60.9045 3.00786C60.8764 3.00585 60.8502 2.99281 60.8317 2.97156C60.8131 2.95031 60.8036 2.92255 60.8052 2.8943L60.8383 2.40287C60.8609 2.07397 60.7697 1.74733 60.5802 1.47829C60.3907 1.20925 60.1146 1.01435 59.7986 0.92662C59.3062 0.79229 58.7884 0.782872 58.2916 0.89921C58.2661 0.900949 58.2408 0.893474 58.2204 0.878134C58.1999 0.862794 58.1855 0.840598 58.1799 0.815552C58.1743 0.790506 58.1777 0.764257 58.1896 0.741542C58.2015 0.718827 58.2211 0.70114 58.2449 0.691673C58.7757 0.567193 59.329 0.577285 59.855 0.721041C60.2188 0.821423 60.5369 1.04534 60.7552 1.35477C60.9734 1.6642 61.0785 2.04007 61.0524 2.41853L61.0193 2.90997C61.0174 2.93648 61.0058 2.96135 60.9868 2.97979C60.9677 2.99822 60.9426 3.00892 60.9161 3.00982L60.9045 3.00786Z" fill="#91B3FA"/>
<path d="M67.3723 8.46234L67.3256 6.42026C67.3217 6.25302 67.2844 6.08829 67.2159 5.93586C67.1473 5.78343 67.049 5.64642 66.9268 5.53298C66.8045 5.41954 66.6608 5.332 66.5042 5.27555C66.3476 5.2191 66.1814 5.19491 66.0153 5.20441L52.0319 6.00714C51.7324 6.02447 51.4502 6.15346 51.2403 6.36888C51.0304 6.58431 50.9079 6.8707 50.8968 7.17209L50.8247 9.12998L67.3723 8.46234Z" fill="#7797E8"/>
<path d="M62.0961 6.06965L62.6977 6.05594C62.7234 6.05244 62.7469 6.03969 62.764 6.02007C62.781 6.00045 62.7904 5.97529 62.7904 5.94924C62.7904 5.92318 62.781 5.89802 62.764 5.8784C62.7469 5.85878 62.7234 5.84603 62.6977 5.84253L62.0961 5.85623C62.0704 5.85974 62.0469 5.87248 62.0299 5.8921C62.0128 5.91172 62.0034 5.93689 62.0034 5.96294C62.0034 5.98899 62.0128 6.01416 62.0299 6.03378C62.0469 6.0534 62.0704 6.06614 62.0961 6.06965Z" fill="#91B3FA"/>
<path d="M66.5994 7.83156C66.6275 7.83054 66.654 7.81848 66.6733 7.79797C66.6926 7.77746 66.7031 7.75015 66.7026 7.72192L66.6831 6.89569C66.676 6.59033 66.5493 6.30015 66.3305 6.08824C66.1117 5.87633 65.8187 5.75981 65.5149 5.76403L63.3012 5.81493C63.286 5.81286 63.2706 5.81408 63.256 5.8185C63.2414 5.82291 63.2278 5.83042 63.2163 5.84053C63.2048 5.85064 63.1956 5.86311 63.1893 5.8771C63.183 5.89108 63.1797 5.90627 63.1797 5.92164C63.1797 5.937 63.183 5.95219 63.1893 5.96618C63.1956 5.98017 63.2048 5.99263 63.2163 6.00274C63.2278 6.01285 63.2414 6.02036 63.256 6.02478C63.2706 6.02919 63.286 6.03041 63.3012 6.02834L65.5149 5.97744C65.7637 5.97218 66.0044 6.06628 66.1843 6.23912C66.3642 6.41197 66.4687 6.64947 66.4748 6.8996L66.4943 7.72584C66.4948 7.75372 66.506 7.78032 66.5256 7.80004C66.5452 7.81976 66.5717 7.83106 66.5994 7.83156Z" fill="#91B3FA"/>
<path d="M71.7412 7.61627L47.2614 8.17427C46.8344 8.18338 46.4243 8.34402 46.1037 8.62777C45.783 8.91153 45.5724 9.30014 45.5091 9.72492L45.4916 9.84631C45.4587 10.0715 45.4751 10.3013 45.5395 10.5195C45.6039 10.7377 45.7149 10.9392 45.8646 11.1099C46.0143 11.2806 46.1993 11.4164 46.4066 11.508C46.6138 11.5995 46.8385 11.6444 47.0648 11.6397L72.1812 11.068C72.3175 11.0649 72.4518 11.0341 72.5759 10.9774C72.7001 10.9207 72.8115 10.8393 72.9036 10.7381C72.9956 10.637 73.0664 10.5181 73.1115 10.3887C73.1567 10.2594 73.1754 10.1221 73.1664 9.98532L73.0866 8.85562C73.0641 8.5146 72.9117 8.19544 72.6611 7.96459C72.4105 7.73373 72.081 7.60897 71.7412 7.61627Z" fill="#7797E8"/>
<path d="M56.8061 52.6872L52.6745 42.6002C52.6355 42.5046 52.5692 42.4229 52.4839 42.3654C52.3986 42.3079 52.2982 42.2771 52.1955 42.2771H49.6644C49.5776 42.277 49.4921 42.2989 49.4158 42.3407C49.3395 42.3826 49.275 42.4431 49.2281 42.5166C49.1811 42.5901 49.1534 42.6743 49.1473 42.7614C49.1412 42.8486 49.157 42.9358 49.1932 43.0152L53.979 53.5232C54.0284 53.6318 54.1133 53.7201 54.2197 53.7732C54.326 53.8263 54.4472 53.841 54.5631 53.815L56.4439 53.394C56.5173 53.377 56.586 53.3441 56.6454 53.2977C56.7049 53.2512 56.7535 53.1923 56.788 53.1251C56.8224 53.0578 56.8419 52.9838 56.845 52.9081C56.8482 52.8325 56.8349 52.7571 56.8061 52.6872Z" fill="#A6ABD1"/>
<path d="M63.1627 64.5735H61.9458V77.803H63.1627V64.5735Z" fill="#636391"/>
<path d="M57.8847 77.2649H67.2303C67.4043 77.2649 67.5712 77.3344 67.6943 77.4581C67.8173 77.5819 67.8864 77.7497 67.8864 77.9247V78.0598H57.2266V77.9247C57.2266 77.8379 57.2436 77.7519 57.2767 77.6718C57.3098 77.5916 57.3583 77.5188 57.4194 77.4575C57.4806 77.3962 57.5531 77.3476 57.633 77.3146C57.7128 77.2815 57.7983 77.2646 57.8847 77.2649Z" fill="#636391"/>
<path d="M68.1554 61.6125H57.3748C56.6522 61.6125 56.0664 62.2016 56.0664 62.9283V64.1167C56.0664 64.8433 56.6522 65.4324 57.3748 65.4324H68.1554C68.878 65.4324 69.4638 64.8433 69.4638 64.1167V62.9283C69.4638 62.2016 68.878 61.6125 68.1554 61.6125Z" fill="#A5AAD0"/>
<path d="M53.5742 55.7571C52.1983 56.0449 50.8931 56.6053 49.7347 57.4056C49.5765 57.5103 49.4506 57.6576 49.3715 57.8306C49.2923 58.0037 49.263 58.1956 49.2869 58.3846C49.5303 60.3229 50.531 66.5979 53.8312 72.7261C54.0046 73.0502 54.057 73.4258 53.9792 73.7854L53.3951 76.4618L52.332 77.4642H55.0695L56.8997 72.501L56.1209 72.2484C55.8263 72.1546 55.5684 71.9701 55.3837 71.7211C55.1989 71.472 55.0965 71.171 55.0909 70.8603L54.9994 65.5387C55.0773 63.1677 53.5528 61.5309 53.5528 61.5309L57.9258 61.3175L53.5742 55.7571Z" fill="#F4A98F"/>
<path d="M51.2722 77.9439C51.023 78.2728 53.9572 78.7055 55.4389 77.987C55.4389 77.987 57.493 74.3923 57.493 72.542C57.493 72.542 57.3294 72.1642 56.13 72.2503C56.13 72.2503 55.4408 76.5068 54.7126 76.9826C53.9844 77.4583 52.6741 77.0315 52.6741 77.0315C52.6741 77.0315 51.6422 77.4583 51.2722 77.9439Z" fill="#3B3F6D"/>
<path d="M57.3743 61.6108C57.3509 61.5696 52.6664 61.0449 52.6664 61.0449C52.7371 62.19 52.6273 63.3391 52.3413 64.4497C51.8623 66.4213 44.9835 74.9656 44.9835 74.9656L45.7039 77.2641C43.5935 78.0322 41.3068 78.1682 39.1211 77.6557L43.5992 74.9577C43.5992 74.9577 47.7833 60.622 50.3456 58.065L55.0418 56.4321L57.3743 61.6108Z" fill="#FDB9A0"/>
<path d="M67.8825 53.2688C67.8825 53.2688 70.5811 57.306 70.803 59.1425C71.025 60.979 70.0632 61.7328 67.2322 61.8561C64.4013 61.9795 56.8391 61.9775 56.8391 61.9775L50.3867 56.4308C50.3867 56.4308 55.0887 54.7431 56.3115 54.2654C57.5342 53.7876 67.8825 53.2688 67.8825 53.2688Z" fill="#383D6D"/>
<path d="M45.4318 76.4875C45.4318 76.4875 46.2106 77.2433 45.683 78.0852C45.683 78.0852 39.5323 79.1816 37.8618 78.6843C37.8618 78.6843 38.2084 77.8874 40.0892 76.9829L39.951 77.0906C39.9122 77.1196 39.8839 77.1604 39.8701 77.2069C39.8563 77.2534 39.8579 77.3032 39.8745 77.3488C39.8911 77.3943 39.922 77.4333 39.9624 77.4598C40.0029 77.4863 40.0508 77.4989 40.0989 77.4959C41.3392 77.4234 43.9034 77.1963 45.4318 76.4875Z" fill="#3B3F6D"/>
<path d="M60.5814 52.7342C60.5814 52.7342 57.439 49.7289 55.8911 47.7299C55.4794 47.1984 55.2 46.5757 55.076 45.9136C54.9521 45.2516 54.9872 44.5693 55.1785 43.9237C55.8852 41.5312 57.1411 39.0525 57.254 38.6668C57.4292 38.0794 60.9533 38.1009 60.9533 38.1009C60.9533 38.1009 67.8885 42.6276 70.6143 50.2947L67.5537 51.2521C67.5537 51.2521 65.7429 48.1978 63.9536 46.2556C63.9536 46.2556 67.0494 50.3671 67.1584 52.0529L60.5814 52.7342Z" fill="#5653E5"/>
<path d="M56.8291 35.3657C56.8661 35.489 57.7851 38.5551 57.8571 38.6197C57.9292 38.6843 59.8742 38.7881 60.7893 38.1596L59.2317 34.8899L56.8291 35.3657Z" fill="#FDB9A0"/>
<path d="M55.6922 30.8626C55.6922 30.8626 54.6019 32.0608 54.5785 34.4514C54.5551 36.842 55.6571 37.4333 56.5761 37.1592C57.4951 36.8851 58.7782 36.2703 59.5628 34.3711C60.3475 32.472 57.1407 29.3667 55.6922 30.8626Z" fill="#FDB9A0"/>
<path d="M58.1688 33.7467C58.1688 33.7467 57.8768 30.3987 55.3262 31.5363L54.9212 32.2313C54.9212 32.2313 53.2624 31.0566 54.4422 29.5999C54.7727 29.2129 55.1813 28.9011 55.6408 28.6852C56.1003 28.4693 56.6003 28.3541 57.1075 28.3475C57.6146 28.3408 58.1174 28.4428 58.5824 28.6465C59.0474 28.8503 59.4639 29.1513 59.8043 29.5294C61.3989 31.2915 61.6287 32.8108 60.9978 34.2988C60.367 35.7868 59.411 34.8706 59.411 34.8706C59.411 34.8706 59.5765 33.6723 59.1112 33.2886C58.6458 32.9048 58.3655 33.7565 58.3655 33.7565L58.1688 33.7467Z" fill="#66455C"/>
<path d="M58.5993 33.9361C58.5993 33.9361 58.4397 32.217 59.3976 32.4892C60.3555 32.7613 59.4619 34.1162 59.09 34.5939L58.5993 33.9361Z" fill="#FDB9A0"/>
<path d="M54.1733 52.9586L56.4825 50.7208L59.6834 52.0795C59.6834 52.0795 62.8628 52.5749 64.6833 52.0795L66.5037 51.5842L70.6158 50.2959L71.2622 52.1324C71.3419 52.3593 71.3458 52.606 71.2734 52.8353C71.2011 53.0646 71.0563 53.264 70.8612 53.4031C70.5334 53.6488 70.1856 53.8663 69.8215 54.0531C69.2802 54.292 56.4689 53.8886 56.4689 53.8886L54.1733 52.9586Z" fill="#FDB9A0"/>
<path d="M59.7515 29.943C59.644 29.8977 59.5508 29.8237 59.4821 29.7291C59.4134 29.6344 59.3718 29.5226 59.3617 29.4058C59.3517 29.289 59.3737 29.1717 59.4252 29.0665C59.4768 28.9614 59.556 28.8724 59.6542 28.8093C61.0346 27.8891 63.41 27.0825 65.8223 29.8431C68.5481 32.9522 70.0609 34.4344 70.9215 34.4187C71.0468 34.4115 71.1714 34.4415 71.2799 34.5049C71.3884 34.5684 71.4759 34.6624 71.5317 34.7754C71.5875 34.8885 71.6091 35.0155 71.5937 35.1407C71.5783 35.266 71.5267 35.3839 71.4453 35.4799C71.1707 35.7971 70.6996 36.081 69.9169 36.2513C63.885 37.569 62.5611 31.0257 59.7515 29.943Z" fill="#66455C"/>
<path d="M18.1013 78.778C18.0345 78.7778 17.9684 78.7645 17.9066 78.7388C17.8482 78.7163 17.795 78.6821 17.7502 78.6383C17.7055 78.5944 17.67 78.5418 17.6462 78.4837C17.6223 78.4256 17.6104 78.3632 17.6114 78.3004C17.6123 78.2375 17.626 78.1755 17.6516 78.1181L27.9415 55.2108C27.997 55.0944 28.0948 55.0039 28.2147 54.958C28.3347 54.9121 28.4676 54.9142 28.586 54.9641C28.644 54.9864 28.697 55.0203 28.7417 55.0638C28.7863 55.1073 28.8217 55.1595 28.8458 55.2171C28.8698 55.2748 28.8819 55.3367 28.8814 55.3993C28.881 55.4618 28.8679 55.5235 28.843 55.5808L18.5433 78.4921C18.504 78.5768 18.4416 78.6487 18.3634 78.6992C18.2852 78.7498 18.1943 78.7771 18.1013 78.778Z" fill="#8080B0"/>
<path d="M29.6922 78.7801C29.5978 78.7813 29.505 78.7552 29.4249 78.7049C29.3448 78.6545 29.2808 78.5821 29.2405 78.4962L18.9506 55.5889C18.9257 55.5316 18.9126 55.4698 18.9121 55.4073C18.9116 55.3448 18.9238 55.2828 18.9478 55.2252C18.9718 55.1675 19.0073 55.1154 19.0519 55.0719C19.0966 55.0284 19.1495 54.9944 19.2076 54.9721C19.326 54.9223 19.4589 54.9201 19.5788 54.966C19.6988 55.0119 19.7966 55.1024 19.8521 55.2188L30.142 78.1262C30.1669 78.1835 30.18 78.2452 30.1805 78.3077C30.1809 78.3703 30.1688 78.4322 30.1448 78.4899C30.1207 78.5475 30.0853 78.5997 30.0407 78.6432C29.996 78.6867 29.9431 78.7206 29.885 78.7429C29.8237 78.7677 29.7583 78.7804 29.6922 78.7801Z" fill="#8080B0"/>
<path d="M60.4311 78.7779C60.3643 78.7778 60.2981 78.7645 60.2364 78.7388C60.1783 78.7164 60.1254 78.6825 60.0807 78.639C60.0361 78.5955 60.0007 78.5434 59.9766 78.4857C59.9526 78.4281 59.9405 78.3661 59.9409 78.3036C59.9414 78.2411 59.9545 78.1793 59.9794 78.122L70.2693 55.2147C70.3248 55.0983 70.4226 55.0078 70.5426 54.9619C70.6625 54.916 70.7954 54.9181 70.9138 54.968C70.9719 54.9903 71.0248 55.0242 71.0695 55.0677C71.1141 55.1112 71.1496 55.1634 71.1736 55.221C71.1976 55.2787 71.2098 55.3406 71.2093 55.4032C71.2088 55.4657 71.1957 55.5274 71.1708 55.5847L60.8809 78.4921C60.841 78.578 60.7774 78.6506 60.6977 78.7013C60.6179 78.752 60.5254 78.7786 60.4311 78.7779Z" fill="#8080B0"/>
<path d="M72.0213 78.7801C71.9269 78.7813 71.8341 78.7552 71.754 78.7049C71.6739 78.6545 71.6099 78.5821 71.5696 78.4962L61.2797 55.5889C61.2548 55.5316 61.2417 55.4698 61.2412 55.4073C61.2407 55.3448 61.2529 55.2828 61.2769 55.2252C61.3009 55.1675 61.3364 55.1154 61.381 55.0719C61.4257 55.0284 61.4786 54.9944 61.5367 54.9721C61.6551 54.9223 61.788 54.9201 61.9079 54.966C62.0279 55.0119 62.1257 55.1024 62.1812 55.2188L72.475 78.1203C72.4999 78.1776 72.513 78.2394 72.5135 78.3019C72.5139 78.3644 72.5018 78.4263 72.4778 78.484C72.4537 78.5417 72.4183 78.5938 72.3737 78.6373C72.329 78.6808 72.276 78.7147 72.218 78.737C72.1559 78.7644 72.0891 78.779 72.0213 78.7801Z" fill="#8080B0"/>
<path d="M75.3143 54.5058C75.3303 54.4292 75.3274 54.3499 75.3056 54.2747C75.2839 54.1996 75.2441 54.131 75.1897 54.0751C75.1309 54.013 75.0603 53.9637 74.9819 53.93C74.9036 53.8963 74.8193 53.8791 74.7341 53.8793H15.0116C14.9013 53.8772 14.7922 53.9011 14.6928 53.949C14.5934 53.997 14.5065 54.0676 14.4391 54.1553C14.3779 54.237 14.3411 54.3346 14.3332 54.4366C14.3252 54.5386 14.3465 54.6407 14.3944 54.731L15.0388 55.9742C15.1217 56.1191 15.242 56.2387 15.387 56.3204C15.532 56.4021 15.6963 56.4428 15.8624 56.4382H74.3252C74.4759 56.4448 74.6244 56.4001 74.7467 56.3113C74.8689 56.2224 74.9578 56.0947 74.9989 55.9488L75.3143 54.5058Z" fill="#A6ABD1"/>
<path d="M7.5426 62.4946C7.18241 63.033 5.74746 75.1837 5.52356 79.6869C5.52012 79.7588 5.53129 79.8307 5.55639 79.8982C5.58148 79.9657 5.61998 80.0273 5.66953 80.0793C5.71908 80.1314 5.77864 80.1727 5.8446 80.2008C5.91055 80.229 5.98151 80.2433 6.05314 80.2429C6.17918 80.2426 6.30096 80.1971 6.3966 80.1145C6.49225 80.032 6.55548 79.9178 6.57494 79.7926L9.19756 62.8823L7.5426 62.4946Z" fill="#636391"/>
<path d="M19.0729 62.4946C19.4331 63.0311 20.8681 75.1877 21.092 79.6771C21.0954 79.7491 21.0842 79.821 21.0591 79.8884C21.0341 79.9559 20.9956 80.0175 20.946 80.0696C20.8965 80.1216 20.8369 80.1629 20.7709 80.191C20.705 80.2192 20.634 80.2335 20.5624 80.2331C20.4364 80.2328 20.3146 80.1873 20.2189 80.1047C20.1233 80.0222 20.0601 79.908 20.0406 79.7828L17.418 62.8823L19.0729 62.4946Z" fill="#636391"/>
<path d="M5.37354 61.5446V61.6718C5.37354 62.6253 6.18154 63.4085 7.20567 63.4339L19.3219 63.6297C20.3304 63.6474 21.1716 62.9151 21.2202 61.9753V61.8539C21.2709 60.875 20.4414 60.0507 19.392 60.0311L7.26408 59.8119C6.23801 59.8021 5.38327 60.5774 5.37354 61.5446Z" fill="#A5AAD0"/>
<path d="M25.9066 77.7266C23.981 77.7266 23.1282 77.5602 22.7485 77.4094C22.7855 77.5712 22.8759 77.7156 23.005 77.819C23.134 77.9225 23.2941 77.979 23.4592 77.9792H30.2737C30.3247 77.9792 30.3749 77.9674 30.4206 77.9447C30.4663 77.9219 30.5061 77.8889 30.537 77.8482C30.5679 77.8075 30.589 77.7601 30.5988 77.7098C30.6085 77.6595 30.6065 77.6076 30.593 77.5582C29.8142 77.617 28.1651 77.7266 25.9066 77.7266Z" fill="#383D6D"/>
<path d="M30.5913 77.5558C30.5806 77.5131 30.5614 77.4732 30.5349 77.4383C30.015 76.7726 28.9772 75.7251 27.5559 75.7467C25.4785 75.776 24.7542 76.0031 23.1401 75.7604L22.7507 77.0291C22.7138 77.1518 22.7098 77.2822 22.739 77.407C23.1284 77.5577 23.9715 77.7241 25.8971 77.7241C28.1653 77.728 29.8145 77.6184 30.5913 77.5558Z" fill="#383D6D"/>
<path d="M23.6055 74.4016L23.1382 76.0012C23.1382 76.0012 24.174 76.475 25.0852 76.0952L25.2643 74.711L23.6055 74.4016Z" fill="#FDB9A0"/>
<path d="M37.727 76.7187C36.2259 77.9306 35.4587 78.3398 35.0674 78.4612C35.1964 78.5641 35.3563 78.6201 35.521 78.6201C35.6858 78.6201 35.8456 78.5641 35.9747 78.4612L41.2842 74.1656C41.3235 74.1336 41.355 74.093 41.3763 74.0468C41.3976 74.0007 41.4081 73.9502 41.4069 73.8994C41.4058 73.8485 41.3931 73.7986 41.3698 73.7534C41.3465 73.7083 41.3132 73.6691 41.2725 73.6389C40.7059 74.1754 39.4871 75.2973 37.727 76.7187Z" fill="#383D6D"/>
<path d="M41.2727 73.6354C41.2384 73.6096 41.1994 73.591 41.1578 73.5806C40.3401 73.3848 38.8798 73.236 37.7856 74.1445C36.1852 75.4759 35.7607 76.1024 34.3511 76.9364L34.8417 78.1601C34.8891 78.279 34.967 78.383 35.0676 78.4616C35.457 78.3383 36.226 77.931 37.7272 76.7191C39.4873 75.2957 40.7061 74.1739 41.2727 73.6354Z" fill="#383D6D"/>
<path d="M13.6097 56.1782C13.6097 56.1782 25.138 57.1239 27.5036 58.2438C29.8692 59.3637 25.5741 75.0543 25.5741 75.0543C25.5741 75.0543 24.9296 75.3656 23.4986 74.9172C23.4986 74.9172 24.9686 63.3382 23.8743 60.8204L11.3901 58.7764L13.6097 56.1782Z" fill="#383D6D"/>
<path d="M33.2061 74.7353C33.3131 74.8332 34.3509 76.9399 34.3509 76.9399C34.3509 76.9399 35.5074 76.6893 35.743 75.9609L34.7033 74.05L33.2061 74.7353Z" fill="#FDB9A0"/>
<path d="M6.66646 56.0813C6.41809 56.7585 6.29598 57.476 6.30626 58.1978C6.32273 59.0041 6.6435 59.774 7.20353 60.3514C7.76357 60.9287 8.52096 61.2703 9.32218 61.3069L22.9512 61.9315C23.0911 61.9379 23.2252 61.9894 23.3339 62.0782C23.4425 62.167 23.5199 62.2885 23.5548 62.4249C23.8741 63.6701 25.4395 67.4958 33.0951 75.1296C33.1942 75.2283 33.3236 75.2903 33.4621 75.3056C33.6007 75.3209 33.7404 75.2885 33.8584 75.2138L34.9467 74.5227C35.0016 74.4876 35.0407 74.4325 35.056 74.3689C35.0712 74.3054 35.0614 74.2384 35.0285 74.182L27.0925 60.5551C26.676 59.8633 26.0063 59.3635 25.2273 59.163L13.6095 56.1772L6.66646 56.0813Z" fill="#383D6D"/>
<path d="M6.62773 56.0415C6.62773 56.0415 6.49339 49.2496 7.84266 42.8571C8.34096 40.4948 9.64726 38.383 11.5342 36.8894L12.165 36.3901L15.3231 37.6804L16.9469 40.4998C17.8405 42.2971 17.6205 46.1992 16.9469 48.0905C15.8176 51.2544 14.9084 54.532 14.5248 56.1413C14.5248 56.1413 9.29318 56.8364 6.62773 56.0415Z" fill="#5C619C"/>
<path d="M14.3282 31.3274L11.8613 37.0836C11.8613 37.0836 12.6518 38.8692 15.4146 38.1761L16.4018 34.2075L14.3282 31.3274Z" fill="#FDB9A0"/>
<path d="M19.217 28.7017C19.2462 28.782 19.3124 34.454 19.3124 34.454L16.092 34.4227L15.2334 29.0561C15.2334 29.0561 18.7185 27.3547 19.217 28.7017Z" fill="#FDB9A0"/>
<path d="M16.1797 30.089L16.4016 32.9494C16.4045 32.9856 16.4124 33.0212 16.425 33.0552C16.5029 33.2666 16.8144 33.9734 17.5231 33.5995C18.1578 33.2607 18.7419 32.9592 19.1975 32.9984C19.2967 33.0044 19.3898 33.0483 19.4579 33.1211C19.5259 33.1939 19.5637 33.29 19.5636 33.39C19.5783 34.2876 19.5236 35.1851 19.4 36.0742C19.3855 36.1736 19.3335 36.2636 19.2549 36.3255C19.1763 36.3875 19.0769 36.4167 18.9775 36.4071C17.9786 36.3481 16.99 36.172 16.0317 35.8824C15.9633 35.8601 15.9023 35.8192 15.8556 35.7643C15.8088 35.7093 15.7781 35.6425 15.7669 35.571C15.6462 34.8623 15.2685 32.7106 15.0718 32.1271C14.8771 31.5789 14.1295 31.3929 13.8063 31.344C13.754 31.3351 13.704 31.3156 13.6595 31.2866C13.615 31.2577 13.5768 31.2199 13.5473 31.1756C13.3351 30.8584 12.9632 30.0948 13.9095 29.5466C13.956 29.5196 13.9967 29.4834 14.029 29.4402C14.0614 29.3971 14.0847 29.3477 14.0976 29.2953C14.1105 29.2428 14.1127 29.1882 14.1042 29.1349C14.0956 29.0815 14.0764 29.0304 14.0477 28.9847C13.8082 28.5931 13.6096 27.9764 14.3125 27.4556C15.0154 26.9348 15.7104 27.2226 16.1037 27.4987C16.1803 27.5539 16.2741 27.5795 16.3679 27.5705C16.4617 27.5615 16.5491 27.5186 16.6138 27.4497C16.6591 27.4043 16.7171 27.3738 16.78 27.3622C16.843 27.3507 16.9079 27.3587 16.9663 27.3851C17.0181 27.4033 17.0732 27.4102 17.1278 27.4055C17.1825 27.4008 17.2356 27.3845 17.2836 27.3577C17.3316 27.3309 17.3734 27.2942 17.4063 27.25C17.4392 27.2058 17.4624 27.1551 17.4744 27.1012C17.526 26.8198 17.6761 26.5664 17.8976 26.3868C18.119 26.2072 18.3972 26.1133 18.6816 26.1223C20.1087 26.0596 20.5935 27.5594 20.4339 28.5363C20.2742 29.5133 18.7127 29.4918 17.8736 29.2001C17.2369 28.9788 16.5827 29.4977 16.3062 29.76C16.261 29.8011 16.226 29.8522 16.204 29.9094C16.182 29.9665 16.1737 30.028 16.1797 30.089Z" fill="#66435C"/>
<path d="M15.1732 33.1723C15.1732 33.1723 15.3971 31.4572 14.7312 31.1928C14.0654 30.9285 13.2496 31.3181 13.6857 32.4322C14.2309 33.8145 15.1732 33.1723 15.1732 33.1723Z" fill="#FDB9A0"/>
<path d="M21.9289 50.5855C13.7943 53.1543 14.2265 41.6399 14.174 41.5596C10.9497 36.612 9.139 43.2062 9.45247 44.1382C12.3126 54.5503 19.5165 54.0373 22.3319 51.9893C22.0473 51.5789 21.9056 51.0854 21.9289 50.5855Z" fill="#5C619C"/>
<path d="M26.7209 48.1821C26.7209 48.1821 26.5885 48.3936 25.6364 49.1356C24.6843 49.8777 23.7245 50.3104 24.4526 49.2864C25.1808 48.2624 24.8265 47.7396 23.9951 48.838C23.1637 49.9364 22.5699 50.3613 22.5699 50.3613C22.3518 50.4461 22.1389 50.5205 21.9313 50.5845C21.9076 51.0849 22.0493 51.5792 22.3343 51.9902C22.6633 51.8806 22.8502 51.7944 22.8502 51.7944C22.8502 51.7944 25.3697 51.3343 25.909 50.2555C26.2401 49.5899 26.5118 48.8961 26.7209 48.1821Z" fill="#FDB9A0"/>
<path d="M45.1217 42.7996C45.1217 42.7996 24.2614 32.4345 31.0837 24.8046C37.9061 17.1747 50.6239 20.2231 51.2684 28.2564C51.9128 36.2896 36.4322 34.4022 45.1217 42.7996Z" fill="white"/>
<path d="M32.848 26.9878H42.0534C42.1092 26.9878 42.1627 26.9656 42.2021 26.9259C42.2415 26.8863 42.2637 26.8325 42.2637 26.7764C42.2637 26.7203 42.2415 26.6665 42.2021 26.6269C42.1627 26.5872 42.1092 26.5649 42.0534 26.5649H32.848C32.7922 26.5649 32.7387 26.5872 32.6993 26.6269C32.6599 26.6665 32.6377 26.7203 32.6377 26.7764C32.6377 26.8325 32.6599 26.8863 32.6993 26.9259C32.7387 26.9656 32.7922 26.9878 32.848 26.9878Z" fill="#91B3FA"/>
<path d="M44.7894 26.9878H47.5152C47.571 26.9878 47.6244 26.9656 47.6639 26.9259C47.7033 26.8863 47.7255 26.8325 47.7255 26.7764C47.7255 26.7203 47.7033 26.6665 47.6639 26.6269C47.6244 26.5872 47.571 26.5649 47.5152 26.5649H44.7894C44.7336 26.5649 44.6801 26.5872 44.6407 26.6269C44.6013 26.6665 44.5791 26.7203 44.5791 26.7764C44.5791 26.8325 44.6013 26.8863 44.6407 26.9259C44.6801 26.9656 44.7336 26.9878 44.7894 26.9878Z" fill="#91B3FA"/>
<path d="M32.5384 28.8597H35.9943C36.0501 28.8597 36.1036 28.8374 36.143 28.7977C36.1825 28.7581 36.2046 28.7043 36.2046 28.6482C36.2046 28.5921 36.1825 28.5384 36.143 28.4987C36.1036 28.459 36.0501 28.4368 35.9943 28.4368H32.5384C32.4826 28.4368 32.4291 28.459 32.3897 28.4987C32.3503 28.5384 32.3281 28.5921 32.3281 28.6482C32.3281 28.7043 32.3503 28.7581 32.3897 28.7977C32.4291 28.8374 32.4826 28.8597 32.5384 28.8597Z" fill="#91B3FA"/>
<path d="M41.0687 28.8597H47.2115C47.2673 28.8597 47.3207 28.8374 47.3602 28.7977C47.3996 28.7581 47.4218 28.7043 47.4218 28.6482C47.4218 28.5921 47.3996 28.5384 47.3602 28.4987C47.3207 28.459 47.2673 28.4368 47.2115 28.4368H41.0687C41.0129 28.4368 40.9594 28.459 40.92 28.4987C40.8806 28.5384 40.8584 28.5921 40.8584 28.6482C40.8584 28.7043 40.8806 28.7581 40.92 28.7977C40.9594 28.8374 41.0129 28.8597 41.0687 28.8597Z" fill="#91B3FA"/>
<path d="M32.2288 30.7391H41.4187C41.4745 30.7391 41.528 30.7168 41.5674 30.6771C41.6068 30.6375 41.629 30.5837 41.629 30.5276C41.629 30.4715 41.6068 30.4178 41.5674 30.3781C41.528 30.3384 41.4745 30.3162 41.4187 30.3162H32.2288C32.1731 30.3162 32.1196 30.3384 32.0801 30.3781C32.0407 30.4178 32.0186 30.4715 32.0186 30.5276C32.0186 30.5837 32.0407 30.6375 32.0801 30.6771C32.1196 30.7168 32.1731 30.7391 32.2288 30.7391Z" fill="#91B3FA"/>
<path d="M43.7181 30.7391H46.8995C46.9553 30.7391 47.0088 30.7168 47.0482 30.6771C47.0876 30.6375 47.1098 30.5837 47.1098 30.5276C47.1098 30.4715 47.0876 30.4178 47.0482 30.3781C47.0088 30.3384 46.9553 30.3162 46.8995 30.3162H43.7181C43.6623 30.3162 43.6088 30.3384 43.5694 30.3781C43.53 30.4178 43.5078 30.4715 43.5078 30.5276C43.5078 30.5837 43.53 30.6375 43.5694 30.6771C43.6088 30.7168 43.6623 30.7391 43.7181 30.7391Z" fill="#91B3FA"/>
</svg>
