<svg width="120" height="81" viewBox="0 0 120 81" fill="none" xmlns="http://www.w3.org/2000/svg">
<path d="M105.542 70.6477C103.113 72.2317 100.814 73.2526 98.9982 74.06C77.6502 83.544 52.3888 80.7797 47.0206 80.1045C39.0941 79.1088 23.7757 77.1791 12.6895 69.1126C-4.07113 56.9096 -1.46038 37.6829 11.5408 24.9821C13.9197 22.6613 26.4806 9.77593 52.0138 7.70861C67.4663 6.45772 85.4771 8.97579 98.5218 15.7462C125.901 29.9567 123.952 58.6529 105.542 70.6477Z" fill="#F6F9FD"/>
<path d="M65.9187 56.3602L61.5868 55.3591C60.8842 55.194 60.2742 54.7605 59.8878 54.1513C59.5013 53.5422 59.3692 52.806 59.5196 52.1006L60.9491 45.5475C60.9521 45.533 60.958 45.5192 60.9663 45.5069C60.9747 45.4946 60.9855 45.4842 60.9979 45.4761C61.0104 45.468 61.0244 45.4625 61.039 45.4598C61.0536 45.4572 61.0686 45.4574 61.0831 45.4606C61.1123 45.4671 61.1377 45.4848 61.154 45.5099C61.1703 45.5349 61.176 45.5653 61.1701 45.5946L59.7424 52.1368C59.6023 52.7859 59.7227 53.464 60.0778 54.0253C60.4329 54.5866 60.9943 54.9862 61.6412 55.1382L65.9731 56.1393C66.0024 56.146 66.0278 56.1641 66.0438 56.1896C66.0598 56.215 66.065 56.2458 66.0582 56.2751C66.0515 56.3044 66.0334 56.3298 66.0079 56.3457C65.9824 56.3617 65.9517 56.3669 65.9224 56.3602H65.9187Z" fill="#BDD0FB"/>
<path d="M73.9146 0.0720831C78.4042 1.70132 93.8857 7.10674 107.251 8.96226C107.397 8.98084 107.538 9.02887 107.665 9.10344C107.792 9.178 107.902 9.27756 107.989 9.39605C108.077 9.51455 108.139 9.64952 108.172 9.79278C108.206 9.93603 108.21 10.0846 108.184 10.2294L100.062 60.0767C100.007 60.4042 99.8251 60.6969 99.5561 60.8919C99.2871 61.0869 98.9522 61.1686 98.6235 61.1194C93.0215 60.2414 69.9668 56.5467 62.0258 53.9273C61.7924 53.8502 61.5956 53.6896 61.4732 53.4765C61.3508 53.2634 61.3115 53.0126 61.3627 52.7723L72.3511 0.939197C72.3863 0.773522 72.4566 0.617316 72.5574 0.481125C72.6581 0.344934 72.787 0.231928 72.9352 0.149737C73.0834 0.0675455 73.2475 0.0180822 73.4165 0.00468603C73.5854 -0.00871012 73.7553 0.0142728 73.9146 0.0720831Z" fill="#A6D1F9"/>
<path d="M74.1321 1.46056C78.4514 3.03186 93.3477 8.23092 106.211 10.0158C106.351 10.0339 106.486 10.0799 106.607 10.1509C106.729 10.2219 106.835 10.3166 106.92 10.4293C107.004 10.5421 107.065 10.6706 107.099 10.8072C107.133 10.9439 107.139 11.086 107.117 11.2251L99.2939 59.1969C99.2427 59.5129 99.0683 59.7959 98.8089 59.9838C98.5495 60.1717 98.2262 60.2494 97.9097 60.1998C92.5179 59.3635 70.3383 55.8081 62.6926 53.2882C62.4679 53.2141 62.2786 53.0596 62.1609 52.8544C62.0432 52.6493 62.0054 52.408 62.0549 52.1767L72.6265 2.29508C72.6603 2.13548 72.7279 1.98497 72.8249 1.85376C72.9219 1.72254 73.046 1.61369 73.1887 1.53455C73.3315 1.45542 73.4896 1.40786 73.6524 1.39509C73.8151 1.38233 73.9787 1.40465 74.1321 1.46056Z" fill="#BFDFFC"/>
<path d="M77.1357 27.1251H77.1249L73.2948 26.3829C73.0363 26.3455 72.8007 26.2139 72.6334 26.0134C72.4662 25.8128 72.3791 25.5576 72.3889 25.2967L72.6444 22.0183C72.6527 21.9211 72.6806 21.8266 72.7263 21.7404C72.7721 21.6543 72.8348 21.5782 72.9107 21.5169C73.001 21.4452 73.1048 21.3923 73.2158 21.3612C73.3269 21.3301 73.4431 21.3215 73.5575 21.3359C73.8854 21.3739 74.3384 21.4173 74.8366 21.4662C75.9237 21.5712 77.1502 21.6907 77.8641 21.8138H77.8804C78.1182 21.8493 78.3378 21.9619 78.5054 22.1343C78.673 22.3066 78.7793 22.5292 78.808 22.7678C78.8714 23.5444 78.596 24.9401 78.2844 26.4227C78.2206 26.6652 78.0654 26.8737 77.8514 27.0045C77.6373 27.1354 77.3809 27.1786 77.1357 27.1251ZM73.5303 21.6527C73.458 21.643 73.3845 21.6479 73.3142 21.6672C73.2438 21.6865 73.1781 21.7197 73.1209 21.7649C73.0781 21.799 73.0427 21.8415 73.0169 21.8898C72.991 21.938 72.9752 21.991 72.9705 22.0455L72.7151 25.3239C72.7125 25.5048 72.7764 25.6803 72.8945 25.8174C73.0127 25.9545 73.177 26.0436 73.3564 26.0679L77.1865 26.8101C77.3504 26.8499 77.5234 26.8251 77.6695 26.7409C77.8156 26.6566 77.9236 26.5193 77.971 26.3575C78.279 24.8985 78.5489 23.5281 78.4891 22.7949C78.4648 22.6244 78.3852 22.4666 78.2624 22.3456C78.1397 22.2246 77.9807 22.1472 77.8097 22.1251C77.1086 22.0057 75.8313 21.8808 74.8058 21.7812C74.3058 21.7323 73.851 21.6889 73.5213 21.6509L73.5303 21.6527Z" fill="white"/>
<path opacity="0.6" d="M73.8837 22.0493C74.6989 22.1434 76.4853 22.2882 77.326 22.4294C77.4905 22.4515 77.6432 22.5271 77.7605 22.6446C77.8777 22.762 77.953 22.9148 77.9746 23.0793C78.0253 23.702 77.7934 24.8787 77.5579 25.9631C77.5136 26.1268 77.4068 26.2666 77.2605 26.3526C77.1142 26.4386 76.9399 26.4638 76.7752 26.4229L73.7152 25.8291C73.5424 25.8029 73.3848 25.7152 73.2716 25.5821C73.1584 25.4491 73.0972 25.2796 73.0992 25.105L73.3039 22.4855C73.3125 22.4185 73.3345 22.3539 73.3685 22.2955C73.4025 22.2371 73.4478 22.1861 73.5018 22.1454C73.5559 22.1048 73.6175 22.0753 73.683 22.0588C73.7486 22.0423 73.8168 22.0391 73.8837 22.0493Z" fill="white"/>
<g opacity="0.6">
<path opacity="0.6" d="M80.9968 24.3796C80.9741 24.3716 80.9497 24.3698 80.9261 24.3741C80.9024 24.3785 80.8803 24.389 80.862 24.4046C80.8437 24.4201 80.8297 24.4402 80.8216 24.4628C80.8135 24.4855 80.8114 24.5098 80.8156 24.5335L80.9388 26.1627C80.945 26.2173 80.968 26.2685 81.0047 26.3094C81.0414 26.3503 81.0899 26.3787 81.1435 26.3908L100.711 29.9932C100.735 29.999 100.761 29.9994 100.786 29.9946C100.811 29.9897 100.835 29.9795 100.856 29.9648C100.877 29.9501 100.894 29.9312 100.907 29.9093C100.92 29.8873 100.929 29.8629 100.932 29.8375L101.102 28.784C101.11 28.7328 101.098 28.6807 101.068 28.638C101.039 28.5954 100.995 28.5654 100.944 28.5541L80.9968 24.3796Z" fill="white"/>
</g>
<path d="M79.0794 18.5863H79.0685L75.2294 17.8423C74.9708 17.8049 74.7352 17.6733 74.568 17.4728C74.4007 17.2722 74.3137 17.017 74.3235 16.7561L74.579 13.4777C74.5907 13.3798 74.6222 13.2853 74.6718 13.2C74.7213 13.1147 74.7877 13.0405 74.867 12.9817C74.9574 12.91 75.0611 12.8571 75.1722 12.826C75.2832 12.7949 75.3994 12.7863 75.5138 12.8007C75.8418 12.8387 76.2947 12.8822 76.793 12.9311C77.88 13.036 79.1066 13.1573 79.8204 13.2786H79.8367C80.0746 13.3142 80.2942 13.4268 80.4617 13.5991C80.6293 13.7715 80.7356 13.994 80.7643 14.2326C80.8278 15.0092 80.5524 16.4049 80.2407 17.8875C80.1762 18.1321 80.0188 18.3418 79.8019 18.4723C79.5851 18.6027 79.3259 18.6436 79.0794 18.5863ZM75.4722 13.1139C75.3999 13.1042 75.3264 13.1091 75.256 13.1284C75.1857 13.1477 75.1199 13.1809 75.0627 13.2261C75.0199 13.2603 74.9845 13.3027 74.9587 13.351C74.9328 13.3992 74.9171 13.4522 74.9123 13.5067L74.6569 16.7851C74.6543 16.966 74.7182 17.1415 74.8364 17.2786C74.9545 17.4157 75.1188 17.5048 75.2982 17.5291L79.1283 18.2713C79.2922 18.3112 79.4652 18.2864 79.6113 18.2021C79.7574 18.1178 79.8654 17.9805 79.9128 17.8187C80.2208 16.3597 80.4908 14.9893 80.431 14.2562C80.4066 14.0856 80.327 13.9278 80.2043 13.8068C80.0816 13.6858 79.9225 13.6084 79.7516 13.5864C79.0504 13.4669 77.7731 13.342 76.7477 13.2424C76.2476 13.1935 75.7929 13.1501 75.4631 13.1121L75.4722 13.1139Z" fill="white"/>
<path opacity="0.6" d="M75.8256 13.5136C76.6408 13.6077 78.4272 13.7526 79.2679 13.8938C79.4325 13.9158 79.5852 13.9914 79.7024 14.1089C79.8196 14.2264 79.8949 14.3792 79.9165 14.5437C79.9672 15.1664 79.7353 16.343 79.4998 17.4274C79.4555 17.5911 79.3487 17.731 79.2024 17.8169C79.0561 17.9029 78.8818 17.9281 78.7171 17.8872L75.6571 17.2934C75.4843 17.2672 75.3267 17.1795 75.2135 17.0465C75.1003 16.9134 75.0391 16.744 75.0411 16.5693L75.2295 13.9408C75.2391 13.873 75.2623 13.8078 75.2978 13.7492C75.3334 13.6906 75.3804 13.6398 75.4361 13.5999C75.4918 13.56 75.5551 13.5317 75.622 13.5169C75.6889 13.5021 75.7582 13.501 75.8256 13.5136Z" fill="white"/>
<g opacity="0.6">
<path opacity="0.6" d="M82.9387 15.8408C82.916 15.8328 82.8916 15.8309 82.8679 15.8353C82.8443 15.8397 82.8222 15.8502 82.8039 15.8658C82.7856 15.8813 82.7716 15.9014 82.7635 15.924C82.7554 15.9466 82.7533 15.971 82.7575 15.9946L82.8807 17.6239C82.8869 17.6784 82.9099 17.7297 82.9466 17.7706C82.9833 17.8115 83.0318 17.8399 83.0854 17.852L102.652 21.4544C102.677 21.4602 102.703 21.4606 102.728 21.4557C102.753 21.4508 102.777 21.4407 102.798 21.426C102.819 21.4113 102.836 21.3924 102.849 21.3704C102.862 21.3485 102.871 21.324 102.874 21.2987L103.044 20.2451C103.051 20.194 103.039 20.1419 103.01 20.0992C102.981 20.0566 102.937 20.0265 102.886 20.0152L82.9387 15.8408Z" fill="white"/>
</g>
<path d="M75.6212 35.3378H75.6103L71.7875 34.5938C71.5289 34.5564 71.2933 34.4248 71.1261 34.2243C70.9588 34.0238 70.8718 33.7685 70.8816 33.5076L71.1389 30.2293C71.1472 30.1321 71.175 30.0376 71.2208 29.9514C71.2666 29.8652 71.3293 29.7892 71.4052 29.7278C71.4955 29.6561 71.5993 29.6032 71.7103 29.5721C71.8214 29.541 71.9376 29.5324 72.052 29.5468C72.3799 29.5848 72.8329 29.6283 73.3311 29.6771C74.4182 29.7821 75.6447 29.9034 76.3586 30.0247H76.3749C76.6127 30.0603 76.8323 30.1729 76.9999 30.3452C77.1675 30.5176 77.2738 30.7401 77.3025 30.9787C77.3659 31.7553 77.0905 33.151 76.7789 34.6336C76.7155 34.8784 76.5591 35.0888 76.343 35.2203C76.1268 35.3518 75.8679 35.3939 75.6212 35.3378ZM72.0158 29.8672C71.9435 29.8575 71.87 29.8625 71.7996 29.8817C71.7293 29.901 71.6635 29.9343 71.6063 29.9795C71.5635 30.0136 71.5281 30.0561 71.5023 30.1043C71.4764 30.1526 71.4607 30.2055 71.4559 30.26L71.2005 33.5384C71.198 33.7193 71.2618 33.8949 71.38 34.0319C71.4981 34.169 71.6624 34.2581 71.8418 34.2824L75.6719 35.0246C75.8358 35.0645 76.0088 35.0397 76.1549 34.9554C76.301 34.8711 76.409 34.7338 76.4564 34.5721C76.7644 33.113 77.0344 31.7426 76.9746 31.0095C76.9497 30.8392 76.8698 30.6817 76.7472 30.5608C76.6246 30.4399 76.4659 30.3623 76.2952 30.3397C75.594 30.2202 74.3167 30.0953 73.2913 29.9957C72.7912 29.9469 72.3365 29.9034 72.0067 29.8654L72.0158 29.8672Z" fill="white"/>
<path opacity="0.6" d="M72.3671 30.2652C73.1824 30.3593 74.9688 30.5042 75.8094 30.6454C75.974 30.6674 76.1267 30.743 76.2439 30.8605C76.3612 30.978 76.4364 31.1308 76.458 31.2952C76.5088 31.918 76.2769 33.0946 76.0413 34.179C75.997 34.3427 75.8903 34.4826 75.7439 34.5685C75.5976 34.6545 75.4234 34.6797 75.2586 34.6388L72.1986 34.045C72.0258 34.0188 71.8682 33.9311 71.755 33.7981C71.6418 33.665 71.5806 33.4955 71.5826 33.3209L71.7873 30.696C71.7966 30.6295 71.819 30.5655 71.8533 30.5077C71.8876 30.4499 71.933 30.3995 71.987 30.3594C72.0409 30.3193 72.1023 30.2904 72.1675 30.2742C72.2328 30.258 72.3006 30.255 72.3671 30.2652Z" fill="white"/>
<g opacity="0.6">
<path opacity="0.6" d="M79.4802 32.5954C79.4575 32.5875 79.4331 32.5856 79.4095 32.59C79.3858 32.5943 79.3637 32.6048 79.3454 32.6204C79.3271 32.636 79.3131 32.656 79.305 32.6787C79.2969 32.7013 79.2948 32.7256 79.299 32.7493L79.4222 34.3785C79.4284 34.4331 79.4514 34.4844 79.4881 34.5252C79.5248 34.5661 79.5733 34.5945 79.6269 34.6066L99.1939 38.209C99.2188 38.2148 99.2446 38.2153 99.2697 38.2104C99.2948 38.2055 99.3185 38.1954 99.3394 38.1807C99.3602 38.166 99.3778 38.147 99.3908 38.1251C99.4038 38.1031 99.4121 38.0787 99.415 38.0533L99.5853 36.9998C99.5929 36.9486 99.5809 36.8965 99.5517 36.8539C99.5225 36.8112 99.4781 36.7812 99.4277 36.7699L79.4802 32.5954Z" fill="white"/>
</g>
<path d="M73.8074 43.1641H73.7965L69.9755 42.4183C69.7169 42.3809 69.4813 42.2493 69.3141 42.0488C69.1468 41.8482 69.0598 41.593 69.0696 41.3321L69.3251 38.0537C69.3334 37.9565 69.3612 37.862 69.407 37.7758C69.4528 37.6897 69.5155 37.6136 69.5914 37.5523C69.6817 37.4806 69.7854 37.4277 69.8965 37.3966C70.0076 37.3655 70.1237 37.3569 70.2382 37.3713C70.5661 37.4093 71.0172 37.4527 71.5155 37.5016C72.5464 37.603 73.8309 37.7279 74.5429 37.8492C74.7833 37.8839 75.0057 37.9964 75.1762 38.1693C75.3466 38.3422 75.4557 38.5661 75.4869 38.8068C75.5503 39.5834 75.2749 40.9791 74.9633 42.4617C74.899 42.7055 74.7427 42.9149 74.5271 43.0459C74.3116 43.1769 74.0535 43.2193 73.8074 43.1641ZM70.202 37.6917C70.1297 37.682 70.0561 37.6869 69.9858 37.7062C69.9155 37.7255 69.8497 37.7587 69.7925 37.8039C69.7497 37.8381 69.7143 37.8805 69.6885 37.9288C69.6626 37.977 69.6468 38.03 69.6421 38.0845L69.3867 41.3629C69.3841 41.5438 69.448 41.7193 69.5661 41.8564C69.6843 41.9935 69.8486 42.0826 70.028 42.1069L73.8581 42.8509C74.2204 42.9107 74.5828 42.7206 74.6516 42.4002C74.9596 40.9411 75.2296 39.5707 75.1698 38.8376C75.1441 38.6676 75.064 38.5106 74.9415 38.3899C74.8191 38.2691 74.6608 38.1912 74.4904 38.1678C73.7892 38.0483 72.5119 37.9234 71.4847 37.8238C70.9846 37.775 70.5317 37.7315 70.202 37.6935V37.6917Z" fill="white"/>
<path opacity="0.6" d="M70.5536 38.0891C71.3689 38.1832 73.1553 38.328 73.9959 38.4692C74.1605 38.4913 74.3132 38.5669 74.4305 38.6844C74.5477 38.8018 74.6229 38.9546 74.6446 39.1191C74.6953 39.7418 74.4634 40.9185 74.2279 42.0029C74.1836 42.1666 74.0768 42.3064 73.9305 42.3924C73.7841 42.4784 73.6099 42.5036 73.4452 42.4627L70.3851 41.8689C70.2123 41.8427 70.0548 41.755 69.9416 41.6219C69.8284 41.4889 69.7671 41.3194 69.7691 41.1448L69.9738 38.5253C69.9825 38.4583 70.0044 38.3937 70.0384 38.3353C70.0724 38.2769 70.1178 38.2259 70.1718 38.1852C70.2258 38.1446 70.2874 38.1151 70.353 38.0986C70.4185 38.0821 70.4867 38.0789 70.5536 38.0891Z" fill="white"/>
<g opacity="0.6">
<path opacity="0.6" d="M77.6667 40.4187C77.644 40.4107 77.6196 40.4088 77.596 40.4132C77.5723 40.4176 77.5502 40.4281 77.5319 40.4436C77.5136 40.4592 77.4997 40.4793 77.4915 40.5019C77.4834 40.5245 77.4813 40.5489 77.4855 40.5725L77.6087 42.2018C77.6149 42.2563 77.6379 42.3076 77.6746 42.3485C77.7113 42.3893 77.7598 42.4178 77.8134 42.4299L97.3805 46.0323C97.4053 46.038 97.4311 46.0385 97.4562 46.0336C97.4813 46.0287 97.505 46.0186 97.5259 46.0039C97.5468 45.9892 97.5643 45.9703 97.5773 45.9483C97.5903 45.9264 97.5986 45.9019 97.6015 45.8766L97.7718 44.823C97.7795 44.7719 97.7675 44.7198 97.7382 44.6771C97.709 44.6344 97.6647 44.6044 97.6142 44.5931L77.6667 40.4187Z" fill="white"/>
</g>
<path d="M71.8731 51.2188H71.8622L68.0321 50.4766C67.7736 50.4393 67.538 50.3077 67.3707 50.1071C67.2035 49.9066 67.1164 49.6513 67.1262 49.3905L67.3817 46.1121C67.39 46.0149 67.4179 45.9204 67.4636 45.8342C67.5094 45.748 67.5721 45.672 67.648 45.6106C67.7383 45.539 67.8421 45.486 67.9532 45.4549C68.0642 45.4238 68.1804 45.4152 68.2948 45.4296C68.6228 45.4676 69.0757 45.5111 69.5739 45.56C70.661 45.6649 71.8876 45.7862 72.6014 45.9075C72.8419 45.942 73.0645 46.0543 73.235 46.2273C73.4055 46.4003 73.5145 46.6243 73.5453 46.8652C73.6087 47.6418 73.3333 49.0375 73.0217 50.5201C72.9571 50.7619 72.8016 50.9695 72.5877 51.0997C72.3737 51.2298 72.1177 51.2725 71.8731 51.2188ZM68.2658 45.7464C68.1935 45.7367 68.12 45.7416 68.0497 45.7609C67.9793 45.7802 67.9136 45.8134 67.8564 45.8586C67.8136 45.8928 67.7782 45.9353 67.7524 45.9835C67.7265 46.0317 67.7107 46.0847 67.706 46.1392L67.4505 49.4194C67.448 49.6003 67.5119 49.7759 67.63 49.913C67.7482 50.05 67.9125 50.1391 68.0919 50.1635L71.922 50.9057C72.0859 50.9455 72.2589 50.9207 72.405 50.8364C72.5511 50.7522 72.6591 50.6149 72.7065 50.4531C73.0145 48.994 73.2844 47.6237 73.2246 46.8905C73.1981 46.7209 73.1177 46.5643 72.9954 46.4437C72.8731 46.3232 72.7153 46.245 72.5452 46.2207C71.8441 46.1012 70.5668 45.9763 69.5413 45.8768C69.0413 45.8279 68.5865 45.7844 68.2568 45.7464H68.2658Z" fill="white"/>
<path opacity="0.6" d="M68.619 46.1435C69.4343 46.2376 71.2207 46.3825 72.0614 46.5237C72.2259 46.5457 72.3786 46.6213 72.4959 46.7388C72.6131 46.8563 72.6884 47.0091 72.71 47.1736C72.7607 47.7963 72.5288 48.9729 72.2933 50.0573C72.249 50.221 72.1422 50.3609 71.9959 50.4468C71.8496 50.5328 71.6753 50.558 71.5106 50.5171L68.4505 49.9233C68.2777 49.8972 68.1202 49.8094 68.007 49.6764C67.8938 49.5433 67.8325 49.3739 67.8345 49.1992L68.0393 46.5798C68.0479 46.5128 68.0699 46.4482 68.1039 46.3898C68.1378 46.3314 68.1832 46.2803 68.2372 46.2397C68.2912 46.199 68.3528 46.1696 68.4184 46.1531C68.484 46.1366 68.5522 46.1333 68.619 46.1435Z" fill="white"/>
<g opacity="0.6">
<path opacity="0.6" d="M75.7316 48.4775C75.7089 48.4695 75.6846 48.4677 75.6609 48.472C75.6373 48.4764 75.6152 48.4869 75.5969 48.5025C75.5785 48.518 75.5646 48.5381 75.5565 48.5607C75.5483 48.5834 75.5463 48.6077 75.5505 48.6314L75.6737 50.2606C75.6799 50.3152 75.7029 50.3664 75.7396 50.4073C75.7763 50.4482 75.8248 50.4766 75.8784 50.4887L95.4454 54.0911C95.4703 54.0969 95.4961 54.0974 95.5212 54.0925C95.5462 54.0876 95.57 54.0775 95.5908 54.0628C95.6117 54.0481 95.6292 54.0291 95.6423 54.0072C95.6553 53.9852 95.6635 53.9608 95.6665 53.9354L95.8368 52.8819C95.8444 52.8307 95.8324 52.7786 95.8032 52.7359C95.7739 52.6933 95.7296 52.6633 95.6791 52.652L75.7316 48.4775Z" fill="white"/>
</g>
<path d="M42.502 72.0083L42.6686 73.5308C42.6686 73.5308 43.7032 74.0232 44.417 73.4873L44.0039 71.7893L42.502 72.0083Z" fill="#FDBBA2"/>
<path d="M42.9118 43.4186C42.8303 43.815 42.303 63.2337 44.2978 71.9555C44.3139 72.0248 44.3045 72.0975 44.2712 72.1604C44.2379 72.2233 44.183 72.272 44.1166 72.2976C43.5738 72.5015 43.0005 72.6123 42.4208 72.6253C42.3089 72.6284 42.1992 72.5947 42.1085 72.5292C42.0178 72.4638 41.9511 72.3703 41.9189 72.2632C41.35 70.2376 38.6016 60.0856 38.3226 50.417C38.011 39.6134 38.3226 50.055 38.3226 50.055L38.6324 43.377L42.9118 43.4186Z" fill="#353A6D"/>
<path d="M35.8563 73.3564C35.8563 73.3564 35.4939 73.9955 35.1316 75.6971C35.1159 75.7695 35.1156 75.8444 35.1308 75.917C35.146 75.9895 35.1763 76.058 35.2197 76.1181C35.263 76.1782 35.3186 76.2285 35.3827 76.2657C35.4468 76.303 35.518 76.3264 35.5918 76.3343C36.1443 76.3941 36.9977 76.4719 37.6807 76.4737C37.7551 76.4744 37.8288 76.4593 37.8969 76.4295C37.9651 76.3997 38.0261 76.3559 38.0761 76.3008C38.126 76.2458 38.1638 76.1808 38.1868 76.1101C38.2099 76.0394 38.2177 75.9647 38.2097 75.8908C38.1409 75.2681 37.9144 74.2435 37.1933 73.4415L35.8563 73.3564Z" fill="#3D416D"/>
<path d="M35.5522 71.3965L35.9526 73.7009C35.9526 73.7009 36.3675 74.0141 37.1937 73.7987L37.0125 71.3223L35.5522 71.3965Z" fill="url(#paint0_linear_2_1148)"/>
<path d="M34.6823 43.9367C32.885 54.1665 34.8091 69.2659 35.4776 72.2238C35.4953 72.3133 35.5392 72.3954 35.6037 72.4599C35.6682 72.5244 35.7505 72.5682 35.84 72.5859C36.2809 72.6691 36.7347 72.6556 37.1698 72.546C37.2552 72.5222 37.3308 72.4721 37.3861 72.4029C37.4414 72.3337 37.4735 72.2489 37.4778 72.1605C37.5938 69.7745 37.5648 55.1259 39.2044 49.3512C39.2867 49.0575 39.4686 48.8015 39.719 48.6271L42.8135 46.4729L43.0834 42.9465L34.6823 43.9367Z" fill="#353A6D"/>
<path d="M45.6981 24.6198C40.607 24.4877 34.9742 25.8544 34.9742 25.8544C33.3727 34.6903 34.5267 44.9092 34.5267 44.9092C38.4601 45.9791 42.9224 44.3661 42.9224 44.3661C43.6127 40.6732 46.7688 30.2932 46.7688 30.2932C48.956 30.0699 51.078 29.4191 53.014 28.3779C51.7457 26.8736 51.1515 24.971 50.8996 23.8523C49.2158 24.3748 47.4612 24.6337 45.6981 24.6198Z" fill="#5653E5"/>
<path d="M60.8095 17.2695C60.6828 17.0989 60.5037 16.9744 60.2996 16.9149C60.0955 16.8555 59.8776 16.8643 59.6789 16.9401C58.8981 20.0917 54.9376 22.6261 50.8955 23.839C51.1492 24.9631 51.738 26.8657 53.0098 28.3646C59.746 24.6699 60.8095 17.2695 60.8095 17.2695Z" fill="#FDBCA3"/>
<path d="M60.6865 17.4269C60.7372 17.5934 60.1284 17.8414 59.7806 17.1572C59.7715 16.8313 59.5867 15.4338 59.7806 15.1659C60.8314 13.7611 62.8606 12.0088 62.8606 12.0088C62.9537 12.0914 63.0109 12.207 63.02 12.3311C63.0291 12.4551 62.9895 12.5778 62.9095 12.6732L61.9239 13.6797C62.125 14.0417 62.3714 14.3639 62.4837 14.8111C62.5658 15.1524 62.5132 15.5121 62.337 15.8158C62.1558 16.1235 61.9257 16.5218 61.7011 16.8331C61.5876 17.0021 61.4375 17.1432 61.2618 17.246C61.0861 17.3488 60.8894 17.4107 60.6865 17.4269Z" fill="#FDBCA3"/>
<path d="M61.4968 14.3367L60.5909 15.0825L60.3047 15.8301L61.0892 16.7172C61.0892 16.7172 61.37 15.2309 61.5711 14.9069C61.7722 14.5829 61.6798 14.4326 61.4968 14.3367Z" fill="#FDBCA3"/>
<path d="M36.8789 30.8021L34.9729 25.8564C34.9729 25.8564 30.1862 29.0407 29.3564 33.1264C30.7917 33.2414 32.1915 33.6304 33.48 34.2723C33.8587 32.3444 36.8789 30.8021 36.8789 30.8021Z" fill="#5653E5"/>
<path d="M40.9873 35.4793C40.9873 35.4793 35.6172 38.4445 33.8399 35.8522C33.6742 35.6284 33.5565 35.3729 33.4942 35.1016C33.4318 34.8303 33.4261 34.5491 33.4775 34.2755C32.192 33.6334 30.7954 33.2432 29.363 33.126C29.0844 34.4459 29.2874 35.8219 29.9355 37.0054C33.0373 42.7982 41.6794 36.799 41.6794 36.799L40.9873 35.4793Z" fill="#FDBCA3"/>
<path d="M40.5759 20.4424L38.9109 25.1092C38.897 25.1466 38.8969 25.1877 38.9105 25.2251C38.9241 25.2626 38.9506 25.294 38.9852 25.3138C39.4254 25.5618 41.0089 26.2823 42.9384 25.0857C43.0379 25.0248 43.1227 24.9428 43.1869 24.8455C43.251 24.7482 43.293 24.638 43.3098 24.5227L43.8733 20.475L40.5759 20.4424Z" fill="#FDBCA3"/>
<path d="M44.1436 16.1423C44.1436 16.1423 45.8902 19.5058 45.6492 20.849C45.4082 22.1922 43.2033 22.08 41.2883 20.9649L39.9766 17.3443L44.1436 16.1423Z" fill="#FDBCA3"/>
<path d="M41.3915 19.1895C41.4099 19.1816 41.4264 19.1698 41.4398 19.1549C41.4531 19.14 41.4631 19.1224 41.469 19.1033C41.4748 19.0842 41.4765 19.064 41.4737 19.0442C41.471 19.0243 41.4639 19.0054 41.4531 18.9885C41.2352 18.6653 41.0712 18.3089 40.9675 17.9332C40.9675 17.9332 40.6505 17.725 41.7865 17.4643C42.9224 17.2036 44.6183 16.7999 44.9824 15.8351C45.3466 14.8702 44.4498 12.5241 42.9786 14.3869C42.9658 14.4037 42.9492 14.4174 42.9302 14.4269C42.9112 14.4363 42.8902 14.4412 42.869 14.4412C42.8478 14.4412 42.8268 14.4363 42.8078 14.4269C42.7888 14.4174 42.7722 14.4037 42.7594 14.3869C42.5239 14.0755 41.9042 13.4256 41.031 13.8076C40.2139 14.1696 40.1251 14.7598 40.1251 15.0603C40.1257 15.0808 40.1217 15.1013 40.1134 15.1201C40.1051 15.1389 40.0926 15.1556 40.077 15.169C40.0613 15.1824 40.0429 15.1921 40.023 15.1974C40.0031 15.2027 39.9823 15.2035 39.962 15.1997C39.5508 15.1182 38.5652 15.0404 38.0941 16.0487C37.7064 16.8778 37.9492 17.3521 38.172 17.5856C38.1886 17.6027 38.2004 17.6238 38.2064 17.6469C38.2123 17.6699 38.2122 17.6941 38.206 17.7171C38.1998 17.7401 38.1877 17.7611 38.171 17.778C38.1542 17.7949 38.1333 17.8072 38.1104 17.8137C37.8386 17.8933 37.489 18.1196 37.5161 18.7532C37.556 19.6276 38.5362 19.5606 38.8152 19.5226C38.8376 19.5196 38.8604 19.5221 38.8815 19.53C38.9027 19.5379 38.9216 19.5509 38.9366 19.5678C39.1721 19.8339 40.2392 20.9671 41.4024 21.112C41.4255 21.1146 41.449 21.1114 41.4705 21.1026C41.4921 21.0939 41.5112 21.0798 41.526 21.0618C41.5407 21.0438 41.5508 21.0224 41.5551 20.9996C41.5595 20.9767 41.558 20.9531 41.5509 20.9309L41.0599 19.461C41.0494 19.4283 41.0513 19.3928 41.0653 19.3614C41.0794 19.3299 41.1046 19.3048 41.136 19.2908L41.3915 19.1895Z" fill="#663F5C"/>
<path d="M41.5926 19.406C41.5926 19.406 40.3334 18.5262 40.2337 19.2557C40.1341 19.9852 41.3643 20.3256 41.9785 20.0595L41.5926 19.406Z" fill="url(#paint1_linear_2_1148)"/>
<path d="M39.9002 40.1635L42.8244 29.9573C42.8405 29.9008 42.873 29.8503 42.9178 29.8123C42.9627 29.7743 43.0178 29.7504 43.0762 29.7437C43.6052 29.6822 45.1416 29.5084 46.9153 29.3581C49.0514 29.1771 51.5317 29.0323 53.0137 29.1554C53.0623 29.1593 53.1091 29.175 53.1502 29.2011C53.1913 29.2272 53.2254 29.263 53.2495 29.3053C53.2737 29.3476 53.2871 29.3951 53.2886 29.4438C53.2901 29.4924 53.2797 29.5407 53.2583 29.5844C52.4158 31.2879 48.9499 38.2175 47.2124 40.4876C47.1842 40.5246 47.1477 40.5545 47.1059 40.5749C47.0641 40.5954 47.018 40.6057 46.9715 40.6053L40.1774 40.5491C40.1314 40.5478 40.0864 40.5359 40.0458 40.5143C40.0052 40.4928 39.9702 40.4621 39.9434 40.4248C39.9165 40.3875 39.8987 40.3445 39.8912 40.2992C39.8837 40.2539 39.8868 40.2075 39.9002 40.1635Z" fill="#A7ACD2"/>
<path d="M40.5994 37.6997C40.5994 37.6997 40.1918 36.0252 40.3566 35.4314C40.5215 34.8376 40.8386 34.0737 41.9003 34.2439C42.6862 34.3898 43.4597 34.5962 44.2139 34.8612C44.2139 34.8612 44.1505 35.6342 43.3442 35.3843L43.8443 35.7717C43.8443 35.7717 43.7736 36.3909 43.0906 36.0596L43.5562 36.5719C43.5193 36.6393 43.4685 36.6982 43.4071 36.7446C43.3458 36.791 43.2752 36.8238 43.2002 36.8409C43.1252 36.858 43.0474 36.859 42.972 36.8439C42.8966 36.8287 42.8252 36.7977 42.7627 36.7529C42.2554 36.4289 42.0217 37.9006 40.5994 37.6997Z" fill="#FDBCA3"/>
<path d="M47.5712 33.264C48.0455 33.264 48.43 32.8798 48.43 32.4059C48.43 31.932 48.0455 31.5479 47.5712 31.5479C47.0969 31.5479 46.7124 31.932 46.7124 32.4059C46.7124 32.8798 47.0969 33.264 47.5712 33.264Z" fill="#8181B2"/>
<path d="M43.1484 32.9705L42.9292 32.9053L43.5235 30.8887C43.5696 30.7288 43.6584 30.5843 43.7803 30.4708C43.9022 30.3573 44.0526 30.279 44.2156 30.2443C46.1034 29.8496 51.0749 29.77 51.2814 29.7664V29.9945C51.2307 29.9945 46.1215 30.0777 44.2554 30.4669C44.1329 30.4932 44.0198 30.5522 43.9283 30.6376C43.8367 30.7231 43.77 30.8318 43.7354 30.9521L43.1484 32.9705Z" fill="url(#paint2_linear_2_1148)"/>
<path d="M8.53348 61.5325C8.22185 61.9941 6.98261 72.4302 6.78875 76.2861C6.78705 76.347 6.79761 76.4077 6.8198 76.4645C6.84198 76.5214 6.87534 76.5732 6.91791 76.6169C6.96047 76.6606 7.01138 76.6953 7.06761 76.719C7.12385 76.7427 7.18427 76.755 7.24531 76.7549C7.35417 76.7549 7.45945 76.7161 7.54216 76.6454C7.62488 76.5747 7.6796 76.4768 7.69644 76.3693L9.96296 61.8565L8.53348 61.5325Z" fill="#8181B2"/>
<path d="M18.4963 61.5325C18.8079 61.9941 20.0472 72.4302 20.241 76.2861C20.2427 76.3466 20.2323 76.4068 20.2105 76.4633C20.1886 76.5197 20.1558 76.5713 20.1138 76.6149C20.0718 76.6586 20.0215 76.6934 19.9659 76.7175C19.9103 76.7415 19.8505 76.7542 19.7899 76.7549C19.6811 76.7549 19.5758 76.7161 19.4931 76.6454C19.4103 76.5747 19.3556 76.4768 19.3388 76.3693L17.0723 61.8637L18.4963 61.5325Z" fill="#8181B2"/>
<path d="M6.65771 60.7181V60.8249C6.65771 61.6431 7.35705 62.3147 8.23938 62.331L18.715 62.512C19.5864 62.5265 20.313 61.8983 20.3546 61.091V60.986C20.3981 60.146 19.6843 59.4364 18.7748 59.4201L8.29374 59.2391C7.40416 59.2228 6.66677 59.8871 6.65771 60.7181Z" fill="#8181B2"/>
<path d="M28.727 75.9053C26.8645 75.9053 26.0402 75.746 25.6724 75.5994C25.7091 75.7541 25.7971 75.892 25.922 75.9906C26.047 76.0891 26.2016 76.1427 26.3608 76.1424H32.9484C32.9975 76.1422 33.0458 76.1307 33.0898 76.1088C33.1337 76.0869 33.172 76.0553 33.2018 76.0163C33.2315 75.9773 33.2519 75.932 33.2614 75.8839C33.2709 75.8358 33.2692 75.7861 33.2564 75.7388C32.5063 75.8039 30.912 75.9053 28.727 75.9053Z" fill="#3D416D"/>
<path d="M33.2584 75.7431C33.2481 75.7025 33.2296 75.6643 33.2041 75.6309C32.7022 74.9901 31.6949 73.9854 30.3234 74.0017C28.3141 74.0306 27.6057 74.2479 26.0531 74.0143L25.6907 75.2345C25.6554 75.3521 25.6516 75.477 25.6798 75.5965C26.0422 75.7413 26.872 75.9024 28.7345 75.9024C30.9122 75.9061 32.5066 75.8047 33.2584 75.7431Z" fill="#3B3F6D"/>
<path d="M26.5042 72.7041L26.0513 74.241C26.0513 74.241 27.0532 74.6972 27.9337 74.3315L28.1149 73.001L26.5042 72.7041Z" fill="#FDBBA2"/>
<path d="M40.1593 74.9449C38.7099 76.1107 37.9652 76.5017 37.5884 76.6194C37.7132 76.7181 37.8677 76.7718 38.0268 76.7718C38.186 76.7718 38.3405 76.7181 38.4653 76.6194L43.6016 72.4956C43.64 72.4651 43.6709 72.4261 43.6917 72.3816C43.7126 72.3372 43.7229 72.2886 43.7219 72.2395C43.7208 72.1905 43.7084 72.1423 43.6857 72.0988C43.6629 72.0553 43.6304 72.0177 43.5907 71.9888C43.0418 72.4938 41.8623 73.5709 40.1593 74.9449Z" fill="#3D416D"/>
<path d="M43.589 71.978C43.5555 71.9531 43.5173 71.9352 43.4767 71.9255C42.6867 71.7445 41.2736 71.5942 40.2155 72.4686C38.6664 73.7484 38.257 74.3549 36.8945 75.1514L37.3692 76.328C37.4152 76.4423 37.4909 76.5423 37.5884 76.6177C37.9671 76.5 38.7081 76.109 40.1593 74.9432C41.8624 73.571 43.0418 72.4939 43.589 71.978Z" fill="#3B3F6D"/>
<path d="M16.8331 55.2007C16.8331 55.2007 27.9827 56.1058 30.271 57.192C32.5592 58.2781 28.4048 73.3467 28.4048 73.3467C28.4048 73.3467 27.7816 73.6454 26.3974 73.2164C26.3974 73.2164 27.8178 62.0887 26.7598 59.6756L14.688 57.7025L16.8331 55.2007Z" fill="#353A6D"/>
<path d="M35.7881 73.029C35.8914 73.1231 36.8951 75.1469 36.8951 75.1469C36.8951 75.1469 38.0129 74.9044 38.2412 74.1984L37.2357 72.3718L35.7881 73.029Z" fill="#FDBBA2"/>
<path d="M10.1185 55.1062C9.87827 55.7573 9.76035 56.4471 9.77064 57.1409C9.78639 57.916 10.0966 58.656 10.6382 59.211C11.1799 59.766 11.9125 60.0944 12.6876 60.1297L25.8682 60.7307C26.0034 60.7369 26.1331 60.7863 26.2381 60.8717C26.3431 60.9571 26.4179 61.0739 26.4515 61.205C26.7614 62.4015 28.276 66.0782 35.6752 73.4133C35.7711 73.5079 35.8961 73.5672 36.03 73.5817C36.1639 73.5962 36.2988 73.5649 36.4126 73.493L37.4652 72.8286C37.5185 72.795 37.5565 72.742 37.5714 72.6809C37.5863 72.6198 37.5768 72.5552 37.545 72.501L29.8703 59.4056C29.4657 58.7392 28.8149 58.2586 28.0586 58.0678L16.8256 55.1985L10.1185 55.1062Z" fill="#353A6D"/>
<path d="M23.1071 34.6533C23.1071 34.6533 21.6957 37.1479 20.2554 38.3553L23.2321 40.0081C23.2321 40.0081 23.9024 37.3669 25.4352 36.5939L23.1071 34.6533Z" fill="#FDBCA3"/>
<path d="M9.87988 55.2017C9.87988 55.2017 13.4382 56.0688 16.8352 55.2017C16.8352 55.2017 21.5875 48.8188 23.4264 47.0809C23.4264 47.0809 26.3597 51.7043 32.8875 52.3596L33.2498 51.5468C33.2498 51.5468 28.0537 49.1536 26.4521 45.4752C24.8505 41.7968 24.2091 40.2255 22.7543 39.2696C21.8484 38.6723 21.3049 38.2631 21.024 38.0405C20.9495 37.9809 20.8584 37.9456 20.7631 37.9394C20.6679 37.9333 20.573 37.9566 20.4914 38.0061C18.9478 38.9474 11.679 43.9202 9.87988 55.2017Z" fill="#5C619B"/>
<path d="M32.4937 51.1219L33.2292 50.9264L35.4595 50.4105C35.5925 50.3797 35.7303 50.3755 35.865 50.3982C35.9996 50.4209 36.1284 50.4699 36.244 50.5426L38.1626 51.7482H32.8651L32.4937 51.1219Z" fill="#FDBCA3"/>
<path d="M25.35 30.9111C25.35 30.9111 26.7215 33.1902 26.9607 34.4502C27.1998 35.7101 27.5803 36.4976 26.1454 36.9465C24.7105 37.3955 23.377 36.8271 22.54 35.6522C22.54 35.6522 21.2337 33.8419 21.3641 33.0147C21.4946 32.1874 25.35 30.9111 25.35 30.9111Z" fill="#FDBCA3"/>
<path d="M22.9226 34.6758L23.1037 34.6505C23.1037 34.6505 22.1326 33.1842 22.7686 32.8203C23.4045 32.4565 25.9953 31.564 26.4446 30.543C26.8776 29.5601 26.229 28.4504 25.4463 28.2187C25.4221 28.2122 25.3963 28.2152 25.3741 28.2269C25.352 28.2387 25.3351 28.2583 25.3268 28.282L25.2815 28.4051C25.273 28.4219 25.2601 28.4359 25.2441 28.4458C25.2281 28.4556 25.2097 28.4608 25.1909 28.4608C25.1721 28.4608 25.1537 28.4556 25.1377 28.4458C25.1217 28.4359 25.1088 28.4219 25.1003 28.4051C25.0923 28.3878 25.0796 28.3731 25.0635 28.3628C25.0475 28.3525 25.0288 28.347 25.0097 28.347C24.9906 28.347 24.9719 28.3525 24.9559 28.3628C24.9398 28.3731 24.9271 28.3878 24.9191 28.4051C24.7796 28.711 24.3647 29.2324 23.1182 29.6361C21.3499 30.2081 20.2484 31.0988 20.3843 32.3515C20.3859 32.3692 20.3828 32.3869 20.3754 32.403C20.3679 32.4192 20.3564 32.433 20.3419 32.4433C20.3274 32.4536 20.3105 32.4599 20.2928 32.4615C20.2751 32.4632 20.2573 32.4602 20.2411 32.4529C20.0962 32.3895 19.8788 32.3786 19.6233 32.6574C19.1813 33.1407 19.5273 34.1979 20.7358 34.9474C20.7495 34.9553 20.7612 34.9663 20.7698 34.9796C20.7784 34.9929 20.7838 35.008 20.7854 35.0238C20.7869 35.0395 20.7848 35.0554 20.779 35.0702C20.7732 35.0849 20.764 35.098 20.7521 35.1085C20.5709 35.2624 20.3172 35.6081 21.1343 35.9159C21.9514 36.2236 22.4261 36.1241 22.5964 36.0571C22.6181 36.0483 22.636 36.0323 22.6472 36.0119C22.6584 35.9915 22.6623 35.9678 22.658 35.9448L22.4424 34.8442C22.4398 34.8307 22.44 34.8169 22.4429 34.8035C22.4459 34.7901 22.4515 34.7774 22.4594 34.7663C22.4674 34.7551 22.4775 34.7456 22.4892 34.7385C22.501 34.7314 22.514 34.7267 22.5276 34.7247L22.9226 34.6758Z" fill="#663F5C"/>
<path d="M22.9983 34.8999C22.9983 34.8999 22.3932 33.4083 21.7573 33.9332C21.1213 34.4582 22.3443 35.6168 22.9095 35.6005L22.9983 34.8999Z" fill="#FDBCA3"/>
<path d="M30.4462 52.7847H30.4788L41.795 52.7738C41.9291 52.7738 42.0577 52.7206 42.1525 52.6259C42.2473 52.5311 42.3005 52.4027 42.3005 52.2687C42.3005 52.1348 42.2473 52.0063 42.1525 51.9116C42.0577 51.8169 41.9291 51.7637 41.795 51.7637L30.4788 51.7727C30.3447 51.7694 30.2148 51.8193 30.1176 51.9117C30.0205 52.004 29.964 52.1312 29.9606 52.2651C29.9572 52.3991 30.0073 52.5289 30.0997 52.626C30.1921 52.723 30.3193 52.7795 30.4534 52.7828L30.4462 52.7847Z" fill="#8282B4"/>
<path d="M46.1728 41.7123L46.1619 41.7359L41.4006 51.9946C41.3712 52.055 41.3541 52.1205 41.3504 52.1875C41.3467 52.2545 41.3563 52.3216 41.3788 52.3848C41.4013 52.448 41.4362 52.5062 41.4814 52.5558C41.5266 52.6054 41.5813 52.6455 41.6422 52.6737C41.7031 52.702 41.769 52.7179 41.8361 52.7204C41.9032 52.7229 41.9702 52.712 42.033 52.6884C42.0959 52.6648 42.1534 52.6289 42.2022 52.5828C42.251 52.5367 42.2902 52.4814 42.3173 52.42L47.0787 42.1613C47.1382 42.0413 47.1477 41.9025 47.1048 41.7755C47.062 41.6486 46.9705 41.5438 46.8504 41.4843C46.7302 41.4247 46.5914 41.4153 46.4643 41.4581C46.3372 41.5009 46.2324 41.5923 46.1728 41.7123Z" fill="#A6ABD1"/>
<path d="M75.8062 63.0942H74.6123V76.0014H75.8062V63.0942Z" fill="#8181B2"/>
<path d="M80.4408 76.25H69.9761C69.9761 76.148 69.9962 76.047 70.0352 75.9528C70.0743 75.8586 70.1315 75.773 70.2037 75.7008C70.2759 75.6287 70.3616 75.5715 70.4559 75.5325C70.5502 75.4935 70.6513 75.4734 70.7533 75.4734H79.6599C79.762 75.4734 79.8631 75.4935 79.9574 75.5325C80.0517 75.5715 80.1374 75.6287 80.2095 75.7008C80.2817 75.773 80.339 75.8586 80.378 75.9528C80.4171 76.047 80.4372 76.148 80.4372 76.25H80.4408Z" fill="#8181B2"/>
<path d="M80.7082 60.2002H70.1239C69.4145 60.2002 68.8394 60.7748 68.8394 61.4837V62.644C68.8394 63.3529 69.4145 63.9275 70.1239 63.9275H80.7082C81.4176 63.9275 81.9928 63.3529 81.9928 62.644V61.4837C81.9928 60.7748 81.4176 60.2002 80.7082 60.2002Z" fill="#A5AAD0"/>
<path d="M66.392 54.489C65.0409 54.7695 63.7592 55.316 62.6217 56.0965C62.4674 56.1985 62.3446 56.3415 62.2671 56.5094C62.1897 56.6773 62.1606 56.8634 62.1832 57.0469C62.4224 58.9386 63.4044 65.0591 66.6438 71.0384C66.8136 71.3541 66.865 71.72 66.7888 72.0702L66.2253 74.6879L65.1817 75.6654H67.8704L69.6604 70.8248L68.8886 70.5822C68.5995 70.4906 68.3464 70.3106 68.165 70.0677C67.9837 69.8248 67.8831 69.5311 67.8776 69.2281L67.787 64.0363C67.8631 61.7228 66.3666 60.1262 66.3666 60.1262L70.6605 59.918L66.392 54.489Z" fill="#F4A98F"/>
<path d="M64.1313 76.1361C63.8868 76.4565 66.7675 76.8783 68.2223 76.1778C68.2223 76.1778 70.2388 72.6713 70.2388 70.8665C70.2388 70.8665 70.0794 70.5044 68.8945 70.5823C68.8945 70.5823 68.2169 74.735 67.5012 75.2002C66.7856 75.6655 65.5083 75.2473 65.5083 75.2473C65.5083 75.2473 64.4937 75.6673 64.1313 76.1361Z" fill="#3B3F6D"/>
<path d="M70.1241 60.203C70.1006 60.1632 65.5005 59.6509 65.5005 59.6509C65.5694 60.7681 65.4612 61.8892 65.1798 62.9727C64.7087 64.897 57.9563 73.2314 57.9563 73.2314L58.6647 75.4743C56.5935 76.2259 54.3487 76.3611 52.2021 75.8635L56.5902 73.2314C56.5902 73.2314 60.6975 59.2454 63.214 56.7581L67.825 55.165L70.1241 60.203Z" fill="#FDBCA3"/>
<path d="M80.4404 52.064C80.4404 52.064 83.091 56.0031 83.3084 57.7989C83.5259 59.5946 82.5837 60.3332 79.8009 60.4455C77.018 60.5577 69.597 60.5631 69.597 60.5631L63.2559 55.1523C63.2559 55.1523 67.8777 53.5086 69.0698 53.0397C70.2619 52.5708 80.4404 52.064 80.4404 52.064Z" fill="#353A6D"/>
<path d="M58.3967 74.7166C58.3967 74.7166 59.1594 75.4551 58.6449 76.2752C58.6449 76.2752 52.6045 77.345 50.9648 76.8599C50.9648 76.8599 51.3055 76.0833 53.1516 75.1999L53.0158 75.3049C52.9789 75.3337 52.9522 75.3734 52.9394 75.4183C52.9266 75.4632 52.9283 75.5111 52.9444 75.5549C52.9605 75.5988 52.9902 75.6364 53.029 75.6624C53.0679 75.6884 53.114 75.7014 53.1607 75.6995C54.3782 75.6307 56.8966 75.4081 58.3967 74.7166Z" fill="#3B3F6D"/>
<path d="M68.9598 27.0872C74.377 26.1676 76.9316 30.581 76.7504 31.5097C76.7455 31.5378 76.7477 31.5668 76.7569 31.5939C76.7662 31.621 76.7821 31.6453 76.8032 31.6646C76.8243 31.6839 76.85 31.6976 76.8778 31.7044C76.9056 31.7111 76.9347 31.7108 76.9624 31.7034C77.5838 31.5368 78.9553 31.325 79.8105 32.3913C80.5623 33.3326 79.9916 34.2214 79.5423 34.7084C79.5168 34.7335 79.4999 34.766 79.494 34.8013C79.4881 34.8365 79.4934 34.8728 79.5092 34.9048C79.5251 34.9369 79.5506 34.9632 79.5823 34.9799C79.6139 34.9966 79.65 35.003 79.6854 34.998C80.8287 34.8532 83.309 34.817 83.7202 37.145C84.0989 39.3173 82.5879 39.9256 81.6929 40.0975C81.6594 40.1043 81.6288 40.1209 81.6049 40.1453C81.581 40.1696 81.565 40.2006 81.5589 40.2341C81.5529 40.2677 81.5571 40.3023 81.5709 40.3335C81.5848 40.3646 81.6077 40.3909 81.6367 40.4089C82.0842 40.6931 82.6024 41.2778 82.3922 42.4328C82.0643 44.243 78.5096 44.0964 78.0947 44.0729C78.0686 44.0715 78.0431 44.0641 78.0204 44.0511L72.3279 40.8071C72.306 40.7946 72.2872 40.7774 72.2728 40.7568C72.2584 40.7361 72.2487 40.7125 72.2445 40.6877L71.0959 34.0567C71.0911 34.0301 71.0927 34.0028 71.1006 33.977C71.1085 33.9512 71.1224 33.9276 71.1412 33.9083L67.4307 28.6766C66.0737 28.4775 68.8892 27.0981 68.9598 27.0872Z" fill="#663F5C"/>
<path d="M73.2729 51.5427C73.2729 51.5427 70.1929 48.6065 68.6674 46.655C68.2631 46.1363 67.9887 45.5285 67.8671 44.8824C67.7455 44.2363 67.7801 43.5704 67.968 42.9404C68.6619 40.6051 69.8939 38.1866 70.0062 37.8101C70.1874 37.2326 73.6388 37.258 73.6388 37.258C73.6388 37.258 80.4492 41.6732 83.1234 49.1532L80.1213 50.0963C80.1213 50.0963 78.344 47.1166 76.5866 45.2213C76.5866 45.2213 79.6267 49.2328 79.7336 50.8765L73.2729 51.5427Z" fill="#5653E5"/>
<path d="M69.5879 34.5943C69.6241 34.7138 70.5264 37.7061 70.597 37.7677C70.6677 37.8292 72.5773 37.9324 73.4777 37.3187L71.2438 32.9614L69.5879 34.5943Z" fill="#FDBCA3"/>
<path d="M65.968 30.7495C65.968 30.7495 65.5313 32.4638 66.7398 34.7683C67.9482 37.0727 69.3143 37.0709 70.0626 36.3323C70.8108 35.5937 71.7312 34.341 71.512 32.1144C71.2928 29.8878 66.5966 28.5681 65.968 30.7495Z" fill="#FDBCA3"/>
<path d="M69.84 32.2379C69.84 32.2379 67.8361 29.1767 65.9573 31.5862L65.9229 32.4624C65.9229 32.4624 63.7216 32.2017 64.1111 30.185C64.5007 28.1684 66.3976 26.9085 68.8471 27.7828C71.2966 28.6572 72.6989 29.5514 72.8584 31.3056C73.0178 33.0597 71.6191 32.6742 71.6191 32.6742C71.6191 32.6742 71.1644 31.4396 70.5157 31.311C69.8671 31.1825 70.0356 32.1456 70.0356 32.1456L69.84 32.2379Z" fill="#663F5C"/>
<path d="M70.3527 32.1945C70.3527 32.1945 69.3128 30.6268 70.3781 30.3932C71.4434 30.1597 71.284 31.9211 71.1626 32.5656L70.3527 32.1945Z" fill="#FDBCA3"/>
<path d="M66.9844 51.7607L69.2509 49.5775L72.3871 50.9008C72.3871 50.9008 75.5087 51.3841 77.2969 50.9008L79.0833 50.4174L83.1218 49.1611L83.7559 50.9515C83.8324 51.1728 83.8354 51.413 83.7642 51.6361C83.693 51.8593 83.5516 52.0534 83.3609 52.1897C83.0394 52.4298 82.6982 52.6424 82.3409 52.8251C81.8082 53.0568 69.231 52.664 69.231 52.664L66.9844 51.7607Z" fill="#FDBCA3"/>
<path d="M75.567 52.7903H75.5362L62.3828 52.7758C62.2266 52.7758 62.0768 52.7138 61.9664 52.6035C61.856 52.4931 61.7939 52.3435 61.7939 52.1875C61.7939 52.0314 61.856 51.8818 61.9664 51.7714C62.0768 51.6611 62.2266 51.5991 62.3828 51.5991L75.5362 51.6136C75.6924 51.6098 75.8437 51.6681 75.9568 51.7757C76.0699 51.8833 76.1357 52.0314 76.1395 52.1875C76.1433 52.3435 76.085 52.4947 75.9773 52.6077C75.8696 52.7208 75.7213 52.7864 75.5652 52.7903H75.567Z" fill="#8282B4"/>
<path d="M50.557 40.8569H61.5109C61.9068 40.857 62.2944 40.9695 62.6287 41.1814C62.963 41.3932 63.23 41.6957 63.3988 42.0535L68.4717 52.7829H54.8509C54.5964 52.7829 54.3479 52.7064 54.1376 52.5634C53.9272 52.4204 53.7648 52.2174 53.6714 51.981L49.7435 42.0517C49.6913 41.9192 49.6722 41.7759 49.688 41.6344C49.7038 41.4928 49.754 41.3572 49.8342 41.2395C49.9144 41.1217 50.0221 41.0253 50.1481 40.9586C50.2741 40.892 50.4144 40.8571 50.557 40.8569Z" fill="#A7ACD2"/>
<path d="M57.8833 47.9592C58.3367 47.8134 58.5119 47.0981 58.2746 46.3615C58.0373 45.6248 57.4774 45.1459 57.0241 45.2917C56.5707 45.4375 56.3955 46.1528 56.6327 46.8894C56.87 47.6261 57.4299 48.105 57.8833 47.9592Z" fill="#8181B2"/>
<path d="M90.5631 74.6222C90.6565 75.1766 90.7206 75.7355 90.7551 76.2967C90.7659 76.483 90.7043 76.6662 90.5831 76.8082C90.4619 76.9502 90.2905 77.04 90.1047 77.0588C88.7586 77.1891 85.6931 77.4299 83.7364 77.1475C83.6747 77.1395 83.6165 77.1141 83.5686 77.0743C83.5208 77.0344 83.4853 76.9818 83.4663 76.9226C83.4473 76.8633 83.4456 76.7999 83.4613 76.7397C83.4771 76.6796 83.5096 76.6251 83.5552 76.5827C84.3615 75.8314 86.3109 74.3706 89.5177 74.0483L90.5631 74.6222Z" fill="#3B3F6D"/>
<path d="M91.231 72.8949L90.5498 74.5622C90.5046 74.6734 90.4246 74.767 90.3217 74.829C90.2188 74.891 90.0986 74.9181 89.9791 74.9062C89.7908 74.888 89.6045 74.8522 89.4229 74.7993C89.3314 74.772 89.2462 74.7269 89.1722 74.6665C89.0982 74.6062 89.0369 74.5318 88.9917 74.4477C88.9466 74.3635 88.9186 74.2713 88.9092 74.1764C88.8999 74.0814 88.9094 73.9855 88.9373 73.8942L89.4519 72.1763L91.231 72.8949Z" fill="#F4A98F"/>
<path d="M102.87 75.9509C102.87 75.9509 101.507 77.0896 100.977 78.5522C100.944 78.6461 100.934 78.7465 100.948 78.845C100.962 78.9434 101 79.037 101.058 79.1179C101.116 79.1988 101.192 79.2646 101.281 79.3099C101.369 79.3551 101.468 79.3783 101.567 79.3777H104.372C104.468 79.3781 104.564 79.3573 104.652 79.3168C104.739 79.2764 104.817 79.2172 104.879 79.1436C104.942 79.0699 104.987 78.9835 105.012 78.8904C105.038 78.7973 105.042 78.6998 105.026 78.6047C104.847 77.5946 104.33 75.9545 102.87 75.9509Z" fill="#3B3F6D"/>
<path d="M104.558 74.4639C104.558 74.4639 104.283 75.6822 104.071 76.486C104.062 76.521 104.047 76.5539 104.025 76.5824C104.003 76.6109 103.975 76.6345 103.943 76.6515C103.911 76.6686 103.876 76.6788 103.84 76.6815C103.804 76.6841 103.768 76.6792 103.734 76.667C103.411 76.5315 103.062 76.4697 102.712 76.486C102.685 76.4888 102.657 76.4857 102.63 76.4771C102.604 76.4685 102.58 76.4544 102.559 76.4358C102.538 76.4172 102.522 76.3945 102.51 76.3692C102.499 76.3439 102.493 76.3164 102.493 76.2887L102.466 74.2666L104.558 74.4639Z" fill="#F4A98F"/>
<path d="M97.3077 47.0659L89.0171 72.3389C89.0171 72.3389 90.6078 73.3798 91.3724 73.3363L101.221 53.0252C101.221 53.0252 102.944 65.5395 102.109 74.5257L104.93 74.7411C104.93 74.7411 109.508 51.7725 106.03 43.916L97.3077 47.0659Z" fill="#353A6D"/>
<path d="M101.16 52.8101H101.171C101.191 52.8074 101.21 52.7966 101.223 52.7799C101.236 52.7633 101.242 52.7423 101.239 52.7214L100.917 50.1689C100.914 50.1478 100.903 50.1286 100.886 50.1155C100.87 50.1025 100.848 50.0966 100.827 50.0993C100.806 50.1019 100.787 50.1128 100.774 50.1296C100.761 50.1464 100.755 50.1677 100.757 50.1889L101.08 52.7413C101.083 52.7605 101.092 52.7781 101.107 52.7908C101.121 52.8034 101.14 52.8103 101.16 52.8101Z" fill="#91B3FA"/>
<path d="M95.7548 24.8296C95.7548 24.8296 102.473 25.4252 101.522 30.2079C101.522 30.2079 105.234 37.19 106.971 45.414C106.983 45.4775 106.983 45.5427 106.969 45.6058C106.955 45.6688 106.929 45.7286 106.892 45.7814C106.855 45.8342 106.807 45.879 106.753 45.9133C106.698 45.9475 106.637 45.9704 106.573 45.9806L95.3871 47.8941C95.2383 47.9198 95.0852 47.8886 94.9583 47.8068C94.8315 47.725 94.74 47.5985 94.7022 47.4524L92.0299 37.1339L90.9917 41.9383L87.6816 41.0767L90.4681 26.9729C90.4681 26.9729 90.8577 24.9183 95.7548 24.8296Z" fill="#5653E5"/>
<path d="M92.6515 49.4063C93.0041 49.2124 93.4169 49.1587 93.8074 49.256L94.5865 49.4497C94.6255 49.4592 94.666 49.4603 94.7055 49.4529C94.7449 49.4456 94.7823 49.4299 94.8152 49.4069C94.8482 49.384 94.8758 49.3543 94.8963 49.3199C94.9169 49.2854 94.9298 49.247 94.9343 49.2071L95.7406 42.0439C96.7479 42.5219 98.2009 42.4639 98.6792 42.4295L96.824 50.8671H90.3379L92.6515 49.4063Z" fill="#FDBCA3"/>
<path d="M75.4111 33.8692L75.6068 33.2175C75.6625 33.0325 75.7592 32.8624 75.8897 32.7198C76.0201 32.5772 76.1811 32.4658 76.3605 32.3938L79.9061 30.9692C79.9061 30.9692 79.9605 30.5148 79.1561 30.2052C78.3516 29.8957 78.54 28.9978 78.54 28.9978C78.54 28.9978 79.6362 29.4974 81.2432 30.2903C82.0093 30.6945 82.6122 31.3506 82.9499 32.1477L90.9923 41.9375L90.0484 42.5856C89.7557 42.7867 89.4237 42.9236 89.0743 42.9874C88.7249 43.0512 88.366 43.0405 88.021 42.9559C87.6761 42.8712 87.353 42.7146 87.0729 42.4964C86.7928 42.2782 86.5621 42.0032 86.3959 41.6895L82.0476 33.3497C79.8952 33.9793 77.6355 34.1562 75.4111 33.8692Z" fill="#FDBCA3"/>
<path d="M93.5775 20.2639L95.6429 26.0423C95.6429 26.0423 93.8131 27.4706 92.4778 26.9891L91.436 23.6781C91.436 23.6781 92.2332 19.6285 93.5775 20.2639Z" fill="#FDBCA3"/>
<path d="M87.4121 18.1869C87.4121 18.2756 89.405 23.8168 89.405 23.8168L92.5466 22.6147L91.4415 17.0844C91.4415 17.0844 87.4121 16.697 87.4121 18.1869Z" fill="#FDBCA3"/>
<path d="M90.8869 18.4312L91.6968 21.2968C91.7074 21.3333 91.7129 21.371 91.7131 21.409C91.7131 21.6426 91.6551 22.4463 90.8362 22.3377C90.0915 22.2381 89.4121 22.1567 88.9791 22.363C88.8858 22.4073 88.8123 22.4846 88.7728 22.5799C88.7333 22.6752 88.7307 22.7818 88.7653 22.879C89.076 23.7578 89.4546 24.6112 89.8977 25.4314C89.9493 25.5215 90.0328 25.5889 90.1318 25.6204C90.2307 25.6519 90.3379 25.6452 90.4322 25.6016C91.0228 25.3337 92.2439 24.7327 93.1263 24.0176C93.1845 23.9703 93.2289 23.9082 93.2547 23.8378C93.2806 23.7673 93.2869 23.6913 93.273 23.6175C93.1353 22.8844 92.7295 20.6542 92.7077 20.0151C92.6914 19.4159 93.3636 18.9579 93.6607 18.786C93.7086 18.7581 93.7503 18.7207 93.7833 18.6762C93.8164 18.6317 93.84 18.581 93.8528 18.5271C93.9452 18.1415 94.034 17.2599 92.9088 17.0789C92.8535 17.0696 92.8006 17.0492 92.7533 17.019C92.706 16.9888 92.6653 16.9493 92.6337 16.903C92.6021 16.8567 92.5801 16.8044 92.5692 16.7494C92.5582 16.6944 92.5585 16.6378 92.57 16.5829C92.6643 16.1213 92.6335 15.4424 91.7566 15.1908C90.8797 14.9392 90.3071 15.4732 90.0173 15.8841C89.961 15.9639 89.8784 16.0214 89.7841 16.0465C89.6897 16.0716 89.5895 16.0629 89.5009 16.0217C89.4409 15.9953 89.3743 15.9874 89.3098 15.999C89.2452 16.0107 89.1856 16.0412 89.1386 16.0869C89.0943 16.1229 89.043 16.1493 88.9879 16.1644C88.9328 16.1795 88.8751 16.1828 88.8186 16.1743C88.7622 16.1658 88.7081 16.1456 88.6599 16.1149C88.6117 16.0843 88.5705 16.0439 88.5389 15.9964C88.278 15.6144 87.8142 15.2324 87.0061 15.4913C85.5875 15.9493 85.6545 17.5858 86.1745 18.4746C86.6945 19.3634 88.2055 18.7787 88.9211 18.1904C89.4647 17.7433 90.2927 18.0094 90.6586 18.165C90.7139 18.1899 90.763 18.2267 90.8024 18.2727C90.8419 18.3187 90.8707 18.3728 90.8869 18.4312Z" fill="#663F5C"/>
<path d="M92.9844 21.0618C92.9844 21.0618 92.1438 19.4742 92.7 18.9746C93.2562 18.475 94.1965 18.5583 94.1712 19.8001C94.144 21.3442 92.9844 21.0618 92.9844 21.0618Z" fill="#FDBCA3"/>
<path d="M24.6976 77.2782C24.6393 77.2781 24.5817 77.2651 24.5291 77.2402C24.4224 77.1846 24.3405 77.0912 24.2992 76.9783C24.258 76.8655 24.2605 76.7413 24.3062 76.6301L33.2437 53.9711C33.2623 53.9169 33.2921 53.8671 33.331 53.825C33.37 53.7828 33.4173 53.7493 33.47 53.7265C33.5227 53.7036 33.5796 53.692 33.637 53.6924C33.6944 53.6928 33.7511 53.7051 33.8035 53.7286C33.9101 53.7841 33.9921 53.8775 34.0333 53.9904C34.0746 54.1033 34.0721 54.2275 34.0263 54.3386L25.0907 76.9976C25.0611 77.0785 25.0078 77.1486 24.9376 77.1987C24.8674 77.2488 24.7838 77.2765 24.6976 77.2782Z" fill="#8181B2"/>
<path d="M34.7678 77.279C34.6819 77.277 34.5986 77.2491 34.5288 77.199C34.459 77.149 34.4059 77.0791 34.3765 76.9984L25.439 54.3376C25.3933 54.2265 25.3908 54.1023 25.432 53.9894C25.4733 53.8765 25.5553 53.7832 25.6619 53.7276C25.7143 53.7041 25.771 53.6918 25.8284 53.6914C25.8858 53.6911 25.9427 53.7027 25.9954 53.7255C26.048 53.7483 26.0954 53.7819 26.1343 53.824C26.1733 53.8661 26.2031 53.9159 26.2217 53.9702L35.1591 76.6292C35.2049 76.7403 35.2074 76.8645 35.1661 76.9774C35.1249 77.0902 35.0429 77.1836 34.9363 77.2392C34.8838 77.2648 34.8262 77.2784 34.7678 77.279Z" fill="#8181B2"/>
<path d="M85.3592 77.2782C85.3009 77.2781 85.2434 77.2651 85.1907 77.2402C85.0841 77.1846 85.0021 77.0912 84.9609 76.9783C84.9196 76.8655 84.9221 76.7413 84.9678 76.6301L93.9053 53.9711C93.9239 53.9169 93.9537 53.8671 93.9927 53.825C94.0316 53.7828 94.079 53.7493 94.1316 53.7265C94.1843 53.7036 94.2412 53.692 94.2986 53.6924C94.356 53.6928 94.4127 53.7051 94.4651 53.7286C94.5717 53.7841 94.6537 53.8775 94.695 53.9904C94.7362 54.1033 94.7337 54.2275 94.688 54.3386L85.7505 76.9976C85.7211 77.0783 85.668 77.1482 85.5982 77.1982C85.5284 77.2483 85.4451 77.2761 85.3592 77.2782Z" fill="#8181B2"/>
<path d="M95.4271 77.279C95.3412 77.277 95.2579 77.2491 95.1881 77.199C95.1183 77.149 95.0652 77.0791 95.0358 76.9984L86.1002 54.3376C86.0544 54.2265 86.0519 54.1023 86.0932 53.9894C86.1344 53.8765 86.2164 53.7832 86.323 53.7276C86.3754 53.7041 86.4321 53.6918 86.4895 53.6914C86.547 53.6911 86.6038 53.7027 86.6565 53.7255C86.7092 53.7483 86.7565 53.7819 86.7955 53.824C86.8345 53.8661 86.8642 53.9159 86.8829 53.9702L95.8203 76.6292C95.866 76.7403 95.8685 76.8645 95.8273 76.9774C95.786 77.0902 95.7041 77.1836 95.5974 77.2392C95.5443 77.265 95.4862 77.2786 95.4271 77.279Z" fill="#8181B2"/>
<path d="M84.0625 52.371H97.0075V51.0369H84.0625C84.3397 51.0369 84.3397 52.371 84.0625 52.371Z" fill="#BDD0FB"/>
<path d="M96.8533 52.3697C96.8941 52.3697 96.9333 52.3535 96.9622 52.3247C96.991 52.2958 97.0073 52.2567 97.0073 52.2159V51.1876C97.0073 51.1674 97.0033 51.1474 96.9955 51.1287C96.9878 51.1101 96.9765 51.0931 96.9622 51.0788C96.9479 51.0645 96.9309 51.0532 96.9122 51.0455C96.8935 51.0377 96.8735 51.0338 96.8533 51.0338H83.8212C83.7811 51.0338 83.7426 51.0178 83.7142 50.9895C83.6859 50.9611 83.6699 50.9227 83.6699 50.8826C83.6699 50.8425 83.6859 50.8041 83.7142 50.7757C83.7426 50.7474 83.7811 50.7314 83.8212 50.7314H97.7483C97.8967 50.7314 98.0392 50.7904 98.1441 50.8953C98.2491 51.0002 98.3081 51.1425 98.3081 51.2908V52.1434C98.3081 52.2832 98.2526 52.4171 98.1537 52.5159C98.0548 52.6147 97.9207 52.6702 97.7809 52.6702H83.8303C83.7901 52.6702 83.7517 52.6543 83.7233 52.626C83.6949 52.5976 83.679 52.5592 83.679 52.5191C83.679 52.479 83.6949 52.4405 83.7233 52.4122C83.7517 52.3838 83.7901 52.3679 83.8303 52.3679L96.8533 52.3697Z" fill="#65618C"/>
<path d="M98.8839 53.2708C98.9034 53.1927 98.8983 53.1105 98.8694 53.0354C98.8406 52.9603 98.7894 52.8959 98.7227 52.8508C98.5507 52.7267 98.3423 52.663 98.1303 52.6698H20.5633C20.2893 52.659 20.022 52.7558 19.8186 52.9395C19.7413 53.0094 19.6926 53.1053 19.6819 53.209C19.6712 53.3126 19.6993 53.4165 19.7607 53.5007L20.6013 54.7063C20.7934 54.9833 21.2101 55.1589 21.6702 55.1589H97.5976C98.0252 55.1589 98.3912 54.9579 98.4727 54.6809L98.8839 53.2708Z" fill="#A6ABD1"/>
<defs>
<linearGradient id="paint0_linear_2_1148" x1="35.5115" y1="72.5126" x2="37.1764" y2="72.5283" gradientUnits="userSpaceOnUse">
<stop stop-color="#FEBBBA"/>
<stop offset="1" stop-color="#FF928E"/>
</linearGradient>
<linearGradient id="paint1_linear_2_1148" x1="2286.99" y1="5730.83" x2="2256.55" y2="5707.82" gradientUnits="userSpaceOnUse">
<stop stop-color="#FEBBBA"/>
<stop offset="1" stop-color="#FF928E"/>
</linearGradient>
<linearGradient id="paint2_linear_2_1148" x1="42.9292" y1="31.3684" x2="51.2905" y2="31.3684" gradientUnits="userSpaceOnUse">
<stop stop-color="#DAE3FE"/>
<stop offset="1" stop-color="#E9EFFD"/>
</linearGradient>
</defs>
</svg>
