<svg width="411" height="332" viewBox="0 0 411 332" fill="none" xmlns="http://www.w3.org/2000/svg">
<g clip-path="url(#clip0_2_1949)">
<path d="M29.3921 171.661L33.3275 292.377C34.0653 313.419 51.2826 330.154 72.4352 330.277L361.316 332C375.458 332.123 387.511 321.787 389.601 307.882C394.151 277.364 399.932 222.851 393.414 171.661H29.3921Z" fill="#7494E5"/>
<path d="M351.109 324.617H349.018C348.772 324.617 348.649 324.494 348.649 324.248C348.649 324.002 348.772 323.879 349.018 323.879H351.109C351.355 323.879 351.478 324.002 351.478 324.248C351.355 324.494 351.232 324.617 351.109 324.617ZM355.905 324.617C355.782 324.617 355.536 324.494 355.536 324.248C355.536 324.002 355.659 323.879 355.905 323.879C356.643 323.879 357.258 323.756 357.996 323.633C358.241 323.633 358.364 323.756 358.364 323.879C358.364 324.125 358.241 324.248 358.118 324.248C357.381 324.494 356.643 324.494 355.905 324.617C356.028 324.617 356.028 324.617 355.905 324.617ZM344.099 324.617C343.976 324.617 343.976 324.617 344.099 324.617H342.008C341.762 324.617 341.639 324.494 341.639 324.248C341.639 324.002 341.762 323.879 342.008 323.879H344.099C344.345 323.879 344.468 324.002 344.468 324.248C344.345 324.371 344.222 324.617 344.099 324.617ZM336.966 324.494H334.875C334.629 324.494 334.506 324.371 334.506 324.125C334.506 323.879 334.629 323.756 334.875 323.756H336.966C337.212 323.756 337.335 323.879 337.335 324.125C337.335 324.371 337.212 324.494 336.966 324.494ZM329.956 324.494H327.865C327.619 324.494 327.496 324.371 327.496 324.125C327.496 323.879 327.742 323.756 327.865 323.756H329.956C330.202 323.756 330.325 323.879 330.325 324.125C330.325 324.371 330.202 324.494 329.956 324.494ZM322.946 324.494H320.855C320.609 324.494 320.487 324.371 320.487 324.125C320.487 323.879 320.609 323.756 320.855 323.756H322.946C323.192 323.756 323.315 323.879 323.315 324.125C323.315 324.248 323.192 324.494 322.946 324.494ZM315.936 324.371H313.846C313.6 324.371 313.477 324.248 313.477 324.002C313.477 323.756 313.723 323.633 313.846 323.633H315.936C316.182 323.633 316.305 323.756 316.305 324.002C316.305 324.248 316.182 324.371 315.936 324.371ZM308.926 324.371H306.836C306.59 324.371 306.467 324.248 306.467 324.002C306.467 323.756 306.59 323.633 306.836 323.633H308.926C309.172 323.633 309.295 323.756 309.295 324.002C309.295 324.248 309.172 324.371 308.926 324.371ZM301.917 324.371H299.826C299.58 324.371 299.457 324.248 299.457 324.002C299.457 323.756 299.58 323.633 299.826 323.633H301.917C302.162 323.633 302.285 323.756 302.285 324.002C302.285 324.125 302.162 324.371 301.917 324.371ZM294.907 324.248H292.816C292.57 324.248 292.447 324.125 292.447 323.879C292.447 323.633 292.57 323.51 292.816 323.51H294.907C295.153 323.51 295.276 323.633 295.276 323.879C295.276 324.125 295.153 324.248 294.907 324.248ZM287.897 324.248H285.806C285.56 324.248 285.437 324.125 285.437 323.879C285.437 323.633 285.56 323.51 285.806 323.51H287.897C288.143 323.51 288.266 323.633 288.266 323.879C288.266 324.125 288.143 324.248 287.897 324.248ZM280.887 324.248H278.796C278.55 324.248 278.427 324.125 278.427 323.879C278.427 323.633 278.55 323.51 278.796 323.51H280.887C281.133 323.51 281.256 323.633 281.256 323.879C281.256 324.002 281.133 324.248 280.887 324.248ZM273.877 324.125H271.786C271.54 324.125 271.417 324.002 271.417 323.756C271.417 323.51 271.54 323.386 271.786 323.386H273.877C274.123 323.386 274.246 323.51 274.246 323.756C274.246 324.002 274.123 324.125 273.877 324.125ZM266.867 324.125H264.776C264.531 324.125 264.408 324.002 264.408 323.756C264.408 323.51 264.531 323.386 264.776 323.386H266.867C267.113 323.386 267.236 323.51 267.236 323.756C267.236 324.002 267.113 324.125 266.867 324.125ZM259.857 324.125H257.767C257.521 324.125 257.398 324.002 257.398 323.756C257.398 323.51 257.521 323.386 257.767 323.386H259.857C260.103 323.386 260.226 323.51 260.226 323.756C260.226 323.879 260.103 324.125 259.857 324.125ZM252.847 324.002H250.757C250.511 324.002 250.388 323.879 250.388 323.633C250.388 323.386 250.511 323.263 250.757 323.263H252.847C253.093 323.263 253.216 323.386 253.216 323.633C253.216 323.879 253.093 324.002 252.847 324.002ZM245.837 324.002H243.747C243.501 324.002 243.378 323.879 243.378 323.633C243.378 323.386 243.624 323.263 243.747 323.263H245.837C246.083 323.263 246.206 323.386 246.206 323.633C246.206 323.879 246.083 324.002 245.837 324.002ZM238.828 324.002H236.737C236.491 324.002 236.368 323.879 236.368 323.633C236.368 323.386 236.491 323.263 236.737 323.263H238.828C239.074 323.263 239.197 323.386 239.197 323.633C239.197 323.756 238.951 324.002 238.828 324.002ZM231.818 323.879H229.727C229.481 323.879 229.358 323.756 229.358 323.51C229.358 323.263 229.604 323.14 229.727 323.14H231.818C232.064 323.14 232.187 323.263 232.187 323.51C232.187 323.756 231.941 323.879 231.818 323.879ZM224.808 323.879H222.717C222.471 323.879 222.348 323.756 222.348 323.51C222.348 323.263 222.471 323.14 222.717 323.14H224.808C225.054 323.14 225.177 323.263 225.177 323.51C225.177 323.756 224.931 323.879 224.808 323.879ZM217.798 323.879H215.707C215.461 323.879 215.338 323.756 215.338 323.51C215.338 323.263 215.461 323.14 215.707 323.14H217.798C218.044 323.14 218.167 323.263 218.167 323.51C218.167 323.633 217.921 323.879 217.798 323.879ZM210.788 323.756H208.697C208.452 323.756 208.329 323.633 208.329 323.386C208.329 323.14 208.452 323.017 208.697 323.017H210.788C211.034 323.017 211.157 323.14 211.157 323.386C211.157 323.633 210.911 323.756 210.788 323.756ZM203.778 323.756H201.688C201.442 323.756 201.319 323.633 201.319 323.386C201.319 323.14 201.442 323.017 201.688 323.017H203.778C204.024 323.017 204.147 323.14 204.147 323.386C204.147 323.633 203.901 323.756 203.778 323.756ZM196.768 323.756H194.678C194.432 323.756 194.309 323.633 194.309 323.386C194.309 323.14 194.432 323.017 194.678 323.017H196.768C197.014 323.017 197.137 323.14 197.137 323.386C197.137 323.51 196.891 323.756 196.768 323.756ZM189.759 323.633H187.668C187.422 323.633 187.299 323.51 187.299 323.263C187.299 323.017 187.422 322.894 187.668 322.894H189.759C190.004 322.894 190.127 323.017 190.127 323.263C190.004 323.51 189.882 323.633 189.759 323.633ZM182.749 323.633H180.658C180.412 323.633 180.289 323.51 180.289 323.263C180.289 323.017 180.412 322.894 180.658 322.894H182.749C182.995 322.894 183.118 323.017 183.118 323.263C182.995 323.51 182.872 323.633 182.749 323.633ZM175.739 323.633H173.648C173.402 323.633 173.279 323.51 173.279 323.263C173.279 323.017 173.402 322.894 173.648 322.894H175.739C175.985 322.894 176.108 323.017 176.108 323.263C175.985 323.386 175.862 323.633 175.739 323.633ZM168.729 323.51C168.729 323.51 168.606 323.51 168.729 323.51H166.638C166.392 323.51 166.269 323.386 166.269 323.14C166.269 322.894 166.392 322.771 166.638 322.771H168.729C168.975 322.771 169.098 322.894 169.098 323.14C168.975 323.386 168.852 323.51 168.729 323.51ZM161.596 323.51H159.505C159.259 323.51 159.136 323.386 159.136 323.14C159.136 322.894 159.259 322.771 159.505 322.771H161.596C161.842 322.771 161.965 322.894 161.965 323.14C161.965 323.386 161.842 323.51 161.596 323.51ZM154.586 323.51H152.496C152.25 323.51 152.127 323.386 152.127 323.14C152.127 322.894 152.25 322.771 152.496 322.771H154.586C154.832 322.771 154.955 322.894 154.955 323.14C154.955 323.263 154.832 323.51 154.586 323.51ZM147.576 323.386H145.486C145.24 323.386 145.117 323.263 145.117 323.017C145.117 322.771 145.24 322.648 145.486 322.648H147.576C147.822 322.648 147.945 322.771 147.945 323.017C147.945 323.263 147.822 323.386 147.576 323.386ZM140.566 323.386H138.476C138.23 323.386 138.107 323.263 138.107 323.017C138.107 322.771 138.23 322.648 138.476 322.648H140.566C140.812 322.648 140.935 322.771 140.935 323.017C140.935 323.263 140.812 323.386 140.566 323.386ZM133.557 323.386H131.466C131.22 323.386 131.097 323.263 131.097 323.017C131.097 322.771 131.22 322.648 131.466 322.648H133.557C133.803 322.648 133.925 322.771 133.925 323.017C133.925 323.14 133.803 323.386 133.557 323.386ZM126.547 323.263H124.456C124.21 323.263 124.087 323.14 124.087 322.894C124.087 322.648 124.21 322.525 124.456 322.525H126.547C126.793 322.525 126.916 322.648 126.916 322.894C126.916 323.14 126.793 323.263 126.547 323.263ZM362.792 323.263C362.669 323.263 362.546 323.14 362.423 323.017C362.423 322.894 362.423 322.648 362.669 322.525C363.284 322.279 364.022 322.033 364.636 321.787C364.759 321.664 365.005 321.787 365.128 322.033C365.251 322.156 365.128 322.402 364.882 322.525C364.268 322.771 363.653 323.017 362.792 323.263C362.915 323.263 362.915 323.263 362.792 323.263ZM119.537 323.263H117.446C117.2 323.263 117.077 323.14 117.077 322.894C117.077 322.648 117.2 322.525 117.446 322.525H119.537C119.783 322.525 119.906 322.648 119.906 322.894C119.906 323.14 119.783 323.263 119.537 323.263ZM112.527 323.14H110.436C110.19 323.14 110.067 323.017 110.067 322.771C110.067 322.525 110.19 322.402 110.436 322.402H112.527C112.773 322.402 112.896 322.525 112.896 322.771C112.896 323.017 112.773 323.14 112.527 323.14ZM105.517 323.14H103.426C103.18 323.14 103.057 323.017 103.057 322.771C103.057 322.525 103.18 322.402 103.426 322.402H105.517C105.763 322.402 105.886 322.525 105.886 322.771C105.886 323.017 105.763 323.14 105.517 323.14ZM98.5072 323.14H96.4165C96.1706 323.14 96.0476 323.017 96.0476 322.771C96.0476 322.525 96.1706 322.402 96.4165 322.402H98.5072C98.7531 322.402 98.8761 322.525 98.8761 322.771C98.8761 323.017 98.7531 323.14 98.5072 323.14ZM91.4973 323.017H89.4066C89.1607 323.017 89.0377 322.894 89.0377 322.648C89.0377 322.402 89.1607 322.279 89.4066 322.279H91.4973C91.7433 322.279 91.8662 322.402 91.8662 322.648C91.8662 322.894 91.7433 323.017 91.4973 323.017ZM84.4874 323.017H82.3968C82.1508 323.017 82.0278 322.894 82.0278 322.648C82.0278 322.402 82.1508 322.279 82.3968 322.279H84.4874C84.7334 322.279 84.8564 322.402 84.8564 322.648C84.8564 322.894 84.7334 323.017 84.4874 323.017ZM77.4776 323.017C76.7397 323.017 76.0018 322.894 75.3869 322.894C75.1409 322.894 75.018 322.648 75.018 322.525C75.018 322.279 75.2639 322.156 75.3869 322.156C76.1248 322.279 76.7397 322.279 77.4776 322.279C77.7235 322.279 77.8465 322.402 77.8465 322.648C77.8465 322.771 77.7235 323.017 77.4776 323.017ZM70.5907 321.91C70.4677 321.91 70.4677 321.91 70.5907 321.91C69.8528 321.787 69.1149 321.541 68.5 321.295C68.254 321.295 68.254 321.048 68.254 320.802C68.254 320.556 68.5 320.556 68.746 320.556C69.3609 320.802 70.0988 320.925 70.7137 321.048C70.9596 321.048 70.9596 321.295 70.9596 321.418C70.8366 321.91 70.7137 321.91 70.5907 321.91ZM369.064 320.187C368.941 320.187 368.818 320.187 368.818 320.064C368.695 319.941 368.818 319.695 368.941 319.572C369.556 319.203 370.048 318.833 370.662 318.341C370.785 318.218 371.031 318.218 371.154 318.464C371.277 318.587 371.277 318.833 371.031 318.957C370.417 319.449 369.925 319.818 369.31 320.187C369.31 320.187 369.187 320.187 369.064 320.187ZM63.9497 319.695H63.8268C63.2119 319.449 62.597 319.08 61.8591 318.71C61.7361 318.587 61.6131 318.464 61.7361 318.218C61.8591 318.095 61.9821 317.972 62.228 318.095C62.8429 318.464 63.4578 318.71 64.0727 318.957C64.1957 319.08 64.3187 319.203 64.1957 319.449C64.1957 319.572 64.0727 319.695 63.9497 319.695ZM57.8007 316.249C57.6777 316.249 57.6777 316.249 57.5548 316.126C56.9399 315.757 56.4479 315.265 55.833 314.896C55.7101 314.773 55.7101 314.527 55.833 314.404C55.956 314.28 56.202 314.28 56.325 314.404C56.8169 314.773 57.4318 315.265 58.0467 315.634C58.1697 315.757 58.2926 316.003 58.1697 316.126C58.0467 316.126 57.9237 316.249 57.8007 316.249ZM374.475 315.634C374.352 315.634 374.352 315.634 374.229 315.511C374.106 315.388 374.106 315.142 374.229 315.019C374.721 314.527 375.09 313.911 375.582 313.419C375.705 313.296 375.951 313.296 376.074 313.296C376.197 313.419 376.197 313.665 376.197 313.788C375.705 314.404 375.336 314.896 374.844 315.388C374.598 315.634 374.475 315.634 374.475 315.634ZM52.5126 311.696C52.3896 311.696 52.3896 311.696 52.2666 311.573C51.7747 311.081 51.2828 310.589 50.7909 309.974C50.6679 309.851 50.6679 309.604 50.7909 309.481C50.9138 309.358 51.1598 309.358 51.2828 309.481C51.7747 309.974 52.2666 310.466 52.6356 310.958C52.7585 311.081 52.7585 311.327 52.6356 311.45C52.6356 311.696 52.6356 311.696 52.5126 311.696ZM378.41 309.851H378.287C378.164 309.727 378.041 309.604 378.164 309.358C378.533 308.743 378.779 308.128 379.025 307.512C379.148 307.389 379.271 307.266 379.517 307.266C379.64 307.389 379.763 307.513 379.763 307.759C379.517 308.374 379.148 309.112 378.902 309.727C378.656 309.851 378.533 309.851 378.41 309.851ZM48.0853 306.282C47.9623 306.282 47.8393 306.282 47.8393 306.159C47.4704 305.544 47.1014 304.928 46.7325 304.313C46.6095 304.19 46.7325 303.944 46.8555 303.821C46.9785 303.698 47.2244 303.821 47.3474 303.944C47.7163 304.559 48.0853 305.174 48.4542 305.667C48.5772 305.79 48.5772 306.036 48.3313 306.159C48.2083 306.159 48.2083 306.282 48.0853 306.282ZM380.747 303.206C380.624 303.206 380.624 303.206 380.747 303.206C380.501 303.206 380.378 302.96 380.378 302.836C380.501 302.344 380.624 301.852 380.624 301.237L380.747 300.745C380.747 300.498 380.993 300.375 381.116 300.498C381.362 300.498 381.485 300.745 381.362 300.868L381.239 301.36C381.116 301.852 381.116 302.467 380.993 302.959C380.993 303.206 380.87 303.206 380.747 303.206ZM44.7648 300.006C44.6418 300.006 44.5189 299.883 44.3959 299.76C44.1499 299.145 43.904 298.406 43.658 297.791C43.535 297.668 43.658 297.422 43.904 297.299C44.0269 297.176 44.2729 297.299 44.3959 297.545C44.6418 298.16 44.8878 298.899 45.1338 299.514C45.2567 299.637 45.1338 299.883 44.8878 300.006C44.8878 300.006 44.8878 300.006 44.7648 300.006ZM381.731 296.315C381.485 296.315 381.362 296.068 381.362 295.945L381.608 293.854C381.608 293.607 381.854 293.484 381.977 293.607C382.223 293.607 382.346 293.853 382.223 293.977L381.977 296.068C382.1 296.192 381.977 296.315 381.731 296.315ZM42.6742 293.361C42.5512 293.361 42.3052 293.238 42.3052 293.115C42.1822 292.377 42.0593 291.762 41.9363 291.023C41.9363 290.777 42.0593 290.654 42.1822 290.654C42.4282 290.654 42.5512 290.777 42.5512 290.9C42.6742 291.639 42.7971 292.254 42.9201 292.992C43.1661 293.115 43.0431 293.238 42.6742 293.361C42.7971 293.361 42.7971 293.361 42.6742 293.361ZM382.715 289.424C382.715 289.424 382.592 289.424 382.715 289.424C382.469 289.424 382.346 289.177 382.346 289.054L382.592 286.962C382.592 286.716 382.837 286.593 382.96 286.716C383.206 286.716 383.329 286.962 383.206 287.086L382.96 289.177C382.96 289.177 382.838 289.424 382.715 289.424ZM41.9363 286.347C41.6903 286.347 41.5673 286.224 41.5673 285.978L41.4444 283.886C41.4444 283.64 41.5673 283.517 41.8133 283.517C42.0593 283.517 42.1822 283.64 42.1822 283.886L42.3052 285.978C42.3052 286.224 42.1822 286.347 41.9363 286.347ZM383.575 282.409C383.452 282.409 383.452 282.409 383.575 282.409C383.329 282.409 383.206 282.163 383.206 282.04C383.329 281.302 383.329 280.687 383.452 279.948C383.452 279.702 383.698 279.579 383.821 279.579C384.067 279.579 384.19 279.825 384.19 279.948C384.067 280.687 384.067 281.302 383.944 282.04C383.821 282.286 383.698 282.409 383.575 282.409ZM41.6903 279.333C41.4444 279.333 41.3214 279.21 41.3214 278.964L41.1984 276.872C41.1984 276.626 41.3214 276.503 41.5673 276.503C41.8133 276.503 41.9363 276.626 41.9363 276.872L42.0593 278.964C42.0593 279.21 41.9363 279.333 41.6903 279.333ZM384.313 275.395C384.067 275.395 383.944 275.149 383.944 275.026C384.067 274.288 384.067 273.673 384.19 272.934C384.19 272.688 384.436 272.565 384.559 272.565C384.805 272.565 384.928 272.811 384.928 272.934C384.805 273.673 384.805 274.288 384.682 275.026C384.682 275.272 384.436 275.395 384.313 275.395ZM41.4444 272.319C41.1984 272.319 41.0754 272.196 41.0754 271.95L40.9524 269.858C40.9524 269.612 41.0754 269.489 41.3214 269.489C41.5673 269.489 41.6903 269.612 41.6903 269.858L41.8133 271.95C41.8133 272.196 41.6903 272.319 41.4444 272.319ZM384.928 268.381C384.682 268.381 384.559 268.135 384.559 268.012C384.682 267.274 384.682 266.659 384.805 265.92C384.805 265.674 384.928 265.551 385.174 265.551C385.42 265.551 385.543 265.797 385.543 265.92C385.42 266.659 385.42 267.274 385.297 268.012C385.297 268.258 385.174 268.381 384.928 268.381ZM41.3214 265.305C41.0754 265.305 40.9524 265.182 40.9524 264.936L40.8295 262.844C40.8295 262.598 40.9524 262.475 41.1984 262.475C41.4444 262.475 41.5673 262.598 41.5673 262.844L41.6903 264.936C41.6903 265.182 41.4444 265.305 41.3214 265.305ZM385.543 261.49C385.297 261.49 385.174 261.244 385.174 261.121L385.297 259.029C385.297 258.783 385.42 258.66 385.666 258.66C385.912 258.66 386.035 258.783 386.035 259.029L385.912 261.121C385.912 261.244 385.789 261.49 385.543 261.49ZM41.0754 258.291C40.8295 258.291 40.7065 258.168 40.7065 257.922L40.5835 255.83C40.5835 255.584 40.7065 255.461 40.9524 255.461C41.1984 255.461 41.3214 255.584 41.3214 255.83L41.4444 257.922C41.4444 258.168 41.1984 258.291 41.0754 258.291ZM386.158 254.476C386.158 254.476 386.035 254.476 386.158 254.476C385.912 254.476 385.789 254.353 385.789 254.107L385.912 252.015C385.912 251.769 386.035 251.646 386.281 251.646C386.527 251.646 386.65 251.769 386.65 252.015L386.527 254.107C386.404 254.353 386.281 254.476 386.158 254.476ZM40.8295 251.277C40.5835 251.277 40.4605 251.154 40.4605 250.908L40.3375 248.816C40.3375 248.57 40.4605 248.447 40.7065 248.447C40.9524 248.447 41.0754 248.57 41.0754 248.816L41.1984 250.908C41.1984 251.154 41.0754 251.277 40.8295 251.277ZM386.527 247.462C386.281 247.462 386.158 247.339 386.158 247.093C386.158 246.355 386.281 245.739 386.281 245.001C386.281 244.755 386.404 244.632 386.65 244.632C386.896 244.632 387.019 244.755 387.019 245.001C387.019 245.739 386.896 246.355 386.896 247.093C386.896 247.339 386.773 247.462 386.527 247.462ZM40.5835 244.263C40.3375 244.263 40.2146 244.14 40.2146 243.894L40.0916 241.802C40.0916 241.555 40.2146 241.432 40.4605 241.432C40.7065 241.432 40.8295 241.555 40.8295 241.802L40.9524 243.894C40.9524 244.14 40.8295 244.263 40.5835 244.263ZM386.896 240.448C386.65 240.448 386.527 240.325 386.527 240.079C386.527 239.341 386.527 238.725 386.65 237.987C386.65 237.741 386.773 237.618 387.019 237.618C387.265 237.618 387.388 237.741 387.388 237.987C387.388 238.725 387.388 239.341 387.265 240.079C387.265 240.325 387.019 240.448 386.896 240.448ZM40.3375 237.249C40.0916 237.249 39.9686 237.126 39.9686 236.879L39.8456 234.788C39.8456 234.541 39.9686 234.418 40.2146 234.418C40.4605 234.418 40.5835 234.541 40.5835 234.788L40.7065 236.879C40.7065 237.126 40.5835 237.249 40.3375 237.249ZM387.142 233.434C386.896 233.434 386.773 233.311 386.773 233.065C386.773 232.326 386.773 231.711 386.773 230.973C386.773 230.727 386.896 230.604 387.142 230.604C387.388 230.604 387.511 230.727 387.511 230.973C387.511 231.711 387.511 232.326 387.511 233.065C387.511 233.311 387.388 233.434 387.142 233.434ZM40.0916 230.235C39.8456 230.235 39.7226 230.111 39.7226 229.865L39.5997 227.773C39.5997 227.527 39.7226 227.404 39.9686 227.404C40.2146 227.404 40.3375 227.527 40.3375 227.773L40.4605 229.865C40.4605 230.111 40.3375 230.235 40.0916 230.235C40.2146 230.235 40.0916 230.235 40.0916 230.235ZM387.265 226.42C387.019 226.42 386.896 226.297 386.896 226.051C386.896 225.312 386.896 224.697 386.896 223.959C386.896 223.713 387.142 223.59 387.265 223.59C387.511 223.59 387.634 223.713 387.634 223.959C387.634 224.697 387.634 225.312 387.634 226.051C387.634 226.174 387.511 226.42 387.265 226.42ZM39.9686 223.22C39.7226 223.22 39.5997 223.097 39.5997 222.851L39.4767 220.759C39.4767 220.513 39.5997 220.39 39.8456 220.39C40.0916 220.39 40.2146 220.513 40.2146 220.759L40.3375 222.851C40.3375 223.097 40.0916 223.22 39.9686 223.22ZM387.388 219.406C387.142 219.406 387.019 219.283 387.019 219.037V218.914C387.019 218.298 387.019 217.683 387.019 216.945C387.019 216.699 387.142 216.576 387.388 216.576C387.634 216.576 387.757 216.699 387.757 216.945C387.757 217.56 387.757 218.298 387.757 218.914V219.037C387.757 219.16 387.511 219.406 387.388 219.406ZM39.7226 216.206C39.4767 216.206 39.3537 216.083 39.3537 215.837L39.2307 213.745C39.2307 213.499 39.3537 213.376 39.5997 213.376C39.8456 213.376 39.9686 213.499 39.9686 213.745L40.0916 215.837C40.0916 216.083 39.8456 216.206 39.7226 216.206ZM387.265 212.392C387.019 212.392 386.896 212.269 386.896 212.023C386.896 211.284 386.896 210.669 386.896 209.931C386.896 209.684 387.019 209.561 387.265 209.561C387.511 209.561 387.634 209.684 387.634 209.931C387.634 210.669 387.634 211.284 387.634 212.023C387.634 212.146 387.511 212.392 387.265 212.392ZM39.4767 209.192C39.2307 209.192 39.1077 209.069 39.1077 208.823L38.9848 206.731C38.9848 206.485 39.1077 206.362 39.3537 206.362C39.5997 206.362 39.7226 206.485 39.7226 206.731L39.8456 208.823C39.8456 209.069 39.7226 209.192 39.4767 209.192ZM387.142 205.378C386.896 205.378 386.773 205.255 386.773 205.008C386.773 204.27 386.773 203.655 386.65 202.916C386.65 202.67 386.773 202.547 387.019 202.547C387.265 202.547 387.388 202.67 387.388 202.916C387.388 203.655 387.388 204.27 387.511 205.008C387.511 205.131 387.388 205.378 387.142 205.378ZM39.2307 202.178C38.9848 202.178 38.8618 202.055 38.8618 201.809L38.7388 199.717C38.7388 199.471 38.8618 199.348 39.1077 199.348C39.3537 199.348 39.4767 199.471 39.4767 199.717L39.5997 201.809C39.5997 202.055 39.4767 202.178 39.2307 202.178ZM386.896 198.364C386.65 198.364 386.527 198.24 386.527 197.994C386.527 197.256 386.404 196.641 386.404 195.902C386.404 195.656 386.527 195.533 386.773 195.533C387.019 195.533 387.142 195.656 387.142 195.902C387.142 196.641 387.265 197.256 387.265 197.994C387.265 198.117 387.019 198.364 386.896 198.364ZM38.9848 195.164C38.7388 195.164 38.6158 195.041 38.6158 194.795L38.4928 192.703C38.4928 192.457 38.6158 192.334 38.8618 192.334C39.1077 192.334 39.2307 192.457 39.2307 192.703L39.3537 194.795C39.3537 195.041 39.2307 195.164 38.9848 195.164ZM386.404 191.349C386.281 191.349 386.035 191.226 386.035 190.98C386.035 190.242 385.912 189.627 385.912 188.888C385.912 188.642 386.035 188.519 386.281 188.519C386.527 188.519 386.65 188.642 386.65 188.888C386.65 189.627 386.773 190.242 386.773 190.98C386.773 191.103 386.65 191.349 386.404 191.349ZM38.7388 188.15C38.4928 188.15 38.3699 188.027 38.3699 187.781L38.2469 185.689C38.2469 185.443 38.3699 185.32 38.6158 185.32C38.8618 185.32 38.9848 185.443 38.9848 185.689L39.1077 187.781C39.1077 188.027 38.9848 188.15 38.7388 188.15C38.8618 188.15 38.7388 188.15 38.7388 188.15ZM385.912 184.335C385.789 184.335 385.543 184.212 385.543 183.966C385.543 183.228 385.42 182.613 385.297 181.874C385.297 181.628 385.42 181.505 385.666 181.505C385.912 181.505 386.035 181.628 386.035 181.874C386.158 182.613 386.158 183.228 386.281 183.966C386.281 184.089 386.158 184.335 385.912 184.335ZM38.6158 181.136C38.3699 181.136 38.2469 181.013 38.2469 180.767L38.1239 178.675C38.1239 178.429 38.2469 178.306 38.4928 178.306C38.7388 178.306 38.8618 178.429 38.8618 178.675L38.9848 180.767C38.9848 181.013 38.7388 181.136 38.6158 181.136ZM385.174 177.321C385.051 177.321 384.805 177.198 384.805 176.952C384.682 176.214 384.682 175.599 384.559 174.86C384.559 174.614 384.682 174.491 384.928 174.491C385.174 174.491 385.297 174.614 385.297 174.86C385.42 175.599 385.42 176.214 385.543 176.952C385.543 177.075 385.42 177.321 385.174 177.321C385.297 177.321 385.174 177.321 385.174 177.321ZM38.3699 174.122C38.1239 174.122 38.0009 173.999 38.0009 173.753L37.8779 171.292H39.1077C39.3537 171.292 39.4767 171.415 39.4767 171.661C39.4767 171.907 39.3537 172.03 39.1077 172.03H38.6158V173.753C38.7388 173.999 38.4928 174.122 38.3699 174.122ZM382.96 172.03H380.87C380.624 172.03 380.501 171.907 380.501 171.661C380.501 171.415 380.624 171.292 380.87 171.292H382.96C383.206 171.292 383.329 171.415 383.329 171.661C383.206 171.907 383.083 172.03 382.96 172.03ZM375.951 172.03H373.86C373.614 172.03 373.491 171.907 373.491 171.661C373.491 171.415 373.614 171.292 373.86 171.292H375.951C376.197 171.292 376.32 171.415 376.32 171.661C376.197 171.907 376.074 172.03 375.951 172.03ZM368.941 172.03H366.85C366.604 172.03 366.481 171.907 366.481 171.661C366.481 171.415 366.604 171.292 366.85 171.292H368.941C369.187 171.292 369.31 171.415 369.31 171.661C369.187 171.907 369.064 172.03 368.941 172.03ZM361.931 172.03H359.84C359.594 172.03 359.471 171.907 359.471 171.661C359.471 171.415 359.594 171.292 359.84 171.292H361.931C362.177 171.292 362.3 171.415 362.3 171.661C362.177 171.907 362.054 172.03 361.931 172.03ZM354.798 172.03H352.707C352.461 172.03 352.338 171.907 352.338 171.661C352.338 171.415 352.461 171.292 352.707 171.292H354.798C355.044 171.292 355.167 171.415 355.167 171.661C355.167 171.907 355.044 172.03 354.798 172.03ZM347.788 172.03H345.697C345.452 172.03 345.328 171.907 345.328 171.661C345.328 171.415 345.452 171.292 345.697 171.292H347.788C348.034 171.292 348.157 171.415 348.157 171.661C348.157 171.907 348.034 172.03 347.788 172.03ZM340.778 172.03H338.688C338.442 172.03 338.319 171.907 338.319 171.661C338.319 171.415 338.442 171.292 338.688 171.292H340.778C341.024 171.292 341.147 171.415 341.147 171.661C341.147 171.907 341.024 172.03 340.778 172.03ZM333.768 172.03H331.678C331.432 172.03 331.309 171.907 331.309 171.661C331.309 171.415 331.432 171.292 331.678 171.292H333.768C334.014 171.292 334.137 171.415 334.137 171.661C334.137 171.907 334.014 172.03 333.768 172.03ZM326.759 172.03H324.668C324.422 172.03 324.299 171.907 324.299 171.661C324.299 171.415 324.422 171.292 324.668 171.292H326.759C327.004 171.292 327.127 171.415 327.127 171.661C327.127 171.907 327.004 172.03 326.759 172.03ZM319.749 172.03H317.658C317.412 172.03 317.289 171.907 317.289 171.661C317.289 171.415 317.412 171.292 317.658 171.292H319.749C319.995 171.292 320.118 171.415 320.118 171.661C320.118 171.907 319.995 172.03 319.749 172.03ZM312.739 172.03H310.648C310.402 172.03 310.279 171.907 310.279 171.661C310.279 171.415 310.402 171.292 310.648 171.292H312.739C312.985 171.292 313.108 171.415 313.108 171.661C313.108 171.907 312.985 172.03 312.739 172.03ZM305.729 172.03H303.638C303.392 172.03 303.269 171.907 303.269 171.661C303.269 171.415 303.392 171.292 303.638 171.292H305.729C305.975 171.292 306.098 171.415 306.098 171.661C306.098 171.907 305.975 172.03 305.729 172.03ZM298.719 172.03H296.628C296.382 172.03 296.259 171.907 296.259 171.661C296.259 171.415 296.382 171.292 296.628 171.292H298.719C298.965 171.292 299.088 171.415 299.088 171.661C299.088 171.907 298.965 172.03 298.719 172.03ZM291.709 172.03H289.618C289.373 172.03 289.25 171.907 289.25 171.661C289.25 171.415 289.373 171.292 289.618 171.292H291.709C291.955 171.292 292.078 171.415 292.078 171.661C292.078 171.907 291.955 172.03 291.709 172.03ZM284.699 172.03H282.609C282.363 172.03 282.24 171.907 282.24 171.661C282.24 171.415 282.363 171.292 282.609 171.292H284.699C284.945 171.292 285.068 171.415 285.068 171.661C285.068 171.907 284.945 172.03 284.699 172.03ZM277.689 172.03H275.599C275.353 172.03 275.23 171.907 275.23 171.661C275.23 171.415 275.353 171.292 275.599 171.292H277.689C277.935 171.292 278.058 171.415 278.058 171.661C278.058 171.907 277.935 172.03 277.689 172.03ZM270.68 172.03H268.589C268.343 172.03 268.22 171.907 268.22 171.661C268.22 171.415 268.343 171.292 268.589 171.292H270.68C270.925 171.292 271.048 171.415 271.048 171.661C271.048 171.907 270.925 172.03 270.68 172.03ZM263.67 172.03H261.579C261.333 172.03 261.21 171.907 261.21 171.661C261.21 171.415 261.333 171.292 261.579 171.292H263.67C263.916 171.292 264.039 171.415 264.039 171.661C264.039 171.907 263.916 172.03 263.67 172.03ZM256.66 172.03H254.569C254.323 172.03 254.2 171.907 254.2 171.661C254.2 171.415 254.323 171.292 254.569 171.292H256.66C256.906 171.292 257.029 171.415 257.029 171.661C257.029 171.907 256.783 172.03 256.66 172.03ZM249.65 172.03H247.559C247.313 172.03 247.19 171.907 247.19 171.661C247.19 171.415 247.313 171.292 247.559 171.292H249.65C249.896 171.292 250.019 171.415 250.019 171.661C250.019 171.907 249.773 172.03 249.65 172.03ZM242.64 172.03H240.549C240.303 172.03 240.18 171.907 240.18 171.661C240.18 171.415 240.303 171.292 240.549 171.292H242.64C242.886 171.292 243.009 171.415 243.009 171.661C243.009 171.907 242.763 172.03 242.64 172.03ZM235.63 172.03H233.539C233.294 172.03 233.171 171.907 233.171 171.661C233.171 171.415 233.294 171.292 233.539 171.292H235.63C235.876 171.292 235.999 171.415 235.999 171.661C235.999 171.907 235.753 172.03 235.63 172.03ZM228.62 172.03H226.53C226.284 172.03 226.161 171.907 226.161 171.661C226.161 171.415 226.284 171.292 226.53 171.292H228.62C228.866 171.292 228.989 171.415 228.989 171.661C228.989 171.907 228.743 172.03 228.62 172.03ZM221.61 172.03H219.52C219.274 172.03 219.151 171.907 219.151 171.661C219.151 171.415 219.274 171.292 219.52 171.292H221.61C221.856 171.292 221.979 171.415 221.979 171.661C221.979 171.907 221.733 172.03 221.61 172.03ZM214.601 172.03H212.51C212.264 172.03 212.141 171.907 212.141 171.661C212.141 171.415 212.264 171.292 212.51 171.292H214.601C214.846 171.292 214.969 171.415 214.969 171.661C214.969 171.907 214.724 172.03 214.601 172.03ZM207.591 172.03H205.377C205.131 172.03 205.008 171.907 205.008 171.661C205.008 171.415 205.131 171.292 205.377 171.292H207.468C207.714 171.292 207.837 171.415 207.837 171.661C207.837 171.907 207.714 172.03 207.591 172.03ZM200.581 172.03H198.49C198.244 172.03 198.121 171.907 198.121 171.661C198.121 171.415 198.244 171.292 198.49 171.292H200.581C200.827 171.292 200.95 171.415 200.95 171.661C200.827 171.907 200.704 172.03 200.581 172.03ZM193.571 172.03H191.48C191.234 172.03 191.111 171.907 191.111 171.661C191.111 171.415 191.234 171.292 191.48 171.292H193.571C193.817 171.292 193.94 171.415 193.94 171.661C193.817 171.907 193.694 172.03 193.571 172.03ZM186.438 172.03H184.347C184.101 172.03 183.978 171.907 183.978 171.661C183.978 171.415 184.101 171.292 184.347 171.292H186.438C186.684 171.292 186.807 171.415 186.807 171.661C186.807 171.907 186.684 172.03 186.438 172.03ZM179.428 172.03H177.338C177.092 172.03 176.969 171.907 176.969 171.661C176.969 171.415 177.092 171.292 177.338 171.292H179.428C179.674 171.292 179.797 171.415 179.797 171.661C179.797 171.907 179.674 172.03 179.428 172.03ZM172.418 172.03H170.328C170.082 172.03 169.959 171.907 169.959 171.661C169.959 171.415 170.082 171.292 170.328 171.292H172.418C172.664 171.292 172.787 171.415 172.787 171.661C172.787 171.907 172.664 172.03 172.418 172.03ZM165.408 172.03H163.318C163.072 172.03 162.949 171.907 162.949 171.661C162.949 171.415 163.072 171.292 163.318 171.292H165.408C165.654 171.292 165.777 171.415 165.777 171.661C165.777 171.907 165.654 172.03 165.408 172.03ZM158.399 172.03H156.308C156.062 172.03 155.939 171.907 155.939 171.661C155.939 171.415 156.062 171.292 156.308 171.292H158.399C158.645 171.292 158.768 171.415 158.768 171.661C158.768 171.907 158.645 172.03 158.399 172.03ZM151.389 172.03H149.298C149.052 172.03 148.929 171.907 148.929 171.661C148.929 171.415 149.052 171.292 149.298 171.292H151.389C151.635 171.292 151.758 171.415 151.758 171.661C151.758 171.907 151.635 172.03 151.389 172.03ZM144.379 172.03H142.288C142.042 172.03 141.919 171.907 141.919 171.661C141.919 171.415 142.042 171.292 142.288 171.292H144.379C144.625 171.292 144.748 171.415 144.748 171.661C144.748 171.907 144.625 172.03 144.379 172.03ZM137.369 172.03H135.278C135.032 172.03 134.909 171.907 134.909 171.661C134.909 171.415 135.032 171.292 135.278 171.292H137.369C137.615 171.292 137.738 171.415 137.738 171.661C137.738 171.907 137.615 172.03 137.369 172.03ZM130.359 172.03H128.268C128.022 172.03 127.899 171.907 127.899 171.661C127.899 171.415 128.022 171.292 128.268 171.292H130.359C130.605 171.292 130.728 171.415 130.728 171.661C130.728 171.907 130.605 172.03 130.359 172.03ZM123.349 172.03H121.259C121.013 172.03 120.89 171.907 120.89 171.661C120.89 171.415 121.013 171.292 121.259 171.292H123.349C123.595 171.292 123.718 171.415 123.718 171.661C123.718 171.907 123.595 172.03 123.349 172.03ZM116.339 172.03H114.249C114.003 172.03 113.88 171.907 113.88 171.661C113.88 171.415 114.003 171.292 114.249 171.292H116.339C116.585 171.292 116.708 171.415 116.708 171.661C116.708 171.907 116.585 172.03 116.339 172.03ZM109.329 172.03H107.239C106.993 172.03 106.87 171.907 106.87 171.661C106.87 171.415 106.993 171.292 107.239 171.292H109.329C109.575 171.292 109.698 171.415 109.698 171.661C109.698 171.907 109.575 172.03 109.329 172.03ZM102.32 172.03H100.229C99.983 172.03 99.86 171.907 99.86 171.661C99.86 171.415 99.983 171.292 100.229 171.292H102.32C102.566 171.292 102.689 171.415 102.689 171.661C102.689 171.907 102.566 172.03 102.32 172.03ZM95.3097 172.03H93.219C92.9731 172.03 92.8501 171.907 92.8501 171.661C92.8501 171.415 92.9731 171.292 93.219 171.292H95.3097C95.5557 171.292 95.6786 171.415 95.6786 171.661C95.6786 171.907 95.5557 172.03 95.3097 172.03ZM88.2998 172.03H86.2092C85.9632 172.03 85.8402 171.907 85.8402 171.661C85.8402 171.415 85.9632 171.292 86.2092 171.292H88.2998C88.5458 171.292 88.6688 171.415 88.6688 171.661C88.6688 171.907 88.4228 172.03 88.2998 172.03ZM81.29 172.03H79.1993C78.9533 172.03 78.8303 171.907 78.8303 171.661C78.8303 171.415 78.9533 171.292 79.1993 171.292H81.29C81.5359 171.292 81.6589 171.415 81.6589 171.661C81.6589 171.907 81.4129 172.03 81.29 172.03ZM74.2801 172.03H72.1894C71.9435 172.03 71.8205 171.907 71.8205 171.661C71.8205 171.415 71.9435 171.292 72.1894 171.292H74.2801C74.526 171.292 74.649 171.415 74.649 171.661C74.649 171.907 74.4031 172.03 74.2801 172.03ZM67.2702 172.03H65.1795C64.9336 172.03 64.8106 171.907 64.8106 171.661C64.8106 171.415 64.9336 171.292 65.1795 171.292H67.2702C67.5162 171.292 67.6391 171.415 67.6391 171.661C67.6391 171.907 67.3932 172.03 67.2702 172.03ZM60.2603 172.03H58.1697C57.9237 172.03 57.8007 171.907 57.8007 171.661C57.8007 171.415 57.9237 171.292 58.1697 171.292H60.2603C60.5063 171.292 60.6293 171.415 60.6293 171.661C60.6293 171.907 60.3833 172.03 60.2603 172.03ZM53.2505 172.03H51.1598C50.9138 172.03 50.7909 171.907 50.7909 171.661C50.7909 171.415 50.9138 171.292 51.1598 171.292H53.2505C53.4964 171.292 53.6194 171.415 53.6194 171.661C53.6194 171.907 53.3734 172.03 53.2505 172.03ZM46.2406 172.03H44.1499C43.904 172.03 43.781 171.907 43.781 171.661C43.781 171.415 43.904 171.292 44.1499 171.292H46.2406C46.4865 171.292 46.6095 171.415 46.6095 171.661C46.6095 171.907 46.3636 172.03 46.2406 172.03Z" fill="white"/>
<path d="M114.125 84.0461L114.986 74.694C115.97 72.479 118.061 70.8793 120.397 70.5102C129.375 69.0335 151.757 66.5724 162.457 74.571L164.055 85.3997L114.125 84.0461Z" fill="#7393E4"/>
<path d="M142.165 75.0634C140.075 75.5556 137.984 75.5556 135.893 75.0634C133.434 74.4481 131.589 72.2331 131.589 69.649V40.4852H146.469V69.649C146.469 72.2331 144.748 74.4481 142.165 75.0634Z" fill="#7393E4"/>
<path d="M257.644 84.0461L258.504 74.694C259.488 72.479 261.579 70.8793 263.916 70.5102C272.893 69.0335 295.276 66.5724 305.975 74.571L307.574 85.3997L257.644 84.0461Z" fill="url(#paint0_linear_2_1949)"/>
<path d="M285.806 75.0634C283.715 75.5556 281.624 75.5556 279.534 75.0634C277.074 74.4481 275.229 72.2331 275.229 69.649V37.4088H290.11V69.649C290.11 72.2331 288.388 74.4481 285.806 75.0634Z" fill="#7393E4"/>
<path d="M130.113 47.6222L289.618 42.3309C293.308 42.2078 296.382 39.6237 296.997 36.0551C297.858 31.0099 298.596 23.6266 297.489 15.8742C296.136 7.01434 288.634 0.492468 279.657 0.246359C249.896 -0.491965 174.14 -0.491965 132.45 15.9973C128.022 17.72 124.702 21.5347 123.595 26.0877C122.488 30.5177 121.873 36.3012 123.226 42.3309C123.964 45.5303 126.915 47.7452 130.113 47.6222Z" fill="#90AAE8"/>
<path d="M40.0914 80.3547C91.6201 79.7394 314.46 77.4014 379.148 85.1538C384.682 85.7691 389.232 89.9529 390.462 95.3673C394.275 112.718 402.022 152.834 401.038 192.703C400.915 198.118 396.98 202.67 391.569 203.655L243.747 231.588H191.234L33.8194 200.332C28.2853 199.225 24.227 194.549 23.858 188.888C22.8742 168.831 21.2754 121.824 26.6866 91.5526C28.0393 85.2769 33.5735 80.4777 40.0914 80.3547Z" fill="#91ABE9"/>
<path d="M242.763 219.406H240.672C240.426 219.406 240.303 219.283 240.303 219.037C240.303 218.79 240.426 218.667 240.672 218.667H242.763C243.009 218.667 243.132 218.79 243.132 219.037C243.009 219.16 242.886 219.406 242.763 219.406ZM235.753 219.406H233.662C233.416 219.406 233.293 219.283 233.293 219.037C233.293 218.79 233.416 218.667 233.662 218.667H235.753C235.999 218.667 236.122 218.79 236.122 219.037C235.999 219.16 235.876 219.406 235.753 219.406ZM228.62 219.406H226.529C226.283 219.406 226.16 219.283 226.16 219.037C226.16 218.79 226.283 218.667 226.529 218.667H228.62C228.866 218.667 228.989 218.79 228.989 219.037C228.989 219.16 228.866 219.406 228.62 219.406ZM221.61 219.406H219.519C219.273 219.406 219.15 219.283 219.15 219.037C219.15 218.79 219.273 218.667 219.519 218.667H221.61C221.856 218.667 221.979 218.79 221.979 219.037C221.979 219.16 221.856 219.406 221.61 219.406ZM214.6 219.406H212.51C212.264 219.406 212.141 219.283 212.141 219.037C212.141 218.79 212.264 218.667 212.51 218.667H214.6C214.846 218.667 214.969 218.79 214.969 219.037C214.969 219.16 214.846 219.406 214.6 219.406ZM207.59 219.406H205.5C205.254 219.406 205.131 219.283 205.131 219.037C205.131 218.79 205.254 218.667 205.5 218.667H207.59C207.836 218.667 207.959 218.79 207.959 219.037C207.959 219.16 207.836 219.406 207.59 219.406ZM200.58 219.406H198.49C198.244 219.406 198.121 219.283 198.121 219.037C198.121 218.79 198.244 218.667 198.49 218.667H200.58C200.826 218.667 200.949 218.79 200.949 219.037C200.949 219.16 200.826 219.406 200.58 219.406ZM193.571 219.406H192.71L190.619 219.037C190.373 219.037 190.25 218.79 190.373 218.667C190.373 218.421 190.619 218.298 190.742 218.421L192.833 218.79H193.694C193.939 218.79 194.062 218.914 194.062 219.16C193.94 219.16 193.817 219.406 193.571 219.406ZM247.559 218.421C247.436 218.421 247.19 218.298 247.19 218.175C247.19 217.929 247.313 217.806 247.436 217.806L249.527 217.437C249.773 217.437 249.896 217.56 249.896 217.683C249.896 217.929 249.773 218.052 249.65 218.052L247.559 218.421ZM185.823 218.052C185.823 218.052 185.7 218.052 185.823 218.052L183.732 217.683C183.486 217.683 183.363 217.437 183.486 217.314C183.486 217.068 183.732 216.945 183.855 217.068L185.946 217.437C186.192 217.437 186.315 217.683 186.192 217.806C186.069 217.929 185.946 218.052 185.823 218.052ZM254.446 217.191C254.323 217.191 254.077 217.068 254.077 216.945C254.077 216.699 254.2 216.576 254.323 216.576L256.413 216.206C256.659 216.206 256.782 216.329 256.782 216.452C256.782 216.699 256.659 216.822 256.536 216.822L254.446 217.191ZM178.936 216.699C178.936 216.699 178.936 216.576 178.936 216.699L176.845 216.329C176.599 216.329 176.476 216.083 176.599 215.96C176.599 215.714 176.845 215.591 176.968 215.714L179.059 216.083C179.305 216.083 179.428 216.329 179.305 216.452C179.182 216.576 179.059 216.699 178.936 216.699ZM261.333 215.837C261.21 215.837 260.964 215.714 260.964 215.591C260.964 215.345 261.087 215.222 261.21 215.222L263.3 214.853C263.546 214.853 263.669 214.976 263.669 215.099C263.669 215.345 263.546 215.468 263.423 215.468L261.333 215.837ZM172.049 215.222L169.958 214.853C169.712 214.853 169.589 214.607 169.712 214.484C169.712 214.237 169.958 214.114 170.081 214.238L172.172 214.607C172.418 214.607 172.541 214.853 172.418 214.976C172.295 215.099 172.172 215.222 172.049 215.222ZM268.22 214.607C268.097 214.607 267.851 214.484 267.851 214.361C267.851 214.114 267.974 213.991 268.097 213.991L270.187 213.622C270.433 213.622 270.556 213.745 270.556 213.868C270.556 214.114 270.433 214.238 270.31 214.238L268.22 214.607ZM165.162 213.868L163.071 213.499C162.826 213.499 162.703 213.253 162.825 213.13C162.825 212.884 163.071 212.761 163.194 212.884L165.285 213.253C165.531 213.253 165.654 213.499 165.531 213.622C165.531 213.745 165.285 213.868 165.162 213.868ZM275.106 213.253C274.983 213.253 274.738 213.13 274.738 213.007C274.738 212.761 274.861 212.638 274.983 212.638L277.074 212.269C277.32 212.269 277.443 212.392 277.443 212.515C277.443 212.761 277.32 212.884 277.197 212.884L275.106 213.253ZM158.275 212.515L156.185 212.146C155.939 212.146 155.816 211.899 155.939 211.776C155.939 211.53 156.185 211.407 156.308 211.53L158.398 211.899C158.644 211.899 158.767 212.146 158.644 212.269C158.644 212.392 158.398 212.515 158.275 212.515ZM281.993 211.899C281.87 211.899 281.624 211.776 281.624 211.653C281.624 211.407 281.747 211.284 281.87 211.284L283.961 210.915C284.207 210.915 284.33 211.038 284.33 211.161C284.33 211.407 284.207 211.53 284.084 211.53L281.993 211.899ZM151.388 211.161L149.298 210.792C149.052 210.792 148.929 210.546 149.052 210.423C149.052 210.177 149.298 210.054 149.421 210.177L151.511 210.546C151.757 210.546 151.88 210.792 151.757 210.915C151.757 211.038 151.511 211.161 151.388 211.161ZM288.88 210.669C288.757 210.669 288.511 210.546 288.511 210.423C288.511 210.177 288.634 210.054 288.757 210.054L290.848 209.684C291.094 209.684 291.217 209.808 291.217 209.931C291.217 210.177 291.094 210.3 290.971 210.3L288.88 210.669ZM144.501 209.808L142.411 209.438C142.165 209.438 142.042 209.192 142.165 209.069C142.165 208.823 142.411 208.7 142.534 208.823L144.624 209.192C144.87 209.192 144.993 209.438 144.87 209.561C144.87 209.684 144.747 209.808 144.501 209.808ZM295.767 209.315C295.644 209.315 295.398 209.192 295.398 209.069C295.398 208.823 295.521 208.7 295.644 208.7L297.735 208.331C297.981 208.331 298.104 208.454 298.104 208.577C298.104 208.823 297.981 208.946 297.858 208.946L295.767 209.315ZM137.615 208.454L135.524 208.085C135.278 208.085 135.155 207.839 135.278 207.716C135.278 207.47 135.524 207.346 135.647 207.47L137.738 207.839C137.983 207.839 138.106 208.085 137.983 208.208C137.983 208.331 137.861 208.454 137.615 208.454ZM302.654 208.085C302.531 208.085 302.285 207.962 302.285 207.839C302.285 207.593 302.408 207.47 302.531 207.47L304.622 207.1C304.868 207.1 304.991 207.223 304.991 207.346C304.991 207.593 304.868 207.716 304.745 207.716L302.654 208.085C302.777 208.085 302.654 208.085 302.654 208.085ZM130.728 207.1L128.637 206.731C128.391 206.731 128.268 206.485 128.391 206.362C128.391 206.116 128.637 205.993 128.76 206.116L130.851 206.485C131.097 206.485 131.22 206.731 131.097 206.854C131.097 206.977 130.974 207.1 130.728 207.1ZM309.541 206.731C309.418 206.731 309.172 206.608 309.172 206.485C309.172 206.239 309.295 206.116 309.418 206.116L311.509 205.747C311.755 205.747 311.878 205.87 311.878 205.993C311.878 206.239 311.755 206.362 311.632 206.362L309.541 206.731C309.664 206.731 309.541 206.731 309.541 206.731ZM123.841 205.747L121.75 205.378C121.504 205.378 121.381 205.131 121.504 205.008C121.504 204.762 121.75 204.639 121.873 204.762L123.964 205.131C124.21 205.131 124.333 205.378 124.21 205.501C124.21 205.624 124.087 205.747 123.841 205.747ZM316.428 205.378C316.305 205.378 316.059 205.255 316.059 205.131C316.059 204.885 316.182 204.762 316.305 204.762L318.396 204.393C318.641 204.393 318.764 204.516 318.764 204.639C318.764 204.885 318.641 205.008 318.518 205.008L316.428 205.378C316.551 205.378 316.428 205.378 316.428 205.378ZM116.954 204.27L114.863 203.901C114.617 203.901 114.494 203.655 114.617 203.532C114.617 203.286 114.863 203.163 114.986 203.286L117.077 203.655C117.323 203.655 117.446 203.901 117.323 204.024C117.323 204.147 117.2 204.27 116.954 204.27ZM323.315 204.147C323.192 204.147 322.946 204.024 322.946 203.901C322.946 203.655 323.069 203.532 323.192 203.532L325.282 203.163C325.528 203.163 325.651 203.286 325.651 203.409C325.651 203.655 325.528 203.778 325.405 203.778L323.315 204.147C323.438 204.147 323.315 204.147 323.315 204.147ZM110.067 202.917L107.976 202.547C107.73 202.547 107.607 202.301 107.73 202.178C107.73 201.932 107.976 201.809 108.099 201.932L110.19 202.301C110.436 202.301 110.559 202.547 110.436 202.67C110.436 202.793 110.313 202.917 110.067 202.917ZM330.202 202.793C330.079 202.793 329.833 202.67 329.833 202.547C329.833 202.301 329.956 202.178 330.079 202.178L332.169 201.809C332.415 201.809 332.538 201.932 332.538 202.055C332.538 202.301 332.415 202.424 332.292 202.424L330.202 202.793C330.325 202.793 330.325 202.793 330.202 202.793ZM103.303 201.563C103.18 201.563 103.18 201.563 103.303 201.563L101.212 201.194C100.966 201.194 100.843 200.948 100.966 200.825C100.966 200.578 101.212 200.455 101.335 200.578L103.426 200.948C103.672 200.948 103.795 201.194 103.672 201.317C103.549 201.44 103.426 201.563 103.303 201.563ZM337.089 201.563C336.966 201.563 336.72 201.44 336.72 201.317C336.72 201.071 336.843 200.948 336.966 200.948L339.056 200.578C339.302 200.578 339.425 200.702 339.425 200.825C339.425 201.071 339.302 201.194 339.179 201.194L337.089 201.563C337.212 201.44 337.212 201.563 337.089 201.563ZM96.4162 200.209C96.2932 200.209 96.2932 200.209 96.4162 200.209L94.3255 199.84C94.0795 199.84 93.9566 199.594 94.0795 199.471C94.0795 199.225 94.3255 199.102 94.4485 199.225L96.5392 199.594C96.7851 199.594 96.9081 199.84 96.7851 199.963C96.6621 200.086 96.5392 200.209 96.4162 200.209ZM343.975 200.209C343.852 200.209 343.606 200.086 343.606 199.963C343.606 199.717 343.729 199.594 343.852 199.594L345.943 199.225C346.189 199.225 346.312 199.348 346.312 199.471C346.312 199.717 346.189 199.84 346.066 199.84L343.975 200.209C344.098 200.209 344.098 200.209 343.975 200.209ZM350.862 198.856C350.739 198.856 350.493 198.733 350.493 198.61C350.493 198.364 350.616 198.24 350.739 198.24L352.83 197.871C353.076 197.871 353.199 197.994 353.199 198.117C353.199 198.364 353.076 198.487 352.953 198.487L350.862 198.856C350.985 198.856 350.985 198.856 350.862 198.856ZM89.5293 198.856C89.4063 198.856 89.4063 198.856 89.5293 198.856L87.4386 198.487C87.1927 198.487 87.0697 198.24 87.1927 198.117C87.1927 197.871 87.4386 197.748 87.5616 197.871L89.6523 198.24C89.8982 198.24 90.0212 198.487 89.8982 198.61C89.7752 198.733 89.6523 198.856 89.5293 198.856ZM357.872 197.625C357.749 197.625 357.503 197.502 357.503 197.379C357.503 197.133 357.626 197.01 357.749 197.01L359.84 196.641C360.086 196.641 360.209 196.764 360.209 196.887C360.209 197.133 360.086 197.256 359.963 197.256L357.872 197.625ZM82.6424 197.502C82.5194 197.502 82.5194 197.502 82.6424 197.502L80.5517 197.133C80.3058 197.133 80.1828 196.887 80.3058 196.764C80.3058 196.518 80.5517 196.395 80.6747 196.518L82.7654 196.887C83.0113 196.887 83.1343 197.133 83.0113 197.256C82.8883 197.379 82.7654 197.502 82.6424 197.502ZM364.759 196.272C364.636 196.272 364.39 196.149 364.39 196.025C364.39 195.779 364.513 195.656 364.636 195.656L366.727 195.287C366.973 195.287 367.096 195.41 367.096 195.533C367.096 195.779 366.973 195.902 366.85 195.902L364.759 196.272ZM75.7555 196.149C75.7555 196.149 75.6325 196.149 75.7555 196.149L73.6648 195.779C73.4189 195.779 73.2959 195.533 73.4189 195.41C73.4189 195.164 73.6648 195.041 73.7878 195.164L75.8785 195.533C76.1244 195.533 76.2474 195.779 76.1244 195.902C76.0015 196.025 75.8785 196.149 75.7555 196.149ZM371.646 194.918C371.523 194.918 371.277 194.795 371.277 194.672C371.277 194.426 371.4 194.303 371.523 194.303L373.614 193.934C373.86 193.934 373.983 194.057 373.983 194.18C373.983 194.426 373.86 194.549 373.737 194.549L371.646 194.918ZM68.8686 194.795C68.8686 194.795 68.7456 194.795 68.8686 194.795L66.7779 194.426C66.532 194.426 66.409 194.18 66.532 194.057C66.532 193.811 66.7779 193.687 66.9009 193.811L68.9916 194.18C69.2375 194.18 69.3605 194.426 69.2375 194.549C69.1146 194.672 68.9916 194.795 68.8686 194.795ZM378.533 193.687C378.41 193.687 378.164 193.564 378.164 193.441C378.164 193.195 378.287 193.072 378.41 193.072L380.501 192.703C380.747 192.703 380.87 192.826 380.87 192.949C380.87 193.195 380.747 193.318 380.624 193.318L378.533 193.687ZM61.9817 193.318C61.9817 193.318 61.8587 193.318 61.9817 193.318L59.891 192.949C59.6451 192.949 59.5221 192.703 59.6451 192.58C59.6451 192.334 59.891 192.211 60.014 192.334L62.1047 192.703C62.3506 192.703 62.4736 192.949 62.3506 193.072C62.2277 193.318 62.1047 193.318 61.9817 193.318ZM385.42 192.334C385.297 192.334 385.051 192.211 385.051 192.088C385.051 191.842 385.174 191.719 385.297 191.719L387.387 191.349C387.633 191.349 387.756 191.472 387.756 191.596C387.756 191.842 387.633 191.965 387.51 191.965L385.42 192.334ZM55.0948 191.965L53.0041 191.596C52.7582 191.596 52.6352 191.349 52.7582 191.226C52.8812 191.103 53.0041 190.857 53.1271 190.98L55.2178 191.349C55.4638 191.349 55.5867 191.596 55.4637 191.719C55.3408 191.842 55.2178 191.965 55.0948 191.965ZM48.2079 190.611L46.1173 190.242C45.8713 190.242 45.7483 189.996 45.8713 189.873C45.8713 189.627 46.1172 189.504 46.2402 189.627L48.3309 189.996C48.5769 189.996 48.6998 190.242 48.5769 190.365C48.4539 190.488 48.3309 190.611 48.2079 190.611ZM41.321 189.258L39.2304 188.888C38.9844 188.888 38.8614 188.642 38.9844 188.519C38.9844 188.273 39.2304 188.15 39.3533 188.273L41.444 188.642C41.69 188.642 41.8129 188.888 41.69 189.011C41.69 189.134 41.444 189.258 41.321 189.258ZM388.494 187.904C388.248 187.904 388.125 187.781 388.125 187.535V186.304V185.443C388.125 185.197 388.248 185.074 388.494 185.074C388.74 185.074 388.863 185.197 388.863 185.443V186.304V187.535C388.863 187.658 388.617 187.904 388.494 187.904ZM36.6478 186.058C36.4018 186.058 36.2788 185.935 36.2788 185.689L36.1559 183.597C36.1559 183.351 36.2788 183.228 36.5248 183.228C36.7708 183.228 36.8937 183.351 36.8937 183.597L37.0167 185.689C37.0167 185.812 36.8937 185.935 36.6478 186.058ZM388.371 180.89C388.125 180.89 388.002 180.767 388.002 180.521C388.002 179.782 388.002 179.167 388.002 178.429C388.002 178.183 388.125 178.06 388.371 178.06C388.617 178.06 388.74 178.183 388.74 178.429C388.74 179.167 388.74 179.782 388.74 180.521C388.74 180.644 388.617 180.89 388.371 180.89ZM36.4018 179.044C36.1559 179.044 36.0329 178.921 36.0329 178.675L35.9099 176.583C35.9099 176.337 36.0329 176.214 36.2788 176.214C36.5248 176.214 36.6478 176.337 36.6478 176.583L36.7708 178.675C36.6478 178.798 36.5248 178.921 36.4018 179.044ZM388.248 173.876C388.002 173.876 387.879 173.753 387.879 173.507C387.879 172.768 387.879 172.153 387.756 171.415C387.756 171.169 387.879 171.045 388.125 171.045C388.371 171.045 388.494 171.169 388.494 171.415C388.494 172.153 388.617 172.768 388.617 173.507C388.617 173.63 388.371 173.876 388.248 173.876ZM36.1559 171.907C35.9099 171.907 35.7869 171.784 35.7869 171.538V169.446C35.7869 169.2 35.9099 169.077 36.1559 169.077C36.4018 169.077 36.5248 169.2 36.5248 169.446V171.538C36.4018 171.784 36.2788 171.907 36.1559 171.907ZM387.879 166.862C387.756 166.862 387.51 166.739 387.51 166.493C387.51 165.754 387.387 165.139 387.387 164.401C387.387 164.154 387.51 164.031 387.756 164.031C388.002 164.031 388.125 164.154 388.125 164.401C388.125 165.139 388.248 165.754 388.248 166.493C388.248 166.616 388.002 166.862 387.879 166.862ZM35.9099 164.893C35.6639 164.893 35.5409 164.77 35.5409 164.524V162.432C35.5409 162.186 35.6639 162.063 35.9099 162.063C36.1559 162.063 36.2788 162.186 36.2788 162.432V164.524C36.2788 164.77 36.1559 164.893 35.9099 164.893ZM387.387 159.848C387.264 159.848 387.019 159.725 387.019 159.478C387.019 158.74 386.896 158.125 386.896 157.386C386.896 157.14 387.018 157.017 387.264 157.017C387.51 157.017 387.633 157.14 387.633 157.386C387.633 158.125 387.756 158.74 387.756 159.478C387.756 159.601 387.51 159.848 387.387 159.848ZM35.7869 157.879C35.541 157.879 35.418 157.756 35.418 157.51V155.418C35.418 155.172 35.541 155.048 35.7869 155.048C35.9099 155.048 36.1559 155.172 36.1559 155.418V157.51C36.1559 157.756 36.0329 157.879 35.7869 157.879ZM386.773 152.833C386.65 152.833 386.404 152.71 386.404 152.464C386.281 151.726 386.281 151.111 386.158 150.372C386.158 150.126 386.281 150.003 386.527 150.003C386.773 150.003 386.896 150.126 386.896 150.372C387.019 151.111 387.018 151.726 387.141 152.464C387.141 152.587 386.896 152.833 386.773 152.833ZM35.7869 150.865C35.541 150.865 35.418 150.742 35.418 150.495V149.265V148.404C35.418 148.157 35.541 148.034 35.7869 148.034C36.0329 148.034 36.1559 148.157 36.1559 148.404V149.265V150.495C36.1559 150.742 35.9099 150.865 35.7869 150.865ZM386.035 145.819C385.912 145.819 385.666 145.696 385.666 145.45C385.543 144.712 385.543 144.097 385.42 143.358C385.42 143.112 385.543 142.989 385.666 142.989C385.912 142.989 386.035 143.112 386.035 143.235C386.158 143.974 386.158 144.589 386.281 145.327C386.404 145.696 386.158 145.819 386.035 145.819ZM35.7869 143.851C35.541 143.851 35.418 143.727 35.418 143.481C35.418 142.743 35.418 142.128 35.418 141.389C35.418 141.143 35.541 141.02 35.7869 141.02C36.0329 141.02 36.1559 141.143 36.1559 141.389C36.1559 142.128 36.1559 142.743 36.1559 143.481C36.1559 143.727 35.9099 143.851 35.7869 143.851ZM385.174 138.928C385.051 138.928 384.805 138.805 384.805 138.682C384.682 137.944 384.682 137.329 384.559 136.59C384.559 136.344 384.682 136.221 384.805 136.221C385.051 136.221 385.174 136.344 385.174 136.467C385.297 137.206 385.42 137.821 385.42 138.559C385.543 138.682 385.42 138.805 385.174 138.928ZM35.9099 136.836C35.6639 136.836 35.5409 136.713 35.5409 136.467C35.5409 135.729 35.5409 135.114 35.5409 134.375C35.5409 134.129 35.6639 134.006 35.9099 134.006C36.1559 134.006 36.2788 134.129 36.2788 134.375C36.2788 135.114 36.2788 135.729 36.2788 136.467C36.2788 136.713 36.0329 136.836 35.9099 136.836ZM384.19 131.914C384.067 131.914 383.821 131.791 383.821 131.668C383.698 130.93 383.575 130.315 383.452 129.576C383.452 129.33 383.575 129.207 383.698 129.207C383.944 129.207 384.067 129.33 384.067 129.453C384.19 130.192 384.313 130.807 384.436 131.545C384.559 131.668 384.436 131.914 384.19 131.914ZM36.0329 129.822C35.7869 129.822 35.6639 129.699 35.6639 129.453C35.6639 128.715 35.6639 128.1 35.7869 127.361C35.7869 127.115 35.9099 126.992 36.1559 126.992C36.4018 126.992 36.5248 127.115 36.5248 127.361C36.5248 128.1 36.5248 128.715 36.4018 129.453C36.4018 129.699 36.2788 129.822 36.0329 129.822ZM383.083 125.023C382.96 125.023 382.714 124.9 382.714 124.777C382.591 124.039 382.468 123.424 382.345 122.685C382.345 122.439 382.468 122.316 382.591 122.316C382.837 122.316 382.96 122.439 382.96 122.562C383.083 123.3 383.206 123.916 383.329 124.654C383.452 124.777 383.329 124.9 383.083 125.023ZM36.4018 122.808C36.1559 122.808 36.0329 122.685 36.0329 122.439C36.0329 121.701 36.1559 121.086 36.1559 120.347C36.1559 120.101 36.2788 119.978 36.5248 119.978C36.7708 119.978 36.8937 120.101 36.8937 120.347C36.8937 121.086 36.7708 121.701 36.7708 122.439C36.7708 122.685 36.6478 122.808 36.4018 122.808ZM381.976 118.009C381.853 118.009 381.607 117.886 381.607 117.763C381.484 117.025 381.361 116.409 381.238 115.671C381.238 115.425 381.361 115.302 381.484 115.302C381.73 115.302 381.853 115.425 381.853 115.548C381.976 116.286 382.099 116.902 382.222 117.64C382.345 117.886 382.222 118.009 381.976 118.009ZM36.8937 115.794C36.7708 115.794 36.7708 115.794 36.8937 115.794C36.6478 115.794 36.5248 115.671 36.5248 115.425C36.5248 114.687 36.6478 114.071 36.6478 113.333C36.6478 113.087 36.7708 112.964 37.0167 112.964C37.2627 112.964 37.3857 113.21 37.3857 113.333C37.3857 114.071 37.2627 114.687 37.2627 115.425C37.1397 115.671 37.0167 115.794 36.8937 115.794ZM380.624 111.118C380.501 111.118 380.255 110.995 380.255 110.872C380.132 110.134 380.009 109.518 379.886 108.78C379.886 108.534 380.009 108.411 380.132 108.411C380.378 108.411 380.501 108.534 380.501 108.657C380.624 109.272 380.747 110.011 380.87 110.749C381.115 110.872 380.992 111.118 380.624 111.118C380.747 111.118 380.747 111.118 380.624 111.118ZM37.3857 108.78C37.1397 108.78 37.0167 108.534 37.0167 108.411C37.1397 107.673 37.1397 107.057 37.2627 106.319C37.2627 106.073 37.5086 105.95 37.6316 105.95C37.8776 105.95 38.0006 106.196 38.0006 106.319C37.8776 107.057 37.8776 107.673 37.7546 108.411C37.7546 108.657 37.6316 108.78 37.3857 108.78ZM379.271 104.227C379.148 104.227 378.902 104.104 378.902 103.981C378.779 103.243 378.656 102.627 378.533 101.889C378.533 101.643 378.656 101.52 378.779 101.52C379.025 101.52 379.148 101.643 379.148 101.766C379.271 102.381 379.394 103.12 379.64 103.858C379.64 103.981 379.517 104.227 379.271 104.227C379.394 104.227 379.394 104.227 379.271 104.227ZM38.2465 101.889C38.0006 101.889 37.8776 101.643 37.8776 101.52C38.0006 100.782 38.1235 100.166 38.1235 99.428C38.1235 99.1819 38.3695 99.0588 38.4925 99.1819C38.7384 99.1819 38.8614 99.428 38.7384 99.5511C38.6155 100.289 38.4925 100.905 38.4925 101.643C38.4925 101.766 38.3695 101.889 38.2465 101.889ZM377.057 98.1975C376.319 98.0744 375.704 98.0744 374.966 97.9513C374.72 97.9513 374.598 97.7052 374.598 97.5822C374.598 97.3361 374.843 97.213 374.966 97.213C375.704 97.3361 376.442 97.3361 377.057 97.4591C377.303 97.4591 377.426 97.7052 377.426 97.8283C377.426 98.0744 377.18 98.1975 377.057 98.1975ZM370.047 97.4591C369.309 97.3361 368.572 97.3361 367.957 97.213C367.711 97.213 367.588 96.9669 367.588 96.8439C367.588 96.5977 367.834 96.4747 367.957 96.4747C368.694 96.5978 369.309 96.5978 370.047 96.7208C370.293 96.7208 370.416 96.9669 370.416 97.09C370.416 97.3361 370.293 97.4591 370.047 97.4591ZM363.037 96.8439C362.299 96.8439 361.562 96.7208 360.947 96.7208C360.701 96.7208 360.578 96.5978 360.578 96.3516C360.578 96.1055 360.824 95.9825 360.947 95.9825C361.685 95.9825 362.299 96.1055 363.037 96.1055C363.283 96.1055 363.406 96.2286 363.406 96.4747C363.406 96.7208 363.283 96.8439 363.037 96.8439ZM356.15 96.3516C356.15 96.3516 356.027 96.3516 356.15 96.3516L354.06 96.2286C353.814 96.2286 353.691 96.1055 353.691 95.8594C353.691 95.6133 353.814 95.4903 354.06 95.4903L356.15 95.6133C356.396 95.6133 356.519 95.7364 356.519 95.9825C356.396 96.2286 356.273 96.3516 356.15 96.3516ZM349.141 95.8594L347.05 95.7364C346.804 95.7364 346.681 95.6133 346.681 95.3672C346.681 95.1211 346.804 94.998 347.05 94.998L349.141 95.1211C349.387 95.1211 349.51 95.2442 349.51 95.4903C349.387 95.7364 349.264 95.8594 349.141 95.8594ZM342.131 95.4903L340.04 95.3672C339.794 95.3672 339.671 95.2442 339.671 94.998C339.671 94.7519 339.794 94.6289 340.04 94.6289L342.131 94.7519C342.377 94.7519 342.5 94.875 342.5 95.1211C342.377 95.3672 342.254 95.4903 342.131 95.4903ZM335.121 95.2442L333.03 95.1211C332.784 95.1211 332.661 94.998 332.661 94.7519C332.661 94.5058 332.784 94.3828 333.03 94.3828L335.121 94.5058C335.367 94.5058 335.49 94.6289 335.49 94.875C335.367 95.1211 335.244 95.2442 335.121 95.2442ZM328.111 94.875L326.02 94.7519C325.774 94.7519 325.651 94.6289 325.651 94.3828C325.651 94.1367 325.897 94.0136 326.02 94.0136L328.111 94.1367C328.357 94.1367 328.48 94.2597 328.48 94.5058C328.357 94.7519 328.234 94.875 328.111 94.875ZM39.2304 94.875C38.9844 94.875 38.8614 94.6289 38.8614 94.5058L38.9844 93.8906C39.1074 93.2753 39.5993 92.9061 40.2142 92.9061H40.3372C40.4602 92.9061 40.7061 93.0292 40.7061 93.2753C40.7061 93.5214 40.5831 93.6445 40.3372 93.6445H40.2142C39.9682 93.6445 39.7223 93.8906 39.7223 94.1367L39.5993 94.7519C39.5993 94.7519 39.4763 94.875 39.2304 94.875ZM321.101 94.6289L319.01 94.5058C318.764 94.5058 318.641 94.3828 318.641 94.1367C318.641 93.8906 318.764 93.7675 319.01 93.7675L321.101 93.8906C321.347 93.8906 321.47 94.0136 321.47 94.2597C321.347 94.5058 321.224 94.6289 321.101 94.6289ZM314.091 94.3828L312.001 94.2597C311.755 94.2597 311.632 94.1367 311.632 93.8906C311.632 93.6445 311.755 93.5214 312.001 93.5214L314.091 93.6445C314.337 93.6445 314.46 93.7675 314.46 94.0136C314.337 94.2597 314.214 94.3828 314.091 94.3828ZM307.081 94.2597H304.991C304.745 94.2597 304.622 94.1367 304.622 93.8906C304.622 93.6445 304.745 93.5214 304.991 93.5214H307.081C307.327 93.5214 307.45 93.6445 307.45 93.8906C307.327 94.0136 307.204 94.2597 307.081 94.2597ZM300.071 94.0136H297.981C297.735 94.0136 297.612 93.8906 297.612 93.6445C297.612 93.3983 297.735 93.2753 297.981 93.2753H300.071C300.317 93.2753 300.44 93.3983 300.44 93.6445C300.317 93.8906 300.194 94.0136 300.071 94.0136ZM293.062 93.8906H290.971C290.725 93.8906 290.602 93.7675 290.602 93.5214C290.602 93.2753 290.725 93.1522 290.971 93.1522H293.062C293.308 93.1522 293.431 93.2753 293.431 93.5214C293.308 93.6445 293.185 93.8906 293.062 93.8906ZM286.052 93.6445H283.961C283.715 93.6445 283.592 93.5214 283.592 93.2753C283.592 93.0292 283.715 92.9061 283.961 92.9061H286.052C286.298 92.9061 286.421 93.0292 286.421 93.2753C286.298 93.5214 286.175 93.6445 286.052 93.6445ZM279.042 93.5214H276.951C276.705 93.5214 276.582 93.3983 276.582 93.1522C276.582 92.9061 276.705 92.7831 276.951 92.7831H279.042C279.288 92.7831 279.411 92.9061 279.411 93.1522C279.288 93.3983 279.165 93.5214 279.042 93.5214ZM45.3794 93.3983C45.1334 93.3983 45.0104 93.2753 45.0104 93.0292C45.0104 92.7831 45.1334 92.66 45.3794 92.66H47.47C47.593 92.66 47.839 92.7831 47.839 93.0292C47.839 93.2753 47.716 93.3983 47.47 93.3983H45.3794ZM272.032 93.3983C272.032 93.3983 271.909 93.3983 272.032 93.3983H269.941C269.695 93.3983 269.572 93.2753 269.572 93.0292C269.572 92.7831 269.695 92.66 269.941 92.66H272.032C272.278 92.66 272.401 92.7831 272.401 93.0292C272.278 93.2753 272.155 93.3983 272.032 93.3983ZM52.3892 93.3983C52.1433 93.3983 52.0203 93.2753 52.0203 93.0292C52.0203 92.7831 52.1433 92.66 52.3892 92.66H54.4799C54.7259 92.66 54.8488 92.7831 54.8488 93.0292C54.8488 93.2753 54.7259 93.3983 54.4799 93.3983H52.3892ZM264.899 93.2753H262.808C262.562 93.2753 262.439 93.1522 262.439 92.9061C262.439 92.66 262.562 92.537 262.808 92.537H264.899C265.145 92.537 265.268 92.66 265.268 92.9061C265.268 93.1522 265.145 93.2753 264.899 93.2753ZM59.3991 93.2753C59.1532 93.2753 59.0302 93.1522 59.0302 92.9061C59.0302 92.66 59.1532 92.537 59.3991 92.537H61.4898C61.7357 92.537 61.8587 92.66 61.8587 92.9061C61.8587 93.1522 61.7357 93.2753 61.4898 93.2753H59.3991ZM66.409 93.1522C66.163 93.1522 66.0401 93.0292 66.0401 92.7831C66.0401 92.537 66.163 92.4139 66.409 92.4139H68.4997C68.7456 92.4139 68.8686 92.537 68.8686 92.7831C68.8686 93.0292 68.7456 93.1522 68.4997 93.1522H66.409ZM257.889 93.1522H255.799C255.553 93.1522 255.43 93.0292 255.43 92.7831C255.43 92.537 255.553 92.4139 255.799 92.4139H257.889C258.135 92.4139 258.258 92.537 258.258 92.7831C258.258 93.0292 258.135 93.1522 257.889 93.1522ZM73.4189 93.1522C73.1729 93.1522 73.0499 93.0292 73.0499 92.7831C73.0499 92.537 73.1729 92.4139 73.4189 92.4139H75.5095C75.7555 92.4139 75.8785 92.537 75.8785 92.7831C75.8785 93.0292 75.7555 93.1522 75.5095 93.1522H73.4189ZM250.879 93.1522H248.789C248.543 93.1522 248.42 93.0292 248.42 92.7831C248.42 92.537 248.543 92.4139 248.789 92.4139H250.879C251.125 92.4139 251.248 92.537 251.248 92.7831C251.248 92.9061 251.125 93.1522 250.879 93.1522ZM80.4287 93.0292C80.1828 93.0292 80.0598 92.9061 80.0598 92.66C80.0598 92.4139 80.1828 92.2909 80.4287 92.2909H82.5194C82.6424 92.2909 82.8883 92.4139 82.8883 92.66C82.8883 92.9061 82.7654 93.0292 82.5194 93.0292H80.4287ZM243.869 93.0292H241.779C241.533 93.0292 241.41 92.9061 241.41 92.66C241.41 92.4139 241.533 92.2909 241.779 92.2909H243.869C244.115 92.2909 244.238 92.4139 244.238 92.66C244.238 92.9061 244.115 93.0292 243.869 93.0292ZM87.4386 93.0292C87.1927 93.0292 87.0697 92.9061 87.0697 92.66C87.0697 92.4139 87.1927 92.2909 87.4386 92.2909H89.5293C89.6523 92.2909 89.8982 92.4139 89.8982 92.66C89.8982 92.9061 89.7752 93.0292 89.5293 93.0292H87.4386ZM94.4485 92.9061C94.2025 92.9061 94.0795 92.7831 94.0795 92.537C94.0795 92.2909 94.2025 92.1678 94.4485 92.1678H96.5392C96.7851 92.1678 96.9081 92.2909 96.9081 92.537C96.9081 92.7831 96.7851 92.9061 96.5392 92.9061H94.4485ZM236.86 92.9061H234.769C234.523 92.9061 234.4 92.7831 234.4 92.537C234.4 92.2909 234.523 92.1678 234.769 92.1678H236.86C237.106 92.1678 237.229 92.2909 237.229 92.537C237.229 92.7831 237.106 92.9061 236.86 92.9061ZM101.458 92.9061C101.212 92.9061 101.089 92.7831 101.089 92.537C101.089 92.2909 101.212 92.1678 101.458 92.1678H103.549C103.795 92.1678 103.918 92.2909 103.918 92.537C103.918 92.7831 103.795 92.9061 103.549 92.9061H101.458ZM229.85 92.9061H227.759C227.513 92.9061 227.39 92.7831 227.39 92.537C227.39 92.2909 227.513 92.1678 227.759 92.1678H229.85C230.096 92.1678 230.219 92.2909 230.219 92.537C230.219 92.7831 230.096 92.9061 229.85 92.9061ZM108.468 92.9061C108.222 92.9061 108.099 92.7831 108.099 92.537C108.099 92.2909 108.222 92.1678 108.468 92.1678H110.559C110.805 92.1678 110.928 92.2909 110.928 92.537C110.928 92.7831 110.805 92.9061 110.559 92.9061H108.468ZM222.84 92.7831H220.749C220.503 92.7831 220.38 92.66 220.38 92.4139C220.38 92.1678 220.503 92.0448 220.749 92.0448H222.84C223.086 92.0448 223.209 92.1678 223.209 92.4139C223.209 92.66 223.086 92.7831 222.84 92.7831ZM115.478 92.7831C115.232 92.7831 115.109 92.66 115.109 92.4139C115.109 92.1678 115.232 92.0448 115.478 92.0448H117.569C117.815 92.0448 117.938 92.1678 117.938 92.4139C117.938 92.66 117.815 92.7831 117.569 92.7831H115.478ZM215.83 92.7831H213.739C213.493 92.7831 213.37 92.66 213.37 92.4139C213.37 92.1678 213.493 92.0448 213.739 92.0448H215.83C216.076 92.0448 216.199 92.1678 216.199 92.4139C216.199 92.66 216.076 92.7831 215.83 92.7831ZM122.611 92.7831C122.365 92.7831 122.242 92.66 122.242 92.4139C122.242 92.1678 122.365 92.0448 122.611 92.0448H124.702C124.948 92.0448 125.071 92.1678 125.071 92.4139C125.071 92.66 124.948 92.7831 124.702 92.7831H122.611ZM208.82 92.7831H206.729C206.484 92.7831 206.361 92.66 206.361 92.4139C206.361 92.1678 206.484 92.0448 206.729 92.0448H208.82C209.066 92.0448 209.189 92.1678 209.189 92.4139C209.189 92.537 209.066 92.7831 208.82 92.7831ZM129.621 92.7831C129.375 92.7831 129.252 92.66 129.252 92.4139C129.252 92.1678 129.375 92.0448 129.621 92.0448H131.712C131.957 92.0448 132.08 92.1678 132.08 92.4139C132.08 92.66 131.957 92.7831 131.712 92.7831H129.621ZM136.631 92.7831C136.385 92.7831 136.262 92.66 136.262 92.4139C136.262 92.1678 136.385 92.0448 136.631 92.0448H138.721C138.967 92.0448 139.09 92.1678 139.09 92.4139C139.09 92.66 138.967 92.7831 138.721 92.7831H136.631ZM201.81 92.66H199.72C199.474 92.66 199.351 92.537 199.351 92.2909C199.351 92.0447 199.474 91.9217 199.72 91.9217H201.81C202.056 91.9217 202.179 92.0447 202.179 92.2909C202.179 92.537 202.056 92.66 201.81 92.66ZM143.641 92.66C143.395 92.66 143.272 92.537 143.272 92.2909C143.272 92.0447 143.395 91.9217 143.641 91.9217H145.731C145.977 91.9217 146.1 92.0447 146.1 92.2909C146.1 92.537 145.977 92.66 145.731 92.66H143.641ZM194.8 92.66H192.71C192.464 92.66 192.341 92.537 192.341 92.2909C192.341 92.0447 192.464 91.9217 192.71 91.9217H194.8C195.046 91.9217 195.169 92.0447 195.169 92.2909C195.169 92.537 195.046 92.66 194.8 92.66ZM150.65 92.66C150.404 92.66 150.282 92.537 150.282 92.2909C150.282 92.0447 150.404 91.9217 150.65 91.9217H152.741C152.987 91.9217 153.11 92.0447 153.11 92.2909C153.11 92.537 152.987 92.66 152.741 92.66H150.65ZM187.79 92.66H185.7C185.454 92.66 185.331 92.537 185.331 92.2909C185.331 92.0447 185.454 91.9217 185.7 91.9217H187.79C188.036 91.9217 188.159 92.0447 188.159 92.2909C188.159 92.537 188.036 92.66 187.79 92.66ZM157.66 92.66C157.414 92.66 157.291 92.537 157.291 92.2909C157.291 92.0447 157.414 91.9217 157.66 91.9217H159.751C159.997 91.9217 160.12 92.0447 160.12 92.2909C160.12 92.537 159.997 92.66 159.751 92.66H157.66ZM180.781 92.66H178.69C178.444 92.66 178.321 92.537 178.321 92.2909C178.321 92.0447 178.444 91.9217 178.69 91.9217H180.781C181.027 91.9217 181.15 92.0447 181.15 92.2909C181.15 92.537 181.027 92.66 180.781 92.66ZM164.67 92.66C164.424 92.66 164.301 92.537 164.301 92.2909C164.301 92.0447 164.424 91.9217 164.67 91.9217H166.761C167.007 91.9217 167.13 92.0447 167.13 92.2909C167.13 92.537 167.007 92.66 166.761 92.66H164.67ZM173.771 92.66H171.68C171.434 92.66 171.311 92.537 171.311 92.2909C171.311 92.0447 171.434 91.9217 171.68 91.9217H173.771C174.017 91.9217 174.14 92.0447 174.14 92.2909C174.14 92.537 174.017 92.66 173.771 92.66Z" fill="white"/>
<path opacity="0.76" d="M135.647 69.7719L381.608 59.8045C400.055 59.0662 414.197 75.9246 410.385 93.8905L403.621 126.131C400.793 139.174 389.355 148.527 375.951 148.527H164.794C155.201 148.527 145.978 153.08 140.443 160.955C138.722 163.416 137.369 166.123 136.631 169.077C136.385 170.184 134.786 170.43 134.171 169.446C132.327 166.246 129.252 160.832 126.916 154.802C125.44 151.111 121.996 148.65 118.061 148.65C111.789 148.65 106.87 143.481 107.116 137.329L108.469 97.213C109.083 82.3234 120.89 70.3872 135.647 69.7719Z" fill="white"/>
<path opacity="0.76" d="M135.155 157.879C134.417 156.156 133.556 154.433 132.819 152.464C130.482 146.312 124.702 142.374 118.184 142.374C116.831 142.374 115.601 141.882 114.74 140.897C113.88 139.913 113.388 138.682 113.388 137.329L114.74 97.2129C115.109 85.6459 124.456 76.2937 135.893 75.8015L381.854 65.8341C382.223 65.8341 382.468 65.8341 382.837 65.8341C389.478 65.8341 395.75 68.7874 399.932 74.0788C404.113 79.247 405.712 86.015 404.359 92.5369L397.595 124.777C395.504 134.991 386.404 142.374 375.951 142.374H164.793C152.987 142.374 142.042 148.034 135.401 157.386C135.278 157.633 135.278 157.756 135.155 157.879Z" fill="white"/>
<path d="M338.073 70.264C338.073 70.264 311.755 117.886 274 121.331L272.032 126.992C272.032 126.992 323.93 137.205 350.617 94.2596L338.073 70.264Z" fill="#343291"/>
<path d="M274.738 124.654C275.968 122.316 274.246 119.363 271.663 119.363C271.54 119.363 271.418 119.363 271.295 119.363C266.867 119.486 262.317 118.87 260.718 117.763C260.226 117.394 259.365 117.517 258.997 118.009C258.505 118.747 258.874 119.978 263.055 121.824C263.055 121.824 253.708 125.392 246.207 121.947C238.951 118.501 249.404 136.836 271.663 127.976C272.77 127.484 273.631 126.623 274.246 125.638L274.738 124.654Z" fill="#FDBBA2"/>
<path d="M340.533 130.437C340.533 130.437 322.332 80.9697 341.516 65.8341C341.516 65.8341 370.294 61.158 391.2 69.1565L388.864 130.437C388.864 130.437 367.342 140.036 340.533 130.437Z" fill="#5653E5"/>
<path d="M347.296 51.683C347.296 51.683 350.986 60.789 351.97 67.9261C352.216 70.018 353.814 71.6177 355.905 71.9869C360.332 72.7252 367.834 73.0944 372.261 69.0336C373.245 68.1722 373.614 66.6956 373.122 65.465C371.278 60.2968 361.562 38.6392 356.397 35.3168L347.296 51.683Z" fill="#FDBBA2"/>
<path d="M385.297 118.501C385.42 129.945 370.048 131.053 370.048 131.053C370.048 131.053 365.621 123.793 360.086 123.547C354.429 123.3 346.682 132.406 346.682 132.406L361.07 135.852C361.07 135.852 382.838 148.65 399.071 131.791C396.366 121.209 389.479 118.871 385.297 118.501Z" fill="#FDBBA2"/>
<path d="M391.201 69.0335C375.828 74.4479 378.042 86.6302 378.042 86.6302C378.042 86.6302 385.175 107.057 385.298 118.378C389.479 118.747 396.243 121.085 399.194 131.545C399.563 131.176 399.932 130.684 400.301 130.314C419.732 107.919 391.201 69.0335 391.201 69.0335Z" fill="#5653E5"/>
<path d="M330.325 28.6717C330.325 29.164 340.41 57.2203 340.41 57.2203L356.397 51.0676L350.74 23.0112C350.863 23.1343 330.325 21.1654 330.325 28.6717Z" fill="#FDBBA2"/>
<path d="M348.034 30.0254L352.093 44.5457C352.093 44.7918 352.216 44.9149 352.216 45.161C352.216 46.3916 351.97 50.4523 347.788 49.8371C343.976 49.3448 340.533 48.9757 338.319 49.9601C337.335 50.4523 336.843 51.5598 337.212 52.5443C338.073 55.1284 340.287 60.7889 342.992 65.4649C343.484 66.4494 344.714 66.8185 345.698 66.3263C348.649 64.9727 354.921 61.8964 359.349 58.3278C359.964 57.8356 360.209 57.0973 360.086 56.3589C359.349 52.6673 357.258 41.3463 357.258 38.0239C357.135 34.9475 360.578 32.6095 362.054 31.7481C362.546 31.502 362.915 31.0098 363.038 30.3945C363.53 28.4257 363.899 23.9957 358.242 23.0113C357.012 22.7652 356.274 21.6577 356.52 20.5502C357.012 18.2122 356.889 14.7666 352.339 13.5361C347.788 12.1825 344.96 15.0128 343.484 17.1047C342.869 17.966 341.762 18.2122 340.902 17.843C340.41 17.5969 339.672 17.5969 339.057 18.2122C338.073 18.9505 336.72 18.7044 335.982 17.7199C334.63 15.7511 332.293 13.7822 328.235 15.1358C320.979 17.4738 321.348 25.7185 324.053 30.2715C326.636 34.8245 334.384 31.8712 337.95 28.7948C340.656 26.5798 344.96 27.9334 346.805 28.6718C347.42 28.7948 347.788 29.4101 348.034 30.0254Z" fill="#66435C"/>
<path d="M357.873 43.4381C357.873 43.4381 354.429 35.3165 357.258 32.7324C360.086 30.1483 364.022 31.0096 363.899 37.4084C363.653 45.2839 357.873 43.4381 357.873 43.4381Z" fill="#FDBBA2"/>
<path d="M142.534 88.476L285.929 78.7548C287.036 78.6317 288.02 79.6161 288.02 80.7236V85.6458C288.02 86.7533 287.159 87.6146 286.052 87.6146L142.657 92.4138C141.55 92.4138 140.566 91.5524 140.566 90.4449C140.689 89.4605 141.427 88.5991 142.534 88.476Z" fill="#BDD0FB"/>
<path d="M140.689 103.12V104.965C140.689 107.303 142.657 109.026 144.871 109.026L255.799 104.35C258.013 104.227 259.611 102.504 259.611 100.289C259.611 98.0744 257.767 96.2286 255.43 96.2286L144.502 99.0589C142.411 99.0589 140.689 100.905 140.689 103.12Z" fill="#BDD0FB"/>
<path d="M140.689 124.039C140.689 126.254 142.534 127.976 144.748 127.853L212.51 123.67C215.093 123.546 216.814 120.839 215.83 118.378L215.461 117.394C214.847 115.917 213.371 114.933 211.772 115.056L146.224 118.255C143.026 118.378 140.689 120.962 140.689 124.039Z" fill="#BDD0FB"/>
<path opacity="0.76" d="M275.353 196.641L29.3921 186.674C10.9451 185.935 -3.19763 202.794 0.614755 220.759L7.37867 253C10.2072 266.043 21.6444 275.396 35.0492 275.396H246.206C255.799 275.396 265.022 279.949 270.556 287.824C271.909 289.793 273.016 291.885 273.754 294.1C274.369 295.946 276.828 296.192 277.689 294.469C279.534 291.146 281.871 286.593 283.838 281.548C285.314 277.857 288.757 275.396 292.693 275.396C298.965 275.396 303.884 270.227 303.638 264.075L302.285 223.959C302.039 209.192 290.11 197.256 275.353 196.641Z" fill="white"/>
<path opacity="0.76" d="M275.599 284.378C269.081 274.903 258.013 269.366 246.207 269.366H35.1724C24.8421 269.366 15.7415 261.982 13.5279 251.769L6.76399 219.529C5.41121 213.007 7.00995 206.239 11.1913 201.071C15.3726 195.902 21.6446 192.826 28.2855 192.826C28.6545 192.826 28.9004 192.826 29.2694 192.826L275.23 202.793C286.79 203.286 296.014 212.638 296.382 224.205L297.735 264.32C297.735 265.674 297.243 266.905 296.382 267.889C295.522 268.873 294.169 269.366 292.939 269.366C286.421 269.366 280.641 273.303 278.304 279.456C277.566 281.302 276.829 283.148 275.968 284.871C275.722 284.624 275.722 284.501 275.599 284.378Z" fill="white"/>
<path d="M124.825 175.476C124.579 174.737 123.472 174.614 123.103 175.476C121.873 178.306 119.291 183.228 114.863 184.582C114.617 184.705 114.371 184.705 114.248 184.828C114.125 184.212 114.248 183.597 114.74 182.982C116.339 181.136 114.248 178.183 114.248 178.183C114.248 178.183 113.756 180.521 111.789 181.874C110.067 182.982 108.96 185.812 109.698 188.273C110.805 197.379 112.773 209.315 98.5069 216.206C84.3642 222.728 68.8687 195.903 68.8687 195.903L74.4028 226.297C74.4028 226.297 87.3157 238.602 105.64 225.928C124.087 213.253 115.724 190.365 115.724 190.365C115.724 190.365 129.129 186.92 124.825 175.476Z" fill="#FDBBA2"/>
<path d="M71.943 152.71C71.943 152.71 77.969 136.098 57.6773 138.067C57.6773 138.067 48.3308 135.36 46.732 144.22C46.732 144.22 40.0911 147.542 43.6575 155.787C43.6575 155.787 26.3173 146.435 16.3559 161.447C6.39451 176.46 12.5435 186.181 19.9223 189.381C19.9223 189.381 13.2814 191.719 15.3721 199.102C17.4627 206.485 31.7284 213.376 41.5669 205.87C41.5669 205.87 66.1629 212.269 67.8846 194.549C67.8846 194.549 80.4286 188.519 70.0983 172.399C59.7679 156.525 71.943 152.71 71.943 152.71Z" fill="#66435C"/>
<path d="M68.0079 192.58C64.1955 190.857 53.0043 187.289 40.8293 196.026C38.7386 197.502 37.6318 199.963 38.0007 202.547C39.5995 213.745 43.2889 246.601 34.8032 259.522C34.8032 259.522 45.1336 274.165 59.5223 265.182C59.5223 265.182 68.6228 240.448 77.6003 230.112C83.8723 223.098 72.8041 199.963 69.9756 194.426C69.6066 193.565 68.8688 192.949 68.0079 192.58Z" fill="url(#paint1_linear_2_1949)"/>
<path d="M59.891 169.692C59.891 169.692 52.0203 185.443 50.6675 192.703C50.6675 192.703 56.6935 196.395 63.4574 192.211C63.4574 192.211 66.163 175.845 67.5158 173.014L59.891 169.692Z" fill="#FDBBA2"/>
<path d="M70.8362 148.28C70.8362 148.28 83.3802 171.538 73.5418 176.583C63.7033 181.628 54.7258 165.139 54.7258 165.139C54.7258 165.139 52.6351 152.956 56.8165 149.511C60.9978 145.942 70.8362 148.28 70.8362 148.28Z" fill="#FDBBA2"/>
<path d="M64.3182 142.251C64.3182 142.251 71.0821 144.835 71.697 148.034C72.3119 151.357 60.9977 152.957 57.9232 152.711L53.8648 165.139C53.8648 165.139 48.0848 152.218 51.8972 145.573C55.7095 139.052 64.3182 142.251 64.3182 142.251Z" fill="#66435C"/>
<path d="M57.8005 163.908C57.8005 163.908 52.7583 156.279 49.8068 160.463C46.8553 164.647 54.1111 168.954 57.0626 167.108L57.8005 163.908Z" fill="#FDBBA2"/>
<path d="M38.9844 197.871C38.9844 197.871 18.4467 211.038 11.1908 231.588C3.935 252.138 35.4179 258.414 35.4179 258.414C35.4179 258.414 40.3372 254.107 45.2564 256.445C50.1756 258.783 46.7321 248.077 40.7061 247.339C34.6801 246.601 36.8937 251.769 28.9 246.847C21.1522 242.048 17.4628 229.865 40.7061 214.853C42.0589 213.991 43.1657 212.761 44.0266 211.407C49.4377 201.686 47.1011 194.549 38.9844 197.871Z" fill="#FDBBA2"/>
<path d="M145.362 209.438L269.204 213.868C270.925 213.868 272.278 215.345 272.278 217.068V218.667C272.278 220.513 270.802 221.99 268.958 221.867L145.116 218.421C143.395 218.421 142.042 216.945 142.042 215.222V212.761C142.042 210.792 143.518 209.315 145.362 209.438Z" fill="#BDD0FB"/>
<path d="M122.242 232.45V235.526C122.242 237.249 123.718 238.725 125.44 238.725H269.204C270.925 238.725 272.401 237.249 272.401 235.526V234.788C272.401 233.065 271.048 231.588 269.204 231.588L125.44 229.25C123.718 229.25 122.242 230.727 122.242 232.45Z" fill="#BDD0FB"/>
<path d="M127.899 247.708C125.931 247.708 124.456 249.431 124.702 251.4L125.317 255.707C125.562 257.307 126.915 258.537 128.514 258.537H268.097C270.187 258.537 271.786 256.445 271.171 254.476L269.941 250.17C269.572 248.816 268.343 247.831 266.867 247.831H127.899V247.708Z" fill="#BDD0FB"/>
</g>
<defs>
<linearGradient id="paint0_linear_2_1949" x1="279.13" y1="-70.2436" x2="282.392" y2="72.1307" gradientUnits="userSpaceOnUse">
<stop stop-color="#09005D"/>
<stop offset="1" stop-color="#1A0F91"/>
</linearGradient>
<linearGradient id="paint1_linear_2_1949" x1="132.344" y1="114.92" x2="55.7954" y2="222.27" gradientUnits="userSpaceOnUse">
<stop stop-color="#FF928E"/>
<stop offset="1" stop-color="#FE7062"/>
</linearGradient>
<clipPath id="clip0_2_1949">
<rect width="411" height="332" fill="white" transform="translate(0 0.000244141)"/>
</clipPath>
</defs>
</svg>
