<svg width="1573" height="663" viewBox="0 0 1573 663" fill="none" xmlns="http://www.w3.org/2000/svg">
<path d="M1493.13 556.752C1479.91 570.699 1467.4 579.682 1457.52 586.789C1341.31 670.274 1203.82 645.877 1174.59 639.997C1131.44 631.225 1048.03 614.26 987.725 543.242C896.5 435.755 910.765 266.529 981.473 154.783C994.415 134.349 1062.86 20.9115 1201.76 2.71973C1285.86 -8.29407 1383.93 13.9168 1454.91 73.4844C1603.94 198.514 1593.34 451.112 1493.13 556.752Z" fill="white"/>
<path d="M1507.4 76.8539C1507.29 76.9472 1507.16 77.0122 1507.02 77.0431C1506.88 77.074 1506.73 77.0698 1506.59 77.0308C1505.44 76.7314 1504.3 76.4456 1503.17 76.187C1503.05 76.162 1502.94 76.115 1502.85 76.0488C1502.75 75.9826 1502.67 75.8984 1502.61 75.8011C1502.48 75.6046 1502.44 75.3664 1502.49 75.139C1502.54 74.9116 1502.68 74.7136 1502.88 74.5885C1503.08 74.4634 1503.32 74.4216 1503.55 74.4721C1504.71 74.7307 1505.89 75.0165 1507.05 75.3295C1507.2 75.3737 1507.34 75.4578 1507.45 75.573C1507.56 75.6882 1507.63 75.8303 1507.67 75.9846C1507.71 76.1388 1507.7 76.2995 1507.65 76.45C1507.6 76.6005 1507.51 76.7353 1507.39 76.8403L1507.4 76.8539Z" fill="#91B3FA"/>
<path d="M1541.04 227.082C1539.43 228.501 1537.74 229.821 1536.03 231.084C1535.84 231.185 1535.62 231.216 1535.41 231.17C1535.2 231.125 1535.02 231.007 1534.89 230.837C1534.76 230.666 1534.69 230.455 1534.7 230.241C1534.71 230.027 1534.79 229.822 1534.94 229.665C1536.91 228.246 1538.83 226.642 1540.67 225.009C1540.86 224.849 1541.1 224.771 1541.35 224.791C1541.59 224.811 1541.82 224.928 1541.98 225.116C1542.14 225.304 1542.22 225.548 1542.2 225.794C1542.18 226.041 1542.06 226.269 1541.87 226.429L1541.04 227.082ZM1550.38 217.7C1550.21 217.871 1549.98 217.967 1549.73 217.967C1549.49 217.967 1549.26 217.871 1549.09 217.7C1548.92 217.528 1548.82 217.296 1548.82 217.054C1548.82 216.812 1548.92 216.579 1549.09 216.408C1550.68 214.549 1552.22 212.59 1553.65 210.588C1553.7 210.465 1553.79 210.355 1553.89 210.268C1553.99 210.181 1554.12 210.118 1554.25 210.084C1554.38 210.051 1554.52 210.047 1554.65 210.073C1554.78 210.1 1554.91 210.156 1555.02 210.238C1555.12 210.319 1555.21 210.424 1555.28 210.545C1555.34 210.665 1555.37 210.798 1555.38 210.934C1555.38 211.07 1555.36 211.205 1555.3 211.329C1555.25 211.454 1555.17 211.564 1555.06 211.653C1553.65 213.697 1552.03 215.684 1550.41 217.586L1550.38 217.7ZM1561.36 201.504C1561.21 201.668 1560.99 201.768 1560.77 201.783C1560.54 201.799 1560.32 201.73 1560.14 201.59C1559.97 201.45 1559.85 201.248 1559.81 201.025C1559.78 200.802 1559.82 200.573 1559.95 200.383C1561.09 198.211 1562.15 195.955 1563.12 193.712C1563.16 193.601 1563.23 193.5 1563.32 193.416C1563.4 193.331 1563.5 193.264 1563.61 193.219C1563.72 193.173 1563.84 193.15 1563.96 193.151C1564.08 193.151 1564.2 193.176 1564.31 193.222C1564.42 193.269 1564.52 193.337 1564.61 193.422C1564.69 193.508 1564.76 193.609 1564.8 193.721C1564.85 193.832 1564.87 193.951 1564.87 194.071C1564.87 194.192 1564.85 194.311 1564.8 194.422C1563.82 196.721 1562.73 199.02 1561.56 201.235C1561.51 201.336 1561.44 201.427 1561.36 201.504ZM1568.44 183.28C1568.29 183.388 1568.11 183.448 1567.93 183.453C1567.74 183.457 1567.56 183.404 1567.41 183.303C1567.25 183.201 1567.13 183.054 1567.06 182.883C1567 182.711 1566.98 182.523 1567.02 182.343C1567.66 179.972 1568.2 177.545 1568.62 175.132C1568.66 174.893 1568.8 174.681 1569 174.543C1569.2 174.404 1569.44 174.351 1569.68 174.394C1569.92 174.437 1570.13 174.574 1570.27 174.774C1570.41 174.973 1570.46 175.22 1570.42 175.459C1569.98 177.928 1569.43 180.412 1568.79 182.825C1568.74 183.004 1568.64 183.162 1568.49 183.28H1568.44ZM1571.27 163.919C1571.13 164.03 1570.97 164.099 1570.79 164.12C1570.62 164.14 1570.45 164.111 1570.29 164.035C1570.13 163.959 1570 163.84 1569.91 163.691C1569.81 163.542 1569.77 163.37 1569.77 163.195C1569.85 160.74 1569.84 158.256 1569.77 155.8C1569.76 155.68 1569.78 155.56 1569.82 155.447C1569.86 155.333 1569.92 155.229 1570 155.14C1570.09 155.051 1570.18 154.979 1570.29 154.928C1570.4 154.877 1570.52 154.848 1570.64 154.842C1570.76 154.837 1570.88 154.855 1570.99 154.896C1571.1 154.936 1571.21 154.999 1571.3 155.08C1571.38 155.161 1571.46 155.259 1571.51 155.368C1571.56 155.477 1571.59 155.595 1571.59 155.715C1571.72 158.227 1571.73 160.768 1571.59 163.266C1571.61 163.501 1571.54 163.736 1571.39 163.919H1571.27ZM1569.85 144.388C1569.73 144.494 1569.58 144.565 1569.43 144.595C1569.27 144.625 1569.11 144.613 1568.96 144.56C1568.81 144.506 1568.67 144.414 1568.57 144.291C1568.46 144.169 1568.39 144.021 1568.37 143.863C1567.91 141.45 1567.35 139.023 1566.7 136.667C1566.63 136.434 1566.66 136.184 1566.78 135.972C1566.9 135.76 1567.09 135.604 1567.33 135.539C1567.56 135.473 1567.81 135.502 1568.02 135.621C1568.23 135.739 1568.39 135.937 1568.45 136.17C1569.12 138.583 1569.7 141.053 1570.16 143.523C1570.2 143.676 1570.2 143.835 1570.16 143.987C1570.11 144.138 1570.03 144.277 1569.92 144.388H1569.85ZM1564.19 125.667C1564.12 125.725 1564.05 125.773 1563.96 125.809C1563.86 125.858 1563.74 125.885 1563.62 125.888C1563.5 125.891 1563.38 125.871 1563.27 125.827C1563.15 125.783 1563.05 125.718 1562.97 125.634C1562.88 125.551 1562.81 125.451 1562.76 125.34C1561.79 123.084 1560.7 120.855 1559.54 118.683C1559.45 118.472 1559.44 118.237 1559.52 118.022C1559.6 117.808 1559.75 117.629 1559.95 117.522C1560.15 117.414 1560.39 117.385 1560.61 117.439C1560.83 117.494 1561.02 117.629 1561.15 117.818C1562.34 120.018 1563.44 122.303 1564.43 124.616C1564.51 124.795 1564.52 124.992 1564.48 125.181C1564.44 125.369 1564.34 125.539 1564.19 125.667ZM1554.45 108.634C1554.26 108.775 1554.02 108.833 1553.78 108.796C1553.54 108.759 1553.32 108.629 1553.18 108.435C1551.89 106.69 1550.53 104.972 1549.13 103.326L1548.57 102.673C1548.49 102.583 1548.43 102.478 1548.39 102.364C1548.35 102.25 1548.33 102.129 1548.34 102.009C1548.35 101.889 1548.38 101.772 1548.43 101.664C1548.49 101.556 1548.56 101.46 1548.65 101.381C1548.83 101.224 1549.07 101.144 1549.31 101.16C1549.55 101.176 1549.77 101.286 1549.93 101.466L1550.51 102.133C1551.92 103.808 1553.34 105.568 1554.65 107.357C1554.73 107.455 1554.79 107.569 1554.83 107.691C1554.86 107.814 1554.87 107.942 1554.85 108.068C1554.83 108.194 1554.79 108.314 1554.72 108.422C1554.65 108.529 1554.56 108.621 1554.45 108.691V108.634ZM1541.18 94.27C1541.02 94.4138 1540.8 94.493 1540.59 94.493C1540.37 94.493 1540.16 94.4138 1539.99 94.27C1538.15 92.7229 1536.14 91.1758 1534.22 89.7564C1534.1 89.6973 1533.99 89.6123 1533.91 89.5075C1533.82 89.4027 1533.77 89.2806 1533.73 89.1501C1533.7 89.0196 1533.7 88.8838 1533.73 88.7526C1533.76 88.6214 1533.81 88.498 1533.89 88.3912C1533.98 88.2844 1534.08 88.1969 1534.2 88.135C1534.32 88.0731 1534.45 88.0383 1534.58 88.0331C1534.71 88.0279 1534.85 88.0525 1534.97 88.105C1535.09 88.1576 1535.2 88.2368 1535.29 88.337C1537.33 89.7564 1539.31 91.3887 1541.21 93.021C1541.39 93.1801 1541.5 93.4047 1541.52 93.6464C1541.54 93.8881 1541.46 94.1274 1541.31 94.3126L1541.18 94.27ZM1525.06 83.213C1524.92 83.333 1524.75 83.4081 1524.57 83.4283C1524.39 83.4486 1524.2 83.4131 1524.04 83.3266C1521.88 82.1627 1519.64 81.0982 1517.39 80.133C1517.17 80.037 1516.99 79.856 1516.9 79.6297C1516.81 79.4034 1516.81 79.1505 1516.91 78.9265C1517 78.7025 1517.19 78.5259 1517.41 78.4353C1517.64 78.3448 1517.89 78.3479 1518.11 78.4439C1520.4 79.4233 1522.68 80.5304 1524.9 81.7085C1525.01 81.7638 1525.11 81.8398 1525.18 81.9321C1525.26 82.0243 1525.32 82.131 1525.35 82.2458C1525.39 82.3607 1525.4 82.4815 1525.39 82.6013C1525.38 82.721 1525.34 82.8373 1525.29 82.9434C1525.24 83.0663 1525.17 83.1777 1525.07 83.2698L1525.06 83.213Z" fill="#91B3FA"/>
<path d="M1525.74 236.923L1525.62 237.052C1524.76 237.727 1523.89 238.37 1523.03 238.965C1522.86 239.053 1522.68 239.049 1522.51 238.952C1522.35 238.856 1522.21 238.675 1522.13 238.444C1522.06 238.212 1522.04 237.947 1522.09 237.699C1522.14 237.451 1522.25 237.238 1522.4 237.1C1523.23 236.505 1524.08 235.878 1524.93 235.219C1525.09 235.107 1525.27 235.08 1525.43 235.143C1525.6 235.206 1525.75 235.354 1525.85 235.562C1525.95 235.769 1525.99 236.021 1525.97 236.271C1525.95 236.521 1525.87 236.753 1525.74 236.923Z" fill="#91B3FA"/>
<path d="M1457.76 243.955C1457.64 244.091 1457.5 244.185 1457.35 244.227C1457.19 244.269 1457.04 244.259 1456.89 244.196C1455.74 243.715 1454.58 243.197 1453.43 242.643C1453.2 242.535 1453.02 242.314 1452.92 242.027C1452.82 241.741 1452.81 241.414 1452.89 241.117C1452.97 240.821 1453.14 240.579 1453.35 240.446C1453.57 240.312 1453.82 240.298 1454.04 240.406C1455.16 240.942 1456.3 241.459 1457.43 241.922C1457.59 241.988 1457.72 242.105 1457.83 242.262C1457.93 242.419 1458.01 242.61 1458.04 242.816C1458.07 243.022 1458.06 243.236 1458.01 243.436C1457.96 243.635 1457.87 243.815 1457.76 243.955Z" fill="#91B3FA"/>
<path d="M1443.35 237.502C1443.21 237.621 1443.04 237.696 1442.86 237.716C1442.68 237.736 1442.5 237.701 1442.34 237.615C1440.18 236.471 1438.03 235.214 1435.95 233.886C1435.75 233.755 1435.61 233.548 1435.56 233.311C1435.5 233.074 1435.55 232.826 1435.68 232.622C1435.81 232.417 1436.02 232.274 1436.25 232.222C1436.49 232.17 1436.74 232.215 1436.94 232.346C1438.98 233.646 1441.08 234.875 1443.2 235.99C1443.33 236.058 1443.44 236.158 1443.53 236.281C1443.61 236.404 1443.67 236.545 1443.68 236.694C1443.7 236.842 1443.68 236.992 1443.63 237.131C1443.57 237.269 1443.48 237.392 1443.37 237.488L1443.35 237.502ZM1427.48 226.752C1427.32 226.895 1427.11 226.974 1426.89 226.974C1426.67 226.974 1426.46 226.895 1426.3 226.752C1424.42 225.156 1422.6 223.475 1420.88 221.724C1420.71 221.551 1420.61 221.318 1420.61 221.076C1420.61 220.833 1420.71 220.602 1420.88 220.431C1421.05 220.261 1421.29 220.166 1421.53 220.167C1421.77 220.168 1422 220.266 1422.17 220.438C1423.87 222.147 1425.65 223.8 1427.48 225.354C1427.67 225.512 1427.78 225.736 1427.8 225.976C1427.81 226.217 1427.74 226.455 1427.58 226.639L1427.48 226.752ZM1414.34 212.754C1414.14 212.895 1413.9 212.956 1413.67 212.921C1413.43 212.887 1413.21 212.761 1413.07 212.57C1411.66 210.607 1410.24 208.558 1408.83 206.482C1408.7 206.278 1408.66 206.031 1408.71 205.795C1408.77 205.559 1408.91 205.354 1409.11 205.225C1409.32 205.096 1409.57 205.053 1409.8 205.106C1410.04 205.159 1410.24 205.303 1410.37 205.507C1411.66 207.541 1413.03 209.547 1414.47 211.468C1414.62 211.656 1414.69 211.897 1414.67 212.137C1414.64 212.378 1414.52 212.599 1414.34 212.754ZM1404.6 196.283C1404.53 196.341 1404.45 196.389 1404.37 196.425C1404.26 196.474 1404.14 196.502 1404.03 196.506C1403.91 196.51 1403.79 196.49 1403.68 196.448C1403.56 196.406 1403.46 196.343 1403.38 196.261C1403.29 196.179 1403.22 196.081 1403.17 195.973C1402.17 193.741 1401.24 191.424 1400.42 189.107C1400.38 188.994 1400.36 188.874 1400.37 188.755C1400.37 188.635 1400.4 188.517 1400.45 188.409C1400.51 188.301 1400.58 188.204 1400.67 188.124C1400.76 188.044 1400.86 187.982 1400.97 187.942C1401.09 187.902 1401.21 187.885 1401.33 187.891C1401.45 187.898 1401.56 187.928 1401.67 187.98C1401.78 188.032 1401.88 188.104 1401.96 188.193C1402.04 188.283 1402.1 188.387 1402.14 188.5C1402.94 190.774 1403.85 193.034 1404.84 195.224C1404.91 195.403 1404.93 195.602 1404.89 195.793C1404.85 195.983 1404.74 196.155 1404.6 196.283ZM1398.68 178.047C1398.56 178.147 1398.42 178.215 1398.27 178.245C1398.15 178.27 1398.03 178.271 1397.92 178.249C1397.8 178.227 1397.69 178.181 1397.59 178.116C1397.49 178.05 1397.4 177.965 1397.33 177.866C1397.27 177.767 1397.22 177.656 1397.2 177.539C1396.7 175.137 1396.29 172.679 1396.01 170.236C1396.02 170.013 1396.1 169.799 1396.25 169.634C1396.4 169.469 1396.6 169.363 1396.82 169.337C1397.04 169.311 1397.27 169.367 1397.45 169.493C1397.63 169.619 1397.76 169.808 1397.82 170.024C1398.1 172.411 1398.5 174.812 1398.99 177.171C1399.02 177.331 1399 177.495 1398.95 177.647C1398.89 177.798 1398.79 177.932 1398.67 178.033L1398.68 178.047ZM1396.87 158.963C1396.74 159.083 1396.58 159.162 1396.4 159.188C1396.22 159.215 1396.04 159.189 1395.88 159.113C1395.72 159.038 1395.59 158.916 1395.49 158.764C1395.4 158.612 1395.36 158.435 1395.36 158.257C1395.36 155.799 1395.55 153.313 1395.79 150.883C1395.84 150.669 1395.97 150.482 1396.15 150.355C1396.33 150.228 1396.55 150.17 1396.77 150.193C1396.99 150.215 1397.19 150.316 1397.34 150.476C1397.5 150.637 1397.58 150.847 1397.59 151.067C1397.35 153.454 1397.21 155.884 1397.17 158.299C1397.17 158.422 1397.14 158.543 1397.09 158.655C1397.04 158.767 1396.96 158.867 1396.87 158.949V158.963ZM1399.29 139.95C1399.14 140.055 1398.97 140.113 1398.79 140.117C1398.61 140.122 1398.43 140.072 1398.28 139.975C1398.12 139.878 1398.01 139.738 1397.93 139.572C1397.86 139.406 1397.84 139.223 1397.88 139.046C1398.45 136.659 1399.13 134.272 1399.91 131.983C1399.95 131.87 1400.01 131.766 1400.09 131.676C1400.16 131.586 1400.26 131.512 1400.37 131.459C1400.47 131.406 1400.59 131.374 1400.71 131.366C1400.83 131.358 1400.95 131.373 1401.06 131.411C1401.17 131.449 1401.28 131.509 1401.37 131.588C1401.46 131.666 1401.53 131.762 1401.58 131.868C1401.64 131.975 1401.67 132.092 1401.68 132.211C1401.68 132.33 1401.67 132.449 1401.63 132.563C1400.87 134.837 1400.22 137.182 1399.64 139.526C1399.56 139.698 1399.44 139.841 1399.27 139.936L1399.29 139.95ZM1405.82 121.926C1405.67 122.071 1405.47 122.156 1405.25 122.166C1405.04 122.176 1404.83 122.109 1404.66 121.979C1404.49 121.849 1404.37 121.663 1404.33 121.454C1404.28 121.245 1404.31 121.027 1404.41 120.838C1405.5 118.649 1406.69 116.459 1407.96 114.355C1408.08 114.149 1408.28 114 1408.51 113.942C1408.75 113.883 1408.99 113.92 1409.2 114.044C1409.41 114.167 1409.55 114.368 1409.61 114.601C1409.67 114.834 1409.63 115.081 1409.51 115.287C1408.27 117.349 1407.1 119.525 1406.04 121.643C1405.98 121.747 1405.9 121.838 1405.81 121.912L1405.82 121.926ZM1416.13 105.752C1415.97 105.924 1415.74 106.023 1415.5 106.027C1415.26 106.031 1415.03 105.94 1414.85 105.773C1414.68 105.607 1414.58 105.378 1414.58 105.138C1414.57 104.899 1414.67 104.667 1414.83 104.495C1416.37 102.574 1418.01 100.695 1419.7 98.9294C1419.87 98.7552 1420.1 98.6543 1420.34 98.649C1420.58 98.6437 1420.81 98.7344 1420.99 98.9011C1421.16 99.0678 1421.26 99.2969 1421.27 99.538C1421.27 99.7791 1421.18 100.012 1421.02 100.187C1419.36 101.924 1417.76 103.76 1416.24 105.639L1416.13 105.752ZM1435.66 87.8831H1435.57C1433.57 89.2251 1431.61 90.7083 1429.73 92.1208C1429.64 92.1973 1429.53 92.2543 1429.41 92.2887C1429.3 92.323 1429.18 92.3339 1429.06 92.3208C1428.94 92.3076 1428.82 92.2706 1428.72 92.212C1428.61 92.1535 1428.52 92.0744 1428.44 91.9796C1428.37 91.8865 1428.31 91.779 1428.28 91.6635C1428.24 91.5481 1428.23 91.4269 1428.24 91.3071C1428.26 91.1874 1428.29 91.0715 1428.35 90.9662C1428.41 90.8609 1428.49 90.7684 1428.58 90.6941C1430.5 89.1686 1432.51 87.6995 1434.56 86.3293C1434.75 86.2194 1434.97 86.1817 1435.18 86.2232C1435.4 86.2647 1435.59 86.3825 1435.72 86.5548C1435.86 86.7272 1435.93 86.9424 1435.91 87.1606C1435.9 87.3789 1435.81 87.5854 1435.66 87.7419V87.8831Z" fill="#91B3FA"/>
<path d="M1449.83 80.9664C1449.76 81.0118 1449.68 81.0492 1449.6 81.0773C1448.47 81.4544 1447.33 81.8536 1446.23 82.2528C1446.01 82.3067 1445.78 82.2987 1445.57 82.2303C1445.36 82.1618 1445.19 82.0377 1445.09 81.8807C1444.99 81.7237 1444.97 81.5446 1445.03 81.3765C1445.09 81.2084 1445.23 81.0627 1445.42 80.9664C1446.54 80.5561 1447.7 80.1458 1448.86 79.7577C1449.07 79.6743 1449.31 79.6537 1449.53 79.7C1449.76 79.7462 1449.95 79.856 1450.08 80.0073C1450.2 80.1587 1450.25 80.3404 1450.2 80.5161C1450.16 80.6919 1450.03 80.8488 1449.85 80.9554L1449.83 80.9664Z" fill="#91B3FA"/>
<path d="M1465.56 95.4326C1465.34 95.4707 1465.15 95.5738 1465 95.7279C1464.85 95.8819 1464.75 96.0791 1464.71 96.2924L1462.75 108.852C1457.22 111.227 1452.11 114.489 1447.63 118.507L1435.41 115.04C1435.2 114.98 1434.98 114.988 1434.77 115.061C1434.57 115.134 1434.39 115.27 1434.27 115.448L1425.55 127.951C1425.42 128.128 1425.36 128.34 1425.36 128.557C1425.36 128.775 1425.42 128.987 1425.55 129.164L1433.04 139.425C1430.82 145.018 1429.52 150.936 1429.2 156.946L1418.1 163.191C1417.91 163.296 1417.76 163.459 1417.67 163.656C1417.57 163.854 1417.54 164.075 1417.58 164.29L1420.26 179.288C1420.3 179.501 1420.4 179.696 1420.56 179.848C1420.71 179.999 1420.91 180.099 1421.12 180.134L1433.69 182.107C1436.06 187.635 1439.33 192.739 1443.35 197.218L1439.88 209.439C1439.82 209.648 1439.83 209.87 1439.9 210.075C1439.97 210.28 1440.11 210.456 1440.29 210.58L1452.79 219.291C1452.97 219.418 1453.18 219.486 1453.4 219.486C1453.62 219.486 1453.83 219.418 1454.01 219.291L1464.27 211.807C1469.87 214.029 1475.79 215.324 1481.8 215.641L1487.99 226.734C1488.1 226.925 1488.26 227.078 1488.46 227.172C1488.66 227.265 1488.88 227.295 1489.09 227.256L1504.1 224.577C1504.31 224.539 1504.51 224.436 1504.66 224.282C1504.81 224.128 1504.91 223.931 1504.94 223.717L1506.92 211.158C1512.45 208.783 1517.55 205.521 1522.03 201.503L1534.26 204.97C1534.47 205.03 1534.69 205.022 1534.9 204.949C1535.1 204.876 1535.28 204.74 1535.4 204.561L1544.12 192.059C1544.24 191.882 1544.31 191.67 1544.31 191.452C1544.31 191.235 1544.24 191.023 1544.12 190.846L1536.63 180.585C1538.85 174.992 1540.15 169.074 1540.46 163.064L1551.56 156.876C1551.75 156.77 1551.91 156.607 1552 156.41C1552.09 156.213 1552.12 155.991 1552.08 155.776L1549.39 140.637C1549.35 140.425 1549.25 140.229 1549.1 140.078C1548.94 139.926 1548.74 139.826 1548.53 139.792L1535.97 137.818C1533.59 132.29 1530.33 127.186 1526.31 122.708L1529.78 110.487C1529.84 110.278 1529.83 110.055 1529.75 109.85C1529.68 109.646 1529.55 109.469 1529.37 109.345L1516.86 100.634C1516.68 100.508 1516.47 100.44 1516.25 100.44C1516.03 100.44 1515.82 100.508 1515.65 100.634L1505.38 108.217C1499.78 105.995 1493.86 104.7 1487.85 104.383L1481.7 93.2759C1481.6 93.0849 1481.43 92.9318 1481.24 92.8382C1481.04 92.7446 1480.82 92.7153 1480.6 92.7544L1465.56 95.4326Z" fill="#91B3FA"/>
<path d="M1494.65 171.378C1493.54 172.326 1492.31 173.11 1490.99 173.708C1487.53 175.262 1483.6 175.449 1480.01 174.23C1476.41 173.01 1473.41 170.475 1471.61 167.134C1469.81 163.793 1469.34 159.895 1470.3 156.221C1471.25 152.548 1473.56 149.373 1476.77 147.335C1479.97 145.296 1483.82 144.545 1487.56 145.233C1491.29 145.921 1494.62 147.996 1496.89 151.042C1499.15 154.087 1500.18 157.878 1499.76 161.65C1499.35 165.423 1497.52 168.898 1494.65 171.378ZM1476.71 150.583C1475.15 151.928 1473.96 153.644 1473.24 155.571C1472.23 158.241 1472.18 161.177 1473.1 163.88C1474.01 166.582 1475.84 168.883 1478.26 170.391C1480.68 171.899 1483.55 172.521 1486.38 172.15C1489.21 171.779 1491.82 170.439 1493.78 168.358C1495.73 166.276 1496.9 163.583 1497.09 160.736C1497.27 157.889 1496.47 155.064 1494.81 152.744C1493.15 150.423 1490.74 148.75 1487.98 148.01C1485.22 147.269 1482.3 147.507 1479.7 148.682C1478.62 149.171 1477.62 149.811 1476.72 150.583H1476.71Z" fill="#BDD0FB"/>
<path d="M1508.94 189.33C1501.95 195.366 1492.99 198.64 1483.76 198.534C1474.52 198.429 1465.65 194.953 1458.79 188.759C1451.94 182.565 1447.58 174.08 1446.54 164.899C1445.5 155.718 1447.85 146.473 1453.15 138.902L1453.71 138.132C1454.97 136.416 1456.37 134.809 1457.91 133.327L1458.44 132.809L1460.29 134.798C1458.46 136.488 1456.81 138.366 1455.37 140.401C1450.92 146.766 1448.7 154.426 1449.06 162.186C1449.41 169.946 1452.33 177.37 1457.34 183.299C1462.36 189.227 1469.2 193.328 1476.79 194.959C1484.38 196.591 1492.3 195.662 1499.31 192.318C1506.32 188.973 1512.02 183.402 1515.53 176.473C1519.05 169.544 1520.16 161.647 1518.72 154.014C1517.27 146.382 1513.34 139.444 1507.53 134.282C1501.73 129.121 1494.38 126.027 1486.64 125.483L1486.82 122.779C1494.31 123.307 1501.47 126.048 1507.4 130.656C1513.34 135.263 1517.76 141.529 1520.13 148.659C1522.5 155.789 1522.69 163.461 1520.69 170.702C1518.69 177.943 1514.59 184.426 1508.9 189.33H1508.94Z" fill="#BDD0FB"/>
<path d="M1455.48 100.72C1454.51 101.553 1453.52 102.358 1452.5 103.121C1452.39 103.184 1452.25 103.202 1452.12 103.174C1452 103.145 1451.88 103.071 1451.81 102.964C1451.73 102.858 1451.69 102.727 1451.7 102.595C1451.71 102.463 1451.77 102.339 1451.86 102.245C1453.02 101.37 1454.17 100.438 1455.26 99.4213C1455.36 99.3485 1455.5 99.3182 1455.63 99.336C1455.76 99.3537 1455.88 99.4184 1455.96 99.518C1456.05 99.6177 1456.1 99.7457 1456.1 99.8783C1456.1 100.011 1456.05 100.14 1455.97 100.24L1455.48 100.72ZM1461.07 95.0725C1460.96 95.1631 1460.83 95.2106 1460.69 95.2054C1460.56 95.2002 1460.43 95.1427 1460.33 95.0445C1460.23 94.9463 1460.17 94.8145 1460.17 94.6757C1460.16 94.5369 1460.21 94.4012 1460.3 94.2959C1461.25 93.1805 1462.16 92.0086 1463 90.8225C1463.03 90.754 1463.08 90.6942 1463.15 90.6471C1463.21 90.6 1463.28 90.5665 1463.35 90.5491C1463.43 90.5316 1463.51 90.5304 1463.58 90.5457C1463.66 90.561 1463.73 90.5923 1463.79 90.6376C1463.86 90.6829 1463.91 90.7412 1463.95 90.8086C1463.99 90.876 1464.01 90.9509 1464.02 91.0284C1464.03 91.106 1464.02 91.1844 1463.99 91.2584C1463.97 91.3325 1463.93 91.4004 1463.88 91.4579C1463.01 92.6722 1462.07 93.8724 1461.08 95.0019L1461.07 95.0725ZM1467.58 85.3865C1467.49 85.4667 1467.37 85.5114 1467.24 85.5131C1467.12 85.5149 1467 85.4735 1466.9 85.396C1466.8 85.3185 1466.73 85.2094 1466.7 85.087C1466.67 84.9645 1466.69 84.8361 1466.74 84.7229C1467.43 83.4239 1468.06 82.0825 1468.63 80.727C1468.65 80.65 1468.68 80.578 1468.73 80.5161C1468.78 80.4541 1468.84 80.4037 1468.91 80.3683C1468.98 80.3328 1469.06 80.3132 1469.14 80.3107C1469.22 80.3082 1469.3 80.3229 1469.37 80.3538C1469.44 80.3847 1469.51 80.4311 1469.56 80.4898C1469.61 80.5485 1469.65 80.6181 1469.68 80.6938C1469.7 80.7695 1469.71 80.8495 1469.7 80.9284C1469.69 81.0072 1469.66 81.083 1469.62 81.1506C1469.05 82.5626 1468.39 83.9039 1467.71 85.2312C1467.67 85.3097 1467.61 85.3774 1467.54 85.4288L1467.58 85.3865ZM1471.77 74.4862C1471.69 74.5608 1471.58 74.6054 1471.46 74.6138C1471.35 74.6221 1471.23 74.5938 1471.14 74.5328C1471.04 74.4717 1470.96 74.3811 1470.92 74.2739C1470.88 74.1667 1470.87 74.0482 1470.89 73.9355C1471.27 72.5236 1471.59 71.1116 1471.84 69.6149C1471.85 69.5364 1471.87 69.4595 1471.9 69.3895C1471.94 69.3195 1471.99 69.258 1472.05 69.2091C1472.11 69.1602 1472.18 69.125 1472.26 69.106C1472.33 69.087 1472.41 69.0845 1472.49 69.0987C1472.56 69.113 1472.64 69.1436 1472.7 69.1886C1472.76 69.2336 1472.82 69.2918 1472.86 69.3595C1472.9 69.4271 1472.92 69.5025 1472.93 69.5807C1472.94 69.6588 1472.93 69.7379 1472.91 69.8126C1472.64 71.2246 1472.32 72.7777 1471.94 74.2179C1471.92 74.3373 1471.86 74.4465 1471.77 74.5285V74.4862ZM1473.49 62.9081C1473.41 62.9761 1473.31 63.0192 1473.21 63.0322C1473.11 63.0452 1473 63.0275 1472.91 62.9813C1472.81 62.935 1472.73 62.8622 1472.68 62.7716C1472.62 62.681 1472.6 62.5764 1472.6 62.4704C1472.6 61.0585 1472.6 59.5194 1472.6 58.051C1472.59 57.9723 1472.59 57.8917 1472.61 57.8149C1472.63 57.7381 1472.67 57.6669 1472.72 57.6062C1472.77 57.5454 1472.84 57.4967 1472.91 57.4632C1472.98 57.4298 1473.06 57.4124 1473.14 57.4124C1473.21 57.4124 1473.29 57.4298 1473.36 57.4632C1473.44 57.4967 1473.5 57.5454 1473.55 57.6062C1473.6 57.6669 1473.64 57.7381 1473.66 57.8149C1473.68 57.8917 1473.69 57.9723 1473.67 58.051C1473.74 59.5477 1473.76 61.0726 1473.67 62.5693C1473.67 62.6418 1473.65 62.7128 1473.62 62.7782C1473.59 62.8436 1473.55 62.9022 1473.49 62.9505V62.9081ZM1472.63 51.2312C1472.55 51.2916 1472.47 51.3321 1472.37 51.3488C1472.28 51.3655 1472.19 51.3579 1472.1 51.3266C1472.01 51.2954 1471.93 51.2416 1471.87 51.1705C1471.81 51.0994 1471.76 51.0133 1471.75 50.9206C1471.48 49.5087 1471.14 48.0967 1470.75 46.6847C1470.72 46.5472 1470.75 46.4033 1470.82 46.2824C1470.89 46.1616 1471 46.073 1471.14 46.0351C1471.27 45.9971 1471.42 46.0125 1471.54 46.0782C1471.66 46.1439 1471.76 46.2549 1471.8 46.3882C1472.19 47.8002 1472.54 49.311 1472.82 50.7794C1472.84 50.874 1472.82 50.9706 1472.79 51.0598C1472.76 51.1489 1472.7 51.2275 1472.63 51.2877V51.2312ZM1469.23 40.0344L1469.09 40.1191C1468.96 40.1762 1468.81 40.1785 1468.68 40.1257C1468.54 40.0728 1468.44 39.969 1468.38 39.8368C1467.8 38.4248 1467.16 37.154 1466.46 35.855C1466.41 35.73 1466.41 35.5913 1466.46 35.465C1466.5 35.3387 1466.59 35.2335 1466.71 35.1693C1466.83 35.1051 1466.96 35.0862 1467.09 35.1163C1467.22 35.1464 1467.34 35.2233 1467.41 35.3326C1468.11 36.6457 1468.81 38.0153 1469.37 39.399C1469.43 39.5126 1469.45 39.6441 1469.42 39.7706C1469.4 39.897 1469.33 40.0104 1469.23 40.0909V40.0344ZM1463.46 29.8825C1463.4 29.9467 1463.33 29.9972 1463.26 30.03C1463.18 30.0627 1463.1 30.077 1463.01 30.0715C1462.93 30.066 1462.85 30.041 1462.77 29.9984C1462.7 29.9558 1462.64 29.8968 1462.59 29.826C1461.84 28.7811 1461.03 27.7504 1460.19 26.7762L1459.85 26.3808C1459.75 26.2776 1459.69 26.138 1459.69 25.9925C1459.69 25.847 1459.75 25.7074 1459.85 25.6042C1459.95 25.5059 1460.09 25.4509 1460.23 25.4509C1460.37 25.4509 1460.51 25.5059 1460.61 25.6042L1460.96 25.9996C1461.81 27.0021 1462.63 28.0469 1463.42 29.12C1463.48 29.1696 1463.52 29.2312 1463.56 29.3006C1463.59 29.3701 1463.61 29.4459 1463.61 29.5232C1463.61 29.6004 1463.6 29.6774 1463.57 29.749C1463.54 29.8206 1463.5 29.8853 1463.44 29.9389L1463.46 29.8825ZM1455.6 21.3542C1455.51 21.4407 1455.38 21.4883 1455.25 21.4883C1455.12 21.4883 1454.99 21.4407 1454.89 21.3542C1453.79 20.3941 1452.64 19.4763 1451.45 18.615C1451.39 18.5778 1451.33 18.5264 1451.28 18.4643C1451.23 18.4022 1451.2 18.3308 1451.18 18.2548C1451.17 18.1788 1451.16 18.1 1451.18 18.0235C1451.2 17.9471 1451.23 17.8747 1451.27 17.8113C1451.32 17.7478 1451.37 17.6947 1451.44 17.6555C1451.51 17.6163 1451.58 17.5918 1451.66 17.5837C1451.73 17.5756 1451.81 17.584 1451.89 17.6085C1451.96 17.6329 1452.03 17.6728 1452.08 17.7255C1453.28 18.6009 1454.47 19.5469 1455.59 20.5494C1455.69 20.6526 1455.75 20.7922 1455.75 20.9377C1455.75 21.0832 1455.69 21.2228 1455.59 21.326L1455.6 21.3542ZM1446.03 14.7463C1445.94 14.8058 1445.84 14.8375 1445.73 14.8375C1445.62 14.8375 1445.52 14.8058 1445.43 14.7463C1444.15 14.0544 1442.82 13.4049 1441.49 12.8401C1441.41 12.8208 1441.34 12.785 1441.28 12.7352C1441.22 12.6855 1441.17 12.6229 1441.13 12.5518C1441.1 12.4807 1441.08 12.4027 1441.08 12.3233C1441.08 12.2439 1441.09 12.1649 1441.12 12.0917C1441.15 12.0185 1441.2 11.9529 1441.26 11.8993C1441.31 11.8458 1441.38 11.8055 1441.46 11.7814C1441.53 11.7573 1441.61 11.7498 1441.69 11.7595C1441.77 11.7692 1441.84 11.7959 1441.91 11.8376C1443.31 12.4307 1444.62 13.0802 1445.93 13.7861C1446.06 13.855 1446.15 13.9702 1446.19 14.1074C1446.24 14.2445 1446.22 14.3927 1446.16 14.5204C1446.12 14.6027 1446.07 14.6755 1446 14.7322L1446.03 14.7463Z" fill="#91B3FA"/>
<path d="M1446.16 106.438H1446.07C1445.5 106.661 1444.92 106.875 1444.35 107.08C1444.24 107.113 1444.11 107.114 1444 107.082C1443.89 107.051 1443.79 106.989 1443.74 106.91C1443.68 106.83 1443.68 106.739 1443.71 106.655C1443.75 106.571 1443.83 106.5 1443.93 106.456C1444.49 106.26 1445.06 106.046 1445.62 105.832C1445.72 105.797 1445.83 105.79 1445.94 105.811C1446.05 105.832 1446.15 105.881 1446.22 105.948C1446.28 106.015 1446.31 106.097 1446.3 106.178C1446.29 106.26 1446.24 106.336 1446.16 106.394V106.438Z" fill="#91B3FA"/>
<path d="M1405.65 110.828C1405.59 110.917 1405.52 110.978 1405.45 111.006C1405.38 111.034 1405.3 111.029 1405.23 110.99C1404.66 110.666 1404.07 110.322 1403.52 109.958C1403.46 109.927 1403.41 109.875 1403.36 109.806C1403.31 109.737 1403.27 109.651 1403.25 109.554C1403.22 109.458 1403.2 109.352 1403.2 109.244C1403.2 109.136 1403.21 109.029 1403.23 108.927C1403.25 108.826 1403.28 108.733 1403.32 108.655C1403.37 108.577 1403.42 108.515 1403.47 108.473C1403.53 108.432 1403.59 108.411 1403.65 108.412C1403.71 108.413 1403.77 108.436 1403.83 108.48C1404.38 108.844 1404.98 109.168 1405.5 109.472C1405.58 109.515 1405.64 109.592 1405.7 109.695C1405.75 109.798 1405.78 109.923 1405.8 110.058C1405.82 110.194 1405.81 110.334 1405.79 110.466C1405.76 110.597 1405.72 110.715 1405.66 110.808L1405.65 110.828Z" fill="#91B3FA"/>
<path d="M1397.78 107.014C1397.68 107.074 1397.57 107.105 1397.46 107.105C1397.35 107.105 1397.24 107.074 1397.15 107.014C1395.8 106.318 1394.46 105.594 1393.18 104.771C1393.1 104.737 1393.04 104.688 1392.99 104.628C1392.94 104.568 1392.9 104.498 1392.88 104.422C1392.85 104.346 1392.85 104.267 1392.86 104.189C1392.87 104.112 1392.9 104.037 1392.95 103.971C1392.99 103.906 1393.05 103.849 1393.11 103.807C1393.18 103.764 1393.26 103.736 1393.34 103.724C1393.42 103.713 1393.5 103.718 1393.58 103.739C1393.66 103.76 1393.73 103.798 1393.79 103.848C1395.05 104.629 1396.36 105.381 1397.67 106.048C1397.76 106.091 1397.82 106.152 1397.88 106.227C1397.93 106.301 1397.96 106.387 1397.97 106.477C1397.98 106.566 1397.97 106.657 1397.93 106.74C1397.9 106.824 1397.85 106.898 1397.78 106.957V107.014ZM1387.91 100.512C1387.8 100.595 1387.67 100.641 1387.54 100.641C1387.41 100.641 1387.28 100.595 1387.18 100.512C1386.01 99.5468 1384.88 98.5247 1383.8 97.4743C1383.71 97.3684 1383.66 97.232 1383.67 97.0924C1383.67 96.9529 1383.73 96.8204 1383.83 96.7217C1383.93 96.6229 1384.07 96.5651 1384.21 96.5599C1384.36 96.5547 1384.5 96.6024 1384.61 96.6935C1385.66 97.7156 1386.77 98.7235 1387.91 99.6604C1388.01 99.7641 1388.07 99.9045 1388.07 100.051C1388.07 100.197 1388.01 100.337 1387.91 100.441V100.512ZM1379.73 92.0799C1379.61 92.165 1379.46 92.2008 1379.31 92.1796C1379.16 92.1583 1379.03 92.0818 1378.94 91.9663C1378.02 90.7881 1377.15 89.5388 1376.34 88.2896C1376.28 88.1661 1376.26 88.0237 1376.3 87.8904C1376.34 87.7571 1376.43 87.6427 1376.55 87.5697C1376.67 87.4966 1376.82 87.4703 1376.96 87.4958C1377.1 87.5213 1377.22 87.5969 1377.31 87.7076C1378.09 88.9426 1378.96 90.1493 1379.86 91.3133C1379.95 91.4323 1379.98 91.5793 1379.96 91.7228C1379.93 91.8662 1379.85 91.9945 1379.73 92.0799ZM1373.67 82.1429L1373.54 82.2281C1373.4 82.2863 1373.25 82.2907 1373.11 82.2404C1372.97 82.19 1372.86 82.0888 1372.79 81.9583C1372.17 80.5388 1371.6 79.2186 1371.09 77.8132C1371.05 77.6808 1371.07 77.5417 1371.14 77.4225C1371.21 77.3032 1371.32 77.2121 1371.45 77.1665C1371.58 77.1209 1371.73 77.124 1371.86 77.1752C1371.98 77.2264 1372.09 77.3221 1372.15 77.4441C1372.65 78.8637 1373.22 80.1839 1373.83 81.5041C1373.87 81.6096 1373.88 81.7246 1373.85 81.8337C1373.82 81.9427 1373.76 82.0407 1373.67 82.1145V82.1429ZM1369.99 71.127C1369.92 71.1896 1369.84 71.2336 1369.74 71.2548C1369.6 71.2842 1369.44 71.256 1369.32 71.1763C1369.19 71.0965 1369.1 70.9717 1369.07 70.8289C1368.76 69.4093 1368.52 67.8904 1368.33 66.4282C1368.33 66.292 1368.38 66.1602 1368.47 66.0582C1368.56 65.9561 1368.69 65.8909 1368.83 65.8751C1368.97 65.8593 1369.11 65.8939 1369.22 65.9724C1369.34 66.0509 1369.42 66.1677 1369.45 66.3005C1369.63 67.7201 1369.87 69.1396 1370.18 70.5592C1370.2 70.6574 1370.2 70.7595 1370.16 70.8545C1370.13 70.9495 1370.07 71.0339 1369.99 71.0986V71.127ZM1368.87 59.6001C1368.78 59.6676 1368.68 59.7107 1368.58 59.7242C1368.47 59.7378 1368.36 59.7212 1368.26 59.6765C1368.16 59.6318 1368.08 59.5607 1368.02 59.4718C1367.96 59.3828 1367.93 59.2796 1367.93 59.1742C1367.93 57.7547 1368.05 56.1931 1368.2 54.7168C1368.23 54.5851 1368.31 54.4691 1368.42 54.3905C1368.53 54.3119 1368.67 54.2763 1368.81 54.2902C1368.95 54.3042 1369.08 54.3668 1369.17 54.4663C1369.26 54.5658 1369.32 54.6953 1369.32 54.8303C1369.17 56.2499 1369.09 57.7405 1369.06 59.2026C1369.05 59.3378 1368.98 59.4641 1368.88 59.5575L1368.87 59.6001ZM1370.33 48.1158C1370.24 48.197 1370.12 48.2472 1370 48.259C1369.87 48.2707 1369.75 48.2432 1369.65 48.1807C1369.54 48.1183 1369.46 48.0241 1369.41 47.9125C1369.37 47.801 1369.36 47.678 1369.39 47.5621C1369.76 46.1426 1370.18 44.723 1370.66 43.3034C1370.71 43.1641 1370.81 43.0492 1370.95 42.984C1371.09 42.9188 1371.24 42.9086 1371.39 42.9556C1371.53 43.0027 1371.65 43.1032 1371.71 43.235C1371.78 43.3667 1371.79 43.519 1371.74 43.6583C1371.28 45.0779 1370.85 46.4975 1370.5 47.917C1370.47 47.9765 1370.42 48.0294 1370.37 48.0732L1370.33 48.1158ZM1374.39 37.2277C1374.29 37.3083 1374.16 37.3533 1374.03 37.355C1373.9 37.3567 1373.77 37.3152 1373.67 37.2372C1373.57 37.1593 1373.5 37.0497 1373.47 36.9266C1373.44 36.8034 1373.45 36.6743 1373.51 36.5605C1374.18 35.2403 1374.97 33.9201 1375.71 32.6425C1375.75 32.5692 1375.79 32.5035 1375.85 32.4498C1375.91 32.396 1375.99 32.3555 1376.06 32.331C1376.14 32.3065 1376.22 32.2986 1376.3 32.3078C1376.39 32.317 1376.46 32.343 1376.53 32.3842C1376.6 32.4254 1376.66 32.4808 1376.71 32.5465C1376.76 32.6123 1376.79 32.6869 1376.8 32.7653C1376.81 32.8436 1376.81 32.924 1376.79 33.0007C1376.77 33.0775 1376.73 33.149 1376.68 33.2103C1375.9 34.4595 1375.22 35.7513 1374.52 37.0431C1374.5 37.0945 1374.47 37.1424 1374.43 37.1851L1374.39 37.2277ZM1380.8 27.461C1380.69 27.54 1380.55 27.5785 1380.42 27.5695C1380.28 27.5606 1380.15 27.5048 1380.06 27.4122C1379.96 27.3197 1379.9 27.1964 1379.89 27.0648C1379.88 26.9332 1379.91 26.8018 1379.99 26.6945C1380.96 25.5304 1381.96 24.409 1383.01 23.3301C1383.06 23.2645 1383.12 23.2095 1383.19 23.1689C1383.26 23.1283 1383.34 23.103 1383.42 23.0948C1383.51 23.0866 1383.59 23.0956 1383.67 23.1212C1383.74 23.1469 1383.81 23.1885 1383.87 23.2434C1383.93 23.2982 1383.98 23.3649 1384.01 23.439C1384.04 23.513 1384.06 23.5926 1384.05 23.6722C1384.05 23.7519 1384.03 23.8298 1383.99 23.9006C1383.95 23.9714 1383.9 24.0335 1383.83 24.0824C1382.81 25.1329 1381.8 26.2402 1380.91 27.3759L1380.8 27.461ZM1392.91 16.6723C1391.67 17.4814 1390.45 18.3474 1389.28 19.2559C1389.16 19.3442 1389.01 19.3847 1388.87 19.3688C1388.72 19.3529 1388.58 19.2818 1388.49 19.1707C1388.44 19.1151 1388.41 19.051 1388.39 18.9821C1388.37 18.9132 1388.36 18.8409 1388.37 18.7695C1388.38 18.6981 1388.4 18.629 1388.43 18.5663C1388.47 18.5035 1388.52 18.4484 1388.58 18.4042C1389.77 17.4814 1391.02 16.6013 1392.29 15.7638C1392.41 15.6874 1392.55 15.6583 1392.69 15.6823C1392.84 15.7063 1392.96 15.7817 1393.05 15.8933C1393.14 16.0048 1393.18 16.1443 1393.16 16.2835C1393.15 16.4228 1393.08 16.5516 1392.97 16.6439L1392.91 16.6723Z" fill="#91B3FA"/>
<path d="M1409.89 21.2129C1409.76 21.2373 1409.65 21.3006 1409.56 21.3941C1409.47 21.4876 1409.41 21.6068 1409.38 21.7356L1408.2 29.2936C1404.87 30.7264 1401.8 32.6923 1399.11 35.114L1391.75 33.0232C1391.62 32.9869 1391.49 32.9905 1391.37 33.0335C1391.24 33.0765 1391.13 33.1568 1391.06 33.2633L1385.8 40.7931C1385.73 40.9005 1385.69 41.0288 1385.69 41.1604C1385.69 41.2919 1385.73 41.4203 1385.8 41.5277L1390.31 47.7012C1388.97 51.0739 1388.19 54.6433 1387.99 58.2683L1381.31 61.9978C1381.2 62.0629 1381.11 62.1616 1381.05 62.2805C1381 62.3994 1380.98 62.5326 1381 62.6618L1382.61 71.7031C1382.64 71.8321 1382.7 71.9508 1382.79 72.0421C1382.89 72.1334 1383.01 72.1928 1383.14 72.2117L1390.69 73.3984C1392.11 76.7193 1394.06 79.7872 1396.47 82.4821L1394.45 89.8423C1394.41 89.9683 1394.41 90.1025 1394.46 90.2265C1394.5 90.3504 1394.58 90.458 1394.69 90.5345L1402.21 95.7898C1402.32 95.8658 1402.45 95.9066 1402.58 95.9066C1402.71 95.9066 1402.84 95.8658 1402.95 95.7898L1409.17 91.255C1412.54 92.5959 1416.1 93.3784 1419.72 93.5718L1423.45 100.254C1423.51 100.368 1423.61 100.459 1423.73 100.515C1423.85 100.57 1423.98 100.588 1424.11 100.565L1433.15 98.9542C1433.28 98.9298 1433.39 98.8666 1433.48 98.7731C1433.58 98.6796 1433.64 98.5603 1433.66 98.4315L1434.84 90.8736C1438.17 89.4408 1441.24 87.4749 1443.94 85.0532L1451.29 87.144C1451.42 87.1803 1451.55 87.1767 1451.68 87.1337C1451.8 87.0907 1451.91 87.0104 1451.98 86.9038L1457.18 79.3741C1457.26 79.2667 1457.3 79.1384 1457.3 79.0068C1457.3 78.8752 1457.26 78.7469 1457.18 78.6395L1452.66 72.466C1454 69.0977 1454.78 65.5333 1454.98 61.913L1461.66 58.1835C1461.77 58.1184 1461.86 58.0197 1461.92 57.9008C1461.97 57.7819 1461.99 57.6487 1461.97 57.5195L1460.36 48.4782C1460.33 48.35 1460.27 48.2325 1460.18 48.1415C1460.08 48.0505 1459.96 47.9905 1459.83 47.9696L1452.28 46.7829C1450.85 43.4541 1448.88 40.3812 1446.46 37.6851L1448.55 30.3249C1448.59 30.1989 1448.59 30.064 1448.55 29.9396C1448.5 29.8152 1448.42 29.7077 1448.31 29.6327L1440.79 24.3774C1440.68 24.3014 1440.55 24.2605 1440.42 24.2605C1440.29 24.2605 1440.16 24.3014 1440.05 24.3774L1433.88 28.8839C1430.5 27.5482 1426.92 26.7751 1423.29 26.5953L1419.56 19.9132C1419.5 19.7992 1419.4 19.7081 1419.28 19.6525C1419.16 19.5968 1419.03 19.5794 1418.9 19.6024L1409.89 21.2129Z" fill="#91B3FA"/>
<path d="M1427.53 67.1087C1426.86 67.6547 1426.11 68.1079 1425.3 68.4542C1423.2 69.3479 1420.81 69.4709 1418.62 68.7984C1416.42 68.1259 1414.59 66.7076 1413.47 64.8287C1412.36 62.9497 1412.05 60.7492 1412.62 58.6692C1413.18 56.5893 1414.57 54.784 1416.51 53.6161C1418.44 52.4482 1420.78 52.0042 1423.06 52.3733C1425.33 52.7424 1427.37 53.8973 1428.77 55.6058C1430.17 57.3144 1430.81 59.4502 1430.58 61.584C1430.35 63.7178 1429.26 65.6915 1427.53 67.1087ZM1416.6 55.3356C1415.65 56.0977 1414.92 57.0694 1414.49 58.1612C1413.87 59.6728 1413.84 61.3351 1414.4 62.8649C1414.96 64.3948 1416.07 65.6975 1417.55 66.5512C1419.03 67.4049 1420.78 67.7568 1422.5 67.5469C1424.23 67.3371 1425.82 66.5784 1427.01 65.4002C1428.2 64.222 1428.91 62.6972 1429.03 61.0854C1429.14 59.4736 1428.65 57.8745 1427.64 56.5607C1426.63 55.2468 1425.16 54.2993 1423.48 53.8797C1421.8 53.4601 1420.01 53.5942 1418.43 54.2592C1417.77 54.5348 1417.15 54.8973 1416.6 55.3356Z" fill="#BDD0FB"/>
<path d="M1437.07 78.0321C1432.85 81.6767 1427.45 83.6544 1421.88 83.5932C1416.31 83.532 1410.95 81.4361 1406.81 77.6998C1402.68 73.9634 1400.05 68.8442 1399.43 63.3049C1398.8 57.7657 1400.22 52.1883 1403.41 47.622L1403.75 47.158C1404.51 46.1237 1405.36 45.1549 1406.28 44.2618L1406.6 43.9525L1407.71 45.1475C1406.61 46.1782 1405.61 47.3234 1404.75 48.5639C1402.08 52.4092 1400.75 57.031 1400.98 61.7086C1401.21 66.3862 1402.98 70.8567 1406.01 74.4233C1409.04 77.9898 1413.17 80.4518 1417.75 81.4255C1422.33 82.3992 1427.1 81.8298 1431.32 79.8061C1435.54 77.7824 1438.97 74.4182 1441.08 70.2379C1443.19 66.0576 1443.86 61.2962 1442.99 56.696C1442.11 52.0959 1439.73 47.9156 1436.23 44.8068C1432.73 41.6981 1428.3 39.8356 1423.63 39.5098L1423.75 37.8789C1428.26 38.1981 1432.58 39.852 1436.16 42.6309C1439.73 45.4098 1442.4 49.1885 1443.83 53.488C1445.26 57.7875 1445.38 62.4141 1444.17 66.7812C1442.97 71.1482 1440.49 75.0591 1437.07 78.018V78.0321Z" fill="#BDD0FB"/>
<path d="M961.544 563.115C961.555 565.843 962.646 568.456 964.577 570.384C966.508 572.312 969.124 573.398 971.854 573.406H1529.31C1532.04 573.398 1534.66 572.312 1536.59 570.384C1538.52 568.456 1539.61 565.843 1539.62 563.115L1544.26 242.898C1544.26 237.259 1537.59 226.179 1525.37 227.011L980.542 212.914C977.023 212.821 973.522 213.444 970.252 214.745C966.982 216.046 964.01 217.997 961.517 220.481C959.024 222.965 957.062 225.929 955.751 229.194C954.439 232.458 953.804 235.955 953.886 239.473L961.544 563.115Z" fill="#A6ABD1"/>
<path d="M970.795 553.226C970.803 555.805 971.835 558.275 973.666 560.098C975.498 561.921 977.979 562.949 980.569 562.956H1515.74C1518.33 562.949 1520.82 561.921 1522.65 560.098C1524.48 558.275 1525.51 555.805 1525.52 553.226L1529.9 263.276C1529.37 245.826 1514.02 239.555 1504.7 239.921L981.784 225.972C979.307 225.909 976.843 226.347 974.541 227.26C972.239 228.173 970.148 229.543 968.394 231.285C966.64 233.027 965.26 235.106 964.337 237.396C963.414 239.685 962.969 242.137 963.027 244.603L970.795 553.226Z" fill="#6D8FCC"/>
<path d="M1519.3 415.36C1518.99 415.36 1518.7 415.213 1518.48 414.951C1518.26 414.689 1518.14 414.334 1518.14 413.964L1518.43 390.632C1518.43 390.262 1518.55 389.907 1518.77 389.645C1518.99 389.384 1519.28 389.237 1519.59 389.237C1519.9 389.237 1520.2 389.384 1520.41 389.645C1520.63 389.907 1520.75 390.262 1520.75 390.632L1520.46 413.964C1520.46 414.334 1520.34 414.689 1520.12 414.951C1519.91 415.213 1519.61 415.36 1519.3 415.36Z" fill="#A5AAD0"/>
<path d="M1520.6 357.888C1520.22 357.888 1519.86 357.739 1519.6 357.473C1519.34 357.208 1519.19 356.848 1519.19 356.472L1520.51 265.817C1520.51 260.434 1518.86 256.128 1515.67 253.068C1509.71 247.402 1500.25 247.629 1499.86 247.657L1332.77 243.167C1332.4 243.167 1332.04 243.018 1331.77 242.752C1331.51 242.486 1331.36 242.126 1331.36 241.75C1331.36 241.375 1331.51 241.015 1331.77 240.749C1332.04 240.483 1332.4 240.334 1332.77 240.334L1499.81 244.725C1500.86 244.725 1510.93 244.484 1517.63 250.929C1521.4 254.556 1523.28 259.556 1523.37 265.774L1522.04 356.529C1522.02 356.899 1521.86 357.249 1521.6 357.504C1521.33 357.758 1520.97 357.896 1520.6 357.888Z" fill="#A5AAD0"/>
<path d="M923.966 600.835L1565.03 600.835C1569.43 600.835 1573 597.193 1573 592.701V580.233C1573 575.741 1569.43 572.099 1565.03 572.099L923.966 572.099C919.566 572.099 916 575.741 916 580.233V592.701C916 597.193 919.566 600.835 923.966 600.835Z" fill="#A5AAD0"/>
<path d="M1079.27 106.009C1079.27 101.35 1080.19 96.7372 1081.98 92.433C1083.77 88.1288 1086.39 84.2178 1089.69 80.9235C1093 77.6292 1096.92 75.0161 1101.23 73.2332C1105.55 71.4503 1110.18 70.5327 1114.85 70.5327H1417.45C1425.49 70.5373 1433.23 73.624 1439.05 79.1545C1444.88 84.6851 1448.35 92.2363 1448.75 100.247L1471.09 537.673C1471.25 540.755 1470.78 543.837 1469.72 546.736C1468.66 549.635 1467.03 552.293 1464.92 554.552C1462.82 556.81 1460.27 558.624 1457.45 559.885C1454.62 561.146 1451.57 561.829 1448.48 561.892L1101.67 568.176C1098.74 568.236 1095.84 567.713 1093.12 566.638C1090.4 565.563 1087.93 563.957 1085.84 561.914C1083.76 559.872 1082.1 557.435 1080.97 554.745C1079.84 552.056 1079.26 549.169 1079.27 546.253V106.009Z" fill="#7898E9"/>
<path d="M1152.96 560.344L1113.59 559.85C1107.24 559.743 1101.18 557.189 1096.72 552.736C1092.26 548.283 1089.75 542.286 1089.72 536.03V477.474C1089.75 477.274 1089.85 477.09 1090 476.956C1090.15 476.823 1090.35 476.75 1090.56 476.75C1090.76 476.75 1090.96 476.823 1091.12 476.956C1091.27 477.09 1091.37 477.274 1091.4 477.474V536.015C1091.42 541.839 1093.76 547.423 1097.91 551.568C1102.07 555.712 1107.71 558.088 1113.62 558.184L1152.99 558.692C1153.19 558.718 1153.38 558.816 1153.51 558.968C1153.65 559.12 1153.72 559.316 1153.72 559.518C1153.72 559.72 1153.65 559.915 1153.51 560.067C1153.38 560.219 1153.19 560.318 1152.99 560.344H1152.96Z" fill="#91B3FA"/>
<path d="M1091.04 461.076C1090.69 461.076 1090.36 460.984 1090.11 460.821C1089.87 460.658 1089.73 460.437 1089.73 460.206V450.303C1089.71 450.18 1089.72 450.055 1089.78 449.937C1089.83 449.818 1089.92 449.709 1090.04 449.616C1090.17 449.523 1090.32 449.449 1090.49 449.398C1090.66 449.346 1090.84 449.32 1091.03 449.32C1091.21 449.32 1091.4 449.346 1091.56 449.398C1091.73 449.449 1091.89 449.523 1092.01 449.616C1092.13 449.709 1092.22 449.818 1092.28 449.937C1092.33 450.055 1092.35 450.18 1092.32 450.303V460.206C1092.32 460.434 1092.19 460.653 1091.95 460.816C1091.71 460.978 1091.38 461.072 1091.04 461.076Z" fill="#91B3FA"/>
<path d="M1104.09 76.9988C1104.08 75.521 1104.38 74.0581 1104.99 72.7091C1105.59 71.3602 1106.48 70.157 1107.59 69.181C1108.7 68.205 1110.01 67.4791 1111.43 67.0526C1112.85 66.6262 1114.34 66.509 1115.81 66.7092C1157.1 72.3474 1299.12 89.5859 1416.52 80.5931C1417.79 80.4935 1419.07 80.6486 1420.28 81.0493C1421.49 81.45 1422.61 82.0882 1423.56 82.9263C1424.52 83.7643 1425.3 84.7853 1425.86 85.929C1426.42 87.0728 1426.74 88.3162 1426.81 89.5859L1450.2 529.162C1450.36 532.057 1449.37 534.898 1447.43 537.061C1445.5 539.225 1442.78 540.535 1439.88 540.706C1390.46 543.624 1187.11 554.9 1114.59 547.317C1112.46 547.091 1110.49 546.09 1109.05 544.504C1107.61 542.917 1106.81 540.858 1106.8 538.719L1104.09 76.9988Z" fill="#A6D1F9"/>
<path d="M1109.31 88.3352C1109.3 86.9122 1109.59 85.5029 1110.17 84.204C1110.76 82.9051 1111.61 81.7474 1112.69 80.8103C1113.76 79.8732 1115.02 79.1789 1116.39 78.7751C1117.76 78.3713 1119.2 78.2675 1120.61 78.4709C1160.29 83.8258 1296.93 100.454 1409.9 91.8581C1411.12 91.7643 1412.34 91.9151 1413.51 92.3015C1414.67 92.6879 1415.74 93.3021 1416.66 94.1082C1417.58 94.9143 1418.33 95.8959 1418.87 96.9953C1419.4 98.0947 1419.71 99.2899 1419.78 100.51L1442.37 523.42C1442.52 526.197 1441.57 528.922 1439.71 531.001C1437.86 533.08 1435.27 534.346 1432.49 534.524C1384.98 537.343 1189.31 548.179 1119.52 540.88C1117.47 540.665 1115.57 539.701 1114.19 538.175C1112.8 536.648 1112.03 534.666 1112.02 532.608L1109.31 88.3352Z" fill="#C1E0FC"/>
<g opacity="0.6">
<path opacity="0.6" d="M1404.87 245.445C1405.3 245.482 1405.72 245.431 1406.13 245.295C1406.53 245.159 1406.9 244.941 1407.21 244.655C1407.53 244.368 1407.78 244.02 1407.95 243.632C1408.12 243.244 1408.21 242.824 1408.21 242.399C1408.08 241.518 1407.62 240.718 1406.93 240.151C1406.24 239.585 1405.37 239.291 1404.48 239.326L1149.38 237.31C1147.43 237.31 1146.82 238.522 1148.04 240.045L1150.12 242.667C1150.85 243.492 1151.73 244.166 1152.71 244.649C1153.7 245.133 1154.77 245.418 1155.86 245.487L1404.87 245.445Z" fill="white"/>
</g>
<g opacity="0.6">
<path opacity="0.6" d="M1149.38 259.02C1147.43 259.02 1146.82 260.232 1148.04 261.755L1150.12 264.377C1150.85 265.202 1151.73 265.876 1152.71 266.359C1153.7 266.843 1154.77 267.128 1155.86 267.197H1404.87C1405.3 267.234 1405.72 267.183 1406.13 267.047C1406.53 266.911 1406.9 266.693 1407.21 266.407C1407.53 266.121 1407.78 265.773 1407.95 265.384C1408.12 264.996 1408.21 264.577 1408.21 264.152C1408.08 263.27 1407.62 262.47 1406.93 261.904C1406.24 261.337 1405.37 261.043 1404.48 261.078L1149.38 259.02Z" fill="white"/>
</g>
<path d="M1180.7 369.64L1158.98 369.468C1157.55 369.512 1156.16 369.026 1155.06 368.101C1153.97 367.176 1153.24 365.877 1153.03 364.448L1151.13 346.024C1151.08 345.485 1151.13 344.94 1151.29 344.424C1151.45 343.907 1151.72 343.429 1152.07 343.018C1152.48 342.531 1152.99 342.134 1153.56 341.85C1154.13 341.566 1154.75 341.401 1155.39 341.364C1157.22 341.235 1159.78 341.019 1162.48 340.774C1168.16 340.285 1175.35 339.667 1179.35 339.609C1180.69 339.545 1182.01 339.934 1183.11 340.715C1184.21 341.496 1185.03 342.625 1185.42 343.924C1186.56 348.153 1186.46 356.164 1186.23 364.693C1186.11 366.08 1185.47 367.367 1184.44 368.288C1183.41 369.21 1182.07 369.694 1180.7 369.64ZM1155.48 342.989C1155.07 343.011 1154.67 343.117 1154.3 343.3C1153.93 343.483 1153.6 343.739 1153.33 344.054C1153.12 344.293 1152.97 344.571 1152.87 344.873C1152.78 345.175 1152.74 345.493 1152.77 345.808L1154.68 364.232C1154.85 365.24 1155.37 366.151 1156.16 366.796C1156.94 367.442 1157.92 367.777 1158.93 367.742L1180.6 367.958C1181.55 368.014 1182.49 367.696 1183.21 367.068C1183.94 366.441 1184.39 365.553 1184.49 364.592C1184.7 356.193 1184.8 348.311 1183.73 344.313C1183.42 343.386 1182.82 342.587 1182.02 342.038C1181.21 341.488 1180.26 341.216 1179.29 341.263C1175.33 341.263 1168.24 341.925 1162.54 342.414C1159.81 342.644 1157.23 342.874 1155.44 343.004L1155.48 342.989Z" fill="white"/>
<path opacity="0.6" d="M1157.83 344.939C1162.47 344.628 1172.57 343.627 1177.36 343.528C1178.3 343.476 1179.23 343.723 1180.02 344.232C1180.8 344.741 1181.39 345.484 1181.71 346.349C1182.63 349.679 1182.5 356.309 1182.34 362.446C1182.26 363.379 1181.81 364.244 1181.08 364.856C1180.35 365.468 1179.41 365.777 1178.45 365.719L1160.78 365.549C1159.78 365.586 1158.81 365.266 1158.04 364.65C1157.27 364.034 1156.75 363.165 1156.59 362.206L1155.03 347.887C1155.01 347.514 1155.07 347.142 1155.2 346.791C1155.33 346.44 1155.54 346.118 1155.8 345.844C1156.06 345.57 1156.37 345.349 1156.72 345.193C1157.07 345.038 1157.44 344.951 1157.83 344.939Z" fill="white"/>
<g opacity="0.6">
<path opacity="0.6" d="M1200.05 357.555C1200.35 358.703 1201.03 359.718 1201.97 360.438C1202.92 361.158 1204.08 361.542 1205.26 361.531L1404.46 359.839C1405.49 359.778 1406.46 359.326 1407.17 358.575C1407.88 357.825 1408.27 356.832 1408.27 355.8C1408.27 354.768 1407.88 353.775 1407.17 353.024C1406.46 352.274 1405.49 351.821 1404.46 351.761L1205.25 350.858C1204.43 350.853 1203.62 351.037 1202.88 351.395C1202.14 351.753 1201.5 352.276 1201 352.923C1200.49 353.571 1200.15 354.325 1199.98 355.129C1199.82 355.932 1199.84 356.762 1200.05 357.555Z" fill="white"/>
</g>
<path d="M1180.87 415.354L1159.99 415.148C1158.62 415.194 1157.28 414.731 1156.22 413.847C1155.17 412.963 1154.47 411.72 1154.27 410.354L1152.43 392.755C1152.38 392.24 1152.44 391.72 1152.59 391.226C1152.75 390.732 1153 390.276 1153.34 389.883C1153.74 389.419 1154.23 389.039 1154.78 388.768C1155.33 388.497 1155.92 388.339 1156.53 388.304C1158.3 388.18 1160.77 387.974 1163.37 387.74C1168.84 387.273 1175.77 386.682 1179.62 386.627H1179.7C1180.98 386.585 1182.23 386.966 1183.27 387.711C1184.31 388.455 1185.08 389.523 1185.46 390.749C1186.55 394.788 1186.46 402.44 1186.24 410.587C1186.13 411.927 1185.51 413.173 1184.51 414.063C1183.51 414.953 1182.2 415.416 1180.87 415.354ZM1156.58 389.897C1156.18 389.918 1155.79 390.019 1155.43 390.194C1155.08 390.368 1154.76 390.613 1154.5 390.914C1154.3 391.142 1154.15 391.408 1154.06 391.697C1153.97 391.985 1153.94 392.289 1153.97 392.59L1155.8 410.189C1155.96 411.151 1156.47 412.022 1157.22 412.638C1157.98 413.254 1158.93 413.575 1159.9 413.541L1180.77 413.747C1181.69 413.801 1182.59 413.497 1183.29 412.898C1183.98 412.298 1184.42 411.451 1184.51 410.532C1184.72 402.509 1184.82 394.98 1183.79 391.161C1183.49 390.273 1182.91 389.508 1182.14 388.982C1181.37 388.457 1180.44 388.199 1179.51 388.249C1175.7 388.249 1168.86 388.881 1163.37 389.348C1160.74 389.567 1158.26 389.787 1156.53 389.911L1156.58 389.897Z" fill="white"/>
<path opacity="0.6" d="M1157.83 391.96C1162.47 391.65 1172.57 390.648 1177.36 390.55C1178.3 390.498 1179.23 390.745 1180.02 391.254C1180.8 391.762 1181.39 392.506 1181.71 393.371C1182.63 396.7 1182.5 403.331 1182.34 409.468C1182.26 410.401 1181.81 411.266 1181.08 411.878C1180.35 412.489 1179.41 412.799 1178.45 412.74L1160.78 412.571C1159.79 412.642 1158.81 412.359 1158.01 411.775C1157.22 411.19 1156.68 410.345 1156.48 409.397L1155.03 394.895C1155.01 394.523 1155.07 394.152 1155.21 393.803C1155.34 393.454 1155.54 393.134 1155.8 392.861C1156.06 392.588 1156.37 392.368 1156.72 392.214C1157.07 392.059 1157.44 391.973 1157.83 391.96Z" fill="white"/>
<g opacity="0.6">
<path opacity="0.6" d="M1200.05 403.702C1200.35 404.851 1201.03 405.865 1201.97 406.585C1202.92 407.305 1204.07 407.69 1205.26 407.678L1404.48 406.043C1405.51 405.982 1406.48 405.53 1407.18 404.779C1407.89 404.028 1408.28 403.035 1408.28 402.003C1408.28 400.972 1407.89 399.979 1407.18 399.228C1406.48 398.477 1405.51 398.025 1404.48 397.964L1205.26 397.062C1204.45 397.057 1203.64 397.238 1202.91 397.592C1202.17 397.946 1201.53 398.463 1201.03 399.104C1200.52 399.745 1200.17 400.493 1200 401.29C1199.83 402.087 1199.85 402.912 1200.05 403.702Z" fill="white"/>
</g>
<path d="M1180.87 462.376L1159.99 462.161C1158.62 462.208 1157.28 461.724 1156.22 460.8C1155.17 459.876 1154.47 458.576 1154.27 457.148L1152.43 438.749C1152.38 438.211 1152.44 437.667 1152.59 437.151C1152.75 436.635 1153 436.157 1153.34 435.747C1153.74 435.261 1154.23 434.865 1154.78 434.581C1155.33 434.297 1155.92 434.132 1156.53 434.095C1158.3 433.966 1160.77 433.751 1163.37 433.507C1168.84 433.018 1175.77 432.401 1179.62 432.343H1179.7C1180.98 432.299 1182.23 432.697 1183.27 433.476C1184.31 434.254 1185.08 435.37 1185.46 436.652C1186.55 440.875 1186.46 448.875 1186.24 457.392C1186.13 458.793 1185.51 460.096 1184.51 461.026C1183.51 461.956 1182.2 462.44 1180.87 462.376ZM1156.58 435.761C1156.18 435.784 1155.79 435.889 1155.43 436.072C1155.08 436.254 1154.76 436.51 1154.5 436.824C1154.3 437.063 1154.15 437.342 1154.06 437.643C1153.97 437.944 1153.94 438.262 1153.97 438.577L1155.8 456.976C1155.96 457.982 1156.47 458.892 1157.22 459.536C1157.98 460.18 1158.93 460.516 1159.9 460.48L1180.77 460.696C1181.69 460.752 1182.59 460.434 1183.29 459.807C1183.98 459.181 1184.42 458.295 1184.51 457.335C1184.72 448.947 1184.82 441.076 1183.79 437.083C1183.49 436.155 1182.91 435.355 1182.14 434.805C1181.37 434.255 1180.44 433.986 1179.51 434.038C1175.7 434.038 1168.86 434.699 1163.37 435.187C1160.74 435.417 1158.26 435.647 1156.53 435.776L1156.58 435.761Z" fill="white"/>
<path opacity="0.6" d="M1157.83 437.676C1162.47 437.365 1172.57 436.364 1177.36 436.265C1178.3 436.213 1179.23 436.46 1180.02 436.969C1180.8 437.478 1181.39 438.221 1181.71 439.087C1182.63 442.416 1182.5 449.046 1182.34 455.183C1182.26 456.116 1181.81 456.982 1181.08 457.593C1180.35 458.205 1179.41 458.515 1178.45 458.456L1160.78 458.287C1159.78 458.323 1158.81 458.003 1158.04 457.387C1157.27 456.772 1156.75 455.902 1156.59 454.943L1155.03 440.61C1155.01 440.238 1155.07 439.867 1155.21 439.518C1155.34 439.169 1155.54 438.849 1155.8 438.577C1156.06 438.304 1156.37 438.084 1156.72 437.929C1157.07 437.775 1157.44 437.689 1157.83 437.676Z" fill="white"/>
<g opacity="0.6">
<path opacity="0.6" d="M1200.05 449.843C1200.35 450.992 1201.03 452.006 1201.97 452.726C1202.92 453.446 1204.08 453.831 1205.26 453.819L1404.46 452.127C1405.49 452.067 1406.46 451.614 1407.17 450.864C1407.88 450.113 1408.27 449.12 1408.27 448.088C1408.27 447.056 1407.88 446.064 1407.17 445.313C1406.46 444.562 1405.49 444.11 1404.46 444.049L1205.25 443.147C1204.43 443.141 1203.62 443.325 1202.88 443.683C1202.14 444.041 1201.5 444.564 1201 445.212C1200.49 445.859 1200.15 446.614 1199.98 447.417C1199.82 448.22 1199.84 449.05 1200.05 449.843Z" fill="white"/>
</g>
<path d="M1180.87 508.092L1159.99 507.876C1158.62 507.924 1157.28 507.44 1156.22 506.516C1155.17 505.591 1154.47 504.292 1154.27 502.864L1152.43 484.465C1152.38 483.926 1152.44 483.383 1152.59 482.867C1152.75 482.351 1153 481.873 1153.34 481.463C1153.74 480.977 1154.23 480.58 1154.78 480.297C1155.33 480.013 1155.92 479.848 1156.53 479.811C1158.3 479.682 1160.77 479.467 1163.37 479.222C1168.84 478.734 1175.77 478.116 1179.62 478.059H1179.7C1180.98 478.015 1182.23 478.413 1183.27 479.191C1184.31 479.97 1185.08 481.086 1185.46 482.368C1186.55 486.591 1186.46 494.591 1186.24 503.108C1186.13 504.509 1185.51 505.812 1184.51 506.742C1183.51 507.672 1182.2 508.156 1180.87 508.092ZM1156.58 481.477C1156.18 481.499 1155.79 481.605 1155.43 481.787C1155.08 481.97 1154.76 482.226 1154.5 482.54C1154.3 482.779 1154.15 483.057 1154.06 483.359C1153.97 483.66 1153.94 483.978 1153.97 484.292L1155.8 502.691C1155.96 503.698 1156.47 504.607 1157.22 505.252C1157.98 505.896 1158.93 506.231 1159.9 506.196L1180.77 506.411C1181.69 506.468 1182.59 506.15 1183.29 505.523C1183.98 504.897 1184.42 504.01 1184.51 503.05C1184.72 494.662 1184.82 486.792 1183.79 482.799C1183.49 481.869 1182.91 481.068 1182.14 480.518C1181.37 479.968 1180.44 479.699 1179.51 479.754C1175.7 479.754 1168.86 480.414 1163.37 480.903C1160.74 481.133 1158.26 481.362 1156.53 481.492L1156.58 481.477Z" fill="white"/>
<path opacity="0.6" d="M1157.83 483.392C1162.47 483.081 1172.57 482.08 1177.36 481.981C1178.3 481.929 1179.23 482.176 1180.02 482.685C1180.8 483.194 1181.39 483.937 1181.71 484.802C1182.63 488.132 1182.5 494.762 1182.34 500.899C1182.26 501.832 1181.81 502.697 1181.08 503.309C1180.35 503.921 1179.41 504.231 1178.45 504.172L1160.78 504.003C1159.78 504.039 1158.81 503.719 1158.04 503.103C1157.27 502.487 1156.75 501.618 1156.59 500.659L1155.03 486.326C1155.01 485.954 1155.07 485.583 1155.21 485.234C1155.34 484.885 1155.54 484.565 1155.8 484.292C1156.06 484.02 1156.37 483.8 1156.72 483.645C1157.07 483.49 1157.44 483.404 1157.83 483.392Z" fill="white"/>
<g opacity="0.6">
<path opacity="0.6" d="M1200.05 495.991C1200.35 497.139 1201.03 498.153 1201.97 498.873C1202.92 499.593 1204.08 499.978 1205.26 499.967L1404.46 498.275C1405.49 498.214 1406.46 497.762 1407.17 497.011C1407.88 496.26 1408.27 495.268 1408.27 494.236C1408.27 493.204 1407.88 492.211 1407.17 491.46C1406.46 490.709 1405.49 490.257 1404.46 490.196L1205.25 489.224C1204.42 489.216 1203.6 489.4 1202.86 489.762C1202.11 490.124 1201.46 490.654 1200.96 491.31C1200.46 491.966 1200.11 492.731 1199.95 493.543C1199.79 494.355 1199.83 495.193 1200.05 495.991Z" fill="white"/>
</g>
<path d="M1179.35 329.148L1157.67 328.942C1156.25 328.987 1154.85 328.524 1153.76 327.64C1152.66 326.756 1151.94 325.513 1151.72 324.147L1149.82 306.548C1149.77 306.033 1149.83 305.513 1149.99 305.019C1150.15 304.526 1150.41 304.069 1150.76 303.677C1151.18 303.212 1151.68 302.832 1152.25 302.561C1152.83 302.29 1153.45 302.132 1154.08 302.097C1155.91 301.973 1158.48 301.767 1161.18 301.533C1166.86 301.066 1174.05 300.476 1178.06 300.421H1178.14C1179.47 300.378 1180.77 300.759 1181.85 301.504C1182.93 302.249 1183.73 303.316 1184.12 304.542C1185.25 308.581 1185.15 316.234 1184.93 324.38C1184.82 325.72 1184.17 326.967 1183.13 327.856C1182.09 328.746 1180.73 329.209 1179.35 329.148ZM1154.12 303.69C1153.71 303.712 1153.31 303.812 1152.94 303.987C1152.57 304.162 1152.24 304.406 1151.97 304.707C1151.76 304.935 1151.61 305.202 1151.51 305.49C1151.42 305.778 1151.38 306.082 1151.41 306.383L1153.31 323.982C1153.49 324.945 1154.01 325.815 1154.79 326.431C1155.58 327.047 1156.56 327.368 1157.57 327.334L1179.25 327.54C1180.2 327.594 1181.14 327.29 1181.86 326.691C1182.59 326.091 1183.04 325.244 1183.14 324.326C1183.35 316.302 1183.45 308.774 1182.38 304.954C1182.08 304.065 1181.47 303.299 1180.67 302.773C1179.87 302.247 1178.91 301.99 1177.94 302.042C1173.98 302.042 1166.88 302.674 1161.18 303.141C1158.45 303.361 1155.87 303.58 1154.08 303.704L1154.12 303.69Z" fill="white"/>
<path opacity="0.6" d="M1156.37 305.753C1160.8 305.443 1170.42 304.441 1174.99 304.343C1175.89 304.291 1176.77 304.538 1177.52 305.047C1178.27 305.556 1178.83 306.299 1179.13 307.164C1180.01 310.494 1179.89 317.124 1179.74 323.261C1179.66 324.194 1179.23 325.059 1178.53 325.671C1177.84 326.283 1176.94 326.592 1176.02 326.534L1159.19 326.364C1158.24 326.401 1157.31 326.081 1156.57 325.465C1155.84 324.849 1155.35 323.98 1155.2 323.021L1153.72 308.575C1153.72 307.846 1154 307.145 1154.49 306.619C1154.98 306.093 1155.66 305.783 1156.37 305.753Z" fill="white"/>
<g opacity="0.6">
<path opacity="0.6" d="M1198.16 317.405C1198.46 318.553 1199.14 319.567 1200.08 320.287C1201.03 321.007 1202.19 321.392 1203.37 321.38L1402.58 319.688C1403.61 319.628 1404.57 319.176 1405.28 318.425C1405.99 317.674 1406.38 316.681 1406.38 315.649C1406.38 314.617 1405.99 313.625 1405.28 312.874C1404.57 312.123 1403.61 311.671 1402.58 311.61L1203.36 310.708C1202.54 310.703 1201.73 310.886 1200.99 311.244C1200.26 311.602 1199.61 312.125 1199.11 312.773C1198.6 313.42 1198.26 314.175 1198.09 314.978C1197.93 315.781 1197.95 316.611 1198.16 317.405Z" fill="white"/>
</g>
<path d="M1284.95 10.5393C1273.87 2.94951 1264.22 3.09059 1257.44 5.06562C1254.44 5.94383 1251.84 7.82039 1250.09 10.3751C1248.33 12.9298 1247.53 16.0044 1247.82 19.0742L1250.69 50.5196L1285.62 53.5527C1285.62 53.5527 1306.69 25.4226 1284.95 10.5393ZM1269.62 35.9325C1267.91 35.9325 1266.23 35.4312 1264.8 34.4918C1263.37 33.5524 1262.26 32.2172 1261.6 30.6551C1260.94 29.0929 1260.77 27.374 1261.11 25.7156C1261.44 24.0573 1262.27 22.534 1263.48 21.3384C1264.7 20.1428 1266.25 19.3285 1267.93 18.9987C1269.62 18.6688 1271.36 18.8381 1272.95 19.4852C1274.54 20.1322 1275.89 21.228 1276.85 22.6339C1277.8 24.0398 1278.31 25.6926 1278.31 27.3835C1278.3 29.6435 1277.39 31.8086 1275.76 33.4054C1274.14 35.0021 1271.94 35.9006 1269.64 35.9043L1269.62 35.9325Z" fill="#7898E9"/>
<path d="M1255.11 37.8787C1254.9 37.8762 1254.71 37.7988 1254.56 37.661C1254.41 37.5232 1254.31 37.3348 1254.29 37.1316L1253.83 32.1277C1253.81 32.0141 1253.81 31.8974 1253.84 31.7849C1253.86 31.6724 1253.91 31.5667 1253.98 31.4744C1254.05 31.3822 1254.14 31.3054 1254.24 31.2491C1254.34 31.1928 1254.45 31.1581 1254.56 31.1473C1254.68 31.1365 1254.79 31.1498 1254.9 31.1863C1255.01 31.2228 1255.11 31.2818 1255.2 31.3595C1255.28 31.4371 1255.35 31.5318 1255.4 31.6373C1255.45 31.7429 1255.47 31.8571 1255.47 31.9727L1255.93 36.9765C1255.95 37.195 1255.89 37.4125 1255.75 37.5814C1255.61 37.7504 1255.41 37.8572 1255.19 37.8787H1255.11ZM1254.21 28.0119C1254 28.0095 1253.81 27.932 1253.66 27.7942C1253.51 27.6564 1253.41 27.468 1253.39 27.2648L1253.04 23.4732C1252.78 20.5647 1253.53 17.6555 1255.16 15.2365C1256.79 12.8176 1259.2 11.037 1261.99 10.1953C1266.04 8.99209 1270.32 8.81772 1274.46 9.68787C1274.57 9.70077 1274.68 9.73756 1274.78 9.79588C1274.88 9.85421 1274.97 9.93279 1275.04 10.0266C1275.11 10.1204 1275.15 10.2273 1275.18 10.3406C1275.2 10.4538 1275.2 10.5709 1275.18 10.6842C1275.15 10.7976 1275.11 10.9047 1275.04 10.9989C1274.97 11.093 1274.89 11.172 1274.79 11.2308C1274.69 11.2896 1274.58 11.3269 1274.46 11.3403C1274.35 11.3538 1274.23 11.343 1274.12 11.3088C1270.25 10.4963 1266.24 10.661 1262.45 11.7881C1260.01 12.5195 1257.91 14.0745 1256.48 16.189C1255.06 18.3036 1254.41 20.8474 1254.64 23.3886L1254.99 27.1803C1255.01 27.3988 1254.95 27.6162 1254.81 27.7851C1254.67 27.9541 1254.47 28.0609 1254.25 28.0824L1254.21 28.0119Z" fill="#91B3FA"/>
<path d="M1204.66 70.8727V55.2436C1204.66 53.965 1204.92 52.6997 1205.43 51.5229C1205.93 50.3461 1206.66 49.2819 1207.59 48.3935C1208.51 47.5052 1209.6 46.8108 1210.8 46.3517C1212 45.8926 1213.28 45.6782 1214.56 45.7212L1322.78 49.4159C1325.1 49.4951 1327.3 50.4321 1328.96 52.0436C1330.62 53.6552 1331.62 55.8253 1331.76 58.1296L1332.67 73.1452L1204.66 70.8727Z" fill="#7898E9"/>
<path d="M1245.52 50.9349H1240.86C1240.75 50.947 1240.63 50.9392 1240.52 50.9122C1240.4 50.8852 1240.3 50.8395 1240.21 50.7782C1240.12 50.7169 1240.05 50.6414 1240 50.5568C1239.95 50.4721 1239.93 50.3803 1239.93 50.2874C1239.93 50.1944 1239.95 50.1026 1240 50.0179C1240.05 49.9333 1240.12 49.8578 1240.21 49.7965C1240.3 49.7352 1240.4 49.6895 1240.52 49.6625C1240.63 49.6355 1240.75 49.6277 1240.86 49.6398H1245.52C1245.64 49.6277 1245.76 49.6355 1245.87 49.6625C1245.98 49.6895 1246.09 49.7352 1246.18 49.7965C1246.27 49.8578 1246.34 49.9333 1246.39 50.0179C1246.43 50.1026 1246.46 50.1944 1246.46 50.2874C1246.46 50.3803 1246.43 50.4721 1246.39 50.5568C1246.34 50.6414 1246.27 50.7169 1246.18 50.7782C1246.09 50.8395 1245.98 50.8852 1245.87 50.9122C1245.76 50.9392 1245.64 50.947 1245.52 50.9349Z" fill="#91B3FA"/>
<path d="M1210.69 66.6144C1210.48 66.6144 1210.27 66.5224 1210.12 66.3587C1209.97 66.195 1209.89 65.9729 1209.89 65.7413V59.0381C1209.89 56.5472 1210.8 54.1595 1212.42 52.3981C1214.03 50.6368 1216.23 49.6456 1218.51 49.6417H1235.1C1235.22 49.6255 1235.33 49.6359 1235.44 49.672C1235.55 49.7081 1235.65 49.7692 1235.74 49.8511C1235.82 49.933 1235.89 50.034 1235.94 50.1471C1235.99 50.2603 1236.01 50.3831 1236.01 50.5073C1236.01 50.6316 1235.99 50.7544 1235.94 50.8675C1235.89 50.9807 1235.82 51.0816 1235.74 51.1635C1235.65 51.2455 1235.55 51.3066 1235.44 51.3427C1235.33 51.3788 1235.22 51.3891 1235.1 51.373H1218.53C1216.66 51.3769 1214.87 52.1857 1213.56 53.6224C1212.24 55.059 1211.49 57.0064 1211.49 59.0381V65.7413C1211.49 65.9729 1211.41 66.195 1211.26 66.3587C1211.1 66.5224 1210.9 66.6144 1210.69 66.6144Z" fill="#91B3FA"/>
<path d="M1159.34 74.8664C1159.46 72.2903 1160.6 69.8607 1162.51 68.0811C1164.42 66.3016 1166.96 65.3087 1169.59 65.3081H1360.26C1363.58 65.3117 1366.79 66.4586 1369.33 68.5473C1371.87 70.6359 1373.57 73.5327 1374.14 76.7284L1374.3 77.6387C1374.59 79.3335 1374.5 81.0698 1374.03 82.7271C1373.57 84.3844 1372.74 85.9228 1371.6 87.2353C1370.47 88.5479 1369.06 89.6032 1367.46 90.3278C1365.87 91.0525 1364.13 91.429 1362.37 91.4314H1166.81C1165.75 91.4306 1164.7 91.2189 1163.72 90.8091C1162.74 90.3993 1161.86 89.7998 1161.12 89.0469C1160.39 88.294 1159.82 87.4033 1159.44 86.4287C1159.07 85.4541 1158.91 84.4158 1158.95 83.3765L1159.34 74.8664Z" fill="#7898E9"/>
<path d="M1062.89 641.326C1062.89 641.326 1061.61 648.615 1061 655.904C1060.95 656.574 1061.03 657.248 1061.23 657.886C1061.44 658.525 1061.77 659.113 1062.21 659.617C1062.65 660.121 1063.18 660.53 1063.77 660.818C1064.37 661.107 1065.01 661.27 1065.67 661.297C1075.12 661.705 1095.3 662.478 1102.55 662.143C1102.8 662.135 1103.05 662.065 1103.27 661.938C1103.5 661.812 1103.69 661.632 1103.83 661.414C1103.97 661.197 1104.05 660.948 1104.08 660.689C1104.1 660.43 1104.07 660.169 1103.97 659.927C1103.64 659.063 1102.99 658.363 1102.16 657.973L1068.8 642.332L1062.89 641.326Z" fill="#4F5592"/>
<path d="M1062.29 637.506L1063.27 646.669C1063.27 646.669 1068.9 649.571 1072.74 646.303L1070.41 636.101L1062.29 637.506Z" fill="#E6A189"/>
<path d="M1062.2 478.141C1061.76 480.366 1059.88 588.861 1071.39 637.498C1071.48 637.879 1071.43 638.282 1071.26 638.633C1071.08 638.984 1070.79 639.26 1070.43 639.411C1067.44 640.576 1064.27 641.223 1061.06 641.324C1060.44 641.349 1059.82 641.162 1059.31 640.792C1058.8 640.422 1058.43 639.891 1058.25 639.283C1054.97 627.946 1039.22 571.473 1037.18 517.409C1034.9 457.068 1037.18 515.355 1037.18 515.355L1038.59 478.056L1062.2 478.141Z" fill="#8E86B9"/>
<path d="M1024.71 645.245C1024.71 645.245 1022.6 648.76 1020.56 658.097C1020.47 658.495 1020.47 658.906 1020.57 659.303C1020.66 659.7 1020.84 660.075 1021.1 660.402C1021.36 660.729 1021.7 661.003 1022.08 661.204C1022.46 661.405 1022.88 661.53 1023.32 661.57C1026.59 661.862 1031.63 662.251 1035.67 662.223C1036.11 662.222 1036.54 662.135 1036.94 661.968C1037.34 661.8 1037.7 661.557 1037.99 661.252C1038.28 660.948 1038.5 660.59 1038.64 660.202C1038.77 659.814 1038.81 659.404 1038.76 659C1038.23 654.07 1036.09 649.408 1032.62 645.634L1024.71 645.245Z" fill="#4F5592"/>
<path d="M1023.11 635.249L1025.42 647.003C1025.42 647.003 1027.71 648.584 1032.25 647.443L1031.15 634.795L1023.11 635.249Z" fill="#E6A189"/>
<path d="M1017.55 482.726C1008.24 539.404 1019.56 622.808 1023.39 639.124C1023.5 639.614 1023.76 640.061 1024.12 640.405C1024.49 640.75 1024.94 640.978 1025.44 641.06C1027.86 641.496 1030.35 641.395 1032.73 640.765C1033.2 640.63 1033.61 640.349 1033.91 639.964C1034.21 639.579 1034.38 639.108 1034.4 638.619C1034.91 625.417 1034 544.398 1042.67 512.356C1043.11 510.734 1044.09 509.316 1045.45 508.343L1062.3 496.264L1063.6 476.75L1017.55 482.726Z" fill="#8E86B9"/>
<path d="M1077.63 374.28C1049.34 373.814 1018.13 381.73 1018.13 381.73C1009.67 431.048 1016.72 487.929 1016.72 487.929C1038.62 493.682 1063.26 484.409 1063.26 484.409C1066.9 463.8 1083.88 405.774 1083.88 405.774C1096.01 404.414 1107.76 400.678 1118.46 394.777C1111.31 386.465 1107.93 375.892 1106.47 369.644C1097.15 372.672 1087.42 374.236 1077.63 374.28Z" fill="#5653E5"/>
<path d="M1160.25 332.588C1159.54 331.653 1158.53 330.976 1157.4 330.659C1156.26 330.342 1155.05 330.403 1153.94 330.832C1149.7 348.348 1127.88 362.548 1105.39 369.487C1106.81 375.696 1110.24 386.202 1117.41 394.461C1154.72 373.617 1160.25 332.588 1160.25 332.588Z" fill="#FDBEA5"/>
<path d="M1160.63 333.328C1160.92 334.263 1157.56 335.664 1155.57 331.912C1155.57 330.1 1154.4 322.299 1155.49 320.812C1161.25 312.926 1172.39 303.03 1172.39 303.03C1172.91 303.483 1173.24 304.123 1173.3 304.816C1173.37 305.508 1173.16 306.198 1172.72 306.739L1167.3 312.402C1168.63 314.346 1169.7 316.46 1170.47 318.689C1170.96 320.604 1170.68 322.634 1169.71 324.352C1168.75 326.079 1167.46 328.316 1166.23 330.015C1165.61 330.955 1164.78 331.741 1163.81 332.315C1162.84 332.888 1161.75 333.235 1160.63 333.328Z" fill="#FDBEA5"/>
<path d="M1164.35 316.091L1159.24 320.229L1157.64 324.367L1162.19 329.153C1162.19 329.153 1163.72 321.057 1164.86 319.305C1166 317.553 1165.41 316.602 1164.35 316.091Z" fill="url(#paint0_linear_205_45)"/>
<path d="M1028.33 408.872L1017.44 381.4C1017.44 381.4 990.895 399.408 986.533 422.24C994.549 422.807 1002.38 424.906 1009.61 428.422C1011.6 417.642 1028.33 408.872 1028.33 408.872Z" fill="#5653E5"/>
<path d="M1051.8 434.313C1051.8 434.313 1022.21 451.041 1012.15 436.761C1011.23 435.526 1010.57 434.114 1010.22 432.613C1009.86 431.113 1009.82 429.556 1010.09 428.039C1002.91 424.542 995.115 422.455 987.141 421.891C985.673 429.229 986.882 436.849 990.551 443.374C1008.08 475.381 1055.76 441.615 1055.76 441.615L1051.8 434.313Z" fill="#FDBEA5"/>
<path d="M1047.99 455.984L1064.22 399.17C1064.31 398.853 1064.49 398.571 1064.75 398.359C1065 398.147 1065.31 398.015 1065.63 397.98C1068.57 397.64 1077.1 396.676 1086.94 395.84C1098.79 394.834 1112.56 394.027 1120.79 394.721C1121.06 394.732 1121.33 394.812 1121.57 394.954C1121.8 395.096 1122 395.295 1122.14 395.533C1122.28 395.771 1122.36 396.041 1122.37 396.317C1122.38 396.593 1122.32 396.868 1122.2 397.115C1117.52 406.594 1098.28 445.173 1088.65 457.811C1088.49 458.017 1088.29 458.183 1088.06 458.296C1087.82 458.409 1087.57 458.466 1087.31 458.463L1049.64 458.109C1049.38 458.12 1049.12 458.067 1048.88 457.957C1048.64 457.846 1048.43 457.68 1048.27 457.472C1048.11 457.264 1048 457.021 1047.95 456.762C1047.9 456.503 1047.92 456.236 1047.99 455.984Z" fill="#3D416D"/>
<path d="M1088.54 391.154L1100.47 389.248C1100.62 389.224 1100.77 389.237 1100.91 389.285C1101.05 389.334 1101.17 389.416 1101.27 389.523C1101.36 389.631 1101.43 389.761 1101.46 389.9C1101.49 390.039 1101.48 390.183 1101.43 390.318L1100.26 393.745C1100.2 393.89 1100.11 394.018 1099.99 394.115C1099.86 394.212 1099.71 394.274 1099.55 394.294L1088.08 395.761C1087.94 395.778 1087.8 395.762 1087.67 395.716C1087.54 395.67 1087.42 395.595 1087.33 395.496C1087.24 395.398 1087.17 395.28 1087.14 395.152C1087.1 395.023 1087.1 394.889 1087.13 394.76L1087.86 391.771C1087.9 391.617 1087.98 391.477 1088.1 391.368C1088.22 391.258 1088.37 391.184 1088.54 391.154Z" fill="#91B3FA"/>
<path d="M1079.29 401.027L1080.27 396.307C1080.32 396.075 1080.45 395.864 1080.64 395.704C1080.83 395.545 1081.07 395.445 1081.32 395.421L1105.4 393.16C1105.58 393.144 1105.77 393.168 1105.95 393.231C1106.12 393.294 1106.27 393.394 1106.4 393.523C1106.52 393.652 1106.61 393.806 1106.66 393.972C1106.71 394.139 1106.71 394.314 1106.67 394.482L1105.14 400.366C1105.08 400.594 1104.94 400.799 1104.75 400.949C1104.55 401.098 1104.31 401.186 1104.05 401.199L1080.52 402.297C1080.34 402.305 1080.16 402.276 1080 402.213C1079.84 402.15 1079.69 402.055 1079.57 401.933C1079.46 401.811 1079.37 401.667 1079.32 401.51C1079.27 401.354 1079.26 401.189 1079.29 401.027Z" fill="#91B3FA"/>
<path d="M1052.09 442.683C1052.09 442.683 1049.9 433.305 1050.72 429.985C1051.54 426.664 1053.32 422.388 1059.01 423.329C1063.23 424.144 1067.38 425.297 1071.43 426.778C1071.41 427.34 1071.25 427.887 1070.98 428.371C1070.7 428.854 1070.32 429.26 1069.86 429.55C1069.4 429.841 1068.87 430.008 1068.33 430.037C1067.79 430.065 1067.26 429.954 1066.77 429.714L1069.5 431.88C1069.5 431.88 1069.12 435.343 1065.4 433.491L1067.9 436.341C1067.71 436.721 1067.43 437.054 1067.11 437.316C1066.78 437.578 1066.4 437.764 1065.99 437.861C1065.59 437.958 1065.17 437.964 1064.76 437.879C1064.36 437.794 1063.97 437.619 1063.63 437.367C1061.08 435.557 1059.71 443.809 1052.09 442.683Z" fill="#FDBEA5"/>
<path d="M1048.72 351.358L1040.13 377.818C1040.07 378.03 1040.07 378.26 1040.14 378.469C1040.22 378.678 1040.36 378.854 1040.54 378.965C1042.88 380.398 1051.31 384.326 1061.48 377.532C1062.01 377.181 1062.45 376.712 1062.79 376.157C1063.12 375.602 1063.34 374.975 1063.42 374.321L1066.21 351.387L1048.72 351.358Z" fill="#E7A28A"/>
<path d="M1068.05 326.541C1068.05 326.541 1077.79 345.723 1076.55 353.475C1075.31 361.226 1063.22 360.674 1052.68 354.377L1045.31 333.652L1068.05 326.541Z" fill="#FDBFA6"/>
<path d="M1052.57 344.417C1052.67 344.373 1052.76 344.307 1052.84 344.222C1052.92 344.138 1052.97 344.038 1053 343.929C1053.04 343.82 1053.04 343.705 1053.03 343.593C1053.01 343.48 1052.97 343.373 1052.91 343.279C1051.65 341.483 1050.7 339.494 1050.08 337.389C1050.08 337.389 1048.3 336.237 1054.62 334.715C1060.93 333.192 1070.34 330.831 1072.31 325.425C1074.29 320.019 1069.18 306.93 1061.1 317.458C1061.03 317.552 1060.94 317.629 1060.83 317.681C1060.73 317.734 1060.61 317.761 1060.49 317.761C1060.37 317.761 1060.26 317.734 1060.15 317.681C1060.05 317.629 1059.96 317.552 1059.88 317.458C1058.56 315.722 1055.08 312.109 1050.24 314.299C1045.72 316.348 1045.19 319.691 1045.26 321.413C1045.27 321.528 1045.25 321.643 1045.2 321.748C1045.16 321.854 1045.09 321.948 1045 322.023C1044.91 322.098 1044.81 322.153 1044.7 322.182C1044.59 322.212 1044.47 322.217 1044.36 322.195C1042.07 321.754 1036.58 321.384 1034.02 327.046C1031.92 331.727 1033.29 334.359 1034.53 335.653C1034.62 335.748 1034.69 335.865 1034.73 335.994C1034.76 336.122 1034.76 336.258 1034.73 336.387C1034.7 336.516 1034.63 336.634 1034.54 336.73C1034.45 336.826 1034.33 336.896 1034.21 336.934C1032.71 337.403 1030.76 338.684 1030.96 342.226C1031.22 347.134 1036.61 346.693 1038.22 346.494C1038.34 346.475 1038.47 346.487 1038.59 346.529C1038.7 346.572 1038.81 346.643 1038.89 346.736C1040.22 348.159 1046.21 354.504 1052.69 355.272C1052.82 355.286 1052.95 355.267 1053.07 355.216C1053.19 355.166 1053.3 355.087 1053.38 354.985C1053.46 354.883 1053.52 354.762 1053.54 354.633C1053.56 354.504 1053.55 354.372 1053.51 354.248L1050.69 346.039C1050.63 345.853 1050.64 345.651 1050.71 345.472C1050.79 345.293 1050.93 345.15 1051.11 345.071L1052.57 344.417Z" fill="#66415C"/>
<path d="M1053.72 345.909C1053.72 345.909 1047.12 341.086 1046.64 345.148C1046.17 349.209 1052.57 351.043 1055.76 349.519L1053.72 345.909Z" fill="#FDBEA5"/>
<path d="M1389.26 340.209C1389.36 340.01 1389.52 339.845 1389.71 339.738C1389.91 339.631 1390.14 339.585 1390.36 339.608C1390.58 339.631 1390.79 339.721 1390.96 339.867C1391.13 340.012 1391.25 340.205 1391.31 340.422C1392.3 344.002 1394.71 350.243 1399.8 352.465L1400.52 352.805C1400.66 352.421 1400.7 352.01 1400.65 351.607C1400.59 351.203 1400.44 350.818 1400.21 350.484C1398.64 348.078 1401.47 344.823 1401.47 344.823C1401.65 346.63 1402.5 348.305 1403.85 349.521C1404.87 350.531 1405.56 351.829 1405.83 353.243C1406.1 354.656 1405.93 356.118 1405.35 357.432C1402.62 368.047 1398.53 382.085 1414.46 392.332C1430.39 402.578 1452.83 372.972 1452.83 372.972L1441.7 408.352C1441.7 408.352 1424.51 421.089 1404.51 403.201C1384.52 385.312 1397.76 359.329 1397.76 359.329C1397.76 359.329 1382.48 353.173 1389.26 340.209Z" fill="#FDBEA5"/>
<path d="M1455.06 320.573C1455.06 320.573 1450.5 299.748 1473.97 305.267C1473.97 305.267 1485.37 303.375 1485.95 314.299C1485.95 314.299 1493.3 319.221 1487.91 328.666C1487.91 328.666 1509.74 320.132 1519.25 339.534C1528.76 358.936 1520.02 369.662 1510.85 372.45C1512.96 373.581 1514.54 375.504 1515.27 377.808C1516 380.113 1515.82 382.615 1514.76 384.782C1511.24 393.317 1493.44 399.363 1482.92 388.964C1482.92 388.964 1452.99 392.976 1453.59 371.511C1453.59 371.511 1439.67 362.379 1454.29 344.641C1468.92 326.902 1455.06 320.573 1455.06 320.573Z" fill="#66415C"/>
<path d="M1454.1 368.298C1458.81 366.882 1472.49 364.233 1485.5 376.428C1486.59 377.443 1487.38 378.741 1487.78 380.179C1488.19 381.617 1488.2 383.142 1487.82 384.587C1484.32 397.66 1475.1 436.257 1483.19 452.97C1483.19 452.97 1468.93 468.919 1453.39 456.072C1453.39 456.072 1446.42 425.195 1437.28 411.654C1430.98 402.292 1447.34 376.513 1451.48 370.295C1452.1 369.341 1453.03 368.635 1454.1 368.298Z" fill="#5653E5"/>
<path d="M1467.47 343.521C1467.47 343.521 1474.53 362.759 1475.04 371.251C1472.53 372.202 1469.81 372.485 1467.15 372.072C1464.5 371.659 1462.01 370.565 1459.93 368.903C1459.93 368.903 1459.17 349.679 1458.06 346.238L1467.47 343.521Z" fill="#E6A189"/>
<path d="M1456.94 316.234C1456.94 316.234 1439.01 342.067 1449.71 349.559C1460.41 357.052 1473.25 338.711 1473.25 338.711C1473.25 338.711 1477.39 324.548 1473.06 319.775C1468.73 315.002 1456.94 316.234 1456.94 316.234Z" fill="#FDBEA5"/>
<path d="M1465.14 309.913C1465.14 309.913 1456.69 311.892 1455.52 315.668C1454.35 319.444 1467.48 322.941 1471.16 323.108L1474.15 338.296C1474.15 338.296 1482.93 323.972 1479.45 315.696C1475.97 307.419 1465.14 309.913 1465.14 309.913Z" fill="#66435C"/>
<path d="M1469.81 336.272C1469.81 336.272 1476.91 328.305 1479.73 333.557C1482.56 338.81 1473.34 342.651 1470.16 340.1L1469.81 336.272Z" fill="#FDBEA5"/>
<path d="M1434.56 521.159C1434.56 522.557 1432.18 533.52 1430.87 539.337C1430.33 541.693 1430.7 544.163 1431.9 546.259L1477.74 623.32C1478.29 624.25 1478.69 625.259 1478.94 626.312C1480.57 633.03 1481.13 639.961 1480.6 646.853L1478.24 651.775L1488.5 649.454L1490.71 621.963L1487.81 620.202C1485.3 618.677 1483.34 616.389 1482.21 613.671C1478.02 603.618 1467.78 578.015 1465.12 565.542C1462.11 551.363 1446.35 539.855 1446.35 539.855L1449.15 533.311L1434.56 521.159Z" fill="#E6A189"/>
<path d="M1499.85 640.852C1499.85 640.852 1494.23 631.958 1493.64 628.497C1493.05 625.036 1491.17 618.923 1487.74 620.767C1487.74 620.767 1486.12 637.589 1486.68 644.157C1487.25 650.724 1479.32 650.511 1479.32 650.511C1477.9 650.768 1476.59 651.439 1475.54 652.44C1475.3 652.699 1475.14 653.022 1475.07 653.371C1475 653.72 1475.04 654.08 1475.17 654.41C1475.3 654.741 1475.52 655.027 1475.8 655.235C1476.09 655.444 1476.42 655.567 1476.78 655.589C1480.47 655.844 1484.17 655.634 1487.81 654.965C1488.54 654.822 1489.21 654.436 1489.7 653.868C1490.2 653.301 1490.49 652.584 1490.54 651.83L1491.67 632.469L1498.7 641.405L1499.85 640.852Z" fill="#3B3F6D"/>
<path d="M1462.45 533.467C1462.45 533.467 1464.07 603.014 1464.29 612.891C1464.52 622.768 1462.73 644.666 1452.83 651.199L1457.14 654.388C1461.34 650.48 1464.93 645.967 1467.8 640.997C1473.71 631.121 1475.5 629.3 1475.5 629.3L1473.54 625.279C1472.68 623.529 1472.43 621.544 1472.82 619.635C1474.95 609.279 1482.09 574.822 1484.11 567.429C1486.41 558.667 1486.58 546.984 1478.58 537.192C1470.58 527.399 1462.45 533.467 1462.45 533.467Z" fill="#FDBEA5"/>
<path d="M1471.42 656.999C1471.57 657.001 1471.71 656.948 1471.82 656.852C1471.94 656.755 1472.01 656.621 1472.03 656.475C1472.36 654.15 1473.75 644.807 1474.88 642.383C1476.17 639.547 1480.41 627.951 1474.88 626.958C1474.88 626.958 1461.12 646.99 1458.47 649.641C1457.7 650.404 1456.71 650.906 1455.64 651.077C1454.57 651.247 1453.47 651.077 1452.5 650.591C1450.72 651.221 1449.15 652.342 1447.99 653.824C1447.78 654.091 1447.65 654.41 1447.62 654.745C1447.58 655.081 1447.64 655.419 1447.79 655.722C1447.94 656.025 1448.17 656.282 1448.45 656.462C1448.74 656.643 1449.07 656.74 1449.41 656.744L1458.67 656.829C1459.99 656.842 1461.28 656.457 1462.37 655.725C1463.46 654.994 1464.3 653.951 1464.79 652.732C1466.43 648.677 1469.23 642.723 1472.49 640.072L1470.79 656.262C1470.77 656.353 1470.77 656.448 1470.8 656.538C1470.82 656.629 1470.86 656.713 1470.92 656.784C1470.98 656.855 1471.06 656.912 1471.15 656.949C1471.23 656.986 1471.33 657.004 1471.42 656.999Z" fill="#3B3F6D"/>
<path d="M1450.36 448.671C1450.36 448.671 1452.44 455.301 1449.24 466.21L1429.4 535.414C1429.25 535.938 1429.31 536.5 1429.56 536.984C1429.81 537.469 1430.24 537.839 1430.75 538.02C1436.67 540.145 1456.17 546.166 1482.77 544.325C1483.42 544.282 1484.04 544.03 1484.54 543.606C1485.03 543.182 1485.38 542.609 1485.52 541.973L1494.49 501.64C1499.18 480.56 1504.41 457.837 1481.37 444.095C1470.76 448.657 1460.86 451.335 1450.36 448.671Z" fill="#3B3F6D"/>
<path d="M1487.18 379.102C1487.18 379.102 1509.45 397.884 1514.98 423.538C1520.51 449.192 1482.43 451.932 1482.43 451.932C1482.43 451.932 1477.27 446.083 1471.12 448.17C1464.98 450.257 1470.65 437.948 1477.83 437.977C1485.01 438.005 1481.68 443.769 1491.82 439.098C1501.71 434.555 1507.83 420.486 1482.59 399.176C1481.12 397.943 1479.98 396.357 1479.27 394.562C1474.37 382.04 1478.26 373.834 1487.18 379.102Z" fill="#FDBEA5"/>
<path d="M1162.86 146.714H1167.89V179.143H1186.94V183.746H1162.86V146.714Z" fill="#7A9AEB"/>
<path d="M1192.7 146.714H1197.73V183.746H1192.7V146.714Z" fill="#7A9AEB"/>
<path d="M1223.99 184.169C1220.47 184.169 1217.29 183.358 1214.44 181.735C1211.63 180.078 1209.42 177.821 1207.81 174.964C1206.2 172.072 1205.4 168.827 1205.4 165.23C1205.4 161.632 1206.2 158.405 1207.81 155.548C1209.42 152.656 1211.64 150.399 1214.49 148.777C1217.34 147.119 1220.52 146.29 1224.04 146.29C1226.79 146.29 1229.3 146.784 1231.58 147.772C1233.86 148.724 1235.8 150.152 1237.41 152.057L1234.14 155.39C1231.5 152.462 1228.2 150.999 1224.24 150.999C1221.63 150.999 1219.27 151.616 1217.16 152.85C1215.05 154.085 1213.39 155.795 1212.18 157.982C1211.01 160.133 1210.42 162.549 1210.42 165.23C1210.42 167.91 1211.01 170.344 1212.18 172.53C1213.39 174.682 1215.05 176.375 1217.16 177.609C1219.27 178.843 1221.63 179.461 1224.24 179.461C1228.16 179.461 1231.46 177.979 1234.14 175.017L1237.41 178.35C1235.8 180.254 1233.84 181.7 1231.53 182.688C1229.25 183.675 1226.74 184.169 1223.99 184.169Z" fill="#7A9AEB"/>
<path d="M1270.11 179.143V183.746H1244.58V146.714H1269.4V151.316H1249.6V162.69H1267.24V167.187H1249.6V179.143H1270.11Z" fill="#7A9AEB"/>
<path d="M1308.5 146.714V183.746H1304.38L1283.27 156.13V183.746H1278.24V146.714H1282.37L1303.47 174.329V146.714H1308.5Z" fill="#7A9AEB"/>
<path d="M1329.28 184.169C1326.63 184.169 1324.07 183.746 1321.59 182.899C1319.14 182.018 1317.22 180.889 1315.81 179.514L1317.67 175.387C1319.01 176.657 1320.72 177.697 1322.8 178.508C1324.91 179.284 1327.07 179.672 1329.28 179.672C1332.19 179.672 1334.37 179.161 1335.81 178.138C1337.25 177.08 1337.97 175.687 1337.97 173.959C1337.97 172.689 1337.57 171.666 1336.77 170.89C1336 170.079 1335.02 169.462 1333.85 169.039C1332.71 168.615 1331.09 168.139 1328.98 167.61C1326.33 166.94 1324.19 166.27 1322.54 165.6C1320.94 164.93 1319.55 163.907 1318.37 162.532C1317.23 161.121 1316.67 159.234 1316.67 156.871C1316.67 154.896 1317.15 153.115 1318.12 151.528C1319.13 149.941 1320.64 148.671 1322.65 147.719C1324.66 146.766 1327.15 146.29 1330.13 146.29C1332.21 146.29 1334.25 146.572 1336.26 147.137C1338.27 147.701 1340 148.512 1341.44 149.57L1339.78 153.803C1338.31 152.815 1336.73 152.074 1335.06 151.581C1333.38 151.052 1331.74 150.787 1330.13 150.787C1327.29 150.787 1325.14 151.334 1323.7 152.427C1322.29 153.52 1321.59 154.931 1321.59 156.659C1321.59 157.929 1321.99 158.969 1322.8 159.781C1323.6 160.557 1324.59 161.174 1325.76 161.632C1326.97 162.055 1328.59 162.514 1330.64 163.008C1333.28 163.678 1335.41 164.348 1337.02 165.018C1338.63 165.688 1340 166.711 1341.14 168.086C1342.31 169.462 1342.9 171.314 1342.9 173.641C1342.9 175.581 1342.4 177.362 1341.39 178.984C1340.39 180.572 1338.86 181.841 1336.82 182.794C1334.77 183.711 1332.26 184.169 1329.28 184.169Z" fill="#7A9AEB"/>
<path d="M1375.77 179.143V183.746H1350.24V146.714H1375.07V151.316H1355.27V162.69H1372.9V167.187H1355.27V179.143H1375.77Z" fill="#7A9AEB"/>
<path fill-rule="evenodd" clip-rule="evenodd" d="M987 605.698L980.666 536.012L967.18 536.583L963.876 547.437L964.155 558.573H960.573L958.098 569.716L959.2 458.328L961.124 455.761L953.966 450.048L949.562 415.49L945.714 445.761L938.278 416.916L924.446 224.111L936.496 220.141L924.106 217.568L922.732 215L922.04 223.851L903.599 424.63L895.613 444.336L890.936 415.49L885.981 446.332L881.849 453.758L884.329 455.761L883.778 503.74L877.45 516.018L838.627 515.447L838.905 500.029L836.424 490.318L836.152 481.461L836.424 490.318L832.298 500.883V515.736L824.318 540.294H824V607L987 605.698Z" fill="#EAECF3"/>
<g clip-path="url(#clip0_205_45)">
<path fill-rule="evenodd" clip-rule="evenodd" d="M1758.19 605.882L1759.31 518.492L1253.8 515.856L1133.52 450.195L1115.74 461.574L1083.08 440.099L1068.92 488.686L916.992 466.351L905.853 568.685L906.029 575.793H903.747L902.173 582.906L854.794 540.791L850.756 548.628L826.011 548.263L826.186 538.42L824.606 532.219L824.431 526.57L824.606 532.219L821.979 538.967V548.446L816.888 564.125H809.165V553.917L804.629 528.994L801.186 553.917L801.01 564.125H799.34L796.905 567.92L785.274 568.179L785.161 563.137L786.01 562.302L780.744 557.924L772.675 543.968L772.59 540.05L778.989 538.42L771.588 535.996V544.021L764.951 557.742L759.9 562.354L760.563 563.213L760.919 569.78L752.918 570.103L753.02 579.258L742.301 579.152C741.95 560.436 742.652 540.379 742.301 521.657C743.682 521.375 744.3 521.71 745.121 520.369C743.224 518.139 740.058 515.721 739.809 512.685C739.413 507.937 736.751 505.978 733.541 504.689C733.597 502.2 733.66 499.706 733.716 497.217C733.014 497.093 732.312 495.97 731.61 495.846C731.61 491.292 731.61 487.733 731.61 483.179C730.557 480.26 729.503 477.342 728.45 474.424C728.393 469.805 728.337 465.186 728.275 460.568C728.688 460.021 729.096 459.473 729.503 458.926C728.603 458.397 728.597 457.567 728.558 456.802C728.433 454.496 726.995 452.06 724.945 451.089L725.12 421.553L734.067 420.277L725.12 418.088L724.243 416.629C723.829 428.055 723.512 439.752 723.099 451.183C720.8 452.172 719.645 453.537 718.801 456.196C718.524 457.061 718.801 458.744 717.748 459.291C718.274 459.838 718.801 460.385 719.328 460.933C719.328 465.798 719.328 469.564 719.328 474.424C718.274 477.466 717.221 479.407 716.168 482.449C716.111 486.638 716.066 491.928 716.009 496.123C715.075 496.181 714.866 497.099 713.926 497.164C713.926 499.959 713.886 502.442 713.886 505.236C710.998 506.572 707.612 508.925 706.864 515.233C706.445 518.81 705.284 519.198 703.008 522.01C703.642 523.811 704.367 524.329 705.551 524.652L705.641 564.673L702.312 564.855L702.136 554.465L702.833 552.823L684.412 527.117L667.215 554.647V541.697L665.108 541.156L665.284 526.206H663.353L663.002 554.1L660.018 556.288V565.22L647.039 565.767L647.384 608.064L1758.19 605.882Z" fill="#EAECF3"/>
</g>
<g clip-path="url(#clip1_205_45)">
<rect x="629" y="564" width="40" height="53" fill="#EAECF3"/>
<rect x="554" y="580" width="75" height="37" fill="#EAECF3"/>
<rect x="505" y="557" width="75" height="76" fill="#EAECF3"/>
<rect x="453" y="585" width="75" height="33" fill="#EAECF3"/>
<rect x="459" y="569" width="17" height="77" fill="#EAECF3"/>
<rect x="467" y="552" width="17" height="77" fill="#EAECF3"/>
<rect x="485" y="575" width="17" height="77" fill="#EAECF3"/>
<rect x="391" y="593" width="62" height="77" fill="#EAECF3"/>
<rect x="367" y="569" width="32" height="77" fill="#EAECF3"/>
<rect x="413" y="541" width="32" height="77" fill="#EAECF3"/>
<rect x="283" y="583" width="88" height="77" fill="#EAECF3"/>
<rect x="263" y="565" width="88" height="77" fill="#EAECF3"/>
<rect x="315" y="552" width="20" height="90" fill="#EAECF3"/>
<rect x="290" y="555" width="20" height="90" fill="#EAECF3"/>
<rect x="244" y="578" width="20" height="90" fill="#EAECF3"/>
<rect x="228" y="581" width="20" height="90" fill="#EAECF3"/>
<rect x="15" y="597" width="233" height="70" fill="#EAECF3"/>
<rect x="196" y="591" width="23" height="70" fill="#EAECF3"/>
<rect x="167" y="592" width="23" height="70" fill="#EAECF3"/>
<rect x="152" y="583" width="9" height="88" fill="#EAECF3"/>
<rect x="143" y="587" width="9" height="88" fill="#EAECF3"/>
<rect x="96" y="585" width="36" height="88" fill="#EAECF3"/>
<rect x="45" y="567" width="40" height="104" fill="#EAECF3"/>
<rect x="-6" y="549" width="40" height="104" fill="#EAECF3"/>
<rect x="250" y="571" width="3" height="64" fill="#EAECF3"/>
<path d="M134 561H143V649H134V561Z" fill="#EAECF3"/>
</g>
<defs>
<linearGradient id="paint0_linear_205_45" x1="1153.53" y1="338.339" x2="1166.99" y2="309.661" gradientUnits="userSpaceOnUse">
<stop stop-color="#FEBBBA"/>
<stop offset="1" stop-color="#FF928E"/>
</linearGradient>
<clipPath id="clip0_205_45">
<rect width="255" height="190" fill="white" transform="translate(647 413)"/>
</clipPath>
<clipPath id="clip1_205_45">
<rect width="675" height="66" fill="white" transform="translate(-6 537)"/>
</clipPath>
</defs>
</svg>
