<svg width="117" height="41" viewBox="0 0 117 41" fill="none" xmlns="http://www.w3.org/2000/svg">
<path d="M52.985 9.95883V10.6865H56.2595V9.86787C56.2595 9.23723 56.1806 8.6733 56.023 8.17606C55.8774 7.6667 55.6349 7.23617 55.2953 6.88447C54.9679 6.52064 54.5373 6.2417 54.0037 6.04766C53.4701 5.85362 52.8213 5.7566 52.0572 5.7566C51.184 5.7566 50.4503 5.87787 49.8561 6.12043C49.2618 6.35085 48.7828 6.73287 48.4189 7.26649C48.0551 7.80011 47.7944 8.49745 47.6367 9.35851C47.4912 10.2196 47.4184 11.2686 47.4184 12.5056C47.4184 13.7184 47.479 14.7553 47.6003 15.6164C47.7337 16.4653 47.9702 17.1627 48.3098 17.7084C48.6494 18.242 49.1223 18.624 49.7287 18.8545C50.3351 19.0849 51.1113 19.2001 52.0572 19.2001C52.603 19.2001 53.1305 19.1395 53.6399 19.0182C54.1614 18.909 54.6222 18.6907 55.0224 18.3633C55.4227 18.0237 55.744 17.5629 55.9866 16.9807C56.2291 16.3986 56.3504 15.6528 56.3504 14.7432V13.779H53.076C53.076 14.3976 53.0578 14.913 53.0214 15.3253C52.9971 15.7255 52.9486 16.0469 52.8759 16.2895C52.8031 16.532 52.7 16.7079 52.5666 16.817C52.4332 16.914 52.2634 16.9626 52.0572 16.9626C51.8026 16.9626 51.5964 16.8959 51.4387 16.7624C51.2932 16.629 51.178 16.3926 51.0931 16.053C51.0203 15.7134 50.9718 15.2586 50.9476 14.6886C50.9233 14.1065 50.9112 13.3788 50.9112 12.5056C50.9112 11.6324 50.9233 10.9109 50.9476 10.3409C50.9718 9.75872 51.0203 9.29787 51.0931 8.9583C51.178 8.61872 51.2932 8.38223 51.4387 8.24883C51.5964 8.11543 51.8026 8.04872 52.0572 8.04872C52.3847 8.04872 52.6212 8.18213 52.7667 8.44894C52.9122 8.71574 52.985 9.21904 52.985 9.95883ZM61.3187 11.5051V8.44894H61.9736C62.4829 8.44894 62.8468 8.56415 63.0651 8.79457C63.2955 9.025 63.4107 9.41308 63.4107 9.95883C63.4107 10.4197 63.2955 10.7956 63.0651 11.0867C62.8346 11.3656 62.4769 11.5051 61.9918 11.5051H61.3187ZM57.9351 6.01128V19H61.3187V13.7972H62.2101C62.4162 13.7972 62.586 13.8276 62.7194 13.8882C62.865 13.9367 62.9802 14.0337 63.0651 14.1793C63.1621 14.3127 63.2288 14.5006 63.2652 14.7432C63.3016 14.9857 63.3198 15.2889 63.3198 15.6528V16.526C63.3198 16.6594 63.3198 16.8352 63.3198 17.0535C63.3319 17.2597 63.344 17.478 63.3561 17.7084C63.3804 17.9388 63.4107 18.1693 63.4471 18.3997C63.4956 18.6301 63.5623 18.8302 63.6472 19H67.2491V18.8181C67.14 18.7574 67.0611 18.6968 67.0126 18.6362C66.9641 18.5634 66.9156 18.4906 66.8671 18.4179C66.8307 18.3451 66.8004 18.242 66.7761 18.1086C66.7519 17.9752 66.7337 17.8297 66.7216 17.672C66.7094 17.5022 66.7034 17.3264 66.7034 17.1445C66.7034 16.9626 66.7034 16.7867 66.7034 16.6169V15.5072C66.7034 14.634 66.5518 13.9488 66.2486 13.4516C65.9454 12.9544 65.3875 12.6694 64.575 12.5966V12.5602C65.3511 12.4389 65.9151 12.1115 66.2668 11.5779C66.6185 11.0443 66.7943 10.3409 66.7943 9.46766C66.7943 8.97043 66.7276 8.50957 66.5942 8.08511C66.4729 7.66064 66.2668 7.29681 65.9757 6.99362C65.6968 6.6783 65.3269 6.43574 64.866 6.26596C64.4173 6.09617 63.8716 6.01128 63.2288 6.01128H57.9351ZM70.5205 13.8882V19H73.9041V13.8882L77.2149 6.01128H73.5039L72.2305 10.541H72.1941L70.9207 6.01128H67.2642L70.5205 13.8882ZM81.3541 11.6143V8.44894H81.9908C82.864 8.44894 83.3005 8.97649 83.3005 10.0316C83.3005 10.5773 83.1853 10.9776 82.9549 11.2322C82.7366 11.4869 82.4152 11.6143 81.9908 11.6143H81.3541ZM77.9704 6.01128V19H81.3541V14.0519H82.5365C83.9312 14.0519 84.9863 13.7184 85.7018 13.0514C86.4295 12.3722 86.7933 11.3596 86.7933 10.0134C86.7933 9.4434 86.7205 8.91585 86.575 8.43074C86.4295 7.94564 86.1991 7.52723 85.8837 7.17553C85.5805 6.8117 85.1925 6.5267 84.7195 6.32053C84.2465 6.11436 83.6886 6.01128 83.0459 6.01128H77.9704ZM89.9424 8.88553V19H93.326V8.88553H95.8729V6.01128H87.432V8.88553H89.9424ZM100.11 12.5056C100.11 11.6324 100.122 10.9109 100.146 10.3409C100.171 9.75872 100.219 9.29787 100.292 8.9583C100.377 8.61872 100.492 8.38223 100.637 8.24883C100.795 8.11543 101.001 8.04872 101.256 8.04872C101.511 8.04872 101.711 8.11543 101.856 8.24883C102.014 8.38223 102.129 8.61872 102.202 8.9583C102.287 9.29787 102.341 9.75872 102.366 10.3409C102.39 10.9109 102.402 11.6324 102.402 12.5056C102.402 13.3788 102.39 14.1065 102.366 14.6886C102.341 15.2586 102.287 15.7134 102.202 16.053C102.129 16.3926 102.014 16.629 101.856 16.7624C101.711 16.8959 101.511 16.9626 101.256 16.9626C101.001 16.9626 100.795 16.8959 100.637 16.7624C100.492 16.629 100.377 16.3926 100.292 16.053C100.219 15.7134 100.171 15.2586 100.146 14.6886C100.122 14.1065 100.11 13.3788 100.11 12.5056ZM96.6171 12.5056C96.6171 13.7184 96.696 14.7553 96.8536 15.6164C97.0113 16.4653 97.272 17.1627 97.6359 17.7084C97.9997 18.242 98.4787 18.624 99.073 18.8545C99.6672 19.0849 100.395 19.2001 101.256 19.2001C102.117 19.2001 102.845 19.0849 103.439 18.8545C104.033 18.624 104.512 18.242 104.876 17.7084C105.24 17.1627 105.501 16.4653 105.658 15.6164C105.816 14.7553 105.895 13.7184 105.895 12.5056C105.895 11.2929 105.816 10.262 105.658 9.41309C105.501 8.55202 105.24 7.85468 104.876 7.32106C104.512 6.77532 104.033 6.38117 103.439 6.13862C102.845 5.88394 102.117 5.7566 101.256 5.7566C100.395 5.7566 99.6672 5.88394 99.073 6.13862C98.4787 6.38117 97.9997 6.77532 97.6359 7.32106C97.272 7.85468 97.0113 8.55202 96.8536 9.41309C96.696 10.262 96.6171 11.2929 96.6171 12.5056Z" fill="#5653E6"/>
<path d="M47.8004 23.0113V36H55.3499V33.2349H51.184V23.0113H47.8004ZM56.4576 23.0113V36H59.8412V23.0113H56.4576ZM66.8589 26.9588V27.6865H70.1333V26.8679C70.1333 26.2372 70.0545 25.6733 69.8968 25.1761C69.7513 24.6667 69.5087 24.2362 69.1692 23.8845C68.8417 23.5206 68.4112 23.2417 67.8776 23.0477C67.344 22.8536 66.6951 22.7566 65.9311 22.7566C65.0579 22.7566 64.3242 22.8779 63.7299 23.1204C63.1357 23.3509 62.6566 23.7329 62.2928 24.2665C61.929 24.8001 61.6682 25.4974 61.5106 26.3585C61.365 27.2196 61.2923 28.2686 61.2923 29.5056C61.2923 30.7184 61.3529 31.7553 61.4742 32.6164C61.6076 33.4653 61.8441 34.1627 62.1836 34.7084C62.5232 35.242 62.9962 35.624 63.6026 35.8545C64.209 36.0849 64.9851 36.2001 65.9311 36.2001C66.4768 36.2001 67.0044 36.1395 67.5137 36.0182C68.0352 35.909 68.4961 35.6907 68.8963 35.3633C69.2965 35.0237 69.6179 34.5629 69.8604 33.9807C70.103 33.3986 70.2243 32.6528 70.2243 31.7432V30.779H66.9498C66.9498 31.3976 66.9316 31.913 66.8952 32.3253C66.871 32.7255 66.8225 33.0469 66.7497 33.2895C66.6769 33.532 66.5739 33.7079 66.4404 33.817C66.307 33.914 66.1373 33.9626 65.9311 33.9626C65.6764 33.9626 65.4702 33.8959 65.3126 33.7624C65.167 33.629 65.0518 33.3926 64.9669 33.053C64.8942 32.7134 64.8457 32.2586 64.8214 31.6886C64.7972 31.1065 64.785 30.3788 64.785 29.5056C64.785 28.6324 64.7972 27.9109 64.8214 27.3409C64.8457 26.7587 64.8942 26.2979 64.9669 25.9583C65.0518 25.6187 65.167 25.3822 65.3126 25.2488C65.4702 25.1154 65.6764 25.0487 65.9311 25.0487C66.2585 25.0487 66.495 25.1821 66.6406 25.4489C66.7861 25.7157 66.8589 26.219 66.8589 26.9588ZM71.8089 23.0113V36H79.6676V33.2349H75.1925V30.6517H79.2311V27.9957H75.1925V25.7764H79.5039V23.0113H71.8089ZM81.2685 23.0113V36H84.4338V27.9776H84.4702L86.7259 36H90.437V23.0113H87.2717V31.0155H87.2353L85.0523 23.0113H81.2685ZM97.4552 26.7587H100.621C100.621 25.364 100.287 24.3514 99.62 23.7207C98.9651 23.078 97.8979 22.7566 96.4183 22.7566C94.9873 22.7566 93.92 23.1022 93.2166 23.7935C92.5132 24.4848 92.1615 25.4914 92.1615 26.8133C92.1615 27.5773 92.2888 28.1959 92.5435 28.6688C92.8103 29.1418 93.1378 29.5238 93.5259 29.8149C93.9261 30.106 94.3566 30.3424 94.8175 30.5244C95.2783 30.7063 95.7028 30.8882 96.0909 31.0701C96.4911 31.2399 96.8185 31.4521 97.0732 31.7068C97.34 31.9494 97.4734 32.2829 97.4734 32.7073C97.4734 33.059 97.3764 33.3562 97.1824 33.5987C97.0004 33.8413 96.7336 33.9626 96.3819 33.9626C96.0545 33.9626 95.7877 33.8534 95.5815 33.6351C95.3753 33.4047 95.2723 33.0105 95.2723 32.4527V32.1434H91.9978V32.5982C91.9978 33.2773 92.0948 33.8473 92.2888 34.3082C92.4829 34.769 92.7618 35.145 93.1257 35.4361C93.5016 35.715 93.9564 35.909 94.49 36.0182C95.0358 36.1395 95.6603 36.2001 96.3637 36.2001C97.8554 36.2001 98.9954 35.8909 99.7837 35.2723C100.572 34.6417 100.966 33.6351 100.966 32.2526C100.966 31.4643 100.827 30.8276 100.548 30.3424C100.281 29.8452 99.9414 29.445 99.5291 29.1418C99.1167 28.8386 98.6741 28.5961 98.2011 28.4141C97.7281 28.2201 97.2854 28.0321 96.8731 27.8502C96.4608 27.6683 96.1151 27.4561 95.8362 27.2135C95.5694 26.9588 95.436 26.6193 95.436 26.1948C95.436 25.9037 95.5209 25.643 95.6907 25.4126C95.8604 25.17 96.1273 25.0487 96.4911 25.0487C96.8185 25.0487 97.0611 25.1882 97.2187 25.4671C97.3764 25.7339 97.4552 26.0614 97.4552 26.4495V26.7587ZM102.533 23.0113V36H110.391V33.2349H105.916V30.6517H109.955V27.9957H105.916V25.7764H110.228V23.0113H102.533Z" fill="#43464B"/>
<path d="M20.3138 40.6277C31.5328 40.6277 40.6277 31.5328 40.6277 20.3138C40.6277 9.09481 31.5328 0 20.3138 0C9.09481 0 0 9.09481 0 20.3138C0 31.5328 9.09481 40.6277 20.3138 40.6277Z" fill="#5653E6"/>
<path d="M14.541 17.587V18.747H19.761V17.442C19.761 16.4367 19.6353 15.5377 19.384 14.745C19.152 13.933 18.7653 13.2467 18.224 12.686C17.702 12.106 17.0157 11.6613 16.165 11.352C15.3143 11.0427 14.28 10.888 13.062 10.888C11.67 10.888 10.5003 11.0813 9.553 11.468C8.60567 11.8353 7.842 12.4443 7.262 13.295C6.682 14.1457 6.26633 15.2573 6.015 16.63C5.783 18.0027 5.667 19.675 5.667 21.647C5.667 23.5803 5.76367 25.2333 5.957 26.606C6.16967 27.9593 6.54667 29.071 7.088 29.941C7.62933 30.7917 8.38333 31.4007 9.35 31.768C10.3167 32.1353 11.554 32.319 13.062 32.319C13.932 32.319 14.773 32.2223 15.585 32.029C16.4163 31.855 17.151 31.507 17.789 30.985C18.427 30.4437 18.9393 29.709 19.326 28.781C19.7127 27.853 19.906 26.664 19.906 25.214V23.677H14.686C14.686 24.663 14.657 25.4847 14.599 26.142C14.5603 26.78 14.483 27.2923 14.367 27.679C14.251 28.0657 14.0867 28.346 13.874 28.52C13.6613 28.6747 13.3907 28.752 13.062 28.752C12.656 28.752 12.3273 28.6457 12.076 28.433C11.844 28.2203 11.6603 27.8433 11.525 27.302C11.409 26.7607 11.3317 26.0357 11.293 25.127C11.2543 24.199 11.235 23.039 11.235 21.647C11.235 20.255 11.2543 19.1047 11.293 18.196C11.3317 17.268 11.409 16.5333 11.525 15.992C11.6603 15.4507 11.844 15.0737 12.076 14.861C12.3273 14.6483 12.656 14.542 13.062 14.542C13.584 14.542 13.961 14.7547 14.193 15.18C14.425 15.6053 14.541 16.4077 14.541 17.587ZM22.4322 11.294V32H34.4672V27.592H27.8262V11.294H22.4322Z" fill="white"/>
</svg>
