<svg width="446" height="454" viewBox="0 0 446 454" fill="none" xmlns="http://www.w3.org/2000/svg">
<g clip-path="url(#clip0_2_1297)">
<path d="M394.302 405.244C385.146 412.705 376.479 417.509 369.632 421.314C289.156 465.982 193.928 452.962 173.689 449.746C143.795 445.118 86.0816 436.01 44.2734 398.058C-18.9183 340.575 -9.0776 250.012 39.9399 190.205C48.91 179.274 96.2646 118.585 192.539 108.829C250.791 102.947 318.727 114.82 367.862 146.684C471.052 213.589 463.666 348.722 394.302 405.244Z" fill="#F6F9FD"/>
<path d="M241.469 5.15716C220.926 4.99049 200.198 8.26514 181.857 15.8831C139.169 33.6388 102.946 80.5918 117.12 128.584C121.727 144.173 119.301 161.36 134.796 168.135C143.179 171.802 166.001 174.017 174.677 171.076C197.743 163.399 212.905 142.389 200.365 119.113C196.344 111.652 191.15 104.838 187.648 97.1023C184.146 89.3667 182.601 80.1898 186.132 72.4934C193.077 57.3751 216.143 52.571 231.129 53.022C239.763 53.1893 248.221 55.4953 255.75 59.7343C263.278 63.9734 269.643 70.0139 274.277 77.3171C286.114 96.0238 289.117 118.79 287.385 140.506C285.527 163.742 275.755 181.498 261.101 199.332C248.463 214.715 234.592 229.422 226.209 247.432C218.51 263.982 215.996 282.316 215.644 300.376C215.576 303.886 198.164 336.946 198.242 347.044C198.242 348.476 217.982 353.202 219.41 353.211L255.604 353.613C256.367 353.614 257.1 353.316 257.648 352.783C258.196 352.251 258.515 351.525 258.538 350.76C259.086 301.621 274.189 254.766 312.339 221.755C326.23 209.744 341.196 199.97 351.995 184.802C367.392 163.233 374.983 141.938 372.792 115.27C370.835 90.9158 362.785 66.552 346.948 47.6198C329.966 27.4522 305.052 14.7066 279.159 9.24558C266.762 6.63368 254.136 5.26414 241.469 5.15716Z" fill="#5071B2"/>
<path d="M279.354 408.755C279.354 431.305 266.852 451.345 244.305 451.345C239.414 451.345 222.873 451.345 218.539 449.825C202.819 444.129 202.761 432.03 202.761 414.314C202.761 391.764 210.371 369.488 232.919 369.488C255.466 369.488 279.354 386.156 279.354 408.755Z" fill="#5170B0"/>
<path d="M221.944 0.000914691C201.402 -0.165759 180.674 3.10889 162.333 10.7269C119.644 28.4825 83.4215 75.4944 97.5956 123.438C102.203 139.027 112.846 158.645 128.34 165.42C136.724 169.087 146.476 168.842 155.163 165.949C178.228 158.272 193.391 137.262 180.85 113.986C176.83 106.525 171.635 99.7111 168.133 91.9755C164.632 84.2398 163.086 75.063 166.617 67.3666C173.562 52.2483 196.628 47.4441 211.614 47.8951C220.248 48.0624 228.706 50.3684 236.235 54.6075C243.764 58.8466 250.129 64.887 254.763 72.1903C266.599 90.897 269.602 113.663 267.871 135.379C266.012 158.616 256.24 176.371 241.586 194.205C228.968 209.559 215.077 224.285 206.694 242.315C198.996 258.865 196.482 277.199 196.13 295.259C196.061 298.769 197.245 335.408 197.313 345.506C197.318 346.192 197.592 346.848 198.075 347.334C198.558 347.82 199.211 348.096 199.896 348.104L236.089 348.506C236.852 348.506 237.586 348.209 238.134 347.676C238.681 347.143 239.001 346.418 239.024 345.653C239.571 296.514 254.675 249.659 292.825 216.648C306.715 204.637 321.681 194.862 332.481 179.695C347.878 158.125 355.468 136.83 353.277 110.163C351.321 85.8085 343.27 61.4447 327.433 42.5126C310.442 22.2568 285.527 9.56995 259.634 4.09913C247.238 1.484 234.612 0.111175 221.944 0.000914691Z" fill="#7494E5"/>
<path d="M224.076 450.08C246.621 450.08 264.896 431.762 264.896 409.166C264.896 386.57 246.621 368.253 224.076 368.253C201.532 368.253 183.256 386.57 183.256 409.166C183.256 431.762 201.532 450.08 224.076 450.08Z" fill="#7393E4"/>
<path opacity="0.63" d="M111.105 118.728C110.986 118.727 110.871 118.685 110.779 118.611C110.687 118.536 110.622 118.432 110.596 118.317C107.74 105.365 107.319 85.0896 121.561 62.0298C135.462 39.4798 154.967 24.4497 179.53 17.2533C205.784 9.55692 236.96 11.204 272.184 22.1555C272.286 22.2172 272.363 22.3113 272.405 22.4227C272.446 22.534 272.449 22.6561 272.413 22.7693C272.377 22.8825 272.304 22.9802 272.206 23.0467C272.107 23.1132 271.99 23.1446 271.871 23.1359C204.209 2.13503 151.142 16.1454 122.452 62.5886C108.395 85.3543 108.757 105.336 111.623 118.101C111.652 118.237 111.626 118.38 111.551 118.497C111.476 118.615 111.358 118.698 111.222 118.728H111.105Z" fill="white"/>
<path opacity="0.63" d="M119.693 139.565C119.611 139.565 119.53 139.546 119.456 139.508C119.383 139.471 119.32 139.416 119.272 139.349C116.882 135.793 114.934 131.957 113.471 127.927C113.443 127.803 113.46 127.672 113.52 127.559C113.581 127.447 113.679 127.359 113.799 127.314C113.918 127.269 114.049 127.268 114.169 127.312C114.289 127.356 114.388 127.443 114.45 127.555C115.89 131.493 117.795 135.245 120.123 138.732C120.178 138.81 120.211 138.902 120.218 138.998C120.224 139.093 120.205 139.189 120.162 139.275C120.119 139.36 120.053 139.433 119.972 139.484C119.891 139.535 119.798 139.563 119.702 139.565H119.693Z" fill="white"/>
<path opacity="0.63" d="M237.702 382.646C237.62 382.645 237.54 382.625 237.467 382.587C233.312 380.486 228.719 379.404 224.066 379.43C223.939 379.412 223.823 379.35 223.74 379.253C223.656 379.157 223.609 379.033 223.609 378.905C223.609 378.777 223.656 378.654 223.74 378.557C223.823 378.461 223.939 378.398 224.066 378.381C228.897 378.367 233.661 379.507 237.966 381.704C238.062 381.763 238.136 381.85 238.179 381.953C238.223 382.057 238.232 382.171 238.206 382.28C238.179 382.389 238.119 382.487 238.034 382.56C237.949 382.633 237.843 382.676 237.731 382.685L237.702 382.646Z" fill="white"/>
<path opacity="0.63" d="M207.163 434.823C207.059 434.824 206.956 434.793 206.87 434.734C202.475 431.764 198.921 427.706 196.551 422.954C194.181 418.202 193.076 412.917 193.342 407.611C193.609 402.305 195.238 397.158 198.073 392.669C200.907 388.179 204.85 384.5 209.52 381.987C209.64 381.942 209.771 381.942 209.89 381.987C210.01 382.032 210.109 382.118 210.169 382.23C210.23 382.343 210.248 382.473 210.221 382.598C210.193 382.722 210.122 382.833 210.019 382.909C205.502 385.334 201.686 388.889 198.943 393.228C196.201 397.568 194.624 402.544 194.366 407.674C194.108 412.804 195.178 417.914 197.472 422.508C199.765 427.102 203.205 431.023 207.457 433.891C207.556 433.952 207.632 434.045 207.674 434.154C207.715 434.263 207.72 434.383 207.686 434.495C207.653 434.607 207.583 434.704 207.489 434.772C207.394 434.841 207.28 434.875 207.163 434.872V434.823Z" fill="white"/>
<g opacity="0.3">
<path opacity="0.3" d="M106.105 112.163C106.242 111.95 106.31 111.7 106.301 111.447C106.301 110.78 106.242 110.094 106.183 109.417C106.157 109.09 106.003 108.786 105.753 108.573C105.504 108.359 105.18 108.254 104.853 108.28C104.526 108.306 104.223 108.461 104.01 108.711C103.797 108.961 103.692 109.286 103.718 109.613C103.767 110.251 103.806 110.908 103.826 111.574C103.834 111.838 103.927 112.092 104.089 112.299C104.252 112.506 104.476 112.656 104.73 112.726C104.984 112.796 105.253 112.783 105.499 112.689C105.744 112.594 105.953 112.424 106.095 112.202L106.105 112.163Z" fill="#91B3FA"/>
</g>
<path d="M90.6107 97.6894C90.574 97.5745 90.5024 97.4741 90.406 97.402C90.3095 97.3299 90.193 97.2899 90.0727 97.2874L83.0492 97.1305C81.3392 94.2688 79.1751 91.7057 76.642 89.542L77.6202 82.5711C77.638 82.4522 77.6183 82.3307 77.5639 82.2235C77.5096 82.1163 77.4233 82.0288 77.317 81.973L69.824 78.1101C69.7168 78.0548 69.595 78.0344 69.4757 78.052C69.3564 78.0696 69.2456 78.1242 69.1588 78.2082L64.082 83.1103C60.8515 82.3019 57.5111 82.0271 54.1924 82.2966L49.9861 76.6591C49.9145 76.5629 49.8149 76.4914 49.7009 76.4545C49.587 76.4176 49.4645 76.4172 49.3503 76.4532L41.3193 79.0317C41.2047 79.0685 41.1044 79.1402 41.0325 79.2369C40.9606 79.3336 40.9206 79.4504 40.9182 79.571L40.7617 86.6105C37.9329 88.3215 35.3992 90.4802 33.2589 93.0029L26.3039 92.0225C26.1853 92.0047 26.0641 92.0244 25.9571 92.0789C25.8502 92.1334 25.7628 92.2199 25.7072 92.3264L21.8531 99.8365C21.7979 99.944 21.7776 100.066 21.7952 100.186C21.8127 100.305 21.8672 100.416 21.9509 100.503L26.8419 105.592C26.0352 108.83 25.7609 112.178 26.03 115.504L20.4054 119.72C20.3094 119.792 20.2381 119.891 20.2013 120.006C20.1645 120.12 20.164 120.243 20.2 120.357L22.7726 128.406C22.8093 128.521 22.8809 128.622 22.9773 128.694C23.0738 128.766 23.1903 128.806 23.3106 128.808L30.3341 128.965C32.044 131.827 34.2081 134.39 36.7413 136.554L35.7631 143.525C35.7454 143.644 35.765 143.765 35.8194 143.872C35.8737 143.979 35.96 144.067 36.0663 144.123L43.5593 147.986C43.6665 148.041 43.7883 148.061 43.9076 148.044C44.027 148.026 44.1378 147.972 44.2245 147.888L49.3014 142.985C52.5318 143.794 55.8722 144.069 59.191 143.799L63.3972 149.437C63.4688 149.533 63.5685 149.604 63.6824 149.641C63.7963 149.678 63.9188 149.679 64.033 149.643L71.9565 147.064C72.071 147.027 72.1713 146.956 72.2432 146.859C72.3151 146.762 72.3551 146.645 72.3575 146.525L72.514 139.485C75.3692 137.771 77.9265 135.602 80.0853 133.063L87.0403 134.044C87.1589 134.062 87.2801 134.042 87.3871 133.987C87.494 133.933 87.5814 133.847 87.637 133.74L91.4911 126.23C91.5463 126.122 91.5666 126 91.549 125.881C91.5315 125.761 91.477 125.65 91.3933 125.563L86.5023 120.475C87.3088 117.237 87.5831 113.889 87.3142 110.562L92.929 106.376C93.025 106.304 93.0963 106.204 93.1331 106.09C93.1699 105.976 93.1704 105.853 93.1345 105.739L90.6107 97.6894Z" fill="#91B3FA"/>
<path d="M63.0056 118.632C61.5444 120.272 59.5058 121.279 57.3187 121.443C55.1316 121.606 52.9663 120.913 51.2785 119.51C49.5907 118.106 48.5119 116.101 48.2689 113.916C48.026 111.731 48.638 109.537 49.976 107.796C51.3141 106.054 53.274 104.9 55.4434 104.577C57.6129 104.254 59.8227 104.787 61.6081 106.064C63.3935 107.341 64.6152 109.262 65.0164 111.423C65.4175 113.584 64.9667 115.817 63.7588 117.652C63.5318 117.996 63.2801 118.324 63.0056 118.632ZM50.1618 113.426C50.2556 114.929 50.8665 116.353 51.8903 117.455C52.9142 118.558 54.2876 119.27 55.7767 119.471C57.2658 119.672 58.7785 119.35 60.0569 118.559C61.3354 117.767 62.3006 116.556 62.7882 115.132C63.2757 113.707 63.2554 112.157 62.7307 110.746C62.2061 109.335 61.2095 108.15 59.9107 107.392C58.612 106.635 57.0914 106.353 55.6081 106.593C54.1248 106.833 52.7704 107.581 51.7758 108.71C51.5619 108.95 51.3657 109.206 51.1889 109.475C50.4253 110.652 50.0647 112.045 50.1618 113.446V113.426Z" fill="#BDD0FB"/>
<path d="M73.9228 124.516C74.3123 123.917 74.6715 123.298 74.9989 122.663L75.3021 122.055C75.7789 121.046 76.1747 120 76.4857 118.927V118.8L76.5542 118.555C76.5798 118.455 76.5737 118.349 76.5369 118.252C76.5002 118.156 76.4344 118.073 76.3488 118.016L76.2118 117.957C76.0847 117.924 75.9498 117.942 75.8363 118.008C75.7227 118.074 75.6398 118.183 75.6053 118.31C74.5485 122.239 72.3158 125.749 69.208 128.368C66.1001 130.987 62.2663 132.589 58.2227 132.957C54.4695 133.308 50.6946 132.573 47.3452 130.84C46.739 130.543 46.148 130.215 45.5746 129.859C43.1398 128.206 41.1022 126.03 39.609 123.49C38.1158 120.951 37.2044 118.11 36.9407 115.174C36.677 112.238 37.0677 109.28 38.0844 106.514C39.1011 103.748 40.7185 101.243 42.8195 99.1801C44.9205 97.1173 47.4527 95.5482 50.2329 94.5865C53.0131 93.6247 55.9718 93.2942 58.895 93.619C61.8183 93.9438 64.633 94.9156 67.1355 96.4643C69.6381 98.013 71.766 100.1 73.3653 102.574C73.3939 102.639 73.4363 102.698 73.4895 102.745C73.5426 102.793 73.6054 102.829 73.6735 102.85C73.7416 102.871 73.8135 102.878 73.8842 102.869C73.955 102.86 74.0231 102.836 74.0838 102.798C74.1446 102.761 74.1966 102.711 74.2363 102.651C74.2761 102.592 74.3027 102.525 74.3143 102.454C74.3259 102.384 74.3223 102.311 74.3037 102.242C74.2851 102.173 74.252 102.109 74.2065 102.054C72.5585 99.4007 70.3373 97.1519 67.7066 95.4736C65.076 93.7952 62.103 92.7301 59.007 92.3568C55.9109 91.9835 52.7708 92.3114 49.818 93.3165C46.8653 94.3216 44.1753 95.9782 41.9464 98.1641C39.7175 100.35 38.0066 103.009 36.9398 105.946C35.873 108.883 35.4775 112.023 35.7825 115.133C36.0876 118.244 37.0853 121.246 38.7022 123.918C40.319 126.591 42.5138 128.866 45.1247 130.575C45.7257 130.965 46.346 131.325 46.9832 131.653C51.5606 134.007 56.8449 134.58 61.8186 133.262C66.7923 131.945 71.1038 128.829 73.9228 124.516Z" fill="#BDD0FB"/>
<g opacity="0.3">
<path opacity="0.3" d="M138.611 58.8266C138.7 58.6885 138.743 58.5252 138.732 58.3609C138.722 58.1966 138.658 58.0402 138.552 57.9148C138.131 57.4245 137.691 56.9343 137.241 56.4637C137.174 56.383 137.091 56.3169 136.997 56.2698C136.904 56.2226 136.801 56.1953 136.697 56.1896C136.592 56.1839 136.487 56.1999 136.389 56.2365C136.291 56.2732 136.201 56.3298 136.125 56.4027C136.05 56.4757 135.99 56.5634 135.95 56.6605C135.91 56.7576 135.89 56.862 135.892 56.9671C135.894 57.0722 135.918 57.1757 135.961 57.2713C136.005 57.3669 136.068 57.4524 136.146 57.5226C136.576 57.9638 136.997 58.4344 137.398 58.905C137.53 59.0584 137.718 59.1528 137.92 59.1675C138.121 59.1822 138.321 59.116 138.474 58.9834C138.526 58.9376 138.572 58.8848 138.611 58.8266Z" fill="#91B3FA"/>
</g>
<g opacity="0.3">
<path opacity="0.3" d="M140.919 97.7779C140.178 98.8876 139.371 99.9516 138.503 100.964C138.444 101.056 138.366 101.134 138.275 101.193C138.184 101.252 138.081 101.29 137.974 101.306C137.866 101.322 137.757 101.315 137.652 101.285C137.548 101.256 137.451 101.204 137.368 101.133C137.285 101.063 137.218 100.976 137.172 100.877C137.125 100.779 137.1 100.672 137.099 100.563C137.097 100.454 137.118 100.346 137.161 100.246C137.204 100.147 137.268 100.057 137.348 99.9839C138.178 99.0183 138.949 98.0033 139.657 96.9445C139.772 96.7844 139.945 96.6752 140.139 96.6397C140.332 96.6042 140.532 96.6452 140.697 96.7542C140.861 96.8631 140.977 97.0315 141.02 97.2242C141.063 97.4168 141.031 97.6187 140.929 97.7877L140.919 97.7779ZM141.897 94.6601C141.729 94.5683 141.602 94.4165 141.54 94.2349C141.478 94.0533 141.487 93.8551 141.564 93.6797C142.139 92.5411 142.646 91.369 143.081 90.1697C143.149 89.9786 143.291 89.8227 143.475 89.7363C143.658 89.6499 143.868 89.64 144.059 89.7089C144.25 89.7778 144.405 89.9198 144.491 90.1037C144.578 90.2876 144.587 90.4982 144.519 90.6894C144.061 91.9458 143.529 93.1735 142.924 94.366V94.4346C142.815 94.5944 142.649 94.7066 142.46 94.7485C142.271 94.7904 142.073 94.7588 141.907 94.6601H141.897ZM135.705 103.847C134.72 104.745 133.681 105.584 132.594 106.357C132.429 106.458 132.232 106.493 132.042 106.454C131.853 106.415 131.685 106.305 131.573 106.147C131.461 105.989 131.413 105.794 131.44 105.601C131.466 105.409 131.564 105.234 131.714 105.112C132.739 104.373 133.719 103.575 134.649 102.719C134.717 102.628 134.804 102.552 134.905 102.499C135.006 102.446 135.118 102.416 135.232 102.412C135.346 102.407 135.459 102.429 135.564 102.474C135.669 102.519 135.762 102.588 135.837 102.674C135.911 102.76 135.966 102.862 135.996 102.972C136.027 103.083 136.032 103.198 136.012 103.311C135.992 103.423 135.947 103.53 135.88 103.623C135.813 103.715 135.727 103.792 135.627 103.847H135.705ZM144.773 87.3755C144.674 87.3535 144.581 87.3122 144.499 87.2538C144.416 87.1955 144.346 87.1213 144.292 87.0355C144.239 86.9498 144.202 86.8542 144.186 86.7544C144.169 86.6546 144.173 86.5524 144.196 86.4539C144.481 85.2128 144.69 83.9555 144.822 82.689C144.828 82.5857 144.854 82.4846 144.9 82.3919C144.946 82.2991 145.01 82.2167 145.089 82.1495C145.167 82.0823 145.258 82.0319 145.357 82.0011C145.456 81.9703 145.559 81.96 145.662 81.9706C145.765 81.9812 145.864 82.0126 145.955 82.0629C146.045 82.1132 146.124 82.1813 146.187 82.2632C146.25 82.345 146.296 82.4388 146.322 82.539C146.348 82.6392 146.354 82.7436 146.338 82.8459C146.199 84.1652 145.98 85.4749 145.683 86.7676C145.661 86.8664 145.62 86.9599 145.561 87.0426C145.503 87.1253 145.429 87.1956 145.344 87.2494C145.258 87.3032 145.163 87.3394 145.063 87.356C144.963 87.3726 144.862 87.3693 144.763 87.3461L144.773 87.3755ZM129.229 108.455C128.055 109.09 126.843 109.653 125.6 110.141C125.415 110.204 125.212 110.192 125.035 110.109C124.858 110.027 124.719 109.879 124.647 109.696C124.576 109.513 124.577 109.31 124.65 109.129C124.724 108.947 124.864 108.8 125.043 108.72C126.225 108.254 127.378 107.717 128.496 107.112C128.672 107.03 128.873 107.018 129.057 107.08C129.242 107.141 129.396 107.271 129.488 107.442C129.58 107.613 129.604 107.814 129.554 108.002C129.504 108.19 129.385 108.352 129.22 108.455H129.229ZM121.805 111.396C120.517 111.729 119.21 111.984 117.892 112.161C117.691 112.188 117.487 112.134 117.326 112.011C117.165 111.888 117.059 111.705 117.031 111.504C117.004 111.302 117.058 111.098 117.181 110.937C117.304 110.775 117.486 110.668 117.687 110.641C118.946 110.471 120.194 110.225 121.423 109.906C121.617 109.861 121.821 109.893 121.992 109.997C122.162 110.1 122.285 110.266 122.335 110.459C122.385 110.653 122.357 110.858 122.258 111.031C122.159 111.204 121.996 111.332 121.805 111.386V111.396ZM113.891 112.445C112.558 112.461 111.225 112.395 109.9 112.249C109.704 112.221 109.526 112.118 109.404 111.961C109.282 111.804 109.226 111.606 109.248 111.408C109.269 111.211 109.367 111.029 109.52 110.903C109.673 110.776 109.869 110.714 110.067 110.729C111.33 110.869 112.601 110.931 113.872 110.916C113.972 110.914 114.071 110.933 114.164 110.97C114.258 111.007 114.342 111.063 114.414 111.133C114.486 111.203 114.543 111.286 114.583 111.379C114.622 111.471 114.643 111.57 114.644 111.671C114.645 111.821 114.601 111.967 114.517 112.092C114.446 112.197 114.349 112.283 114.237 112.341C114.124 112.399 113.998 112.428 113.872 112.426L113.891 112.445Z" fill="#91B3FA"/>
<path opacity="0.3" d="M146.368 79.2408C146.453 79.113 146.497 78.9627 146.495 78.8094C146.495 78.1525 146.495 77.4956 146.397 76.8485C146.39 76.7481 146.362 76.6502 146.317 76.5604C146.271 76.4705 146.209 76.3906 146.132 76.325C146.056 76.2595 145.968 76.2096 145.872 76.1783C145.777 76.147 145.676 76.1349 145.576 76.1426C145.476 76.1504 145.378 76.1778 145.288 76.2234C145.199 76.2689 145.119 76.3317 145.053 76.4082C144.988 76.4847 144.938 76.5733 144.907 76.6691C144.876 76.7648 144.864 76.8658 144.871 76.9662C144.871 77.5741 144.95 78.2015 144.959 78.829C144.964 78.9916 145.02 79.1485 145.119 79.277C145.218 79.4055 145.356 79.499 145.512 79.5438C145.668 79.5886 145.834 79.5825 145.986 79.5262C146.138 79.47 146.269 79.3665 146.358 79.231L146.368 79.2408Z" fill="#91B3FA"/>
</g>
<path d="M136.038 69.0107C136.012 68.9347 135.963 68.8686 135.898 68.8212C135.834 68.7739 135.756 68.7476 135.676 68.7459L130.981 68.6283C129.837 66.7133 128.39 64.9979 126.696 63.5496L127.371 58.8828C127.382 58.8027 127.369 58.7211 127.332 58.6492C127.295 58.5772 127.237 58.5184 127.166 58.4808L122.138 55.8826C122.066 55.8464 121.986 55.8336 121.907 55.8459C121.828 55.8582 121.754 55.895 121.697 55.9513L118.303 59.2063C116.143 58.6643 113.91 58.4789 111.691 58.6573L108.864 54.9022C108.815 54.8375 108.747 54.7896 108.67 54.765C108.593 54.7405 108.51 54.7404 108.433 54.7649L103.063 56.4905C102.986 56.5153 102.919 56.5638 102.872 56.6289C102.825 56.6941 102.799 56.7726 102.799 56.8533L102.711 61.5692C100.8 62.715 99.0885 64.1655 97.6436 65.8635L92.9873 65.187C92.9073 65.1742 92.8254 65.1872 92.7532 65.2242C92.6811 65.2612 92.6227 65.3203 92.5863 65.3929L89.9941 70.4225C89.9593 70.4943 89.9473 70.575 89.9595 70.6538C89.9718 70.7326 90.0077 70.8058 90.0625 70.8637L93.3102 74.2658C92.7694 76.4305 92.5844 78.6691 92.7624 80.8935L89.0159 83.727C88.9502 83.7749 88.9015 83.8426 88.8768 83.9202C88.8522 83.9978 88.8529 84.0812 88.8789 84.1584L90.6005 89.541C90.6266 89.6169 90.6752 89.683 90.74 89.7304C90.8047 89.7777 90.8824 89.804 90.9625 89.8057L95.6676 89.9135C96.8109 91.8286 98.258 93.5439 99.9521 94.9922L99.2772 99.659C99.2644 99.7392 99.2774 99.8214 99.3143 99.8937C99.3513 99.966 99.4102 100.025 99.4826 100.061L104.501 102.649C104.572 102.684 104.653 102.696 104.732 102.684C104.81 102.672 104.883 102.636 104.941 102.581L108.335 99.3257C110.495 99.8677 112.729 100.053 114.948 99.8747L117.765 103.649C117.813 103.715 117.88 103.764 117.958 103.789C118.035 103.813 118.119 103.813 118.196 103.787L123.566 102.061C123.642 102.035 123.708 101.986 123.755 101.921C123.802 101.856 123.828 101.779 123.83 101.698L123.938 96.9825C125.848 95.8366 127.56 94.3861 129.005 92.6882L133.661 93.3647C133.735 93.3643 133.807 93.3429 133.869 93.303C133.932 93.2631 133.982 93.2063 134.013 93.1392L136.595 88.1095C136.632 88.0381 136.644 87.957 136.632 87.8779C136.62 87.7987 136.583 87.7254 136.527 87.6683L133.309 84.3152C133.849 82.1505 134.034 79.9119 133.856 77.6875L137.623 74.8639C137.688 74.8159 137.737 74.7483 137.762 74.6707C137.786 74.5931 137.785 74.5096 137.759 74.4325L136.038 69.0107Z" fill="#91B3FA"/>
<path d="M117.639 83.102C116.654 84.2207 115.275 84.9134 113.792 85.0346C112.309 85.1557 110.836 84.6958 109.684 83.7516C108.532 82.8074 107.79 81.4523 107.614 79.9711C107.438 78.4899 107.841 76.998 108.739 75.8087C109.638 74.6195 110.961 73.8255 112.431 73.5937C113.901 73.3619 115.404 73.7103 116.623 74.5657C117.843 75.4211 118.684 76.7169 118.97 78.1807C119.256 79.6446 118.964 81.1626 118.157 82.4157C118.001 82.6569 117.828 82.8863 117.639 83.102ZM110.498 82.4648C110.916 82.8347 111.404 83.1183 111.932 83.2993C112.46 83.4803 113.018 83.5552 113.575 83.5196C114.132 83.4841 114.677 83.3389 115.177 83.0923C115.678 82.8457 116.126 82.5025 116.494 82.0824C117.162 81.2266 117.478 80.1471 117.378 79.0652C117.277 77.9833 116.767 76.9809 115.953 76.2637C115.139 75.5465 114.081 75.1687 112.998 75.2079C111.914 75.2471 110.887 75.7002 110.126 76.4743C109.987 76.6314 109.86 76.7986 109.745 76.9743C109.202 77.8338 108.983 78.8595 109.128 79.8663C109.274 80.8731 109.773 81.7947 110.537 82.4648H110.498Z" fill="#BDD0FB"/>
<path d="M125.21 87.1612C125.471 86.7559 125.715 86.3344 125.944 85.8964C126.391 85.0232 126.748 84.1067 127.01 83.161V83.0336C127.036 82.9364 127.043 82.8349 127.03 82.735C127.018 82.6351 126.985 82.5387 126.935 82.4513C126.885 82.3639 126.819 82.2872 126.739 82.2256C126.66 82.164 126.569 82.1187 126.472 82.0924C126.375 82.066 126.274 82.059 126.174 82.0718C126.074 82.0846 125.978 82.117 125.891 82.167C125.804 82.2171 125.727 82.2839 125.666 82.3636C125.604 82.4433 125.559 82.5344 125.533 82.6316C125.298 83.5169 124.97 84.3747 124.555 85.1905L124.486 85.3278C123.509 87.2137 122.076 88.8247 120.319 90.0143C119.355 90.6583 118.308 91.1694 117.208 91.5339H117.12C115.517 92.0546 113.827 92.2508 112.148 92.1111C110.468 91.9714 108.834 91.4986 107.338 90.7202C106.946 90.5176 106.564 90.295 106.194 90.0535C104.582 88.9996 103.227 87.5965 102.228 85.9475C101.229 84.2985 100.613 82.4458 100.424 80.5262C100.236 78.6065 100.479 76.6689 101.138 74.8563C101.796 73.0437 102.852 71.4024 104.228 70.0536C105.604 68.7047 107.264 67.6828 109.087 67.0631C110.909 66.4434 112.847 66.2418 114.758 66.4732C116.669 66.7046 118.503 67.3631 120.126 68.4001C121.749 69.437 123.118 70.826 124.134 72.4645C124.241 72.6355 124.411 72.7572 124.607 72.8031C124.803 72.849 125.009 72.8154 125.181 72.7096C125.351 72.6025 125.473 72.4321 125.518 72.2355C125.564 72.039 125.531 71.8324 125.425 71.6605C124.29 69.826 122.757 68.2706 120.942 67.1092C119.126 65.9478 117.073 65.2101 114.934 64.9507C112.796 64.6912 110.627 64.9166 108.587 65.6101C106.547 66.3036 104.689 67.4476 103.149 68.9576C101.61 70.4675 100.428 72.3049 99.6922 74.3339C98.9561 76.3629 98.6843 78.5317 98.8968 80.6801C99.1092 82.8285 99.8005 84.9016 100.92 86.7463C102.039 88.591 103.557 90.1602 105.362 91.3378C105.769 91.6338 106.19 91.9087 106.624 92.1614C109.792 93.7725 113.442 94.1532 116.873 93.2302C120.304 92.3072 123.273 90.1457 125.21 87.1612Z" fill="#BDD0FB"/>
<path d="M293.157 139.085L270.971 161.831L297.588 154.703L293.157 139.085Z" fill="#91B3FA"/>
<path d="M425.194 148.497L299.104 154.635C298.337 154.672 297.57 154.553 296.851 154.284C296.131 154.016 295.473 153.604 294.917 153.073C294.361 152.542 293.918 151.904 293.616 151.196C293.313 150.489 293.157 149.728 293.156 148.958V96.995C293.147 94.2755 294.195 91.6594 296.078 89.701C297.96 87.7427 300.53 86.5961 303.242 86.5044L416.908 82.9846C420.971 82.9846 424.867 84.6022 427.74 87.4816C430.613 90.3609 432.227 94.2662 432.227 98.3382V141.095C432.227 142.998 431.496 144.828 430.187 146.206C428.878 147.584 427.09 148.404 425.194 148.497Z" fill="#91B3FA"/>
<path opacity="0.85" d="M302.88 152.55C300.804 152.55 298.814 151.723 297.346 150.253C295.879 148.782 295.054 146.787 295.054 144.706V97.871C295.075 95.1827 296.151 92.6106 298.049 90.7114C299.948 88.8123 302.516 87.7389 305.198 87.7235L415.226 84.39C419.184 84.3481 422.998 85.8808 425.831 88.6522C428.664 91.4236 430.285 95.2076 430.339 99.175V139.579C430.32 141.469 429.574 143.28 428.257 144.633C426.939 145.986 425.152 146.778 423.267 146.844L303.242 152.54L302.88 152.55ZM415.187 84.8998L305.198 88.2431C302.671 88.2764 300.258 89.3012 298.477 91.0976C296.696 92.894 295.688 95.3187 295.67 97.8514V144.706C295.669 145.688 295.867 146.66 296.251 147.563C296.636 148.467 297.199 149.282 297.906 149.961C298.614 150.64 299.452 151.169 300.369 151.514C301.286 151.86 302.263 152.015 303.242 151.971L423.208 146.275C424.954 146.215 426.61 145.482 427.83 144.229C429.051 142.976 429.743 141.3 429.762 139.549V99.175C429.71 95.3507 428.146 91.7033 425.414 89.034C422.681 86.3648 419.002 84.8919 415.187 84.939V84.8998Z" fill="white"/>
<path d="M414.815 94.418L314.002 98.2025C313.579 98.1696 313.16 98.3041 312.834 98.5771C312.509 98.8502 312.303 99.24 312.261 99.6633V100.556C312.337 100.969 312.57 101.337 312.911 101.581C313.252 101.826 313.675 101.93 314.09 101.869L414.913 98.1829C415.128 98.2072 415.346 98.1883 415.553 98.1273C415.761 98.0662 415.954 97.9641 416.122 97.8271C416.289 97.6901 416.428 97.5209 416.53 97.3295C416.631 97.138 416.693 96.9281 416.713 96.7122V95.7318C416.675 95.5202 416.596 95.3182 416.48 95.1374C416.364 94.9566 416.214 94.8007 416.037 94.6785C415.861 94.5564 415.662 94.4705 415.452 94.4258C415.242 94.381 415.026 94.3784 414.815 94.418Z" fill="url(#paint0_linear_2_1297)"/>
<path d="M405.796 119.994L304.973 123.759C304.543 123.735 304.121 123.88 303.798 124.164C303.474 124.449 303.274 124.849 303.242 125.279V126.2C303.309 126.622 303.538 127 303.88 127.254C304.222 127.509 304.649 127.62 305.071 127.563L405.953 123.887C406.384 123.914 406.808 123.769 407.134 123.485C407.46 123.2 407.661 122.799 407.694 122.367V121.386C407.664 121.169 407.591 120.959 407.479 120.77C407.366 120.581 407.217 120.416 407.04 120.286C406.863 120.156 406.661 120.064 406.448 120.013C406.234 119.963 406.012 119.957 405.796 119.994Z" fill="url(#paint1_linear_2_1297)"/>
<path d="M417.574 130.705L305.198 134.96C304.093 134.96 303.242 135.695 303.242 136.499V137.43C303.242 138.225 304.22 138.842 305.276 138.803L417.691 134.636C418.796 134.636 419.647 133.901 419.647 133.097V132.117C419.579 131.273 418.669 130.665 417.574 130.705Z" fill="url(#paint2_linear_2_1297)"/>
<path d="M359.538 109.494L304.582 111.102C304.044 111.102 303.604 111.857 303.682 112.759L303.731 113.789C303.731 114.671 304.24 115.377 304.778 115.367L359.733 113.867C360.271 113.867 360.711 113.112 360.633 112.21L360.574 111.073C360.545 110.181 360.076 109.485 359.538 109.494Z" fill="url(#paint3_linear_2_1297)"/>
<path d="M420.088 107.592L368.146 109.082C367.637 109.082 367.256 109.837 367.305 110.73L367.353 111.759C367.353 112.641 367.843 113.347 368.332 113.337L420.274 111.955C420.783 111.955 421.164 111.2 421.115 110.308L421.057 109.171C421.037 108.278 420.626 107.582 420.088 107.592Z" fill="url(#paint4_linear_2_1297)"/>
<path d="M101.733 435.264C101.733 435.264 100.696 441.147 100.187 447.029C100.142 447.57 100.206 448.114 100.377 448.629C100.547 449.144 100.819 449.619 101.177 450.026C101.536 450.433 101.972 450.763 102.461 450.996C102.95 451.229 103.481 451.36 104.022 451.382C111.779 451.706 128.369 452.363 134.346 452.069C134.554 452.059 134.757 451.999 134.937 451.895C135.117 451.79 135.27 451.644 135.382 451.468C135.494 451.293 135.562 451.092 135.581 450.885C135.6 450.677 135.569 450.468 135.491 450.274C135.212 449.576 134.676 449.011 133.994 448.696L106.604 436.068L101.733 435.264Z" fill="#3B3F6D"/>
<path d="M100.853 431.794L101.684 438.843C101.684 438.843 106.487 441.079 109.764 438.559L107.808 430.716L100.853 431.794Z" fill="#FDB9A0"/>
<path d="M101.478 299.179C101.116 301.023 99.5218 391.105 109.147 431.469C109.226 431.788 109.189 432.124 109.042 432.418C108.894 432.711 108.647 432.941 108.345 433.068C105.845 434.038 103.199 434.579 100.52 434.666C99.9975 434.683 99.4845 434.525 99.0614 434.218C98.6382 433.911 98.3288 433.472 98.1817 432.97C95.4329 423.606 82.2762 376.673 80.5741 331.848C78.6177 281.757 80.5741 330.142 80.5741 330.142L81.699 299.179H101.478Z" fill="#3B3F6D"/>
<path d="M70.1858 438.33C70.1858 438.33 68.5326 441.272 66.9283 449.223C66.858 449.56 66.8592 449.908 66.9318 450.244C67.0045 450.58 67.1469 450.897 67.3499 451.175C67.5529 451.452 67.8119 451.684 68.11 451.854C68.4082 452.025 68.7388 452.13 69.0804 452.164C71.6433 452.419 75.5854 452.743 78.745 452.723C79.0887 452.725 79.429 452.654 79.7435 452.515C80.0581 452.377 80.34 452.173 80.5707 451.918C80.8015 451.662 80.976 451.361 81.0827 451.034C81.1895 450.706 81.2262 450.36 81.1905 450.017C80.7767 445.843 79.1009 441.896 76.3875 438.703L70.1858 438.33Z" fill="#3B3F6D"/>
<path d="M68.7285 429.266L70.6849 439.934C70.6849 439.934 72.6413 441.375 76.4269 440.326L75.4487 428.845L68.7285 429.266Z" fill="#FDB9A0"/>
<path d="M63.4555 301.975C55.63 349.507 65.1576 419.441 68.3465 433.128C68.4428 433.537 68.6575 433.909 68.9637 434.197C69.27 434.485 69.6542 434.676 70.0682 434.746C72.1094 435.111 74.2055 435.028 76.2113 434.5C76.6033 434.384 76.949 434.147 77.1999 433.824C77.4508 433.5 77.5942 433.106 77.6101 432.696C78.0405 421.627 77.2677 353.683 84.5846 326.81C84.956 325.45 85.7856 324.262 86.9323 323.447L101.146 313.319L102.231 296.955L63.4555 301.975Z" fill="#3B3F6D"/>
<path d="M113.53 211.891C89.9852 211.499 64.0042 218.088 64.0042 218.088C56.9807 259.138 62.7815 306.484 62.7815 306.484C81.0151 311.278 101.577 303.542 101.577 303.542C104.609 286.385 118.744 238.098 118.744 238.098C128.846 236.966 138.628 233.855 147.533 228.941C141.575 222.029 138.729 213.254 137.555 208.019C129.794 210.545 121.69 211.852 113.53 211.891Z" fill="#5653E5"/>
<path d="M183.08 177.135C182.485 176.351 181.651 175.783 180.705 175.517C179.758 175.252 178.751 175.304 177.837 175.665C174.374 190.371 156.199 202.234 137.535 208.019C138.758 213.225 141.565 222.02 147.513 228.941C178.492 211.499 183.08 177.135 183.08 177.135Z" fill="#FDB9A0"/>
<path d="M182.512 177.841C182.756 178.616 179.949 179.802 178.306 176.635C178.247 175.125 177.327 168.645 178.227 167.419C183.03 160.86 192.333 152.634 192.333 152.634C192.77 153.011 193.043 153.543 193.094 154.118C193.145 154.693 192.97 155.265 192.607 155.713L188.097 160.429C189.076 162.135 190.191 163.586 190.729 165.654C191.125 167.233 190.901 168.904 190.103 170.321C189.31 171.753 188.225 173.616 187.168 175.067C186.649 175.85 185.961 176.505 185.155 176.986C184.349 177.466 183.446 177.758 182.512 177.841Z" fill="#FDB9A0"/>
<path d="M186.122 163.49L182.004 166.99L180.712 170.47L184.39 174.519C184.39 174.519 185.623 167.656 186.542 166.117C187.462 164.578 186.983 163.931 186.122 163.49Z" fill="#FDB9A0"/>
<path d="M73.0321 240.946L64.0033 218.092C64.0033 218.092 42.0134 233.073 38.394 252.064C45.0379 252.534 51.5299 254.279 57.5178 257.202C59.1319 248.231 73.0321 240.946 73.0321 240.946Z" fill="#5653E5"/>
<path d="M92.2439 262.445C92.2439 262.445 67.5542 276.436 59.2199 264.484C58.4482 263.452 57.897 262.272 57.6008 261.017C57.3046 259.762 57.2697 258.459 57.4983 257.19C51.5103 254.267 45.0183 252.523 38.3745 252.052C37.1513 258.191 38.1611 264.566 41.2211 270.024C55.8158 296.78 95.5111 268.543 95.5111 268.543L92.2439 262.445Z" fill="#FDB9A0"/>
<path d="M89.2799 280.139L102.711 232.971C102.786 232.71 102.937 232.478 103.144 232.304C103.352 232.129 103.606 232.02 103.875 231.99C106.32 231.706 113.392 230.902 121.56 230.206C131.401 229.373 142.826 228.696 149.654 229.225C149.875 229.246 150.087 229.319 150.273 229.438C150.46 229.558 150.615 229.721 150.725 229.913C150.835 230.105 150.898 230.321 150.907 230.543C150.917 230.765 150.873 230.985 150.779 231.186C146.866 239.03 130.922 271.09 122.92 281.581C122.79 281.753 122.621 281.893 122.428 281.988C122.234 282.084 122.021 282.132 121.805 282.13L90.5026 281.836C90.3053 281.818 90.1139 281.759 89.9416 281.661C89.7692 281.563 89.62 281.429 89.504 281.268C89.3879 281.107 89.3079 280.923 89.2692 280.728C89.2305 280.533 89.2342 280.333 89.2799 280.139Z" fill="#A6ABD1"/>
<path d="M123.009 226.112L132.791 224.484C132.91 224.465 133.031 224.477 133.144 224.518C133.257 224.56 133.358 224.629 133.436 224.721C133.515 224.812 133.569 224.922 133.593 225.041C133.617 225.159 133.61 225.281 133.573 225.396L132.595 228.337C132.554 228.464 132.478 228.576 132.376 228.661C132.274 228.746 132.15 228.8 132.018 228.818L122.617 230.073C122.506 230.086 122.392 230.073 122.287 230.034C122.181 229.994 122.087 229.93 122.011 229.847C121.935 229.763 121.881 229.663 121.852 229.553C121.823 229.444 121.82 229.33 121.845 229.22L122.441 226.651C122.472 226.515 122.543 226.391 122.644 226.295C122.745 226.199 122.872 226.135 123.009 226.112Z" fill="#6D75A0"/>
<path d="M115.692 234.404L116.494 230.198C116.534 229.994 116.638 229.807 116.791 229.666C116.944 229.525 117.138 229.437 117.345 229.414L137.075 227.453C137.229 227.44 137.383 227.463 137.526 227.521C137.669 227.579 137.796 227.67 137.897 227.787C137.998 227.903 138.07 228.042 138.107 228.192C138.145 228.342 138.146 228.498 138.112 228.649L136.86 233.884C136.81 234.088 136.697 234.269 136.537 234.403C136.377 234.538 136.178 234.617 135.97 234.63L116.689 235.61C116.538 235.617 116.387 235.589 116.248 235.528C116.11 235.466 115.987 235.373 115.89 235.257C115.794 235.14 115.725 235.002 115.691 234.854C115.656 234.706 115.656 234.552 115.692 234.404Z" fill="#6D75A0"/>
<path d="M92.538 268.749C92.538 268.749 90.6599 261.013 91.4131 258.268C92.1663 255.523 93.6336 251.993 98.5246 252.777C102.147 253.452 105.711 254.406 109.187 255.63C109.187 255.63 108.893 259.209 105.176 258.052L107.485 259.836C107.485 259.836 107.152 262.699 104.012 261.17L106.155 263.543C105.986 263.856 105.753 264.131 105.471 264.347C105.188 264.563 104.863 264.716 104.516 264.796C104.17 264.876 103.81 264.88 103.462 264.81C103.113 264.739 102.784 264.594 102.496 264.386C100.197 262.866 99.0919 269.68 92.538 268.749Z" fill="#FDB9A0"/>
<path d="M89.6722 192.737L82.1694 214.454C82.0981 214.632 82.0946 214.831 82.1595 215.011C82.2244 215.192 82.3533 215.343 82.5215 215.434C84.566 216.562 91.922 219.837 100.785 214.199C101.242 213.912 101.63 213.528 101.922 213.074C102.215 212.62 102.404 212.107 102.477 211.571L104.903 192.777L89.6722 192.737Z" fill="#FDB9A0"/>
<path d="M105.978 172.626C105.978 172.626 114.205 188.146 113.149 194.421C112.092 200.696 101.899 200.245 92.9977 195.147L86.7764 178.391L105.978 172.626Z" fill="#FDB9A0"/>
<path d="M93.3886 186.912C93.4803 186.876 93.5625 186.819 93.6286 186.746C93.6947 186.673 93.7429 186.585 93.7695 186.49C93.796 186.395 93.8002 186.295 93.7816 186.198C93.763 186.101 93.7222 186.01 93.6625 185.931C92.6381 184.433 91.8649 182.777 91.3735 181.029C91.3735 181.029 89.8964 180.049 95.1395 178.823C100.383 177.598 108.199 175.617 109.813 171.136C111.427 166.656 107.201 155.802 100.49 164.548C100.431 164.62 100.356 164.678 100.271 164.718C100.187 164.757 100.095 164.778 100.001 164.778C99.9078 164.778 99.8156 164.757 99.731 164.718C99.6465 164.678 99.5718 164.62 99.5121 164.548C98.4067 163.107 95.5113 160.126 91.5006 161.94C87.7346 163.636 87.3139 166.391 87.3629 167.823C87.366 167.918 87.3477 168.013 87.3093 168.1C87.2709 168.188 87.2135 168.265 87.1412 168.327C87.0689 168.389 86.9836 168.434 86.8916 168.459C86.7996 168.484 86.7032 168.487 86.6096 168.47C84.7119 168.107 80.1437 167.793 78.0113 172.489C76.2603 176.352 77.395 178.539 78.4319 179.607C78.5091 179.686 78.5646 179.783 78.5931 179.89C78.6216 179.996 78.6221 180.108 78.5945 180.215C78.5669 180.321 78.5122 180.419 78.4357 180.498C78.3592 180.577 78.2635 180.635 78.158 180.666C76.9059 181.049 75.2919 182.108 75.4582 185.049C75.6832 189.108 80.2024 188.745 81.4937 188.569C81.597 188.552 81.7029 188.561 81.8019 188.595C81.9008 188.63 81.9899 188.688 82.061 188.765C83.1664 189.99 88.1454 195.196 93.5353 195.824C93.6429 195.835 93.7514 195.818 93.851 195.776C93.9505 195.734 94.0379 195.667 94.1051 195.582C94.1723 195.497 94.2171 195.397 94.2355 195.29C94.2539 195.183 94.2452 195.073 94.2102 194.971L91.8821 188.245C91.8314 188.094 91.8382 187.929 91.9014 187.782C91.9646 187.636 92.0797 187.518 92.2245 187.451L93.3886 186.912Z" fill="#66475C"/>
<path d="M94.328 187.871C94.328 187.871 88.4588 183.841 88.0382 187.234C87.6176 190.626 93.3107 192.136 96.1377 190.881L94.328 187.871Z" fill="#FDB9A0"/>
</g>
<defs>
<linearGradient id="paint0_linear_2_1297" x1="312.261" y1="98.1436" x2="416.693" y2="98.1436" gradientUnits="userSpaceOnUse">
<stop stop-color="#DAE3FE"/>
<stop offset="1" stop-color="#E9EFFD"/>
</linearGradient>
<linearGradient id="paint1_linear_2_1297" x1="32683.4" y1="1080.41" x2="43834.7" y2="1080.41" gradientUnits="userSpaceOnUse">
<stop stop-color="#DAE3FE"/>
<stop offset="1" stop-color="#E9EFFD"/>
</linearGradient>
<linearGradient id="paint2_linear_2_1297" x1="36389" y1="1244.16" x2="50242.5" y2="1244.16" gradientUnits="userSpaceOnUse">
<stop stop-color="#DAE3FE"/>
<stop offset="1" stop-color="#E9EFFD"/>
</linearGradient>
<linearGradient id="paint3_linear_2_1297" x1="17989.6" y1="782.952" x2="21306.9" y2="782.952" gradientUnits="userSpaceOnUse">
<stop stop-color="#DAE3FE"/>
<stop offset="1" stop-color="#E9EFFD"/>
</linearGradient>
<linearGradient id="paint4_linear_2_1297" x1="20575.9" y1="754.943" x2="23538.1" y2="754.943" gradientUnits="userSpaceOnUse">
<stop stop-color="#DAE3FE"/>
<stop offset="1" stop-color="#E9EFFD"/>
</linearGradient>
<clipPath id="clip0_2_1297">
<rect width="446" height="454" fill="white"/>
</clipPath>
</defs>
</svg>
